<svg xmlns="http://www.w3.org/2000/svg" viewBox="673 4351 48 48">
  <defs>
    <style>
      .cls-1, .cls-2 {
        fill: #fff;
      }

      .cls-1 {
        fill-rule: evenodd;
      }
    </style>
  </defs>
  <g id="Group_15" data-name="Group 15" transform="translate(673 4351)">
    <path id="Path_7" data-name="Path 7" class="cls-1" d="M24,0A24,24,0,1,0,48,24,24,24,0,0,0,24,0ZM18.723,11.277c1.365-.062,1.8-.077,5.278-.077h0c3.477,0,3.912.015,5.277.077a9.424,9.424,0,0,1,3.109.595,6.549,6.549,0,0,1,3.744,3.744,9.482,9.482,0,0,1,.595,3.107c.061,1.365.077,1.8.077,5.278s-.016,3.912-.077,5.277a9.487,9.487,0,0,1-.595,3.107,6.559,6.559,0,0,1-3.743,3.745,9.409,9.409,0,0,1-3.108.595c-1.365.062-1.8.077-5.277.077s-3.912-.015-5.277-.077a9.4,9.4,0,0,1-3.107-.595,6.551,6.551,0,0,1-3.743-3.745,9.407,9.407,0,0,1-.595-3.107c-.062-1.365-.077-1.8-.077-5.277s.016-3.913.077-5.278a9.351,9.351,0,0,1,.595-3.107,6.548,6.548,0,0,1,3.745-3.743A9.394,9.394,0,0,1,18.723,11.277Z"/>
    <path id="Path_8" data-name="Path 8" class="cls-1" d="M22.853,13.507H24c3.418,0,3.823.012,5.172.074a7.087,7.087,0,0,1,2.377.441,4.242,4.242,0,0,1,2.429,2.429,7.073,7.073,0,0,1,.441,2.376c.061,1.349.075,1.755.075,5.171s-.013,3.821-.075,5.171a7.08,7.08,0,0,1-.441,2.376,4.245,4.245,0,0,1-2.429,2.428,7.059,7.059,0,0,1-2.377.441c-1.349.061-1.755.075-5.172.075s-3.823-.013-5.172-.075a7.1,7.1,0,0,1-2.377-.441,4.241,4.241,0,0,1-2.43-2.429,7.072,7.072,0,0,1-.441-2.376c-.061-1.349-.074-1.755-.074-5.173s.012-3.821.074-5.171a7.087,7.087,0,0,1,.441-2.376,4.242,4.242,0,0,1,2.43-2.43,7.072,7.072,0,0,1,2.377-.441c1.181-.053,1.639-.069,4.024-.072Zm7.981,2.125a1.536,1.536,0,1,0,1.536,1.536,1.536,1.536,0,0,0-1.536-1.536ZM17.428,24A6.573,6.573,0,1,1,24,30.572,6.574,6.574,0,0,1,17.428,24Z"/>
    <path id="Path_9" data-name="Path 9" class="cls-2" d="M24,19.733A4.267,4.267,0,1,1,19.735,24,4.267,4.267,0,0,1,24,19.733Z"/>
  </g>
</svg>
