<svg xmlns="http://www.w3.org/2000/svg" viewBox="468 4349 48 48">
  <defs>
    <style>
      .cls-1 {
        fill: #fff;
        fill-rule: evenodd;
      }
    </style>
  </defs>
  <g id="Group_13" data-name="Group 13" transform="translate(468 4349)">
    <path id="Path_3" data-name="Path 3" class="cls-1" d="M24,0A24,24,0,1,0,48,24,24,24,0,0,0,24,0ZM34.338,18.67H27.558V16.728h6.779Zm-.6,1.63a6.731,6.731,0,0,0-2.751-.542,5.692,5.692,0,0,0-4.183,1.6,6.209,6.209,0,0,0-1.611,4.6q0,3.2,1.787,4.62A6.418,6.418,0,0,0,31.1,32a5.729,5.729,0,0,0,4.4-1.682,3.778,3.778,0,0,0,1.133-2.086H33.513a2.515,2.515,0,0,1-.631.794,2.617,2.617,0,0,1-1.7.529,3.136,3.136,0,0,1-1.687-.435,2.759,2.759,0,0,1-1.225-2.434H36.8a14.656,14.656,0,0,0-.1-2.291,5.575,5.575,0,0,0-.935-2.386A4.708,4.708,0,0,0,33.74,20.3ZM18.845,16q2.894.042,4.1,1.663a3.935,3.935,0,0,1,.726,2.382,3.444,3.444,0,0,1-.732,2.3,3.791,3.791,0,0,1-1.207.888A3.546,3.546,0,0,1,23.56,24.61a4.093,4.093,0,0,1,.616,2.287,4.507,4.507,0,0,1-.706,2.489,4.338,4.338,0,0,1-1.12,1.228,4.387,4.387,0,0,1-1.787.784,11.12,11.12,0,0,1-2.235.209H11.2V16Z"/>
    <path id="Path_4" data-name="Path 4" class="cls-1" d="M14.353,18.71H17.8a6.067,6.067,0,0,1,1.871.244,1.4,1.4,0,0,1,.849,1.443,1.469,1.469,0,0,1-.643,1.369,3.22,3.22,0,0,1-1.674.388H14.353Zm14.811,4.2a2.448,2.448,0,0,1,1.826-.659,2.716,2.716,0,0,1,1.817.621,2.52,2.52,0,0,1,.814,1.825H28.348A3.122,3.122,0,0,1,29.164,22.908ZM18.249,24.736h-3.9V28.9h3.841a3.793,3.793,0,0,0,1.6-.275,1.962,1.962,0,0,0,1.04-1.948A1.673,1.673,0,0,0,19.831,25,4.044,4.044,0,0,0,18.249,24.736Z"/>
  </g>
</svg>
