<svg xmlns="http://www.w3.org/2000/svg" xmlns:xlink="http://www.w3.org/1999/xlink" viewBox="685.676 1408 70.327 56.521">
  <defs>
    <style>
      .cls-1 {
        fill: none;
      }

      .cls-2 {
        clip-path: url(#clip-path);
      }

      .cls-3 {
        fill: url(#linear-gradient);
      }

      .cls-4 {
        clip-path: url(#clip-path-2);
      }

      .cls-5 {
        fill: url(#linear-gradient-2);
      }

      .cls-6 {
        clip-path: url(#clip-path-3);
      }

      .cls-7 {
        fill: url(#linear-gradient-3);
      }
    </style>
    <clipPath id="clip-path">
      <path id="Path_204" data-name="Path 204" class="cls-1" d="M2.313-64.217c-1.8,0-2.29.495-2.286,2.273h0c0,1.337-.081,2.682.033,4.009h0c.053.6.343,1.48.784,1.693h0c.974.466.914,1.18.914,1.972h0q0,14.623-.006,29.247h0c0,.7-.068,1.392-.1,2.054h0a1.97,1.97,0,0,0-1.62,2.138h0c0,.7,0,1.407,0,2.112h0A1.9,1.9,0,0,0,2.17-16.606h5.11q6.736,0,13.472.011h0a4.755,4.755,0,0,1,1.138.283h0c-.223.238-.449.473-.669.713h0c-.046.05-.072.117-.114.173h0a44.212,44.212,0,0,1-3.753,4.967h0c-.891.907-.667,1.678-.664,2.765h0a5.99,5.99,0,0,0,2.229-.265h0c.574-.333.87-1.136,1.307-1.717h0q.949-1.261,1.93-2.5h0c.486-.609,1.019-1.18,1.494-1.8h0c.42-.548.736-1.186,1.2-1.693h0c.344-.378.836-.856,1.28-.874h0c2.283-.1,4.573-.078,6.861-.055h0c.749.007,1.215.318,1.16,1.234h0c-.08,1.3-.02,2.6-.02,3.906h0v3.621c1.938.275,2.028.207,2.032-1.467h0c.005-2.042.031-4.084-.018-6.124h0c-.019-.838.372-1.171,1.112-1.174h0c2.287-.009,4.575.01,6.862.029h0a.878.878,0,0,1,.575.157h0a9.225,9.225,0,0,1,1.647,1.892h0A9.5,9.5,0,0,0,49.1-11.112h0a2.888,2.888,0,0,1,.864,1.242h0c.78,1.969,1.373,2.338,3.507,2.024h0c.642-1.55-.436-2.413-1.193-3.391h0a12,12,0,0,0-.777-.936h0c-.448-.473-1.142-.847-1.333-1.4h0A4.97,4.97,0,0,0,48.477-15.8h0a.908.908,0,0,1,.239-.742h0a3.484,3.484,0,0,1,1.147-.062h0c6.124,0,12.249-.044,18.372.042h0a1.948,1.948,0,0,0,1.9-1.346h0a10.477,10.477,0,0,0,.054-3.664h0a1.588,1.588,0,0,0-.9-1.134h0c-.971-.261-.912-1-.914-1.636h0q-.034-15.1.016-30.2h0a2.021,2.021,0,0,1,.621-1.438h0a2.589,2.589,0,0,0,1.255-2.374h0c-.065-1.157-.017-2.323-.015-3.484h0c0-1.826-.536-2.376-2.368-2.376h0q-20.787,0-41.57,0h-24m.295,4.329c0-.421,0-.841,0-1.467h0a21.745,21.745,0,0,1,2.228-.235h0q30.4-.017,60.81-.011h0a1.293,1.293,0,0,1,.42,0h0c.491.184,1.4.46,1.385.586h0c-.112.745.463,1.516-.408,2.3h0a2.435,2.435,0,0,1-1.91.623h0q-30.352.007-60.7.006h0a1.8,1.8,0,0,1-1.82-1.8m1.866,34.65q0-14.307,0-28.616h0c0-1.432.113-1.556,1.536-1.556h0q11.774,0,23.548.008h0c2.745,0,5.491,0,8.236.012h0a5.247,5.247,0,0,1,1.357.143h0c.114.03.226.631.158.673h0a22.991,22.991,0,0,0-4.4,4.148h0a15.3,15.3,0,0,0-2.254,2.2h0c-.379.626-.174,1.6-.231,2.432h0c1.441.518,1.89-.6,2.605-1.121h0a10.239,10.239,0,0,0,1.287-1.362h0c.479-.51.951-1.03,1.455-1.512h0a.891.891,0,0,1,.6-.238h0c.123.008.334.272.332.419h0c-.022,1.759-.077,3.518-.124,5.276h0c-1.3.709-.3,2.45-1.524,3.318h0c-.454.324-.533,1.267-.9,1.918h0a6.222,6.222,0,0,1-1.781,2.326h0c-.449.314-.654.962-1.014,1.425h0a2.916,2.916,0,0,1-.964.981h0c-1.171.491-1.739,1.8-3.132,2.059h0c-.758.142-1.4.9-2.1,1.38h0c-.085.059-.166.151-.259.164h0a6.533,6.533,0,0,0-1.928.781h0a18.4,18.4,0,0,1-3.872,1.062h0a4.284,4.284,0,0,1-1,.073h0a2.139,2.139,0,0,0-1.992.726h0c-.081.108-.337.094-.579.079h0c-.084,0-.166-.01-.239-.01h0c-1.9,0-3.8,0-5.527,0h0c-.428.408-.74.672-1.005.977h0a1.1,1.1,0,0,0-.192.521h0c.625.325.645,1.333,1.7,1.248h0c1.961-.158,3.939-.094,5.907-.182h0c.41-.018.8-.334,1.216-.431h0c.676-.159,1.37-.237,2.05-.376h0a3.427,3.427,0,0,1,.746-.038h0a1.523,1.523,0,0,0,1.614-.676h0c.086-.15.528-.092.805-.13h0c.627-.088,1.373.132,1.694-.725h0c.039-.1.386-.079.584-.135h0c.472-.134,1.209.207,1.267-.7h0c0-.055.236-.126.366-.14h0c1.519-.161,2.538-1.311,3.78-2h0c.833-.459,1.354-1.466,2.063-2.181h0c.665-.67,1.428-1.243,2.08-1.923h0c.5-.52.776-1.441,1.349-1.655h0c1.093-.408.385-1.907,1.529-2.122h0c.026-.005.051-.052.062-.084h0c.327-1.076.635-2.157.986-3.226h0c.13-.4.387-.753.534-1.146h0a3.946,3.946,0,0,0,.277-1.1h0c.117-1.852.2-3.707.3-5.514h0c1.268-.661,1.639.589,2.278,1.038h0c.776.546,1.182,1.655,1.981,2.119h0a2.624,2.624,0,0,0,2.229-.165h0c.5-.291.065-.93-.364-1.46h0a15.571,15.571,0,0,0-2.687-2.706h0a18.58,18.58,0,0,1-1.967-2.3h0a16.973,16.973,0,0,0-1.447-1.171h0c-.16-.136-.368-.377-.341-.526h0c.033-.166.294-.343.49-.408h0a2.389,2.389,0,0,1,.734-.036h0q10.93-.011,21.858-.007h0a10.9,10.9,0,0,1,1.564.239h0v29.991c0,1.47-.141,1.615-1.613,1.615h0l-21.644,0h0l-36.431,0h0c-1.556,0-1.65-.094-1.65-1.681m59.873,4.952a18.694,18.694,0,0,0,2.236-.295h0l.264,1.133h0a6.031,6.031,0,0,1-1.17.231h0q-30.567.016-61.134,0h0a6.441,6.441,0,0,1-1.18-.219h0c.1-.412.2-.823.268-1.131h0a12.35,12.35,0,0,0,1.766.284h0q19.166.021,38.33.011h8.632q5.994,0,11.989-.014" transform="translate(0 64.217)"/>
    </clipPath>
    <linearGradient id="linear-gradient" x1="0.031" y1="0.46" x2="0.961" y2="0.46" gradientUnits="objectBoundingBox">
      <stop offset="0" stop-color="#ffde81"/>
      <stop offset="0.1" stop-color="#ffd36f"/>
      <stop offset="0.2" stop-color="#ffc85e"/>
      <stop offset="0.3" stop-color="#ffbe4d"/>
      <stop offset="0.4" stop-color="#ffb43c"/>
      <stop offset="0.5" stop-color="#ffaa2d"/>
      <stop offset="0.6" stop-color="#ffa52f"/>
      <stop offset="0.7" stop-color="#fda131"/>
      <stop offset="0.8" stop-color="#f69c33"/>
      <stop offset="0.9" stop-color="#f09835"/>
      <stop offset="1" stop-color="#e99437"/>
    </linearGradient>
    <clipPath id="clip-path-2">
      <path id="Path_206" data-name="Path 206" class="cls-1" d="M52.561-37.052c-.507.014-1.039-.07-1.406.615h0a2.83,2.83,0,0,1-1.475,1.011h0c-.57.214-.956.461-1.064,1.081h0a.966.966,0,0,1-.266.554h0A4.338,4.338,0,0,0,46.987-31h0a19.438,19.438,0,0,0-.031,3.782h0a1.769,1.769,0,0,0,.231.766h0c.471.85.949,1.7,1.469,2.517h0a4.293,4.293,0,0,0,.775.816h0a4.914,4.914,0,0,0,.874.7h0c.807.449,1.35,1.37,2.489,1.242h0a14.131,14.131,0,0,1,2.21.087h0v-.089h0a10.655,10.655,0,0,0,2.312-.034h0A9.247,9.247,0,0,0,60-22.262h0a8.811,8.811,0,0,0,1.719-1.667h0a5.025,5.025,0,0,0,.9-1.183h0a12.116,12.116,0,0,0,.77-2.109h0c.577-2.158-.165-4.161-.808-6.168h0c-.024-.076-.161-.113-.235-.18h0a18.745,18.745,0,0,1-2.144-2.008h0a3.385,3.385,0,0,0-2.706-1.5h0c-.689-.006-1.379-.011-2.068-.011h0c-.958,0-1.914.01-2.871.036m.319,13.079a3.351,3.351,0,0,1-1.623-1.046h0a14.12,14.12,0,0,1-1.418-1.715h0a1.01,1.01,0,0,1-.23-.552h0a26.793,26.793,0,0,1,.04-3.789h0a3.7,3.7,0,0,1,1.035-1.655h0a14.094,14.094,0,0,1,1.579-1.456h0a.943.943,0,0,1,.548-.227h0a32.794,32.794,0,0,1,4.624.05h0c.643.083,1.132,1.063,1.806,1.292h0c1.211.406.479,1.886,1.546,2.377h0c.467.214-.015,2.817-.341,3.3h0a6.018,6.018,0,0,0-.524,1.546h0c-.541.444-1.132.944-1.738,1.421h0c-.248.2-.526.487-.8.494h0c-.8.024-1.6.054-2.4.054h0a20.645,20.645,0,0,1-2.1-.094" transform="translate(-46.873 37.088)"/>
    </clipPath>
    <linearGradient id="linear-gradient-2" x1="0.031" y1="0.43" x2="0.961" y2="0.43" xlink:href="#linear-gradient"/>
    <clipPath id="clip-path-3">
      <path id="Path_208" data-name="Path 208" class="cls-1" d="M13.894-49.86c.148.884-.606,1.967.766,2.676h0c.524.271.8.991,1.24,1.464h0c.446.483.948.915,1.428,1.368h0c.563.532,1.129,1.064,1.853,1.744h0c-.015.283.162.995-.107,1.274h0c-1.256,1.3-2.645,2.467-3.964,3.7h0c-.412.386-.961.792-1.085,1.281h0a8.446,8.446,0,0,0-.079,2.4h0c.026.589.466.655.775.286h0c.548-.654,1.454-.623,2.023-1.437h0a19.812,19.812,0,0,1,3.144-2.876h0c.361-.329.621-.767.958-1.124h0c.185-.2.465-.492.653-.459h0a2.278,2.278,0,0,1,1.1.518h0c.745.684,1.416,1.45,2.137,2.163h0c.45.444.951.834,1.4,1.28h0c.7.692,1.352,1.426,2.064,2.1h0c.093.089.448-.026.635-.13h0a.969.969,0,0,0,.476-.486h0c.144-.579.5-1.387.247-1.731h0a19.575,19.575,0,0,0-2.573-2.69h0c-1.054-.99-2.169-1.917-3.233-2.9h0a.6.6,0,0,1-.057-.571h0a6.374,6.374,0,0,1,.826-1h0q1.314-1.345,2.655-2.662h0a12.46,12.46,0,0,1,1.087-.944h0c.856-.657,1.753-1.277,1.442-2.586h0a8.456,8.456,0,0,1-.089-.848h0a7.252,7.252,0,0,1-.731.016h0a2.3,2.3,0,0,0-1.291.206h0A21.823,21.823,0,0,0,24.619-47.2h0c-.972.98-1.838,2.066-2.8,3.055h0a.867.867,0,0,1-.831-.1h0c-.7-.736-1.294-1.569-1.989-2.308h0A19.763,19.763,0,0,0,16.529-48.9h0c-.557-.415-1.033-1.18-1.837-1.18h0a1.7,1.7,0,0,0-.8.224" transform="translate(-13.818 50.084)"/>
    </clipPath>
    <linearGradient id="linear-gradient-3" x1="0.031" y1="0.539" x2="0.961" y2="0.539" xlink:href="#linear-gradient"/>
  </defs>
  <g id="Group_331" data-name="Group 331" transform="translate(685.676 1408)">
    <g id="Group_207" data-name="Group 207" class="cls-2" transform="translate(0 0)">
      <g id="Group_206" data-name="Group 206" transform="translate(-27.561 -34.294)">
        <path id="Path_203" data-name="Path 203" class="cls-3" d="M0,43.888,54.953,0,90.225,44.165,35.272,88.053Z" transform="matrix(0.781, 0.624, -0.624, 0.781, 54.95, 0)"/>
      </g>
    </g>
    <g id="Group_209" data-name="Group 209" class="cls-4" transform="translate(41.255 23.878)">
      <g id="Group_208" data-name="Group 208" transform="translate(-68.817 -58.172)">
        <path id="Path_205" data-name="Path 205" class="cls-5" d="M0,43.888,54.953,0,90.225,44.165,35.272,88.053Z" transform="matrix(0.781, 0.624, -0.624, 0.781, 54.95, 0)"/>
      </g>
    </g>
    <g id="Group_211" data-name="Group 211" class="cls-6" transform="translate(12.161 12.439)">
      <g id="Group_210" data-name="Group 210" transform="translate(-39.723 -46.733)">
        <path id="Path_207" data-name="Path 207" class="cls-7" d="M0,43.888,54.953,0,90.225,44.165,35.272,88.053Z" transform="matrix(0.781, 0.624, -0.624, 0.781, 54.95, 0)"/>
      </g>
    </g>
  </g>
</svg>
