<svg xmlns="http://www.w3.org/2000/svg" xmlns:xlink="http://www.w3.org/1999/xlink" viewBox="-1049 26 147.001 61.967">
  <defs>
    <style>
      .cls-1 {
        fill: none;
      }

      .cls-2 {
        clip-path: url(#clip-path);
      }

      .cls-3 {
        fill: #fff;
      }
    </style>
    <clipPath id="clip-path">
      <path id="Path_359" data-name="Path 359" class="cls-1" d="M0-111.289H147v61.967H0Z" transform="translate(0 111.289)"/>
    </clipPath>
  </defs>
  <g id="logo-white" transform="translate(-1049 26)">
    <g id="Group_365" data-name="Group 365" class="cls-2">
      <g id="Group_356" data-name="Group 356" transform="translate(24.058 17.766)">
        <path id="Path_350" data-name="Path 350" class="cls-3" d="M-12-7.239a3.232,3.232,0,0,0-.936,1.021q-.337.595-.679,1.275-1.189,1.616-2.464,3.57T-18.5,2.24Q-19.65,3.9-20.585,5t-1.446,1.105q-.427-.424.3-2.508a47.658,47.658,0,0,1,2-4.76q1.275-2.677,2.805-5.27a22.983,22.983,0,0,1,2.8-3.952q1.188-1.02,1.615-1.02,1.021,0,.51,4.164M6.03-14.217a7.65,7.65,0,0,0-.69-.851c-.49-.509-.692-.7-.692-.7-.477.786-.954,1.593-1.433,2.448q-1.02,1.827-2,3.57T-.653-6.516C-1.247-5.524-2.348-3.774-2.4-3.71q-.934,1.232-2.04,2.634t-2.21,2.593a26.129,26.129,0,0,1-2.04,2,2.671,2.671,0,0,1-1.446.808.737.737,0,0,1-.509-.254,5.2,5.2,0,0,1,.34-2.721c.112-.509.256-1.1.425-1.785a18.794,18.794,0,0,1,.638-2.041A10.835,10.835,0,0,1-8.3-4.391a5.947,5.947,0,0,1,1.148-1.4q.51-.34.509-.51c0-.114-.141-.311-.425-.6A3.406,3.406,0,0,0-9.705-8.343a3.321,3.321,0,0,0-1.106.255,17.3,17.3,0,0,0,.6-3.782,4.582,4.582,0,0,0-1.359-3.442,4.691,4.691,0,0,0-.937-.723,2.331,2.331,0,0,0-1.19-.3,5.179,5.179,0,0,0-3.145,1.53,17.6,17.6,0,0,0-2.806,3.017,43.913,43.913,0,0,0-2.976,4.463,48.113,48.113,0,0,0-2.591,5.1,24.615,24.615,0,0,0-1.616,4.973,9.885,9.885,0,0,0-.042,4.166A3.588,3.588,0,0,0-24.75,9.507c.282.114.509.212.679.3a1.523,1.523,0,0,0,.68.129.565.565,0,0,0,.254-.043.616.616,0,0,1,.256-.042A7.008,7.008,0,0,0-21.054,8.4a21.381,21.381,0,0,0,2-2.466q1.02-1.443,2.081-3.1t2-3.187s0,.008,0,.012c.168-.312.316-.593.346-.668.079-.192.148-.076.148-.076l-.493,1.37a.536.536,0,0,1-.133.263,21.361,21.361,0,0,0-.165,3.221,4.185,4.185,0,0,0,1.317,3.1,2.6,2.6,0,0,0,1.87.85A5.953,5.953,0,0,0-8.346,5.937a30.735,30.735,0,0,0,2.711-2.71C-3.2-.032-1.546-2.809-1.546-2.809L.09-5.245Z" transform="translate(27.079 16.333)"/>
      </g>
      <g id="Group_357" data-name="Group 357" transform="translate(63.134 20.826)">
        <path id="Path_351" data-name="Path 351" class="cls-3" d="M-11.715-7.172a22.823,22.823,0,0,1-2.04,4.335A41.631,41.631,0,0,1-16.474,1.2,19.4,19.4,0,0,1-19.28,4.218a4.022,4.022,0,0,1-2.251,1.191q-.937,0-1.022-1.191A4.809,4.809,0,0,1-22.425,2.6,13.4,13.4,0,0,1-21.872.776q.338-.893.636-1.658a6.118,6.118,0,0,1,.468-1.02q.424-.849.892-1.913t1.022-2.168c.219-.441.44-.863.661-1.275.131-.212.986-1.586,2.027-3.022l.073-.08a1.026,1.026,0,0,0,.154-.229c1.29-1.743,2.793-3.454,3.551-3.172a3.383,3.383,0,0,1,1.31,2.679,10.674,10.674,0,0,1-.638,3.91m-.212-8.67a3.275,3.275,0,0,0-1.615-.34,5.624,5.624,0,0,0-3.271,1.1,11.336,11.336,0,0,0-2.594,2.466,2.383,2.383,0,0,0-1.488.425,4.568,4.568,0,0,0-1.062,1.275A30.591,30.591,0,0,0-23.7-7.894a26.071,26.071,0,0,0-1.532,3.655,27.525,27.525,0,0,0-.976,3.782,12.206,12.206,0,0,0-.17,3.485,5.6,5.6,0,0,0,1.4,3.4,4.3,4.3,0,0,0,3.357,1.359A6.889,6.889,0,0,0-17.538,6.3a19.694,19.694,0,0,0,3.825-3.74,25.666,25.666,0,0,0,3.1-5.058,19.342,19.342,0,0,0,1.7-5.4,11.031,11.031,0,0,0-.254-4.76,4.986,4.986,0,0,0-2.764-3.187" transform="translate(26.434 16.182)"/>
      </g>
      <g id="Group_358" data-name="Group 358" transform="translate(80.901 20.826)">
        <path id="Path_352" data-name="Path 352" class="cls-3" d="M-11.715-7.172a22.857,22.857,0,0,1-2.04,4.335A41.631,41.631,0,0,1-16.474,1.2,19.452,19.452,0,0,1-19.28,4.218a4.022,4.022,0,0,1-2.252,1.191q-.937,0-1.022-1.191A4.792,4.792,0,0,1-22.426,2.6,13.485,13.485,0,0,1-21.872.776q.337-.893.635-1.658a6.153,6.153,0,0,1,.468-1.02q.423-.849.892-1.913t1.022-2.168c.214-.43.43-.842.645-1.245h0s.923-1.507,2.062-3.077l.052-.056a1.07,1.07,0,0,0,.148-.216c1.288-1.743,2.792-3.458,3.555-3.187a3.386,3.386,0,0,1,1.312,2.68,10.686,10.686,0,0,1-.638,3.91m2.552-5.483a4.987,4.987,0,0,0-2.764-3.187,3.277,3.277,0,0,0-1.615-.34,5.627,5.627,0,0,0-3.272,1.1,11.344,11.344,0,0,0-2.593,2.466,2.385,2.385,0,0,0-1.488.425,4.577,4.577,0,0,0-1.062,1.275A30.591,30.591,0,0,0-23.7-7.894a26.071,26.071,0,0,0-1.532,3.655,27.449,27.449,0,0,0-.976,3.782,12.2,12.2,0,0,0-.17,3.485,5.593,5.593,0,0,0,1.4,3.4,4.3,4.3,0,0,0,3.357,1.359A6.891,6.891,0,0,0-17.539,6.3a19.694,19.694,0,0,0,3.825-3.74A25.666,25.666,0,0,0-10.61-2.5a19.34,19.34,0,0,0,1.7-5.4,11.031,11.031,0,0,0-.253-4.76" transform="translate(26.434 16.182)"/>
      </g>
      <g id="Group_359" data-name="Group 359" transform="translate(98.421 20.231)">
        <path id="Path_353" data-name="Path 353" class="cls-3" d="M-12.283-6.9a3.627,3.627,0,0,1-.17.595Q-13.645-4.691-15.3-2.694t-3.188,3.74q-1.53,1.744-2.719,2.933t-1.616,1.19q-.255-.255.042-1.53a22.892,22.892,0,0,1,1.02-3.1q.722-1.827,1.743-3.91T-17.936-7.2a18.251,18.251,0,0,1,2.125-2.89,2.861,2.861,0,0,1,1.827-1.148.816.816,0,0,1,.594.255,3.2,3.2,0,0,1,.852,1.53A7.307,7.307,0,0,1-12.283-6.9m9.094-5.185a.539.539,0,0,0,.044-.68,3.679,3.679,0,0,0-.68-.893,3.658,3.658,0,0,0-1.189-.765,4.1,4.1,0,0,0-1.574-.3,2.7,2.7,0,0,0-1.956.595,5.733,5.733,0,0,0-1.1,1.786,10.51,10.51,0,0,0-.51.977q-.254.555-.51,1.148a8.157,8.157,0,0,0-1.445-3.656,3.6,3.6,0,0,0-3.06-1.7,5.805,5.805,0,0,0-4.082,2.125,26.983,26.983,0,0,0-3.739,5.015,44.326,44.326,0,0,0-2.889,5.823,30.537,30.537,0,0,0-1.53,4.463,12.549,12.549,0,0,0-.3,3.187,4.78,4.78,0,0,0,.978,2.933,2.5,2.5,0,0,0,2.123,1.02,2.307,2.307,0,0,0,.468-.043,3.739,3.739,0,0,0,.468-.127,6.336,6.336,0,0,0,1.616-1.233q1.02-.976,2.251-2.337t2.55-2.974c.675-.827,1.3-1.634,1.888-2.428L-14.825-1s.835-1.52.913-1.712.148-.075.148-.075L-15.183.023c-.007.017-.013.034-.02.051,0,.06-.008.076-.025.065-.663,1.674-1.324,3.385-1.985,5.158Q-18.4,8.484-19.38,11.5T-21,17.155a24.1,24.1,0,0,0-.722,4.505,11.686,11.686,0,0,0,.084,1.275,5.431,5.431,0,0,0,.382,1.488,4.17,4.17,0,0,0,.766,1.232,1.589,1.589,0,0,0,1.231.51,37.077,37.077,0,0,1,1.234-6.077q.977-3.528,2.422-7.438t3.188-7.863Q-10.67.834-8.968-2.524t3.23-5.908a23.731,23.731,0,0,1,2.55-3.654" transform="translate(27.716 15.572)"/>
      </g>
      <g id="Group_360" data-name="Group 360" transform="translate(118.834 17.766)">
        <path id="Path_354" data-name="Path 354" class="cls-3" d="M-12-7.239a3.238,3.238,0,0,0-.936,1.021q-.337.595-.679,1.275-1.189,1.616-2.464,3.57T-18.5,2.24Q-19.649,3.9-20.585,5t-1.446,1.105q-.427-.424.3-2.508a47.658,47.658,0,0,1,2-4.76q1.275-2.677,2.806-5.27a22.954,22.954,0,0,1,2.8-3.952q1.188-1.02,1.616-1.02,1.02,0,.509,4.164M.665-6.77A1.778,1.778,0,0,0-.1-6.9q-.086.172-.722,1.064T-2.4-3.71q-.934,1.232-2.04,2.634T-6.645,1.517a26.227,26.227,0,0,1-2.04,2,2.674,2.674,0,0,1-1.446.808.738.738,0,0,1-.51-.254,5.2,5.2,0,0,1,.34-2.721c.112-.509.256-1.1.426-1.785a18.551,18.551,0,0,1,.638-2.041A10.833,10.833,0,0,1-8.3-4.391a5.947,5.947,0,0,1,1.148-1.4q.51-.34.51-.51c0-.114-.141-.311-.426-.6A3.405,3.405,0,0,0-9.705-8.343a3.327,3.327,0,0,0-1.106.255,17.266,17.266,0,0,0,.6-3.782,4.58,4.58,0,0,0-1.359-3.442,4.688,4.688,0,0,0-.936-.723,2.332,2.332,0,0,0-1.19-.3,5.179,5.179,0,0,0-3.145,1.53,17.622,17.622,0,0,0-2.806,3.017,44.006,44.006,0,0,0-2.976,4.463,48.113,48.113,0,0,0-2.591,5.1,24.611,24.611,0,0,0-1.616,4.973,9.866,9.866,0,0,0-.042,4.166A3.586,3.586,0,0,0-24.75,9.507c.282.114.51.212.679.3a1.524,1.524,0,0,0,.68.129.564.564,0,0,0,.254-.043.616.616,0,0,1,.256-.042A7.008,7.008,0,0,0-21.054,8.4a21.381,21.381,0,0,0,2-2.466q1.021-1.443,2.081-3.1c.3-.467.587-.922.871-1.373l-.125.114L-15.671.7s.835-1.52.914-1.712.148-.076.148-.076L-15.062.171a21.05,21.05,0,0,0-.213,3.6,4.186,4.186,0,0,0,1.318,3.1,2.6,2.6,0,0,0,1.87.85A5.952,5.952,0,0,0-8.345,5.937,32.093,32.093,0,0,0-4.436,1.815q1.871-2.338,3.4-4.59T1.089-5.962Q.92-6.643.665-6.77" transform="translate(27.078 16.333)"/>
      </g>
      <g id="Group_361" data-name="Group 361" transform="translate(49.753 6.45)">
        <path id="Path_355" data-name="Path 355" class="cls-3" d="M-6.5-27.985A35.719,35.719,0,0,1-9.1-25.265c-.763.709-1.346,1.034-1.742.978A28.872,28.872,0,0,1-9.222-28.58q1.1-2.424,2.337-4.845t2.294-4.549a27.868,27.868,0,0,0,1.487-3.4,16.423,16.423,0,0,0,.85-2.593,11.851,11.851,0,0,0,.34-2.806,6.658,6.658,0,0,0-.552-2.677c-.055-.126-.128-.242-.194-.362a.379.379,0,0,0-.019-.062C-3-50.564-6.5-54.463-6.5-54.463a2.266,2.266,0,0,1-.51-1.658,5.241,5.241,0,0,1,.424-1.658,4.19,4.19,0,0,1,.85-1.275c.34-.34.6-.509.766-.509q.68,0,0,1.869a10.632,10.632,0,0,1-.68,1.7c-.12.239-.24.464-.36.683l.187.183c.094.119.235.288.449.525a2.716,2.716,0,0,0,.758.657l.148-.234-.014-.014a31.021,31.021,0,0,0,1.808-3.841,4.623,4.623,0,0,0,.17-1.4,6.041,6.041,0,0,0-.256-1.743,4.341,4.341,0,0,0-.722-1.445,1.3,1.3,0,0,0-1.234-.51,4.448,4.448,0,0,0-2.633,1.191,7.264,7.264,0,0,0-1.956,2.719,7.142,7.142,0,0,0-.51,3.486,5.614,5.614,0,0,0,1.786,3.485l1.474,1.573a4.3,4.3,0,0,1,.565.892A3.469,3.469,0,0,1-5.95-47.2,23.384,23.384,0,0,1-7.4-43.5q-.976,2.041-2.252,4.378t-2.424,4.632a43.271,43.271,0,0,0-1.912,4.377,9.436,9.436,0,0,0-.68,3.7,8.8,8.8,0,0,0,.17,1.658,5.457,5.457,0,0,0,.6,1.657,4.225,4.225,0,0,0,1.062,1.276,2.432,2.432,0,0,0,1.571.51,2.826,2.826,0,0,0,.68-.17A9.3,9.3,0,0,0-7.99-23.565q1.487-1.574,3.1-3.57c.779-.962,1.547-1.974,2.311-3.011l.424-.567a18.517,18.517,0,0,1,.485-3.645c-.6.839-1.213,1.7-1.858,2.591Q-5.059-29.642-6.5-27.985" transform="translate(14.672 63.144)"/>
      </g>
      <g id="Group_362" data-name="Group 362" transform="translate(0 0)">
        <path id="Path_356" data-name="Path 356" class="cls-3" d="M-9.438-15.76l.428-.832a25.133,25.133,0,0,1-7.531-4.192c-.016-.015-.026-.027-.041-.042-1.033-.857-1.212-1.7-.513-2.536a10.408,10.408,0,0,1,4.079-2.508,48.931,48.931,0,0,1,7.353-2.168q4.377-.976,9.138-1.7t9.393-1.148q4.631-.423,8.033-.425a26.524,26.524,0,0,1,4.761.34q1.785.341,1.614,1.1c0,.285.086.425.256.425.055,0,.141-.055.254-.17a2.938,2.938,0,0,0-.68-3.868,10.325,10.325,0,0,0-5.439-1.913q-.682-.084-1.615-.128c-.625-.027-1.331-.042-2.126-.042q-2.891,0-6.8.3t-8.161.892q-4.25.6-8.414,1.488a57.965,57.965,0,0,0-7.567,2.124,24.406,24.406,0,0,0-5.651,2.806,5.593,5.593,0,0,0-2.594,3.527,3.98,3.98,0,0,0,.467,2.466,6.569,6.569,0,0,0,1.48,1.825A32.44,32.44,0,0,0-9.438-15.76" transform="translate(21.296 35.56)"/>
      </g>
      <g id="Group_363" data-name="Group 363" transform="translate(2.856 9.351)">
        <path id="Path_357" data-name="Path 357" class="cls-3" d="M-17.883-13.6a2.745,2.745,0,0,0,.51-1.4,2.118,2.118,0,0,0-.007-.285h0c-.247-1.762-4.855-3.157-7.265-3.823l-.534.821c1.533.583,3.836,1.541,4.3,2.207h0c.231.185.268.375.107.569a3.826,3.826,0,0,1-1.742.893q-1.361.428-3.4.893t-4.25.892q.765-1.357,1.572-2.678t1.652-2.669l.884-1.4h0l.775-1.051h.011c.311-.464.623-.929.942-1.389l.079-.124,0,0q2.747-3.947,5.9-7.7a3.724,3.724,0,0,0-2.3-.85,3.736,3.736,0,0,0-1.786.509,6.579,6.579,0,0,0-1.956,1.87l-.084.17q-2.3,3.061-4.932,7.141c-.008,0-1.02,1.7-1.02,1.7q-2.039,3.317-4.079,7.311-1.447.256-2.549.467a14.266,14.266,0,0,0-1.616.383,2.154,2.154,0,0,0-1.616,1.7,2.7,2.7,0,0,0,.426,2.211,3.161,3.161,0,0,1,1.1-.3c.455-.068,1.006-.146,1.642-.232l4.649-.831q1.785-.337,3.74-.722t3.784-.893q1.828-.509,3.357-1.1a18.278,18.278,0,0,0,2.55-1.19A3.844,3.844,0,0,0-17.883-13.6" transform="translate(40.351 30.684)"/>
      </g>
      <g id="Group_364" data-name="Group 364" transform="translate(1.957 32.687)">
        <path id="Path_358" data-name="Path 358" class="cls-3" d="M-2.932-1.288C-3.413-.18-3.868.923-4.287,2.02A44.531,44.531,0,0,0-5.9,7.078c-.115.453-.243.963-.383,1.53a11.62,11.62,0,0,0-.3,1.7,6.4,6.4,0,0,0,.042,1.658,3.253,3.253,0,0,0,.552,1.4c.112.112.241.241.384.382s.267.183.382.128a1.748,1.748,0,0,0,.468-.935c.139-.51.241-.907.3-1.19A83.136,83.136,0,0,1-1.481,3.719Q-.087.475,1.485-2.741l.068-.166c-2.811.547-4.174.785-4.174.785Z" transform="translate(6.615 2.907)"/>
      </g>
    </g>
  </g>
</svg>
