<svg xmlns="http://www.w3.org/2000/svg" xmlns:xlink="http://www.w3.org/1999/xlink" viewBox="-1686 17.773 51.872 49.16">
  <defs>
    <style>
      .cls-1 {
        fill: none;
      }

      .cls-2 {
        clip-path: url(#clip-path);
      }

      .cls-3 {
        fill: #fff;
      }
    </style>
    <clipPath id="clip-path">
      <path id="Path_1691" data-name="Path 1691" class="cls-1" d="M0-88.891H51.872v49.16H0Z" transform="translate(0 88.891)"/>
    </clipPath>
  </defs>
  <g id="logo-short-white" transform="translate(-1686 17.773)">
    <g id="Group_1823" data-name="Group 1823" class="cls-2">
      <g id="Group_1819" data-name="Group 1819" transform="translate(23.895 17.646)">
        <path id="Path_1687" data-name="Path 1687" class="cls-3" d="M-12.1-7.3a3.216,3.216,0,0,0-.93,1.014q-.335.591-.675,1.266-1.181,1.605-2.447,3.546t-2.407,3.588Q-19.7,3.76-20.629,4.858t-1.436,1.1q-.424-.421.3-2.491a47.335,47.335,0,0,1,1.984-4.728Q-18.519-3.922-17-6.5a22.8,22.8,0,0,1,2.785-3.925q1.18-1.013,1.6-1.013,1.013,0,.506,4.136m12.58.465a1.766,1.766,0,0,0-.761-.128Q-.369-6.792-1-5.907T-2.564-3.8Q-3.491-2.572-4.59-1.179T-6.784,1.4A26.05,26.05,0,0,1-8.81,3.38a2.656,2.656,0,0,1-1.436.8.733.733,0,0,1-.507-.253,5.162,5.162,0,0,1,.338-2.7c.112-.506.254-1.1.423-1.772a18.425,18.425,0,0,1,.634-2.027,10.76,10.76,0,0,1,.927-1.9,5.907,5.907,0,0,1,1.14-1.392q.507-.338.507-.507c0-.113-.14-.309-.423-.592A3.382,3.382,0,0,0-9.823-8.4a3.3,3.3,0,0,0-1.1.253,17.149,17.149,0,0,0,.592-3.757,4.549,4.549,0,0,0-1.35-3.419,4.656,4.656,0,0,0-.93-.718,2.317,2.317,0,0,0-1.182-.295,5.144,5.144,0,0,0-3.124,1.519,17.5,17.5,0,0,0-2.787,3,43.708,43.708,0,0,0-2.955,4.433,47.787,47.787,0,0,0-2.574,5.065,24.445,24.445,0,0,0-1.6,4.939,9.8,9.8,0,0,0-.041,4.137,3.562,3.562,0,0,0,2.111,2.575c.28.113.507.211.675.295a1.514,1.514,0,0,0,.675.128.56.56,0,0,0,.252-.043.611.611,0,0,1,.254-.041,6.961,6.961,0,0,0,1.815-1.435A21.236,21.236,0,0,0-19.11,5.786Q-18.1,4.353-17.043,2.7c.3-.463.583-.915.865-1.364l-.124.113.553-.867s.83-1.509.908-1.7.147-.075.147-.075L-15.143.059a20.907,20.907,0,0,0-.211,3.575,4.157,4.157,0,0,0,1.309,3.081,2.58,2.58,0,0,0,1.857.844A5.912,5.912,0,0,0-8.472,5.786,31.876,31.876,0,0,0-4.59,1.692Q-2.731-.63-1.211-2.867T.9-6.033q-.168-.676-.421-.8" transform="translate(27.078 16.333)"/>
      </g>
      <g id="Group_1820" data-name="Group 1820" transform="translate(0 0)">
        <path id="Path_1688" data-name="Path 1688" class="cls-3" d="M-38.853-1.672a10.255,10.255,0,0,0-5.4-1.9q-.677-.084-1.6-.127c-.621-.027-1.322-.041-2.111-.041q-2.871,0-6.753.3t-8.105.885q-4.222.592-8.357,1.478A57.681,57.681,0,0,0-78.7,1.029a24.241,24.241,0,0,0-5.612,2.787,5.555,5.555,0,0,0-2.576,3.5,3.95,3.95,0,0,0,.465,2.449,6.522,6.522,0,0,0,1.469,1.812,32.225,32.225,0,0,0,9.808,4.345l.425-.827a24.975,24.975,0,0,1-7.48-4.163c-.016-.015-.026-.027-.041-.041-1.025-.852-1.2-1.691-.509-2.519A10.331,10.331,0,0,1-78.7,5.884a48.6,48.6,0,0,1,7.3-2.153q4.349-.97,9.077-1.688T-52.994.9q4.6-.421,7.978-.422a26.4,26.4,0,0,1,4.729.337q1.773.339,1.6,1.1c0,.283.086.421.254.421.055,0,.14-.054.252-.168a2.917,2.917,0,0,0-.675-3.841" transform="translate(86.927 3.74)"/>
      </g>
      <g id="Group_1821" data-name="Group 1821" transform="translate(2.837 9.287)">
        <path id="Path_1689" data-name="Path 1689" class="cls-3" d="M-18.44-12.36c-.245-1.75-4.823-3.135-7.216-3.8l-.53.816c1.523.579,3.81,1.531,4.271,2.192h0c.23.183.265.372.106.565a3.8,3.8,0,0,1-1.73.887q-1.351.425-3.378.887t-4.221.885q.76-1.348,1.561-2.659t1.641-2.651l.878-1.387h0l.77-1.044h.011c.309-.461.618-.922.935-1.38l.079-.123,0,0q2.728-3.92,5.859-7.643a3.7,3.7,0,0,0-2.28-.844,3.706,3.706,0,0,0-1.774.507A6.52,6.52,0,0,0-25.4-25.289l-.083.169q-2.28,3.04-4.9,7.092c-.008,0-1.013,1.688-1.013,1.688q-2.025,3.293-4.052,7.261-1.437.253-2.532.463a14.216,14.216,0,0,0-1.605.38,2.141,2.141,0,0,0-1.6,1.688,2.674,2.674,0,0,0,.423,2.2,3.148,3.148,0,0,1,1.1-.3c.452-.068,1-.144,1.63-.231l4.618-.825h0q1.773-.335,3.714-.717t3.758-.887q1.815-.507,3.334-1.1A18.12,18.12,0,0,0-20.08-9.585a3.811,3.811,0,0,0,1.14-1.1,2.731,2.731,0,0,0,.507-1.392,2.2,2.2,0,0,0-.007-.284Z" transform="translate(41.255 27.653)"/>
      </g>
      <g id="Group_1822" data-name="Group 1822" transform="translate(1.944 32.466)">
        <path id="Path_1690" data-name="Path 1690" class="cls-3" d="M-2.957-1.3C-3.435-.2-3.886.9-4.3,1.986A44.23,44.23,0,0,0-5.9,7.01c-.114.45-.242.957-.38,1.519a11.541,11.541,0,0,0-.3,1.688,6.36,6.36,0,0,0,.042,1.646,3.231,3.231,0,0,0,.548,1.393c.112.112.239.239.382.379s.265.182.379.127a1.736,1.736,0,0,0,.465-.929c.138-.507.239-.9.294-1.182A82.572,82.572,0,0,1-1.516,3.674Q-.131.452,1.43-2.742L1.5-2.907c-2.792.544-4.146.779-4.146.779Z" transform="translate(6.615 2.907)"/>
      </g>
    </g>
  </g>
</svg>
