<svg xmlns="http://www.w3.org/2000/svg" xmlns:xlink="http://www.w3.org/1999/xlink" viewBox="-453 -51 1281.184 770.606">
  <defs>
    <style>
      .cls-1 {
        fill: none;
      }

      .cls-2 {
        fill: #2c2c2c;
      }

      .cls-3 {
        clip-path: url(#clip-path);
      }

      .cls-4 {
        fill: #393939;
      }

      .cls-5 {
        fill: #333;
      }

      .cls-6 {
        fill: #3e3e3e;
      }

      .cls-7 {
        fill: #2e2e2e;
      }

      .cls-8 {
        fill: #484848;
      }
    </style>
    <clipPath id="clip-path">
      <path id="Path_117" data-name="Path 117" class="cls-1" d="M108.586-76.136H1389.77V-846.742H108.586Z" transform="translate(0 931.074)"/>
    </clipPath>
  </defs>
  <g id="Group_118" data-name="Group 118" transform="translate(-561.586 -135.332)">
    <path id="Path_38" data-name="Path 38" class="cls-2" d="M108.586-76.136H1389.77V-846.742H108.586Z" transform="translate(0 931.074)"/>
    <g id="Group_117" data-name="Group 117" class="cls-3">
      <g id="Group_39" data-name="Group 39">
        <path id="Path_39" data-name="Path 39" class="cls-4" d="M0,0S385.312-253.454,578.523-263.622,1365.675,90.557,1365.675,90.557v192.6H0Z" transform="translate(65.73 604.606)"/>
      </g>
      <g id="Group_40" data-name="Group 40">
        <path id="Path_40" data-name="Path 40" class="cls-5" d="M0,0S-83.839,51.061-31.44,86.485s222.7,45.443,213.962,114.665S671.3,403.053,787.151,354.18C787.151,354.18,193.209-10.167,0,0" transform="translate(644.254 340.983)"/>
      </g>
      <g id="Group_41" data-name="Group 41">
        <path id="Path_41" data-name="Path 41" class="cls-6" d="M0,0C5.454-4.592,11.208-9.118,14.838-15.422,24.82-32.758,8.432-41.571,2.048-55.1c-5.466-11.579-.737-26.208,7.689-35.675,9.154-10.285,23.644-20.08,20.811-33.839-.939-4.558-3.784-8.369-5.558-12.634-5.428-13.049-.694-23.434,7.755-30.448a33.4,33.4,0,0,1,45.626,2.459c7.645,7.881,11.234,18.715,4.435,31.1-2.223,4.051-5.46,7.531-6.883,11.963-4.295,13.375,9.056,24.671,17.052,35.88,7.36,10.32,10.49,25.371,3.812,36.3-7.8,12.761-25.044,19.762-16.982,38.071C82.735-5.263,87.969-.144,92.9,5.008,109.89,22.77,108.609,47.9,86.506,61.4c-13.083,7.992-28.74,9.112-43.772,10.04C27.888,68.9,12.442,66.107.294,56.757-20.23,40.959-18.8,15.833,0,0" transform="translate(405.452 487.256)"/>
      </g>
      <g id="Group_42" data-name="Group 42">
        <path id="Path_42" data-name="Path 42" class="cls-5" d="M0,0C-1.3,19.7-2.832,39.4-5.033,59.061q-.357,3.132-.738,6.265a52.887,52.887,0,0,0,16.63-.5c12.762-2.58,21.084-10.049,24.738-22.2a1.323,1.323,0,1,1,2.534.763C31.008,67.077,8.454,68.857-2.318,68.276c-1.52-.082-2.805-.212-3.779-.332-.86,6.863-1.832,13.721-3.014,20.566-.853,4.9-1.815,9.788-3.028,14.665-.605,2.438-1.278,4.873-2.1,7.3a40.287,40.287,0,0,1-3.112,7.275c0,.008-.016.028-.019.036a2.647,2.647,0,0,1-3.627.926,2.643,2.643,0,0,1-.926-3.626l.01-.019a35.192,35.192,0,0,0,2.759-6.279c.79-2.232,1.463-4.547,2.077-6.887,1.229-4.68,2.238-9.461,3.139-14.266,1.791-9.623,3.19-19.357,4.42-29.112,1.358-10.839,2.51-21.715,3.536-32.607a31.442,31.442,0,0,1-3.376,0,24.61,24.61,0,0,1-13.548-4.6c-4.988-3.775-7.916-9.651-8.708-17.464A1.327,1.327,0,0,1-30.43,2.4a1.33,1.33,0,0,1,1.451,1.184c.712,7.042,3.289,12.294,7.655,15.608,5.444,4.134,12.4,4.255,15.595,4.046q1.083-11.745,2-23.51,1.546-19.7,2.739-39.44c-4.451-.36-28.3-3.371-28.956-26.421a1.32,1.32,0,0,1,1.286-1.359A1.323,1.323,0,0,1-27.3-66.2c.272,9.523,4.855,16.429,13.619,20.523A39.157,39.157,0,0,0-.825-42.343Q-.309-50.81.16-59.279q1.35-24.67,2.32-49.36H2.469c-.143-.007-14.348-.928-17.565-14.215a1.321,1.321,0,0,1,.976-1.6,1.326,1.326,0,0,1,1.6.975c2.71,11.2,14.312,12.143,15.1,12.193.09-2.361.187-4.725.271-7.088v0a1.088,1.088,0,0,1,1.113-1.052,1.089,1.089,0,0,1,1.067,1.114Q4.579-97.849,3.82-77.4a1.3,1.3,0,0,1,.589.153,13.285,13.285,0,0,0,9.362.838c3.549-1.1,6.52-3.93,8.828-8.425a1.321,1.321,0,0,1,1.782-.573,1.325,1.325,0,0,1,.572,1.782c-2.646,5.151-6.144,8.43-10.4,9.744a14.513,14.513,0,0,1-5.085.612,16.716,16.716,0,0,1-5.746-1.373q-.285,7.753-.608,15.507" transform="translate(455.069 476.219)"/>
      </g>
      <g id="Group_43" data-name="Group 43">
        <path id="Path_43" data-name="Path 43" class="cls-7" d="M0,0S651.124-60.348,706.843-81.122c60.3-22.485-268.866-46.712-710.138-38.567Z" transform="translate(3.295 185.962)"/>
      </g>
      <g id="Group_44" data-name="Group 44">
        <path id="Path_44" data-name="Path 44" class="cls-8" d="M0,0C-1.978,14.925-10.1,29.221-3.78,42.927c9.245,20.038,36.76,23.688,50.528,40.78,21.8,27.069,12.125,63.84-1.3,92.338-3,6.367-6.3,12.921-6.3,19.959.011,11.69,8.891,21.163,16.515,30.023,17.809,20.7,32.054,47.439,27.408,74.345-4.108,23.8-22.813,43.321-44.831,53.253s-46.961,11.443-71.057,9.731c-36.648-2.606-76.827-15.455-93.826-48.03-12.145-23.275-8.81-53.735,8.084-73.831,6.22-7.4,14.131-13.571,18.533-22.177,18.194-35.582-34.464-78.217-17.166-114.241,8.56-17.825,31.247-25.191,40.454-42.692C-69.854,49.313-72,33.416-75.69,19.107c-5.075-19.688-8.843-56.774,9-71.96C-37.474-77.712,3.824-28.851,0,0" transform="translate(196.073 199.458)"/>
      </g>
      <g id="Group_45" data-name="Group 45">
        <path id="Path_45" data-name="Path 45" class="cls-4" d="M0,0A1.75,1.75,0,0,0-2.294.927C-14.436,29.559-51.313,33.992-64.327,34.655q-.2-13.77-.652-27.525c-.607-17.171-1.477-34.317-2.506-51.453q-1.906-30.506-4.545-60.941c6.172-.821,45.412-7.514,53.523-45.121a1.747,1.747,0,0,0-1.342-2.077,1.756,1.756,0,0,0-2.079,1.338c-7.575,35.133-44.385,41.555-50.4,42.372q-1.653-19.094-3.508-38.164-5.049-51.2-11.63-102.226a.882.882,0,0,0-.969-.756.876.876,0,0,0-.768.971q3.809,34.941,6.783,69.978c-.037,0-.07-.01-.108,0-.186.028-18.64,2.737-36.577-12.211a1.752,1.752,0,0,0-2.466.224,1.75,1.75,0,0,0,.223,2.464c13.895,11.579,27.928,13.255,34.889,13.255a32.02,32.02,0,0,0,4.343-.257q1.232,14.453,2.358,28.909c2.633,34.159,4.75,68.353,6.155,102.561q.515,13.242.881,26.486c-9.421,1.269-36.648,3.071-55.694-14.5a1.75,1.75,0,0,0-2.473.1,1.75,1.75,0,0,0,.1,2.473C-116.215-16-97.625-13.178-84.57-13.178a88.749,88.749,0,0,0,11.934-.795Q-72.363-3.335-72.2,7.3c.191,17.1.138,34.192-.313,51.254-.515,17.055-1.444,34.089-3.227,50.957l-.675,6.324-.871,6.278-.881,6.276-1.13,6.2a166.239,166.239,0,0,1-6.1,24.092l-.1.307c-.006.024-.015.047-.022.071a5.25,5.25,0,0,0,3.486,6.558,5.249,5.249,0,0,0,6.558-3.484,175.956,175.956,0,0,0,5.99-25.827l1.034-6.471.771-6.476.758-6.471.551-6.472c1.453-17.258,2.02-34.5,2.175-51.711.036-6.846-.007-13.687-.091-20.526a112.073,112.073,0,0,0,24.141-3.8C-19.8,28.764-5.592,17.668.927,2.293A1.748,1.748,0,0,0,0,0" transform="translate(244.135 469.15)"/>
      </g>
      <g id="Group_46" data-name="Group 46">
        <path id="Path_46" data-name="Path 46" class="cls-4" d="M0,0C-6.628-15.347-18.623-28.859-20.327-45.491-22.022-62.07-13.083-77.646-9-93.8a85.307,85.307,0,0,0-9.627-64.315A82.248,82.248,0,0,0-30.151-172.95a57.907,57.907,0,0,0-82.385,0,82.349,82.349,0,0,0-11.526,14.831A85.316,85.316,0,0,0-133.687-93.8c4.083,16.158,13.022,31.734,11.326,48.313-1.7,16.632-13.7,30.144-20.326,45.491A74.645,74.645,0,0,0-135.5,70.966a74.651,74.651,0,0,0,64.152,31.189A74.651,74.651,0,0,0-7.192,70.966,74.645,74.645,0,0,0,0,0" transform="translate(395.516 433.155)"/>
      </g>
      <g id="Group_47" data-name="Group 47">
        <path id="Path_47" data-name="Path 47" class="cls-5" d="M0,0A1.049,1.049,0,0,0-1.449.324C-15.833,23.012-40.628,22.238-47.673,21.511q.017-14.332-.283-28.655c-.511-24.15-1.57-48.277-3-72.374,7.113-1.484,39.231-9.7,43.033-37.457a1.047,1.047,0,0,0-.9-1.182,1.062,1.062,0,0,0-1.181.9c-3.57,26.042-33.74,34.052-41.074,35.62-.043-.7-.076-1.4-.119-2.1q-2.346-38.251-5.949-76.41a1.06,1.06,0,0,0-1.143-.945,1.053,1.053,0,0,0-.95,1.145q1.634,19.508,2.885,39.06c-6.666-1.03-33.777-6.315-42.878-25.1a1.054,1.054,0,0,0-1.4-.488,1.053,1.053,0,0,0-.488,1.4c9.882,20.393,38.709,25.469,44.9,26.336Q-55.1-101.16-54.238-83.57q1.3,26.685,1.914,53.386A50.077,50.077,0,0,1-95.163-48.755a1.046,1.046,0,0,0-1.478-.147,1.048,1.048,0,0,0-.147,1.476,52.123,52.123,0,0,0,40.837,19.49c1.5,0,2.733-.066,3.68-.145q.222,10.5.328,21c.165,22.685-.131,45.377-1.393,67.985-9.318.847-45.416,1.848-59.071-31.452a1.054,1.054,0,0,0-1.369-.574,1.051,1.051,0,0,0-.575,1.371c11.921,29.074,40.208,33.026,54.7,33.026,2.551,0,4.661-.125,6.192-.252-.124,2.091-.241,4.184-.381,6.274-.91,12.681-2.139,25.336-4.109,37.831-2.02,12.439-4.641,24.937-9.583,36.142l-.061.132c0,.007,0,.014-.007.023a2.936,2.936,0,0,0,1.552,3.853,2.938,2.938,0,0,0,3.854-1.552c5.224-12.277,7.659-25.056,9.587-37.782C-50.762,95.19-49.682,82.4-48.922,69.6c.835-15.332,1.192-30.662,1.237-45.986,1.3.129,3.091.249,5.264.249,10.724,0,30.4-2.933,42.745-22.417A1.046,1.046,0,0,0,0,0" transform="translate(382.362 442.711)"/>
      </g>
      <g id="Group_48" data-name="Group 48">
        <path id="Path_48" data-name="Path 48" class="cls-7" d="M0,0S-531.3,10.172-637.287,28.888s162.568,42.513,207.307,48-306.756-.623-369.8,25.631c-68.231,28.414,304.217,59.033,803.506,48.739Z" transform="translate(1453.325 84.091)"/>
      </g>
      <g id="Group_49" data-name="Group 49">
        <path id="Path_49" data-name="Path 49" class="cls-8" d="M0,0C25.273-10.19,58.285,1.521,68.652,26.722,74.113,40,73.779,56.034,81.211,68.389c8.437,14.026,24.619,24.487,35.8,36.259A92.145,92.145,0,0,1,142.17,178.49c-3.244,30.395-31.123,52.365-31.3,82.451-.119,20.28,20.673,31.815,30.189,47.613,38.581,64.053-59.548,121.354-111.5,128.778C-26,445.272-118.975,412.3-104.109,341.654c5.16-24.524,28.21-40.957,32.463-65.759,5.61-32.724-27.722-49.285-36.035-77.2-17.907-60.173,46.2-76.026,61.777-120.89C-35.475,47.758-34.818,14.042,0,0" transform="translate(1329.317 161.171)"/>
      </g>
      <g id="Group_50" data-name="Group 50">
        <path id="Path_50" data-name="Path 50" class="cls-4" d="M0,0A1.663,1.663,0,0,0-2.148.96c-13.895,36.278-61.9,42.465-77.029,43.514C-80.991,20.609-82.1-3.35-82.847-27.314c-.99-32.925-1.192-65.9-.913-98.868.172.007.594.017,1.259.017,9.456,0,65.374-2.276,75.577-55.137a1.666,1.666,0,0,0-1.319-1.95,1.664,1.664,0,0,0-1.95,1.319c-4.415,22.883-18.06,38.656-40.552,46.88A95.194,95.194,0,0,1-83.7-129.511c-.012,0-.022.007-.033.007.033-3.532.044-7.062.088-10.594q.322-24.07.987-48.142a1.631,1.631,0,0,0,.541-1.314,1.614,1.614,0,0,0-.483-1.022q.862-31.174,2.348-62.33a.839.839,0,0,0-.769-.878.834.834,0,0,0-.892.769Q-84.2-222.041-85.8-191.026c-8.583.2-43.672-.391-49.4-23.394a1.663,1.663,0,0,0-2.019-1.213,1.665,1.665,0,0,0-1.214,2.017c2.994,12.023,13.5,20.3,30.377,23.939a97.244,97.244,0,0,0,19.894,2.02c.839,0,1.565-.01,2.191-.027q-1.226,23.73-2.151,47.475Q-89.826-94.62-90.1-48.958c-14.149-3.151-54.489-14.99-59.521-48.239a1.664,1.664,0,0,0-1.9-1.4,1.664,1.664,0,0,0-1.395,1.9c5.42,35.821,48.711,48.084,62.807,51.148-.018,6.121-.053,12.243-.021,18.368C-89.9,7.07-88.96,41.357-86.236,75.631c-16.864-2.709-68.747-14.05-80.059-52.151a1.663,1.663,0,0,0-2.07-1.122,1.662,1.662,0,0,0-1.124,2.07c5.866,19.754,23.031,35.578,49.646,45.76a170,170,0,0,0,33.89,8.866c.192,2.31.368,4.623.576,6.936a539.781,539.781,0,0,0,7.844,56.483,231.43,231.43,0,0,0,7.31,28.012c3.171,9.239,6.953,18.521,13.524,27.079.037.048.092.119.132.165a6.446,6.446,0,0,0,9.075.89,6.447,6.447,0,0,0,.888-9.075l-.1-.117a61.607,61.607,0,0,1-6.781-10.671,115.73,115.73,0,0,1-5.238-12.3,220.222,220.222,0,0,1-7.585-26.4,529.8,529.8,0,0,1-9.043-55.109C-76.771,72.6-77.931,60.205-78.909,47.79-63.137,46.676-13.6,40.155.959,2.15A1.665,1.665,0,0,0,0,0" transform="translate(1429.769 481.121)"/>
      </g>
      <g id="Group_51" data-name="Group 51">
        <path id="Path_51" data-name="Path 51" class="cls-5" d="M0,0C-2.836,15.831-9.1,30.188-26.025,35.305c-6.766,2.043-14.131,2.043-20.567,4.966C-57.23,45.1-63.086,57.172-63.843,68.834c-1.266,19.568,9.829,37.424,7.344,57.174-3.161,25.129-27.116,43.151-32.941,67.8-5.041,21.323,4.651,43.758,18.809,60.483a122.945,122.945,0,0,0,91.779,42.891c34,.2,74.6-18.155,95.156-45.584,33-44.039-21.516-74.475-6.956-119.05,9.757-29.88,29.665-52.053-.617-76.567C88.568,39.659,63.014,35.722,58.891,5.537c-3.034-22.217-.237-46.893-19.423-62.52C14.72-77.14,6.155-56.867,3.44-33.2,2.3-23.249,2.018-11.253,0,0" transform="translate(1133.835 310.451)"/>
      </g>
      <g id="Group_52" data-name="Group 52">
        <path id="Path_52" data-name="Path 52" class="cls-2" d="M0,0C-2.51,0-65.959-.554-75.093-46.111a1.568,1.568,0,0,1,1.229-1.847,1.567,1.567,0,0,1,1.845,1.229C-63.381-3.644-2.335-3.136-.023-3.136H.055A1.7,1.7,0,0,1,.241-3.1C.779-21.959,1.753-40.791,2.943-59.6c.073-1.123.156-2.246.231-3.369a1.539,1.539,0,0,1-.356-1.3,1.54,1.54,0,0,1,.5-.828Q5.38-96.12,8.193-127.068c-.059-.007-.12-.007-.182-.02a128.936,128.936,0,0,1-26.591-9.094c-18.336-8.63-30.105-20.2-34.032-33.453a1.57,1.57,0,0,1,1.058-1.948,1.571,1.571,0,0,1,1.95,1.057c8.673,29.281,55.2,39.716,58.082,40.332.3-3.3.587-6.606.9-9.909q3.785-40.194,8.494-80.29a.787.787,0,0,1,.863-.685.783.783,0,0,1,.694.865q-2.688,25.668-4.913,51.393c.058.005.114-.01.172,0,.442.094,44.532,9.006,58.069-10.98a1.568,1.568,0,0,1,2.178-.421,1.568,1.568,0,0,1,.419,2.177c-6.226,9.191-18.5,14.042-36.466,14.416q-1.111.022-2.2.023a123.612,123.612,0,0,1-22.444-2.105q-1.122,12.918-2.164,25.841Q9.111-102.508,7.1-65.094C17.015-63.6,54.864-59.65,72.816-82.616a1.568,1.568,0,0,1,2.2-.271,1.57,1.57,0,0,1,.271,2.2c-9.07,11.6-24.3,18.435-44.04,19.753-2.529.168-4.974.241-7.294.241A116.621,116.621,0,0,1,6.928-61.938c-.044.852-.1,1.7-.139,2.553C5.474-32.541,4.577-5.67,4.8,21.156c.016,1.594.05,3.187.075,4.78,13.231.437,64.925-.722,79.983-44.267a1.568,1.568,0,0,1,1.994-.97,1.567,1.567,0,0,1,.97,1.993C73.177,25.044,25.858,29.121,8.2,29.121c-1.256,0-2.341-.021-3.274-.05.2,10.766.628,21.519,1.513,32.2.559,6.646,1.291,13.27,2.391,19.781C9.981,87.513,11.4,94.042,14,99.625l.049.1c0,.011.009.022.014.034a3.068,3.068,0,1,1-5.608,2.489C5.475,95.553,4.186,88.764,3.052,82,2.007,75.229,1.36,68.462.886,61.7-.042,48.169-.254,34.66-.194,21.168q.06-10.6.345-21.186C.123-.017.1,0,.069,0Z" transform="translate(1147.637 552.142)"/>
      </g>
      <g id="Group_53" data-name="Group 53">
        <path id="Path_53" data-name="Path 53" class="cls-4" d="M0,0C5.638-13.054,15.839-24.543,17.286-38.688c1.443-14.1-6.158-27.348-9.632-41.09a72.563,72.563,0,0,1,8.186-54.7,69.957,69.957,0,0,1,9.8-12.613,49.247,49.247,0,0,1,70.066,0,69.912,69.912,0,0,1,9.8,12.613,72.558,72.558,0,0,1,8.186,54.7c-3.472,13.742-11.075,26.989-9.631,41.09C105.512-24.543,115.714-13.054,121.352,0a63.486,63.486,0,0,1-6.118,60.354A63.49,63.49,0,0,1,60.676,86.879,63.5,63.5,0,0,1,6.115,60.354,63.486,63.486,0,0,1,0,0" transform="translate(943.119 533.189)"/>
      </g>
      <g id="Group_54" data-name="Group 54">
        <path id="Path_54" data-name="Path 54" class="cls-5" d="M0,0A.892.892,0,0,1,1.232.276C13.465,19.572,34.551,18.914,40.544,18.3q-.015-12.19.24-24.369c.437-20.54,1.336-41.058,2.552-61.552-6.051-1.265-33.366-8.249-36.6-31.857a.891.891,0,0,1,.765-1,.906.906,0,0,1,1.006.765C11.541-77.575,37.2-70.764,43.439-69.43c.036-.594.066-1.19.1-1.785q2-32.534,5.06-64.983a.9.9,0,0,1,.971-.805.9.9,0,0,1,.808.973q-1.391,16.594-2.454,33.221c5.669-.877,28.727-5.372,36.468-21.347a.9.9,0,0,1,1.192-.416A.893.893,0,0,1,86-123.378c-8.4,17.344-32.92,21.663-38.187,22.4q-.951,14.947-1.688,29.906-1.105,22.7-1.626,45.4a42.6,42.6,0,0,0,36.434-15.8.887.887,0,0,1,1.255-.125.893.893,0,0,1,.126,1.257A44.331,44.331,0,0,1,47.586-23.758c-1.276,0-2.326-.057-3.131-.123q-.191,8.927-.277,17.855c-.143,19.293.11,38.592,1.181,57.82,7.926.72,38.625,1.571,50.239-26.748a.893.893,0,1,1,1.654.676C87.113,50.45,63.055,53.81,50.733,53.81c-2.169,0-3.962-.106-5.263-.215.1,1.779.2,3.559.322,5.338.773,10.783,1.82,21.546,3.495,32.173,1.719,10.579,3.947,21.208,8.151,30.738l.049.114a.061.061,0,0,1,.007.017,2.5,2.5,0,0,1-4.6,1.958c-4.445-10.442-6.514-21.31-8.153-32.132-1.573-10.844-2.492-21.726-3.138-32.607-.711-13.037-1.012-26.075-1.051-39.107-1.11.108-2.631.212-4.478.212C26.957,20.3,10.226,17.8-.275,1.232A.889.889,0,0,1,0,0" transform="translate(954.306 541.315)"/>
      </g>
      <g id="Group_55" data-name="Group 55">
        <path id="Path_55" data-name="Path 55" class="cls-5" d="M0,0C-185.563,33.1-224.651,33.1-516.021-44.485c-286.855-76.376-480.433,24.54-480.433,24.54V263.211H369.221V13.345S195.31-34.835,0,0" transform="translate(1062.185 624.552)"/>
      </g>
      <g id="Group_56" data-name="Group 56">
        <path id="Path_56" data-name="Path 56" class="cls-4" d="M0,0S32.49,7.025,51.175-6.824s6.932-34.83-8.4-35.131S1.874-20.186,0,0" transform="translate(732.786 741.886)"/>
      </g>
      <g id="Group_57" data-name="Group 57">
        <path id="Path_57" data-name="Path 57" class="cls-4" d="M0,0S-32.2-8.256-42.714-29s9.385-34.253,23.235-27.659S7.357-18.891,0,0" transform="translate(712.278 737.043)"/>
      </g>
      <g id="Group_58" data-name="Group 58">
        <path id="Path_58" data-name="Path 58" class="cls-6" d="M0,0A.526.526,0,0,0-.609-.429C-7.085.7-13.772-4.093-15.832-5.729A78.661,78.661,0,0,1-6.024-9.541a.528.528,0,0,0,.364-.649.528.528,0,0,0-.651-.365A81.859,81.859,0,0,0-16.95-6.372a.524.524,0,0,0-.175.08c-2.011.933-4.242,2.036-6.654,3.333-.53-1.856-1.841-7.97,1.908-13.5a.526.526,0,0,0-.143-.731.522.522,0,0,0-.73.14,17.376,17.376,0,0,0-1.985,14.61c-3.488,1.913-7.316,4.219-11.352,6.974h0c-.014.007-.02.017-.032.024q-2.738,1.87-5.585,4.017a13.328,13.328,0,0,1,.654-10.035.53.53,0,0,0-.234-.709.53.53,0,0,0-.707.236,14.228,14.228,0,0,0-.6,11.188c-1.64,1.262-3.3,2.588-4.97,4a.524.524,0,0,0-.062.741.518.518,0,0,0,.281.174.526.526,0,0,0,.461-.11c3.7-3.124,7.344-5.867,10.841-8.278.838,1.348,3.533,4.791,9.878,6.289a27.468,27.468,0,0,0,5.031.679.527.527,0,0,0,.551-.5.525.525,0,0,0-.5-.55c-5.852-.271-9.433-2.138-11.4-3.655a11.176,11.176,0,0,1-2.683-2.861A131.545,131.545,0,0,1-16.9-5.237,30.942,30.942,0,0,0-11.959-1.9,23.327,23.327,0,0,0-6.254.348,14.478,14.478,0,0,0-.428.609.527.527,0,0,0,0,0" transform="translate(786.073 724.764)"/>
      </g>
      <g id="Group_59" data-name="Group 59">
        <path id="Path_59" data-name="Path 59" class="cls-6" d="M0,0A141.909,141.909,0,0,0-7.87-15.579c1.286-1.106,5.18-5.394,3.525-15.822a.526.526,0,0,0-.6-.438.527.527,0,0,0-.438.6c1.5,9.472-1.829,13.58-3.038,14.725-1.842-3.089-3.665-5.879-5.4-8.364a.489.489,0,0,0-.111-.16c-2.193-3.121-4.25-5.762-6.029-7.9a17.521,17.521,0,0,0,2.5-15.143.529.529,0,0,0-.655-.358.529.529,0,0,0-.357.656,16.741,16.741,0,0,1-2.192,14.008,72.358,72.358,0,0,0-5.562-5.972.53.53,0,0,0-.745.037.526.526,0,0,0,.037.744A95.307,95.307,0,0,1-15.268-25.089c-2.652.229-10.809.551-18.117-3.182a.529.529,0,0,0-.709.23.529.529,0,0,0,.229.71,30.183,30.183,0,0,0,6.789,2.457,38.117,38.117,0,0,0,12.507.777A137.209,137.209,0,0,1-4.453-7.065,7.11,7.11,0,0,1-8.014-6.048c-2.4.093-6.424-.724-11.933-5.165a.527.527,0,0,0-.742.08.525.525,0,0,0,.08.739,24.247,24.247,0,0,0,9.415,5.082c3.8.9,6.2-.166,7.216-.8C-2.954-4.029-1.945-1.855-.967.417A.522.522,0,0,0-.6.721.523.523,0,0,0-.275.692.527.527,0,0,0,0,0" transform="translate(709.665 732.884)"/>
      </g>
      <g id="Group_60" data-name="Group 60">
        <path id="Path_60" data-name="Path 60" class="cls-4" d="M0,0A19.3,19.3,0,0,0-23.058-5.445C-34.326-.581-45.677,11.971-46.8,33.587c-1.564,30.17,16.284,44.07,16.284,44.07S-8.33,73.211,3.77,45.529C12.438,25.7,7.9,9.393,0,0" transform="translate(753.046 661.806)"/>
      </g>
      <g id="Group_61" data-name="Group 61">
        <path id="Path_61" data-name="Path 61" class="cls-6" d="M0,0A.526.526,0,0,0-.715.214c-6.081,11.3-20.354,16.154-23.9,17.21.806-3.161,1.642-6.163,2.451-8.9,3.924-13.307,8.047-23.5,8.088-23.6a.525.525,0,0,0-.29-.686.527.527,0,0,0-.687.289c-.061.153-2.418,6-5.269,14.648a16.813,16.813,0,0,1-9.654-13.025.531.531,0,0,0-.6-.449.529.529,0,0,0-.446.6A17.916,17.916,0,0,0-20.653.17,224.158,224.158,0,0,0-29.3,35.009c-2.8-2.114-13.318-10.782-13-21.524a.525.525,0,0,0-.51-.543.528.528,0,0,0-.543.511c-.155,5.352,2.246,11.016,6.947,16.381a43.039,43.039,0,0,0,6.937,6.358,87.867,87.867,0,0,0-.941,15.787.524.524,0,0,0,.4.489.489.489,0,0,0,.143.013.527.527,0,0,0,.505-.549C-29.817,41.7-27.583,29.324-24.915,18.6-22.686,17.991-6.48,13.154.214.713A.525.525,0,0,0,0,0" transform="translate(753.977 682.11)"/>
      </g>
      <g id="Group_62" data-name="Group 62">
        <path id="Path_62" data-name="Path 62" class="cls-6" d="M0,0C-2.787-2.633-4.812-7.548-5.494-11.2-6.9-18.72-1.611-25.184,2.786-30.64c5.725-7.1,8.1-20.8,18.745-22.339C30-54.2,29.98-42.107,29.99-36.554,30-28.867,29.381-20.809,28.7-13.173,28.141-6.939,26.076.912,19.972,4.133,13.62,7.484,4.954,4.683,0,0" transform="translate(504.958 647.874)"/>
      </g>
      <g id="Group_63" data-name="Group 63">
        <path id="Path_63" data-name="Path 63" class="cls-6" d="M0,0C-3.505-.327-7.75-2.733-10.31-4.989-15.579-9.633-15.418-17.3-15.324-23.73c.121-8.374-5.918-19.623.912-26.762C-8.985-56.167-2.15-47.412,1-43.4c4.358,5.548,8.469,11.729,12.3,17.634,3.124,4.825,6.074,11.671,3.482,17.454C14.085-2.3,6.233.581,0,0" transform="translate(456.794 634.18)"/>
      </g>
      <g id="Group_64" data-name="Group 64">
        <path id="Path_64" data-name="Path 64" class="cls-6" d="M0,0Q-.516-.3-1.012-.621c-9.371-6.078-10.126-16.694-6.88-26.67,2.769-8.5,3.9-17.391,5.224-26.2C-2.117-57.139-1.6-60.968.571-63.953c4.6-6.332,11.78-3.475,15.629,1.593,3.234,4.255,5.167,9.511,6.454,14.652,2.093,8.357,3.6,17.3,4.916,25.787,1.079,6.933.957,16.033-4.814,21.188C16.435,4.914,6.946,4.031,0,0" transform="translate(481.051 615.171)"/>
      </g>
      <g id="Group_65" data-name="Group 65">
        <path id="Path_65" data-name="Path 65" class="cls-8" d="M0,0,.429-3,.716-6.015c.171-2.013.428-4.017.527-6.034.11-2.839.268-5.676.3-8.514,2.16-.777,10.5-4.117,13.206-10.291a.419.419,0,0,0-.216-.55.414.414,0,0,0-.547.216c-2.429,5.548-10,8.8-12.437,9.728,0-.9-.006-1.8-.039-2.7l-.044-3.028c-.012-1.008-.017-2.017-.116-3.022L.906-36.241c-.063-1.346-.23-2.682-.412-4.016,1.32-1.032,8.033-6.531,9.06-12.525a.419.419,0,0,0-.34-.483l-.012,0a.42.42,0,0,0-.471.343C7.843-47.736,2.206-42.738.36-41.224q-.072-.513-.145-1.027L-.616-48.24a.438.438,0,0,0-.487-.374.438.438,0,0,0-.38.487l0,.028.726,5.968c.24,1.989.524,3.973.584,5.979l.32,5.563c-2.291-.945-8.886-4.14-10.28-10.081a.417.417,0,0,0-.5-.31.416.416,0,0,0-.308.5C-9.356-33.725-1.806-30.432.2-29.667c.044.836.047,1.675.04,2.513l-.007,3c.087,4-.25,8-.47,11.994C-.371-10.161-.66-8.177-.863-6.188L-1.2-3.208-1.672-.245c-.341,1.97-.591,3.957-1.009,5.912l-1.225,5.871L-5.37,17.351c-.488,1.938-1.11,3.838-1.66,5.759a135.576,135.576,0,0,1-8.809,22.16l-.036.07a.029.029,0,0,1-.007.012,1.253,1.253,0,0,0,.569,1.676,1.25,1.25,0,0,0,1.675-.567A137.485,137.485,0,0,0-5.021,23.709C-4.5,21.756-3.9,19.82-3.44,17.852l1.38-5.9L-.919,5.991C-.529,4.009-.312,2,0,0" transform="translate(490.424 625.998)"/>
      </g>
      <g id="Group_66" data-name="Group 66">
        <path id="Path_66" data-name="Path 66" class="cls-8" d="M0,0A98.216,98.216,0,0,0-2.748-13.045c1.511-.913,6.024-4.111,5.947-9.682a.414.414,0,0,0-.424-.41.418.418,0,0,0-.411.424C2.433-17.8-1.429-14.86-2.979-13.88c-.194-.678-.39-1.352-.592-2.027l-1.3-3.867C-5.313-21.059-5.895-22.3-6.4-23.557l-.782-1.881c-.108-.249-.232-.491-.354-.733A13.568,13.568,0,0,0-4.528-37.344a.42.42,0,0,0-.494-.324.418.418,0,0,0-.325.494,12.811,12.811,0,0,1-2.6,10.181c-.047-.09-.094-.18-.139-.272L-9.948-30.9a.44.44,0,0,0-.581-.195.438.438,0,0,0-.207.587l.016.033,1.743,3.628c.281.609.6,1.2.85,1.822l.727,1.877c.277.751.581,1.493.868,2.241a13.754,13.754,0,0,1-11.2-3.017.417.417,0,0,0-.585.068.414.414,0,0,0,.069.586,15.466,15.466,0,0,0,7.391,3.288,12.938,12.938,0,0,0,4.616-.131c.085.241.171.483.249.729l1.183,3.844A101.969,101.969,0,0,1-1.677.224,132.21,132.21,0,0,1-.765,16.271a123.648,123.648,0,0,1-1.06,15.981l-.008.054a.053.053,0,0,1,0,.024A1.253,1.253,0,0,0-.731,33.715a1.249,1.249,0,0,0,1.382-1.1,125.059,125.059,0,0,0,.682-16.355A133.972,133.972,0,0,0,0,0" transform="translate(465.695 638.956)"/>
      </g>
      <g id="Group_67" data-name="Group 67">
        <path id="Path_67" data-name="Path 67" class="cls-8" d="M0,0A.416.416,0,0,0-.588.018C-3.743,3.367-10.922,4.894-13.712,5.376l.694-1.429L-12.561,3c.145-.319.265-.648.4-.972l.781-1.95.777-1.949.391-.975c.121-.328.215-.667.324-1l1.26-4A39.194,39.194,0,0,0-7.577-11.9l.94-4.085a.5.5,0,0,0-.369-.6.5.5,0,0,0-.611.363l-.01.04L-8.646-12.17A38.1,38.1,0,0,1-9.775-8.192L-10.449-6.2a20.272,20.272,0,0,1-3.5-12.073.414.414,0,0,0-.4-.434.417.417,0,0,0-.434.4,20.769,20.769,0,0,0,4,13.083l-.323.947c-.114.324-.213.655-.34.975l-.4.95-.811,1.9-.81,1.9c-.138.315-.262.637-.411.947l-.473.918L-16.24,6.987c-.451.87-.971,1.7-1.482,2.54C-19.042,7.083-21.977.6-20.435-6.527a.414.414,0,0,0-.317-.5.419.419,0,0,0-.5.318c-1.7,7.832,1.817,14.915,3.033,17.059-.037.063-.077.126-.114.19L-19.4,12.311l-1.17,1.7c-.8,1.119-1.523,2.289-2.381,3.364l-2.536,3.25-2.7,3.107c-.909,1.029-1.893,1.989-2.834,2.988A76.054,76.054,0,0,1-43.627,37.109l-.075.048-.019.012a1.252,1.252,0,0,0-.338,1.737,1.254,1.254,0,0,0,1.739.339A77.924,77.924,0,0,0-29.5,28.2c.941-1.042,1.927-2.047,2.832-3.119l2.691-3.239,2.519-3.375c.848-1.117,1.564-2.327,2.352-3.487l1.153-1.759L-16.9,11.4c.679-1.227,1.429-2.413,2.049-3.669l.693-1.43C-11.863,5.945-3.606,4.441.017.589A.414.414,0,0,0,0,0" transform="translate(528.804 635.164)"/>
      </g>
      <g id="Group_68" data-name="Group 68">
        <path id="Path_68" data-name="Path 68" class="cls-5" d="M0,0S218.133-106.427,498.553-10.1s625.692,78.319,715.1,85.222,158.247-15.8,158.247-15.8V231.428H6.222Z" transform="translate(59.509 691.339)"/>
      </g>
      <g id="Group_69" data-name="Group 69">
        <path id="Path_69" data-name="Path 69" class="cls-4" d="M0,0A4.812,4.812,0,0,0-6.562-1.521L-30.3,12.939-10.991-7.232a4.8,4.8,0,0,0-.04-6.7A59.4,59.4,0,0,0-40.665-30.607a4.789,4.789,0,0,0-5.744,4.242l-2.863,29-4.942-30.306a4.8,4.8,0,0,0-5.2-4.018A46.1,46.1,0,0,0-89.558-16.633a4.791,4.791,0,0,0,.22,6.664l20.775,20.254L-93.05-3.495A4.808,4.808,0,0,0-99.729-1.43a90.172,90.172,0,0,0-8.125,27.55L11.077,24.073A97.048,97.048,0,0,0,0,0" transform="translate(928.043 780.015)"/>
      </g>
      <g id="Group_70" data-name="Group 70">
        <path id="Path_70" data-name="Path 70" class="cls-6" d="M0,0A7.114,7.114,0,0,1,9.923-.791L41.471,25.524,17.643-8.172a7.1,7.1,0,0,1,1.519-9.785c12.61-9.384,28.23-16.659,46.956-17.91a7.08,7.08,0,0,1,7.471,7.454L71.448,14.6,85.283-28.616a7.1,7.1,0,0,1,8.476-4.742,68.149,68.149,0,0,1,40.78,28.586,7.082,7.082,0,0,1-1.775,9.693L97.977,30l38.8-14.8a7.106,7.106,0,0,1,9.313,4.475,133.2,133.2,0,0,1,5.864,42.047l-173.4-28.945A143.424,143.424,0,0,1,0,0" transform="translate(531.736 741.202)"/>
      </g>
      <g id="Group_71" data-name="Group 71">
        <path id="Path_71" data-name="Path 71" class="cls-6" d="M0,0S9.08-39.988,45.358-73.877s70.954-21.436,75.1,3.093S101.636-33.926,67.749-24.66,0,0,0,0" transform="translate(224.056 646.885)"/>
      </g>
      <g id="Group_72" data-name="Group 72">
        <path id="Path_72" data-name="Path 72" class="cls-6" d="M0,0S8.526-50.729-26.727-91.188s-110.052-18.393-91.045,30.561C-106.658-36.6-40.948-37.592,0,0" transform="translate(192.583 685.204)"/>
      </g>
      <g id="Group_73" data-name="Group 73">
        <path id="Path_73" data-name="Path 73" class="cls-6" d="M0,0S20.128-49.331,75.993-76.682,152.5-35.651,114.854-14.65,48.452-13.59,0,0" transform="translate(203.41 732.851)"/>
      </g>
      <g id="Group_74" data-name="Group 74">
        <path id="Path_74" data-name="Path 74" class="cls-6" d="M0,0S10.2-58.989-19.379-89.434s-71-25.284-77.036,4.464S-17.493-29.123,0,0" transform="translate(205.515 604.469)"/>
      </g>
      <g id="Group_75" data-name="Group 75">
        <path id="Path_75" data-name="Path 75" class="cls-6" d="M0,0C-1.339-27.118,19.562-55.79,41.034-69.793c19.3-12.587,45.171-3.573,50.191,19.682C98.82-14.934,49.777-11.9,27.342-6.359,19.453-4.41,7.762.946,0,0" transform="translate(225.491 553.344)"/>
      </g>
      <g id="Group_76" data-name="Group 76">
        <path id="Path_76" data-name="Path 76" class="cls-6" d="M0,0S22.923-36.843,14.835-71.614-34.458-114.6-48.548-87.481-14.861-24.576,0,0" transform="translate(216.441 527.201)"/>
      </g>
      <g id="Group_77" data-name="Group 77">
        <path id="Path_77" data-name="Path 77" class="cls-6" d="M0,0S-.3-68.345-62.4-90.933s-81.612,32.508-62.122,57.47S-56.449-18.189,0,0" transform="translate(174.536 751.203)"/>
      </g>
      <g id="Group_78" data-name="Group 78">
        <path id="Path_78" data-name="Path 78" class="cls-4" d="M0,0A1,1,0,0,1,1.357-.4c28.709,15.578,46.366,33.282,56.122,45.4A112.565,112.565,0,0,1,70.545,64.787,349.183,349.183,0,0,0,81.345,30.1q2.312-9.13,4.259-18.355C83.153-4.1,70.91-58.614,16.748-80.22a1,1,0,0,1-.558-1.3,1,1,0,0,1,1.3-.559C67.8-62.013,82.585-14.051,86.688,6.451c.916-4.513,1.8-9.032,2.625-13.565,2.25-12.5,4.066-25.089,5.689-37.7,1.152-9.24,2.121-18.5,3.008-27.774-2.055-11.281-11.553-51.147-46.79-80.752a1,1,0,0,1-.124-1.409,1,1,0,0,1,1.413-.124c30.8,25.881,42.22,59.529,46.126,75.685q1.857-20.806,2.939-41.681c1.251-24.639,1.88-49.336,1.588-74C101.8-210.517,97.22-231.6,83.577-248.233a1,1,0,0,1,.14-1.41,1,1,0,0,1,1.41.14c25.257,30.8,20.147,76.432,20.091,76.89a.968.968,0,0,1-.231.5q.1,21.454-.581,42.9c5.571-12.546,21.387-41.857,50.52-50.566a1.007,1.007,0,0,1,1.248.673,1,1,0,0,1-.675,1.245c-33.623,10.05-49.1,48.493-51.26,54.305-.033.933-.05,1.865-.083,2.8-.935,25.5-2.683,50.982-5.47,76.375q-.81,7.124-1.729,14.234c10.354-18.421,40.127-63.092,91.523-76.414a1.008,1.008,0,0,1,1.223.718,1,1,0,0,1-.719,1.221c-55.7,14.437-85.693,66.328-92.747,80.012Q95-15.486,93.524-6.394C91.42,6.222,89,18.794,86.038,31.266c-1.036,4.253-2.16,8.487-3.329,12.712a128.418,128.418,0,0,1,83.324-48.5.989.989,0,0,1,1.134.844.994.994,0,0,1-.841,1.134A126.019,126.019,0,0,0,81.159,49.5c-1.842,6.276-3.857,12.51-6.1,18.677-4.425,12.082-9.685,23.972-16.692,35a.441.441,0,0,1-.026.041,2.98,2.98,0,0,1-4.977-3.28,173.1,173.1,0,0,0,16.2-32.55C66.462,60.711,49.229,27.85.4,1.358A1,1,0,0,1,0,0" transform="translate(112.179 698.036)"/>
      </g>
      <g id="Group_79" data-name="Group 79">
        <path id="Path_79" data-name="Path 79" class="cls-8" d="M0,0S-12.523-38.1-50.968-67.754s-71.058-14.338-72.842,9.926,21.726,34.155,55.574,40.058S0,0,0,0" transform="translate(1118.349 683.372)"/>
      </g>
      <g id="Group_80" data-name="Group 80">
        <path id="Path_80" data-name="Path 80" class="cls-8" d="M0,0S-12.971-48.607,17.629-91.248,123.09-119.29,109.09-69.876C100.482-45.453,36.41-40.372,0,0" transform="translate(1152.519 717.783)"/>
      </g>
      <g id="Group_81" data-name="Group 81">
        <path id="Path_81" data-name="Path 81" class="cls-8" d="M0,0S-24.142-46.178-81.054-67.665s-70.716,47-32.125,63.977S-48.429-8.77,0,0" transform="translate(1146.367 765.174)"/>
      </g>
      <g id="Group_82" data-name="Group 82">
        <path id="Path_82" data-name="Path 82" class="cls-8" d="M0,0S-15.367-56.5,10.633-88.862s66.806-31.159,75.418-2.746S14.35-29.967,0,0" transform="translate(1132.495 640.365)"/>
      </g>
      <g id="Group_83" data-name="Group 83">
        <path id="Path_83" data-name="Path 83" class="cls-8" d="M0,0C-1.194-26.526-24.184-52.519-46.38-64.175c-19.951-10.478-44.31.681-47.057,23.786C-97.593-5.44-49.562-7-27.208-3.672-19.347-2.5-7.471,1.639,0,0" transform="translate(1108.336 592.425)"/>
      </g>
      <g id="Group_84" data-name="Group 84">
        <path id="Path_84" data-name="Path 84" class="cls-8" d="M0,0S-25.709-33.761-21.035-68.362,23-114.754,39.214-89.646,12.208-25.3,0,0" transform="translate(1114.739 566.138)"/>
      </g>
      <g id="Group_85" data-name="Group 85">
        <path id="Path_85" data-name="Path 85" class="cls-8" d="M0,0S-6-66.572,52.39-94.283s82.457,24.135,65.779,50.233S53.288-22.908,0,0" transform="translate(1176.168 780.383)"/>
      </g>
      <g id="Group_86" data-name="Group 86">
        <path id="Path_86" data-name="Path 86" class="cls-4" d="M0,0A.982.982,0,0,0-1.359-.266C-27.879,17.546-43.439,36.41-51.823,49.1a110.186,110.186,0,0,0-10.9,20.476A341.736,341.736,0,0,1-76.43,36.8q-3.09-8.676-5.838-17.479c.927-15.654,7.827-69.865,58.573-95.889a.978.978,0,0,0,.424-1.316.983.983,0,0,0-1.317-.426C-71.721-54.135-81.705-6.074-83.811,14.266Q-85.773,7.8-87.615,1.3c-3.342-11.967-6.271-24.053-9.011-36.185-1.974-8.889-3.77-17.819-5.487-26.766.962-11.173,6.537-50.864,38.122-82.932A.983.983,0,0,0-64-145.971a.98.98,0,0,0-1.386.012C-93-117.923-101.014-84.111-103.332-68.021q-3.722-20.088-6.7-40.312c-3.487-23.875-6.374-47.863-8.363-71.91-.114-15.354,2.4-36.3,14.157-53.758a.978.978,0,0,0-.266-1.358.975.975,0,0,0-1.358.265c-21.758,32.314-12.579,76.276-12.483,76.715a.942.942,0,0,0,.27.468q1.882,20.9,4.517,41.718c-6.578-11.7-24.677-38.786-53.847-44.582a.982.982,0,0,0-1.151.77.98.98,0,0,0,.77,1.151c33.665,6.689,52.268,42.7,54.912,48.155.117.9.219,1.811.337,2.717,3.261,24.741,7.308,49.39,12.36,73.86q1.445,6.86,2.993,13.7c-11.775-16.983-44.88-57.734-96.149-65.972a.985.985,0,0,0-1.124.81.984.984,0,0,0,.811,1.124C-138.082-75.535-104.1-27.772-95.97-15.1-94.607-9.252-93.18-3.42-91.65,2.39c3.21,12.088,6.724,24.106,10.757,35.975,1.4,4.046,2.883,8.067,4.412,12.072a125.59,125.59,0,0,0-85.6-39.548.968.968,0,0,0-1.027.924.977.977,0,0,0,.925,1.03,123.23,123.23,0,0,1,87.714,42.83C-72.094,61.615-69.557,67.5-66.8,73.3A176.638,176.638,0,0,0-47.328,105.84a.393.393,0,0,0,.029.039,2.917,2.917,0,0,0,4.1.447,2.914,2.914,0,0,0,.446-4.1,169.445,169.445,0,0,1-18.775-30.2C-59.119,65.234-45.368,31.649-.266,1.361A.982.982,0,0,0,0,0" transform="translate(1231.989 722.873)"/>
      </g>
      <g id="Group_87" data-name="Group 87">
        <path id="Path_87" data-name="Path 87" class="cls-5" d="M0,0S122.114-101.26,431.37-41.52C752.435,20.5,821.024,18.891,1110.306-57.329c187.944-49.522,255.369,0,255.369,0V96.585H0Z" transform="translate(65.73 791.177)"/>
      </g>
      <g id="Group_88" data-name="Group 88">
        <path id="Path_88" data-name="Path 88" class="cls-2" d="M0,0C-13.648-11.646-34.5-12.862-50.456-5.68-33.125-26.627-18.1-49.256-12.271-75.5c8.194-36.881-9.451-82.395-46.207-91.131-22.524-5.351-46.576,4.354-63.668,19.966s-28.382,36.46-38.511,57.277q-18.025,37.061-32.482,75.716c1.318-14.459,2.607-29.285-1.209-43.293s-13.869-27.257-27.989-30.629c-23.579-5.634-44.42,17.666-52.164,40.638-10.145,30.081-17.563,99.969-7.184,135.15s37.834,42.027,37.834,42.027H-63.942c28.863-7.546,57.193-22.874,72.619-48.411S22.7,19.363,0,0" transform="translate(375.139 760.181)"/>
      </g>
      <g id="Group_89" data-name="Group 89">
        <path id="Path_89" data-name="Path 89" class="cls-8" d="M0,0A82.847,82.847,0,0,1-10.305,20.7a115.121,115.121,0,0,1-14.976,17.82c-1.383,1.372-2.869,2.63-4.305,3.955l-2.162,1.975-2.285,1.83c-1.537,1.2-3.074,2.415-4.663,3.552-1.647,1.049-3.324,2.054-5,3.049l-2.542,1.448c-.866.445-1.75.861-2.635,1.272-1.781.8-3.538,1.636-5.331,2.386a92.8,92.8,0,0,1-11.1,3.529.237.237,0,0,1-.289-.167A.237.237,0,0,1-65.5,61.1l.019-.014c3.218-2.222,6.563-4.042,9.8-6.039,1.583-1.064,3.2-2.039,4.8-3.055l2.412-1.473,2.319-1.623c1.562-1.053,3.125-2.1,4.719-3.1,1.531-1.085,3.062-2.174,4.622-3.228L-34.469,41l2.235-1.725c1.467-1.177,3-2.293,4.424-3.523a112.072,112.072,0,0,0,15.6-16.419A86.2,86.2,0,0,0-.448-.143L-.439-.16A.232.232,0,0,1-.133-.284.235.235,0,0,1,0,0" transform="translate(348.94 800.93)"/>
      </g>
      <g id="Group_90" data-name="Group 90">
        <path id="Path_90" data-name="Path 90" class="cls-8" d="M0,0A.236.236,0,0,0-.328.055L-.334.063a56.4,56.4,0,0,1-6.72,8.021,52.753,52.753,0,0,1-8.135,6.432,62.141,62.141,0,0,1-9.116,4.857,77.832,77.832,0,0,1-9.766,3.347c-6.677,1.786-13.566,2.362-20.4,3.254-6.226.759-12.515,1.249-18.924,1.721,5.164-11.5,10.727-22.833,16.568-34.02,8.713-16.706,18.036-33.134,28.25-48.993a.241.241,0,0,0-.061-.325.237.237,0,0,0-.327.059C-39.719-40.043-49.594-23.91-58.891-7.44-68.055,9.1-76.641,25.99-84.186,43.377c-5.209,12-10.145,24.193-14.172,36.693a68.643,68.643,0,0,1-7.484-15.515,99.025,99.025,0,0,1-4.8-19.682c-.955-6.783-.737-13.7-.385-20.6q.489-5.16,1.1-10.343l1.775-10.3,0-.015a.233.233,0,0,0-.171-.265.234.234,0,0,0-.287.165l-2.741,10.144c-.7,3.433-1.377,6.886-2.006,10.353-.832,6.984-1.534,14.064-1.023,21.186l.109,2.675c.065.89.2,1.775.3,2.663.247,1.772.324,3.577.7,5.339s.724,3.535,1.211,5.272c.577,1.716,1.167,3.429,1.843,5.1.825,1.623,1.525,3.293,2.455,4.852a40.817,40.817,0,0,0,3.021,4.519,30.383,30.383,0,0,0,5.88,5.993c-1.6,5.078-3.062,10.2-4.3,15.4-4.474,18.449-6.982,37.625-5.427,56.552a.237.237,0,0,0,.225.215.233.233,0,0,0,.244-.224,261,261,0,0,1,9.5-55.374c2.447-9.038,5.2-18,8.165-26.9,2.888-8.93,6.193-17.733,9.721-26.448q3.282-8.109,6.867-16.095a57.322,57.322,0,0,0,9,1.59,77.58,77.58,0,0,0,10.761.318c7.21-.23,14.288-2.075,21.117-4.339a80.978,80.978,0,0,0,9.972-4.175,65.263,65.263,0,0,0,9.17-5.7A54.771,54.771,0,0,0-6,9.075,51.191,51.191,0,0,0,.066.308.237.237,0,0,0,0,0" transform="translate(327.69 708.668)"/>
      </g>
      <g id="Group_91" data-name="Group 91">
        <path id="Path_91" data-name="Path 91" class="cls-8" d="M0,0A.235.235,0,0,0-.261.2l0,.026L-.741,4.039a34.68,34.68,0,0,1-.531,3.77L-2.13,11.5c-.157.609-.251,1.235-.461,1.828l-.639,1.775c-.425,1.179-.788,2.376-1.255,3.53l-1.626,3.356a23.8,23.8,0,0,1-1.87,3.2,23.589,23.589,0,0,1-2.1,3.03C-13.024,32.2-16.918,35.2-20.642,38.318a95.2,95.2,0,0,1-10.079,7.149c-.567-3.356-1.089-6.724-1.491-10.112-.8-5.9-1.348-11.859-1.561-17.835a246.833,246.833,0,0,1,1.281-35.9,246.883,246.883,0,0,1,6.044-35.538l0-.01a.232.232,0,0,0-.157-.28.235.235,0,0,0-.294.155,247.988,247.988,0,0,0-7.921,35.381,250.115,250.115,0,0,0-2.7,36.27c.032,12.137.647,24.434,3.531,36.35a109.583,109.583,0,0,0,13.8,33.739.236.236,0,0,0,.27.1.236.236,0,0,0,.153-.3l0-.011c-.929-2.9-2.145-5.636-2.959-8.539-.99-2.83-1.8-5.711-2.639-8.572-.444-1.421-.738-2.891-1.143-4.323-.375-1.441-.771-2.873-1.061-4.336l-.993-4.349-.834-4.382q-.531-2.934-1.038-5.875a28.206,28.206,0,0,0,5.373-1.4c1.269-.427,2.458-1.034,3.69-1.573,1.166-.652,2.352-1.291,3.49-2.007,1.088-.788,2.211-1.543,3.231-2.423q1.485-1.379,2.888-2.832L-9.254,33.7c.827-1.054,1.5-2.228,2.247-3.333a26.216,26.216,0,0,0,1.975-3.479A26.783,26.783,0,0,0-3.346,23.28l1.393-3.715c.382-1.26.651-2.556.978-3.827l.446-1.914c.143-.637.167-1.3.256-1.946L.162,7.992C.354,5.4.2,2.8.2.232A.235.235,0,0,0,0,0" transform="translate(166.447 774.658)"/>
      </g>
      <g id="Group_92" data-name="Group 92">
        <path id="Path_92" data-name="Path 92" class="cls-8" d="M0,0Q.356-1.863.648-3.74C2.234-13.921.5-25.118-8.579-30.841c-10.358-6.529-23.634-.23-34.109-6.558-12.991-7.851-10.619-29.192-20.494-41.06a21.55,21.55,0,0,0-24.392-6.173c-3.1,1.306-6.011,3.39-9.341,3.682-6.879.6-11.909-6.257-17.339-10.75a29.994,29.994,0,0,0-35.629-1.515c-10.586,7.389-15.9,22.25-12.587,35.172,1.491,5.806,4.5,11.085,5.929,16.911s.812,12.886-3.686,16.585c-2.227,1.833-5.073,2.568-7.627,3.84-9.478,4.723-14.132,16.752-13.523,27.784s5.479,21.267,10.732,30.831c12.086,22,27.677,45.966,48.89,59.091,25.778,15.948,58.095-2.258,77.749-21.013C-22.779,55.729-5.627,29.513,0,0" transform="translate(586.034 827.965)"/>
      </g>
      <g id="Group_93" data-name="Group 93">
        <path id="Path_93" data-name="Path 93" class="cls-8" d="M0,0A.121.121,0,0,0-.171-.026,73.9,73.9,0,0,0-10.228,8.917c-3.111,3.242-6.016,6.667-8.828,10.16A260.894,260.894,0,0,0-34.388,41.119q-4.638,7.221-9.057,14.575a90.5,90.5,0,0,1-1.466-14.36c-.067-2.6-.17-5.194-.177-7.805-.045-2.608-.016-5.224.11-7.84.244-5.229.739-10.459,1.41-15.668Q-42.612,2.2-41.1-5.561A.123.123,0,0,0-41.19-5.7a.121.121,0,0,0-.151.085c-1.383,5.093-2.465,10.261-3.43,15.454-.917,5.2-1.66,10.439-2.15,15.718a87.118,87.118,0,0,0-.422,15.926A54.266,54.266,0,0,0-46.1,49.4a35.021,35.021,0,0,0,2.327,6.842Q-46.1,60.1-48.378,63.986c-4.468,7.735-8.826,15.532-13,23.424a.121.121,0,0,0,.047.162.12.12,0,0,0,.167-.047C-56.71,79.8-52.074,72.17-47.336,64.616q7.068-11.361,14.574-22.422c2.519-3.673,5.074-7.32,7.722-10.9,1.292-1.809,2.625-3.59,3.945-5.377l3.968-5.355C-11.789,13.469-6.36,6.437-.014.16A.124.124,0,0,0,0,0" transform="translate(563.045 822.782)"/>
      </g>
      <g id="Group_94" data-name="Group 94">
        <path id="Path_94" data-name="Path 94" class="cls-8" d="M0,0-1.069-2.674c-.364-.889-.7-1.79-1.106-2.661l-1.235-2.6-1.261-2.589-.636-1.292-.684-1.263a124.693,124.693,0,0,0-7.5-12.27,42.439,42.439,0,0,0,.655-6.142,70.985,70.985,0,0,0-.069-7.7,98.3,98.3,0,0,0-2.641-15.122q-1.806-7.449-4.178-14.718c-1.632-4.827-3.373-9.613-5.43-14.27a.124.124,0,0,0-.156-.064.122.122,0,0,0-.07.157c1.69,4.782,3.182,9.635,4.488,14.527q2.01,7.326,3.44,14.773c.935,4.968,1.413,9.982,2.125,14.953.513,4.191.871,8.381,1.168,12.639-1.4-2.04-2.819-4.063-4.233-6.084-4.408-6.249-9.1-12.283-13.89-18.225-4.846-5.9-9.813-11.695-15-17.287a.124.124,0,0,0-.17-.009.123.123,0,0,0-.011.172c4.94,5.8,9.649,11.794,14.226,17.875s9.061,12.23,13.243,18.577c1.075,1.567,2.06,3.191,3.089,4.787s2.033,3.2,2.978,4.85l2.938,4.87c.94,1.644,1.9,3.272,2.87,4.9A225.657,225.657,0,0,1,2.383,8.3v0a.122.122,0,0,0,.229-.081C2.11,6.375,1.522,4.552.979,2.706.713,1.778.347.893,0,0" transform="translate(476.139 906.105)"/>
      </g>
      <g id="Group_95" data-name="Group 95">
        <path id="Path_95" data-name="Path 95" class="cls-8" d="M0,0A68.3,68.3,0,0,0-.1-9.479a.125.125,0,0,0-.127-.112.122.122,0,0,0-.117.128,67.48,67.48,0,0,1-.38,9.4A86.969,86.969,0,0,1-2.3,9.2,127.015,127.015,0,0,1-7.75,27.166c-1.108,2.929-2.334,5.813-3.628,8.665l-3.859,8.563c-2.328,5.187-4.757,10.337-7.2,15.52-.179-.755-.358-1.51-.543-2.263q-4.2-17.114-9.421-33.936c-3.536-11.192-7.332-22.3-11.594-33.232a.124.124,0,0,0-.156-.068.122.122,0,0,0-.071.157C-40.266,1.6-36.78,12.8-33.565,24.065q4.86,16.884,8.693,34.026c2.515,11.434,4.417,22.972,6.329,34.5.812,5.783,1.753,11.554,2.351,17.368.338,2.9.759,5.806.915,8.725.262,2.915.477,5.836.781,8.759v.007a.124.124,0,0,0,.117.11.124.124,0,0,0,.127-.12c.07-2.932.056-5.87.085-8.814.049-2.945-.191-5.874-.334-8.812-.167-2.936-.3-5.881-.652-8.8l-.979-8.772C-17.6,81.6-19.774,71.089-22.254,60.662c1.65-2.229,3.177-4.538,4.606-6.908,1.649-2.706,3.164-5.49,4.608-8.311A130.1,130.1,0,0,0-5.916,27.822,128.775,128.775,0,0,0-1.107,9.438,88.592,88.592,0,0,0,0,0" transform="translate(504.57 786.925)"/>
      </g>
      <g id="Group_96" data-name="Group 96">
        <path id="Path_96" data-name="Path 96" class="cls-2" d="M0,0C-4.951-22.746-27.451-39.567-50.712-40.5S-96.574-27.949-109.287-8.447c5.527-33.976,10.65-68.726,4.849-102.657-5.436-31.794-23.2-66.143-52.944-81.646-40.536-21.124-77.445,29.616-92.032,61.473-17.615,38.462-19.867,84.523-2.759,123.571-22.639-5.354-36.71-33.873-59.959-33.022-18.919.693-31.3,22.464-29.2,41.279s14.141,34.819,25.742,49.779c-23.875-13.652-56.971-8.281-75.3,12.223s-19.976,53.994-3.746,76.2H-67.5c13.762-19.213,27.523-46.489,41.285-65.7C-10.677,51.35,5.678,26.079,0,0" transform="translate(1426.179 739.16)"/>
      </g>
      <g id="Group_97" data-name="Group 97">
        <path id="Path_97" data-name="Path 97" class="cls-8" d="M0,0C-1.808-2.5-3.753-4.81-5.679-7.12c-1.957-2.273-3.962-4.474-5.859-6.779s-3.874-4.512-5.853-6.708q-1.506-1.623-2.92-3.334l-2.9-3.345c-2.308-2.644-4.7-5.22-7.108-7.781a17.8,17.8,0,0,0,3.987-5.578A27.112,27.112,0,0,0-24.02-49.6c.607-6.186-1.042-12.169-2.853-17.79-.419-1.426-1.039-2.775-1.55-4.163-.565-1.364-1-2.783-1.673-4.094L-32-79.619c-.626-1.328-1.25-2.652-2-3.909-1.5-2.515-2.853-5.105-4.467-7.535s-3.222-4.852-4.853-7.251a.241.241,0,0,0-.306-.08.239.239,0,0,0-.1.322l0,.009,3.98,7.718c1.335,2.558,2.4,5.25,3.6,7.857A42.819,42.819,0,0,1-34.5-78.513l1.528,4.009c.547,1.323.85,2.723,1.286,4.073.378,1.369.87,2.708,1.154,4.093l.833,4.143a40.447,40.447,0,0,1,.5,4.154c.071.689.172,1.379.22,2.065l.082,2.054.143,2.051-.014,2.032a31.117,31.117,0,0,1-2.6,13.664c-5.335-5.643-10.755-11.224-15.773-17.2-1.872-2.289-3.791-4.547-5.628-6.868l-5.42-7.041c-3.559-4.739-7.076-9.527-10.395-14.454A274.581,274.581,0,0,1-87.041-112.3l-.01-.019a.477.477,0,0,0-.586-.231.478.478,0,0,0-.286.612,241.049,241.049,0,0,0,15.284,32.7c2.922,5.278,6.053,10.436,9.247,15.567l5,7.56c.977,1.432,1.981,2.844,2.989,4.258-.573.1-1.151.209-1.707.285a24.06,24.06,0,0,1-2.471.185,15.007,15.007,0,0,1-2.4-.008,28.241,28.241,0,0,1-9.476-1.711,36.145,36.145,0,0,1-8.72-5.478c-1.289-1.2-2.651-2.349-3.916-3.611q-1.792-1.985-3.665-3.957l-.014-.014a.235.235,0,0,0-.3-.04.237.237,0,0,0-.077.327q1.425,2.314,2.927,4.622c1.058,1.491,2.243,2.9,3.378,4.373.619.689,1.3,1.327,1.952,2a20.8,20.8,0,0,0,2.046,1.934l2.256,1.738a22.043,22.043,0,0,0,2.445,1.525l1.251.75c.438.215.9.4,1.347.6a17.9,17.9,0,0,0,2.772,1.1,14.464,14.464,0,0,0,6,.6A15.493,15.493,0,0,0-53.934-49.8c.258.364.519.727.777,1.09,1.715,2.5,3.552,4.9,5.354,7.341,1.827,2.416,3.545,4.93,5.462,7.284s3.866,4.682,5.88,6.952c1.967,2.314,4.248,4.34,6.41,6.469,2.248,2.046,4.389,4.193,6.787,6.073,2.37,1.91,4.744,3.808,7.19,5.612A86.466,86.466,0,0,0-8.53-3.838C-5.921-2.251-3.329-.66-.6.736A.485.485,0,0,0-.1.7.486.486,0,0,0,.014.018Z" transform="translate(1213.317 855.469)"/>
      </g>
      <g id="Group_98" data-name="Group 98">
        <path id="Path_98" data-name="Path 98" class="cls-8" d="M0,0A107.538,107.538,0,0,0-12.938-6.54c-4.325-2.027-8.709-3.787-13.1-5.487-2.192-.857-4.389-1.695-6.617-2.431l-4.487-1.406c.039-.115.081-.229.12-.344a11.8,11.8,0,0,0,.46-1.525,17.633,17.633,0,0,0,.383-3.137c.153-4.267-1.7-8.112-3.572-11.517-.422-.893-1.015-1.675-1.512-2.511-.54-.81-1-1.677-1.6-2.428-1.223-1.5-2.306-3.091-3.629-4.474s-2.565-2.825-3.962-4.109-2.787-2.567-4.192-3.82a.238.238,0,0,0-.3-.012.239.239,0,0,0-.047.334l.01.011q1.7,2.259,3.428,4.456c1.154,1.465,2.118,3.069,3.174,4.583,1.082,1.5,1.894,3.165,2.846,4.722.491.772.814,1.625,1.229,2.428.369.825.839,1.606,1.122,2.455l.87,2.52c.279.839.379,1.711.578,2.551.238.838.292,1.68.445,2.506a21.293,21.293,0,0,1,.36,2.467,23.146,23.146,0,0,1,.2,3.748l-5.427-1.579c-2.256-.679-4.469-1.474-6.7-2.234s-4.442-1.56-6.628-2.428-4.406-1.662-6.577-2.567l-6.54-2.669L-79.072-31.3l-6.408-3c-2.087-1.083-4.23-2.1-6.289-3.244-2.085-1.11-4.126-2.291-6.159-3.5-2.007-1.226-4.055-2.458-5.927-3.849l-.02-.014a.477.477,0,0,0-.623.049.473.473,0,0,0,.007.673,91.011,91.011,0,0,0,11.164,9.127c1.937,1.43,3.954,2.724,5.936,4.1l6.093,3.864,6.235,3.63,6.344,3.443c1.336.7,2.69,1.37,4.044,2.033-2.735,1.345-5.309,2.716-7.906,4.022-3.326,1.619-6.384,3.743-9.844,5.164A46.579,46.579,0,0,1-93.2-5.744a48.577,48.577,0,0,1-11.4.519h-.018a.236.236,0,0,0-.239.183.238.238,0,0,0,.177.287A44.36,44.36,0,0,0-92.984-3.373a21.294,21.294,0,0,0,2.978-.158c.988-.107,1.987-.191,2.98-.323A56.433,56.433,0,0,0-81.178-5.2c3.834-1.107,7.8-2.3,11.074-4.7.795-.626,1.606-1.222,2.377-1.867.731-.7,1.511-1.33,2.179-2.095a22.594,22.594,0,0,0,2.609-3.275c.224.111.452.22.677.332,2.149,1.087,4.331,2.1,6.524,3.082l6.549,3.053L-42.6-7.7A95.242,95.242,0,0,0-28.97-2.97c4.661,1.2,9.4,2.117,14.16,2.892A105.3,105.3,0,0,0-.239.922.5.5,0,0,0,.176.685.493.493,0,0,0,.01.007Z" transform="translate(1169.546 866.624)"/>
      </g>
      <g id="Group_99" data-name="Group 99">
        <path id="Path_99" data-name="Path 99" class="cls-8" d="M0,0A.236.236,0,0,0-.257.218l0,.008A84.926,84.926,0,0,1-6.819,27.4,82.675,82.675,0,0,1-21.812,50.677a87.25,87.25,0,0,1-10.066,9.518q-5.361,4.391-10.991,8.441a198.591,198.591,0,0,1-19.72,12.485c0-.009,0-.016,0-.023-.964-21.746-1-43.562-.471-65.373Q-62.418-17-59.766-49.7a.484.484,0,0,0-.4-.517.477.477,0,0,0-.543.4c-1.656,10.828-2.974,21.694-4.128,32.584s-2.146,21.8-2.978,32.73c-.25,3.7-.461,7.415-.678,11.124A147.433,147.433,0,0,1-82.118,17.5c-2.431-1.851-4.8-3.739-7.128-5.7a48.419,48.419,0,0,1-6.462-6.447,51.922,51.922,0,0,1-5.17-7.561,51.728,51.728,0,0,1-3.655-8.458,58.119,58.119,0,0,1-2.747-18.451.24.24,0,0,0-.21-.238.236.236,0,0,0-.264.207,56.287,56.287,0,0,0,.93,19.127,54.462,54.462,0,0,0,3.182,9.2,55.4,55.4,0,0,0,4.9,8.479c3.779,5.327,8.322,10.3,13.911,13.753a52.061,52.061,0,0,0,8.726,4.4,40.039,40.039,0,0,0,7.521,2.156C-69.6,45.7-70.217,63.463-70.205,81.26c.057,21.946.13,44.065,3.558,65.913q.6,4.095,1.363,8.171c.513,2.715.908,5.443,1.514,8.143l1.781,8.1c.614,2.693,1.343,5.365,2.05,8.035A188.477,188.477,0,0,0-48.78,210.793a.487.487,0,0,0,.531.264.479.479,0,0,0,.372-.567c-2.108-10.792-3.942-21.49-5.505-32.223l-1.115-8.052-.979-8.068c-.34-2.682-.608-5.382-.917-8.069S-56.982,148.7-57.2,146c-1.1-10.77-2.061-21.562-3.089-32.367-1.041-10.228-1.721-20.5-2.215-30.793a76.654,76.654,0,0,0,9.594-3.485A95,95,0,0,0-40.2,72.576a88.97,88.97,0,0,0,21.276-19.42A85.8,85.8,0,0,0-4.605,28.275c.442-1.114.8-2.257,1.129-3.408s.722-2.281,1.008-3.441c.531-2.333,1.151-4.637,1.478-7A85.336,85.336,0,0,0,.217.242.238.238,0,0,0,0,0" transform="translate(1303.527 645.195)"/>
      </g>
      <g id="Group_100" data-name="Group 100">
        <path id="Path_100" data-name="Path 100" class="cls-8" d="M0,0A.239.239,0,0,0-.334.04L-.345.054Q-2.322,2.565-4.229,5.079c-1.336,1.628-2.8,3.143-4.18,4.7-1.49,1.458-2.987,2.9-4.547,4.239A41.726,41.726,0,0,1-17.9,17.6,38.673,38.673,0,0,1-28.81,21.851a33.017,33.017,0,0,1-8.642.975q1.737-4.356,3.328-8.755,3.018-8.546,5.47-17.24,2.4-8.708,4.3-17.515c1.262-5.871,2.356-11.765,3.11-17.728a.479.479,0,0,0-.352-.522.479.479,0,0,0-.582.341l-.005.014A307.793,307.793,0,0,1-33.174-4.666Q-36.33,3.642-40,11.714c-2.407,5.388-4.945,10.708-7.714,15.89C-52.754,37.124-58.989,45.8-64.845,54.6a49.1,49.1,0,0,1-7.6-10.788,59.089,59.089,0,0,1-6.112-17.967l-.364-2.4-.183-1.2-.052-1.217-.217-4.884-.056-1.224.064-1.226.135-2.455c.1-1.635.157-3.28.289-4.922.47-3.255.834-6.547,1.394-9.813l2.117-9.741,0-.021a.237.237,0,0,0-.159-.275.237.237,0,0,0-.3.153l-3.091,9.552C-79.842-.6-80.515,2.7-81.3,5.984c-.254,1.667-.437,3.347-.658,5.025l-.318,2.519-.155,1.265-.036,1.272-.139,5.108-.033,1.282.1,1.279.2,2.567.192,2.573c.047.861.283,1.7.416,2.557l.459,2.559a16.839,16.839,0,0,0,.57,2.548c.536,1.662.992,3.361,1.683,4.973a51.568,51.568,0,0,0,2.447,4.672,34.538,34.538,0,0,0,6.88,7.931,30.366,30.366,0,0,0,3.5,2.517c-.1.148-.2.3-.294.444-3.265,4.776-6.642,9.471-10.19,14.116C-80.3,75.767-84.1,80.229-88.082,84.857l-.007.009a.487.487,0,0,0-.077.512.49.49,0,0,0,.642.253A68.626,68.626,0,0,0-71.9,75.882a97.968,97.968,0,0,0,13.032-13.1A96.073,96.073,0,0,0-48.706,47.444c2.845-5.423,5.357-10.979,7.844-16.513.9-2.014,1.748-4.044,2.582-6.079a16.291,16.291,0,0,0,3.373,1.242,19.867,19.867,0,0,0,6.923.446,32.678,32.678,0,0,0,3.411-.724c1.092-.379,2.144-.863,3.191-1.336a38.836,38.836,0,0,0,5.644-3.75,45.039,45.039,0,0,0,4.949-4.4c1.477-1.616,2.851-3.314,4.2-5.006C-5.4,9.508-4.14,7.758-3.027,5.925Q-1.446,3.117.063.3A.241.241,0,0,0,0,0" transform="translate(1402.061 770.593)"/>
      </g>
      <g id="Group_101" data-name="Group 101">
        <path id="Path_101" data-name="Path 101" class="cls-6" d="M0,0C-4.571-9.324-16.814-15.186-25.932-10.211-32.725-6.506-36.964,2.237-44.686,2.751c-8.488.564-13.872-10.05-12.159-18.384s7.72-15,12.1-22.29a62.455,62.455,0,0,0,7.906-42.458c-1.517-8.695-6.673-18.423-15.48-19-9.96-.655-18.188,11-27.948,8.9-7.038-1.511-10.686-9.83-10.012-17s4.4-13.62,7.108-20.288a75.387,75.387,0,0,0,4.379-41.258c-1.354-7.666-4.12-15.443-9.853-20.709s-14.992-7.245-21.455-2.906c-7.691,5.164-8.325,16.094-7.662,25.334.534,7.468.032,17.161-7.082,19.494-4.759,1.561-10.035-1.664-12.455-6.046s-2.663-9.6-2.755-14.61c-.6-32.8,2.4-67.686-13.569-96.342C-160-276.245-171.78-286.988-184.611-284.4c-12.891,2.268-19.942,16.572-21.7,29.542-4.415,32.51,11.113,63.89,22.527,94.65,1.741,4.693,3.421,9.642,2.767,14.6s-4.39,9.893-9.39,10.176c-7.474.426-11.48-8.417-13.705-15.564-2.758-8.845-7.336-18.788-16.381-20.79-7.6-1.682-15.5,3.54-18.918,10.534s-3.148,15.246-1.612,22.877a75.39,75.39,0,0,0,19.133,36.815c4.958,5.218,10.778,9.868,14.022,16.294s2.884,15.5-3.117,19.479c-8.323,5.511-20.236-2.331-29.269,1.913-7.988,3.754-9.237,14.694-7.477,23.342A62.438,62.438,0,0,0-224.878-3.879c6.739,5.191,14.763,9.2,19.4,16.337s3.5,18.982-4.611,21.554c-7.376,2.34-14.514-4.253-22.19-5.225-10.3-1.3-19.566,8.621-20.417,18.972s4.73,20.27,11.885,27.8c15.123,15.909,37.3,23.687,59.193,25.249s48.584,5.836,70.01,1.061c21.691-3.374,44.978-17.094,64.794-26.538S-9.193,50.55-.922,30.218C2.994,20.6,4.572,9.325,0,0" transform="translate(1482.177 779.952)"/>
      </g>
      <g id="Group_102" data-name="Group 102">
        <path id="Path_102" data-name="Path 102" class="cls-5" d="M0,0A1.144,1.144,0,0,0-1.558.414C-18.7,29.955-78.982,35.629-90.677,36.455c-.748-2.618-1.522-5.221-2.257-7.85-3.8-13.838-7.171-27.815-10.229-41.868-2.368-10.813-4.561-21.666-6.68-32.536a129.294,129.294,0,0,0,18.072-2.166C-71.5-51.8-41.049-62.258-27.893-90.809a1.134,1.134,0,0,0-.556-1.509,1.138,1.138,0,0,0-1.51.556c-18.385,39.892-71.894,43.4-80.326,43.7q-4.828-24.944-9.07-50.007-1.807-10.455-3.532-20.922c1.316-.155,3.131-.407,5.332-.822,16.315-3.085,53.153-15.025,53.839-59.978a1.137,1.137,0,0,0-1.122-1.155,1.142,1.142,0,0,0-1.156,1.121c-.352,23.193-10.393,40.123-29.84,50.324a80.5,80.5,0,0,1-27.417,8.267q-5.1-31.037-9.625-62.171c-4.209-28.495-8.264-57.025-11.87-85.6a.681.681,0,0,0-.743-.591.675.675,0,0,0-.6.745q4.59,43,10.211,85.872,4.947,36.783,10.663,73.468c-41.629,1.635-64.118-49.872-64.344-50.4a1.139,1.139,0,0,0-1.492-.6,1.136,1.136,0,0,0-.6,1.493c.232.546,23.422,53.7,66.794,51.774.515,3.281,1.018,6.563,1.546,9.843,3.8,23.06,7.924,46.073,12.566,69-60.379,8.935-80.285-27.364-80.482-27.738a1.142,1.142,0,0,0-1.537-.48,1.14,1.14,0,0,0-.48,1.536c.212.406,5.353,10.037,18.541,18.432,11.777,7.5,32.448,15.238,64.418,10.481.943,4.617,1.872,9.236,2.86,13.845C-104.412,1.78-101.078,15.84-97.3,29.8c1.628,5.971,3.383,11.944,5.4,17.83-7.889,2.632-64.5,20.165-94.87-7.73a1.14,1.14,0,0,0-1.608.068,1.14,1.14,0,0,0,.066,1.609c21.277,19.54,54.763,17.558,76.587,13.434a163.838,163.838,0,0,0,20.568-5.229,132.078,132.078,0,0,0,9.2,20.622.68.68,0,0,0,.795.316.679.679,0,0,0,.445-.852l-.005-.015c-3.259-10.384-6.321-20.753-9.312-31.162A236.64,236.64,0,0,0-63.995,35.26c3.338-.63,6.83-1.369,10.382-2.231C-26,26.328-7.821,15.74.412,1.559A1.139,1.139,0,0,0,0,0" transform="translate(1449.937 801.271)"/>
      </g>
      <g id="Group_103" data-name="Group 103">
        <path id="Path_103" data-name="Path 103" class="cls-6" d="M0,0-29.122-7.344c-1.716-17.468,1.226-37.435,12.2-59.6,3.39-6.843,7.086-13.335,10.977-19.554l26.98,11.175L.4-96.139c19.725-28.332,43.685-49.638,64.7-64.75l13.716,10.216-5.6-15.851C97.576-182.88,116.2-190.341,116.2-190.341a216.523,216.523,0,0,1,10.621,23.785l-15.456,9.666,17.962-2.931a301.578,301.578,0,0,1,14.8,59.83l-22.752,6.819,23.881,2.538c2.56,24.491,2.1,51.838-4.449,80.139a124.619,124.619,0,0,1-10.323,28.779L99.611,7.575l24.318,21.807C88.581,81.348,21.617,73.964,21.617,73.964s-38.94-25.375-48.9-69.838Z" transform="translate(291.776 851.514)"/>
      </g>
      <g id="Group_104" data-name="Group 104">
        <path id="Path_104" data-name="Path 104" class="cls-5" d="M0,0-17.426,50.4c-5.72,16.824-11.748,33.539-17.658,50.283C-41.031,117.413-47.1,134.1-53.42,150.661c-6.415,16.549-12.722,33.02-18.364,49.946a.811.811,0,0,0,.5,1.033.823.823,0,0,0,.943-.321c9.926-15.055,16.677-31.708,22.948-48.362q9.453-25.013,17.887-50.347c5.688-16.868,10.978-33.863,16.235-50.858,2.654-8.491,5.132-17.037,7.6-25.583S-.737,9.075,1.543.469A.806.806,0,0,0,.969-.516.811.811,0,0,0,0,0" transform="translate(391.626 704.469)"/>
      </g>
      <g id="Group_105" data-name="Group 105">
        <path id="Path_105" data-name="Path 105" class="cls-4" d="M0,0,20.074-5.062c1.183-12.042-.845-25.807-8.409-41.084C9.329-50.865,6.779-55.339,4.1-59.626l-18.6,7.7L-.277-66.274c-13.6-19.532-30.117-34.219-44.6-44.637l-9.455,7.043,3.86-10.927c-16.794-11.274-29.635-16.417-29.635-16.417a149.239,149.239,0,0,0-7.321,16.4l10.655,6.662-12.384-2.021a208,208,0,0,0-10.2,41.246l15.682,4.7-16.461,1.75A167.487,167.487,0,0,0-97.068-7.235,85.855,85.855,0,0,0-89.952,12.6l21.283-7.381L-85.434,20.255C-61.064,56.079-14.9,50.987-14.9,50.987S11.94,33.5,18.805,2.844Z" transform="translate(238.075 866.175)"/>
      </g>
      <g id="Group_106" data-name="Group 106">
        <path id="Path_106" data-name="Path 106" class="cls-6" d="M0,0,12.013,34.744c3.945,11.6,8.1,23.119,12.174,34.663,4.1,11.534,8.282,23.034,12.64,34.454,4.422,11.409,8.771,22.762,12.659,34.432a.558.558,0,0,1-.345.711.571.571,0,0,1-.652-.22c-6.841-10.38-11.495-21.859-15.818-33.34Q26.153,88.2,20.34,70.736C16.419,59.107,12.773,47.393,9.148,35.677c-1.83-5.855-3.536-11.745-5.241-17.636S.51,6.257-1.063.324A.557.557,0,0,1-.668-.355.558.558,0,0,1,0,0" transform="translate(169.241 764.806)"/>
      </g>
      <g id="Group_107" data-name="Group 107">
        <path id="Path_107" data-name="Path 107" class="cls-4" d="M0,0C.111-1.644-2.57-4.639-3.563-6.2c-.376-.585-.72-1.176-1.092-1.761A22.032,22.032,0,0,0-2.642-9.256,34.1,34.1,0,0,0,4.317-15.84a60.017,60.017,0,0,0,9.155-16.392c1.124-2.9,2.114-5.97,1.828-9.156s-2.139-6.519-5.11-7.646c-3.57-1.355-7.252.845-9.848,3.422A35.1,35.1,0,0,0-9.179-15.251c-1.084-1.763-2.219-3.517-3.28-5.283q-8.761-14.6-16.5-29.4c-.124-.235-.242-.472-.366-.708.5-.2,1.055-.456,1.742-.783a35.592,35.592,0,0,0,7.934-5.373A62.081,62.081,0,0,0-7.818-71.308c1.609-2.634,3.121-5.455,3.408-8.571s-.939-6.61-3.649-8.139c-3.256-1.837-7.245-.263-10.232,1.846a35.194,35.194,0,0,0-14.6,28.6A378.15,378.15,0,0,1-49.2-94.36c.508-.2,1.1-.48,1.837-.845a35.838,35.838,0,0,0,7.424-5.045,63.206,63.206,0,0,0,11.416-13.445,19.6,19.6,0,0,0,3.478-7.963c.376-2.93-.628-6.269-3.086-7.807-2.956-1.849-6.694-.452-9.512,1.5-7.473,5.051-13.761,15.156-14.29,26.028-.355-1.037-.73-2.07-1.073-3.107a216.7,216.7,0,0,1-8.419-33.007c.205-.06.393-.111.624-.181a32.464,32.464,0,0,0,7.456-3.427,56.343,56.343,0,0,0,12.305-10.5,18.032,18.032,0,0,0,4.3-6.77c.765-2.634.34-5.861-1.659-7.642-2.406-2.14-5.979-1.407-8.8-.034-6.6,3.121-12.9,9.964-15.731,18.252a174.19,174.19,0,0,1-.957-31.85c.2.031.372.062.591.1a29.681,29.681,0,0,0,8.136.064A48.709,48.709,0,0,0-40.058-184.7a16.672,16.672,0,0,0,6.35-4.571c1.621-2.129,2.327-5.243,1.07-7.614-1.513-2.849-5.094-3.545-8.189-3.413a30.112,30.112,0,0,0-22.305,11.777,126.911,126.911,0,0,1,9.327-35.152c.322-.178.675-.385,1.074-.616a33.707,33.707,0,0,0,6.587-5.165,54.586,54.586,0,0,0,9.664-13.387,18.627,18.627,0,0,0,2.606-8.111c.1-3.039-1.141-6.64-3.6-8.324-2.957-2.021-6.392-.494-8.907,1.636-7.116,5.887-12.316,17.8-11.032,29.138a3.056,3.056,0,0,0-.3.435,130.217,130.217,0,0,0-10.231,35.906,49.251,49.251,0,0,0-12.4-21.856c-2.334-2.234-5.462-4.163-8.2-2.371-2.284,1.487-3.38,5.232-3.091,8.5a20.71,20.71,0,0,0,3.158,8.655,43.993,43.993,0,0,0,11.159,12.968,28.41,28.41,0,0,0,7.152,4.036c.407.151.771.285,1.1.4a180.08,180.08,0,0,0,1.235,36.521c-5.029-7.915-13.044-14.127-20.533-16.579-2.927-.93-6.471-1.147-8.308,1.887-1.527,2.523-1.155,6.523.287,9.372a17.775,17.775,0,0,0,5.974,6.386,38.629,38.629,0,0,0,14.709,6.622,26.819,26.819,0,0,0,7.908.463c.445-.047.831-.089,1.179-.134a222.541,222.541,0,0,0,8.651,33.926c.009.024.019.048.027.073-6.694-6.634-15.531-11.216-23.364-12.464-3.323-.5-7.19-.123-8.646,3.482-1.212,3-.109,7.265,1.959,10.1A19.372,19.372,0,0,0-80.4-96.319a41.831,41.831,0,0,0,17.075,4.5,29.189,29.189,0,0,0,8.613-.949c.173-.048.309-.088.469-.133,4.051,10.805,8.753,21.515,13.864,32C-47.878-67.619-57.35-72.343-65.71-74c-3.681-.683-7.945-.521-9.493,3.152-1.286,3.057.02,7.6,2.38,10.7a23.535,23.535,0,0,0,8.586,6.586,48.786,48.786,0,0,0,19.126,5.447,32.026,32.026,0,0,0,9.514-.807c.417-.107.778-.2,1.12-.295.278.532.548,1.07.827,1.6q7.935,15.144,16.863,30.074c.326.545.682,1.082,1.011,1.627-8.971-6.207-19.866-9.91-28.952-10.35-3.783-.138-8,.652-8.915,4.555-.757,3.248,1.328,7.6,4.223,10.368a24.7,24.7,0,0,0,9.729,5.34,50.094,50.094,0,0,0,20.1,2.657,31.937,31.937,0,0,0,9.381-2.209c.255-.109.459-.2.687-.3.715,1.134,1.386,2.275,2.115,3.407C-6.558-1.1-5.1,2.207-3.521,2.68c.9.268,2.129-.475,2.872-1.36A2.556,2.556,0,0,0,0,0" transform="translate(1236.512 899.072)"/>
      </g>
      <g id="Group_108" data-name="Group 108">
        <path id="Path_108" data-name="Path 108" class="cls-6" d="M0,0S50.953-.969,73.95-28.217,72.02-82.63,49.03-77.671-4.318-30.777,0,0" transform="translate(1013.644 866)"/>
      </g>
      <g id="Group_109" data-name="Group 109">
        <path id="Path_109" data-name="Path 109" class="cls-6" d="M0,0S-50.952-.969-73.95-28.217s1.929-54.413,24.922-49.454S4.319-30.777,0,0" transform="translate(981.336 866)"/>
      </g>
      <g id="Group_110" data-name="Group 110">
        <path id="Path_110" data-name="Path 110" class="cls-4" d="M0,0A.8.8,0,0,0-1.059-.425c-9.265,3.968-20.932-.826-24.583-2.545a120.364,120.364,0,0,1,13.29-9.141.81.81,0,0,0,.316-1.1.807.807,0,0,0-1.1-.315,125.732,125.732,0,0,0-14.4,9.992.789.789,0,0,0-.232.181c-2.671,2.1-5.612,4.531-8.752,7.317-1.447-2.583-5.556-11.244-1.913-20.819A.808.808,0,0,0-38.9-17.9a.807.807,0,0,0-1.042.469c-4.086,10.734.764,20.107,2.185,22.5-4.529,4.083-9.43,8.874-14.48,14.408h0a.556.556,0,0,0-.04.047q-3.425,3.755-6.918,7.963A20.466,20.466,0,0,1-61.76,12.282a.806.806,0,0,0-.6-.971.809.809,0,0,0-.972.6,21.824,21.824,0,0,0,3.054,16.9c-2,2.462-4.009,5.025-6.008,7.718a.805.805,0,0,0,.169,1.129.788.788,0,0,0,.478.16.805.805,0,0,0,.65-.327c4.426-5.968,8.893-11.341,13.258-16.17,1.725,1.716,6.961,5.9,16.958,5.9a42.054,42.054,0,0,0,7.746-.76.808.808,0,0,0,.644-.943.806.806,0,0,0-.943-.645c-8.827,1.658-14.828.136-18.307-1.435a17.124,17.124,0,0,1-5.01-3.324A202.227,202.227,0,0,1-27.059-1.859a47.342,47.342,0,0,0,8.547,3.243,35.569,35.569,0,0,0,9.3,1.338A22.229,22.229,0,0,0-.424,1.06.807.807,0,0,0,0,0" transform="translate(1087.116 821.674)"/>
      </g>
      <g id="Group_111" data-name="Group 111">
        <path id="Path_111" data-name="Path 111" class="cls-4" d="M0,0A216.832,216.832,0,0,0-17.233-20.472c1.53-2.1,5.828-9.875-.317-24.85a.805.805,0,0,0-1.054-.441.806.806,0,0,0-.438,1.054c5.58,13.6,2.057,20.906.656,23.041-3.834-3.959-7.539-7.478-11.012-10.574a.8.8,0,0,0-.224-.2c-4.37-3.881-8.369-7.1-11.779-9.663A26.874,26.874,0,0,0-43.007-65.58a.809.809,0,0,0-1.1-.3.808.808,0,0,0-.3,1.1,25.664,25.664,0,0,1,1.664,21.674,110.83,110.83,0,0,0-10.4-6.949.808.808,0,0,0-1.1.316.807.807,0,0,0,.316,1.1c.157.088,9.486,5.334,22.31,16.586-3.877,1.28-15.937,4.634-28.154,1.64a.808.808,0,0,0-.977.593.806.806,0,0,0,.591.976,46.256,46.256,0,0,0,10.994,1.276,58.387,58.387,0,0,0,18.938-3.249A210.561,210.561,0,0,1-9.134-8.976,10.879,10.879,0,0,1-14.088-6.2c-3.552.987-9.841,1.182-19.627-3.5a.806.806,0,0,0-1.077.379.809.809,0,0,0,.379,1.078c6.67,3.189,11.864,4.264,15.838,4.264,5.983,0,9.192-2.432,10.486-3.74Q-4.7-3.6-1.3.962a.807.807,0,0,0,.651.327.8.8,0,0,0,.48-.16A.808.808,0,0,0,0,0" transform="translate(975.973 860.717)"/>
      </g>
      <g id="Group_112" data-name="Group 112">
        <path id="Path_112" data-name="Path 112" class="cls-6" d="M0,0C-11.171-8.309-25.152-8.309-36.323,0c-15.1,11.229-27.612,33.957-21.668,66.6,8.3,45.567,39.828,60.019,39.828,60.019S13.368,112.171,21.665,66.6C27.611,33.957,15.1,11.229,0,0" transform="translate(1015.652 739.377)"/>
      </g>
      <g id="Group_113" data-name="Group 113">
        <path id="Path_113" data-name="Path 113" class="cls-4" d="M0,0A.808.808,0,0,0-.988.571c-5.091,19.006-24.678,31.279-29.6,34.1.087-5,.277-9.778.518-14.151,1.167-21.238,3.723-37.9,3.749-38.071a.808.808,0,0,0-.673-.922.812.812,0,0,0-.924.675c-.038.25-1.491,9.811-2.7,23.715A25.782,25.782,0,0,1-49.612-10.113a.809.809,0,0,0-1.048-.456.806.806,0,0,0-.455,1.047A27.473,27.473,0,0,0-30.754,7.534c-1.3,15.543-2.227,36.04-.631,55.029C-36.306,60.4-55.055,51.17-58.372,35.031a.807.807,0,0,0-.954-.628.805.805,0,0,0-.627.953C-58.3,43.4-52.721,51-43.816,57.35a66.126,66.126,0,0,0,12.593,7.042,134.866,134.866,0,0,0,4.157,23.885.8.8,0,0,0,.775.588.8.8,0,0,0,.221-.031.808.808,0,0,0,.557-1c-4.279-15.11-5.307-34.359-5.1-51.295C-27.506,34.841-5.032,21.911.571.989A.806.806,0,0,0,0,0" transform="translate(1024.194 769.34)"/>
      </g>
      <g id="Group_114" data-name="Group 114">
        <path id="Path_114" data-name="Path 114" class="cls-5" d="M0,0C0-6.515-29.74-11.794-66.428-11.794c-28.137,0-52.171,3.107-61.852,7.494q-4.271-.078-8.657-.079c-46.518,0-84.229,6.694-84.229,14.953s37.711,14.955,84.229,14.955c44.674,0,81.2-6.176,84.032-13.981C-22.7,10.439,0,5.69,0,0" transform="translate(993.759 671.767)"/>
      </g>
      <g id="Group_115" data-name="Group 115">
        <path id="Path_115" data-name="Path 115" class="cls-6" d="M0,0C.925-8.4-3.162-16.4-6.088-24.329s-4.518-17.542.633-24.235c1.938-2.521,4.671-4.358,6.527-6.937C5.24-61.283,4.058-69.514.585-75.739S-8.265-86.861-12.749-92.4a38.42,38.42,0,0,1-6.011-9.9,2.725,2.725,0,0,0-4.8-.527C-31.574-90.774-51.4-84.445-61.271-76.363a16.085,16.085,0,0,0-5.043,6.142c-3.169,7.85,3.083,16.409.406,24.536-2.75,8.344-10.243,14.117-14.593,21.521C-89.447-8.928-82.411,6.7-72.4,19.3-67.59,25.341-61.476,30.5-57.1,36.8c.728,1.047,6.885,10.651,6.91,10.609,6.432-10.379,17.563-15.592,27.834-21.378C-11.994,20.195-1.306,11.825,0,0" transform="translate(656.326 869.156)"/>
      </g>
      <g id="Group_116" data-name="Group 116">
        <path id="Path_116" data-name="Path 116" class="cls-4" d="M0,0A.771.771,0,0,0-1.045.359c-7.5,15.3-26.929,16.01-30.848,15.992-.992-10.263-.977-24.2,3.7-36.517,3.587.486,20.614,2.091,28.016-9.77a.782.782,0,0,0-.251-1.077.779.779,0,0,0-1.075.248c-6.572,10.533-22.021,9.552-26.082,9.094A43.069,43.069,0,0,1-19.606-34.4c.794-.832,1.536-1.691,2.251-2.559a.014.014,0,0,1,.006-.008,54.369,54.369,0,0,0,9.285-16.9C-5.1-53.512,7.313-52.744,10-64.77a.783.783,0,0,0-.594-.933.781.781,0,0,0-.932.593C6.122-54.575-4.444-55.01-7.559-55.377A74.609,74.609,0,0,0-4.226-81.264a.781.781,0,0,0-.846-.71.783.783,0,0,0-.712.847c.023.259,1.955,24.9-12.463,42.785-1.994-.636-9.752-3.456-13.178-9.7-1.907-3.478-2.168-7.482-.778-11.905a.78.78,0,0,0-.511-.979.805.805,0,0,0-.978.511c-1.526,4.844-1.223,9.259.9,13.123,3.449,6.288,10.661,9.284,13.473,10.249-.461.531-.934,1.057-1.426,1.574A45.107,45.107,0,0,0-29.34-21.488a.769.769,0,0,0-.145.325c0,.014,0,.027,0,.04A71.231,71.231,0,0,0-33.9.913c-2.672.547-14.468,2.018-20.559-12.768a.779.779,0,0,0-1.019-.423.777.777,0,0,0-.423,1.02c3.743,9.089,9.656,12.429,14.543,13.521a19.848,19.848,0,0,0,7.386.234c-.053,1.57-.07,3.1-.053,4.55A113.4,113.4,0,0,0-30.952,31.7a.772.772,0,0,0,.584.561A.766.766,0,0,0-30,32.257a.779.779,0,0,0,.554-.955,104.329,104.329,0,0,1-2.286-13.39C-27.2,17.9-7.424,16.934.357,1.046A.78.78,0,0,0,0,0" transform="translate(636.826 864.749)"/>
      </g>
    </g>
  </g>
</svg>
