<svg xmlns="http://www.w3.org/2000/svg" xmlns:xlink="http://www.w3.org/1999/xlink" viewBox="27 57 321.673 554.12">
  <defs>
    <style>
      .cls-1 {
        fill: none;
      }

      .cls-2 {
        clip-path: url(#clip-path);
      }

      .cls-3 {
        fill: #154352;
      }

      .cls-4 {
        fill: #215766;
      }

      .cls-5 {
        fill: #8abcdb;
      }

      .cls-6 {
        fill: #5f96b1;
      }

      .cls-7 {
        fill: #acbdc4;
      }

      .cls-8 {
        fill: #cfd7dc;
      }

      .cls-9 {
        fill: #ee6d4a;
      }

      .cls-10 {
        fill: #ff8a66;
      }

      .cls-11 {
        fill: #db604d;
      }

      .cls-12 {
        fill: #1a4750;
      }

      .cls-13 {
        fill: #0e3944;
      }

      .cls-14 {
        fill: #ce364b;
      }

      .cls-15 {
        fill: #9f2d44;
      }
    </style>
    <clipPath id="clip-path">
      <path id="Path_37" data-name="Path 37" class="cls-1" d="M0-554.12H321.673V0H0Z" transform="translate(0 554.12)"/>
    </clipPath>
  </defs>
  <g id="Group_38" data-name="Group 38" transform="translate(27 57)">
    <g id="Group_37" data-name="Group 37" class="cls-2">
      <g id="Group_1" data-name="Group 1">
        <path id="Path_1" data-name="Path 1" class="cls-3" d="M0,0A32.173,32.173,0,0,1-.252,4.19H-71.364c0-1.4.024-2.808.1-4.19a130.609,130.609,0,0,1,6.677-34.739l17.774-7.635c1.53,9.162,5.471,15.014,10.417,18.829a25.312,25.312,0,0,0,4.067,2.609c.651.354,1.305.68,1.982.981A34.882,34.882,0,0,0-25.8-18.273c6.275,1.908,12.625,2.309,17.07,2.985C-1.155-14.109,0-5.348,0,0" transform="translate(321.673 549.93)"/>
      </g>
      <g id="Group_2" data-name="Group 2">
        <path id="Path_2" data-name="Path 2" class="cls-4" d="M0,0A32.173,32.173,0,0,1-.252,4.19H-71.364c0-1.4.024-2.808.1-4.19Z" transform="translate(321.673 549.93)"/>
      </g>
      <g id="Group_3" data-name="Group 3">
        <path id="Path_3" data-name="Path 3" class="cls-4" d="M0,0-9.865,3.161-11.949-.45l7.882-2.159A25.381,25.381,0,0,0,0,0" transform="translate(289.343 528.994)"/>
      </g>
      <g id="Group_4" data-name="Group 4">
        <path id="Path_4" data-name="Path 4" class="cls-4" d="M0,0-6.652,4.416l-4.092-1.607,6.2-4.491A34.684,34.684,0,0,0,0,0" transform="translate(295.869 531.656)"/>
      </g>
      <g id="Group_5" data-name="Group 5">
        <path id="Path_5" data-name="Path 5" class="cls-3" d="M0,0A17.866,17.866,0,0,1-.8,4.19H-48.17A21.236,21.236,0,0,1-49.5,0c-4.668-22.667,26.808-50.406,26.808-50.406L-12.7-37.075S-13.857-15.738-5.4-11.3C-.327-8.638.326-3.617,0,0" transform="translate(49.974 549.93)"/>
      </g>
      <g id="Group_6" data-name="Group 6">
        <path id="Path_6" data-name="Path 6" class="cls-4" d="M0,0H49.5a17.866,17.866,0,0,1-.8,4.19H1.331A21.236,21.236,0,0,1,0,0" transform="translate(0.473 549.93)"/>
      </g>
      <g id="Group_7" data-name="Group 7">
        <path id="Path_7" data-name="Path 7" class="cls-4" d="M0,0S-19.955-4.548-29.056,1.343v-3.3S-12.27-10.112,0,0" transform="translate(42.411 536.933)"/>
      </g>
      <g id="Group_8" data-name="Group 8">
        <path id="Path_8" data-name="Path 8" class="cls-4" d="M0,0S-12.742-5.829-25.1,0l1.414-3.325S-8.927-8.906,0,0" transform="translate(38.457 531.873)"/>
      </g>
      <g id="Group_9" data-name="Group 9">
        <path id="Path_9" data-name="Path 9" class="cls-5" d="M0,0C.024,19.05-16.9,174.38-16.9,174.38a98.767,98.767,0,0,1-30.473-1.709c-4.644-78.716-5.1-146.414-5.1-146.414l-81.078-60.775-.2-.15s-.3,1.382-.853,3.842C-138.611-13-155.6,61.649-162.685,78.743c-8.056,19.478-96.158,101.391-96.158,101.391-16.367-2.257-30.253-14.113-30.253-14.113,31.629-52.464,74.751-105.074,74.751-105.074,3.365-18.9,5.774-60.947,7.2-92.374.027-.476.051-.98.076-1.457.954-21.289,1.432-37.353,1.432-37.353l-14.861-30.474,94.408-34.69,21.16,27.087s4.844,4.5,12.477,11.67l1.053.981C-63.056-68.93,0-8.535,0,0" transform="translate(300.212 348.414)"/>
      </g>
      <g id="Group_10" data-name="Group 10">
        <path id="Path_10" data-name="Path 10" class="cls-6" d="M0,0C.026-.477.051-.98.075-1.457c19.882-10.792,16.544-28.014,16.493-28.19L17.8-29.9C17.849-29.723,21.412-11.221,0,0" transform="translate(93.071 316.987)"/>
      </g>
      <g id="Group_11" data-name="Group 11">
        <path id="Path_11" data-name="Path 11" class="cls-6" d="M0,0A107,107,0,0,1,1.455,12.17l-.2-.15S.953,13.4.4,15.861C-.478-13.658-12.651-31.1-12.8-31.3l1.03-.728c.125.149,7.806,11.247,11.52,30.6,14.357-12.748.3-38.88.15-39.132L1-41.169C1.154-40.9,16.04-13.23,0,0" transform="translate(165.215 301.726)"/>
      </g>
      <g id="Group_12" data-name="Group 12">
        <path id="Path_12" data-name="Path 12" class="cls-6" d="M0,0C-.024.026-.075.026-.1.048A5.355,5.355,0,0,1-2.059.375c-6.952,0-18.625-9.736-19.177-10.214l.828-.953C-16.617-7.582-6.05.123-1.054-.98L0,0" transform="translate(208.816 252.751)"/>
      </g>
      <g id="Group_13" data-name="Group 13">
        <path id="Path_13" data-name="Path 13" class="cls-7" d="M0,0S28.719-4.623,43.107,4.548s33.28,33.115,33.28,33.115-22.43,2.962-24.969,18.2c0,0-16.292-38.8-51.418-55.86" transform="translate(86.328 85.22)"/>
      </g>
      <g id="Group_14" data-name="Group 14">
        <path id="Path_14" data-name="Path 14" class="cls-8" d="M0,0C-12.146,6.566-32.452,31.224-33.37,46.384c-.9,14.788,10.06,28.388,17.444,39.954C7.12,122.419,31.385,154.3,41.695,196.618c.065.269,52.712,21.16,114.5-53.109,0,0-34.914-46.975-46.975-86.969-4.91-16.277-9.9-33.569-19.334-47.916C79.5-7.185,61.708-16.479,43.2-14.979,27.543-13.711,11.969-6.474,0,0" transform="translate(43.127 100.198)"/>
      </g>
      <g id="Group_15" data-name="Group 15">
        <path id="Path_15" data-name="Path 15" class="cls-9" d="M0,0S7.77,13.278,4.179,20.578c0,0,26.661,9.207,26.661-5.714,0,0-5.026-11.181-3.131-18.41Z" transform="translate(38.031 85.061)"/>
      </g>
      <g id="Group_16" data-name="Group 16">
        <path id="Path_16" data-name="Path 16" class="cls-9" d="M0,0S-14.83,4.213-18.573,9.463-25.645,26.49-25.645,26.49H0l4.822-8.871L10.468,5.794Z" transform="translate(97.275 175.969)"/>
      </g>
      <g id="Group_17" data-name="Group 17">
        <path id="Path_17" data-name="Path 17" class="cls-3" d="M0,0S10.41-4.367,3.674-35.684C-.788-56.438-7.218-59.529-11.371-59.71c0,0-5.082-7.658-22.712-3.992-12.073,2.508-21.706,9.843-25.947,23.408C-64.457-26.128-55.6,4.226-43.943,7.25Z" transform="translate(72.759 70.259)"/>
      </g>
      <g id="Group_18" data-name="Group 18">
        <path id="Path_18" data-name="Path 18" class="cls-10" d="M0,0S6.562-9.132,9.039-.132C11.911,10.3,2.974,16.167.534,13.1S0,0,0,0" transform="translate(75.221 49.094)"/>
      </g>
      <g id="Group_19" data-name="Group 19">
        <path id="Path_19" data-name="Path 19" class="cls-10" d="M0,0S-9.146-6.54-8.6,2.782c.629,10.8,10.978,13.482,12.305,9.794S0,0,0,0" transform="translate(20.316 58.721)"/>
      </g>
      <g id="Group_20" data-name="Group 20">
        <path id="Path_20" data-name="Path 20" class="cls-10" d="M0,0C17.427-2.875,25.384-15.879,19.752-50.018,16.846-67.628,6.1-76.95-13.413-73.73S-39.371-58.355-36.466-40.745C-30.414-4.058-18,2.972,0,0" transform="translate(54.893 91.941)"/>
      </g>
      <g id="Group_21" data-name="Group 21">
        <path id="Path_21" data-name="Path 21" class="cls-11" d="M0,0C-.016,1.8,1.8,3.281,4.052,3.3S8.146,1.876,8.163.075s-1.8-3.281-4.052-3.3S.018-1.8,0,0" transform="translate(26.205 62.421)"/>
      </g>
      <g id="Group_22" data-name="Group 22">
        <path id="Path_22" data-name="Path 22" class="cls-11" d="M0,0C.409,1.757,2.52,2.764,4.714,2.252S8.357-.093,7.948-1.85,5.43-4.615,3.234-4.1-.408-1.753,0,0" transform="translate(62.207 57.462)"/>
      </g>
      <g id="Group_23" data-name="Group 23">
        <path id="Path_23" data-name="Path 23" class="cls-12" d="M0,0A.862.862,0,0,1-.5-.155.883.883,0,0,1-.73-1.382C1.707-4.955,6.6-5.639,6.8-5.67a.873.873,0,0,1,.989.76.886.886,0,0,1-.758.993C6.992-3.913,2.714-3.3.73-.389A.882.882,0,0,1,0,0" transform="translate(31.111 43.407)"/>
      </g>
      <g id="Group_24" data-name="Group 24">
        <path id="Path_24" data-name="Path 24" class="cls-12" d="M0,0A.862.862,0,0,1-.532-.181C-3.354-2.31-7.593-1.506-7.635-1.5A.87.87,0,0,1-8.671-2.19a.878.878,0,0,1,.693-1.038c.2-.04,5.055-.967,8.51,1.638A.884.884,0,0,1,.7-.354.879.879,0,0,1,0,0" transform="translate(63.923 37.993)"/>
      </g>
      <g id="Group_25" data-name="Group 25">
        <path id="Path_25" data-name="Path 25" class="cls-12" d="M0,0C.357,2.168,1.623,3.762,2.823,3.563S4.712,1.448,4.354-.715,2.733-4.474,1.532-4.274-.355-2.164,0,0" transform="translate(34.284 52.389)"/>
      </g>
      <g id="Group_26" data-name="Group 26">
        <path id="Path_26" data-name="Path 26" class="cls-12" d="M0,0C.357,2.164,1.62,3.758,2.823,3.559S4.709,1.444,4.354-.72,2.733-4.478,1.53-4.279-.357-2.164,0,0" transform="translate(57.558 48.551)"/>
      </g>
      <g id="Group_27" data-name="Group 27">
        <path id="Path_27" data-name="Path 27" class="cls-12" d="M0,0S-15.118,4.054-23.5,2.442c0,0,5.8,7.3,14.07,5.2S0,0,0,0" transform="translate(64.091 68.202)"/>
      </g>
      <g id="Group_28" data-name="Group 28">
        <path id="Path_28" data-name="Path 28" class="cls-13" d="M0,0S-19.67,14.241-44.36,15.327l.7,21.978S-66.672-5.1-21.16-12.607,11.106,27.246,11.106,27.246,9.695,6.818,0,0" transform="translate(64.806 26.079)"/>
      </g>
      <g id="Group_29" data-name="Group 29">
        <path id="Path_29" data-name="Path 29" class="cls-11" d="M0,0-.126-1.9c.026,0,2.652-.2,3.334-1.829.283-.671-.837-2.8-1.823-4.685a36.064,36.064,0,0,1-3.8-9.485l1.868-.375A34.39,34.39,0,0,0,3.071-9.3C4.535-6.5,5.591-4.486,4.964-2.989,3.824-.278.157-.009,0,0" transform="translate(48.717 62.293)"/>
      </g>
      <g id="Group_30" data-name="Group 30">
        <path id="Path_30" data-name="Path 30" class="cls-14" d="M0,0C-33.085-14.356-64.312,15.411-64.312,15.411S-67.95-8.708-61.573-14.356A38.082,38.082,0,0,1-56.279-18.3c14.609-9.211,34.039-9.035,42.95-5.873a10.806,10.806,0,0,1,4.041,2.261C-4.016-16.44,0,0,0,0" transform="translate(75.477 26.132)"/>
      </g>
      <g id="Group_31" data-name="Group 31">
        <path id="Path_31" data-name="Path 31" class="cls-8" d="M0,0S-27.789-5.5-53.694,11.645c0,0-1.657-15.562,1.43-24.575,14.61-9.211,34.039-9.034,42.951-5.873C-4.118-12.876,0,0,0,0" transform="translate(71.461 20.763)"/>
      </g>
      <g id="Group_32" data-name="Group 32">
        <path id="Path_32" data-name="Path 32" class="cls-15" d="M0,0S4.407-18.71,10.342-23.978c9.872-8.765,37.611-11.777,52.19-6.509s0,21.2,0,21.2S39.3-25.93,0,0" transform="translate(13.9 38.708)"/>
      </g>
      <g id="Group_33" data-name="Group 33">
        <path id="Path_33" data-name="Path 33" class="cls-10" d="M0,0S11.357,17.588,30.7,27.938c0,0,24.195-21,55.565-19.111,0,0-26,46.909-48.326,52.107C26.2,63.662-16.221,35.569-16.221,35.569S-7.752,5.714,0,0" transform="translate(56.809 163.026)"/>
      </g>
      <g id="Group_34" data-name="Group 34">
        <path id="Path_34" data-name="Path 34" class="cls-7" d="M0,0C10.393-16.921,34.368,8.09,42.526,25.952S56.642,47.6,56.642,47.6,32.686,57.608,32.855,75.563C32.855,75.563-22.678,36.916,0,0" transform="translate(14.989 131.139)"/>
      </g>
      <g id="Group_35" data-name="Group 35">
        <path id="Path_35" data-name="Path 35" class="cls-9" d="M0,0S14.593-14.316,62.572-33L56.377-52.486C61.879-59.728,72-59.728,72-59.728S96.583-25.016,92.351-14.647C89.707-8.174,38.431-1.378,0,0" transform="translate(87.505 183.237)"/>
      </g>
      <g id="Group_36" data-name="Group 36">
        <path id="Path_36" data-name="Path 36" class="cls-10" d="M0,0A12.772,12.772,0,0,1,2.153-4.553c1.773-2.5,1.291-7.061,1.927-8.469S8.489-20.207,11-21.329s5.791-2.958,6.491.221S13-18.829,10.671-14.259c0,0,5.1-1.647,9.137-.689S25-10.3,20-10.417c-3.983-.1-9.114,2.742-9.114,2.742s5.19.778,4.353,3.171C14.082-1.192,7.752-3.232,0,0" transform="translate(140.051 154.914)"/>
      </g>
    </g>
  </g>
</svg>
