<svg xmlns="http://www.w3.org/2000/svg" xmlns:xlink="http://www.w3.org/1999/xlink" width="427.233" height="411.292" viewBox="0 0 427.233 411.292">
  <defs>
    <clipPath id="clip-path">
      <rect id="Rectangle_6" data-name="Rectangle 6" width="427.233" height="411.292" transform="translate(-1041.943 -472.178)" fill="none"/>
    </clipPath>
  </defs>
  <g id="design" transform="translate(1041.943 472.178)">
    <path id="Path_514" data-name="Path 514" d="M-693.395-337.076l-.283-69.2,54.814-.225.283,69.2-54.814.225Z" fill="#345863"/>
    <path id="Path_515" data-name="Path 515" d="M-693.4-337.076s.356-.018,1.022-.027q1.024-.015,2.936-.038l11.116-.1,39.74-.274-.216.216c-.093-19.763-.206-43.569-.326-69.19v-.006l.261.259-54.814.2.233-.234c.035,20.517.066,37.785.087,49.945,0,6.076,0,10.875,0,14.174-.006,1.636-.01,2.894-.012,3.767,0,.417-.007.739-.01.975,0,.219-.012.338-.012.338a2.319,2.319,0,0,1-.015-.313c0-.228-.009-.542-.018-.947-.009-.863-.024-2.106-.042-3.72-.028-3.288-.069-8.069-.12-14.124-.077-12.193-.189-29.513-.321-50.092l0-.234.234,0,54.814-.25.262,0v.268c.088,25.621.17,49.427.238,69.19v.218h-.217l-39.875.051-11.068-.01q-1.884-.01-2.9-.013c-.652-.005-.976-.02-.976-.02Z" fill="#345863"/>
    <path id="Path_516" data-name="Path 516" d="M-669.45-338.726l.008,1.847,7.6-.031-.007-1.846-7.6.03Z" fill="#4c6d75"/>
    <path id="Path_517" data-name="Path 517" d="M-657.414-358.2l-16.626.068-.1-24.014,16.625-.067.1,24.013Z" fill="#4c6d75"/>
    <path id="Path_518" data-name="Path 518" d="M-668.657-407.314l.006,1.579,7.6-.03,0-1.58-7.6.031Z" fill="#4c6d75"/>
    <path id="Path_519" data-name="Path 519" d="M-946.79-450.5h-49.531v64.592l49.531,1.242V-450.5Z" fill="#2f383a"/>
    <path id="Path_520" data-name="Path 520" d="M-950.049-448.2h-43.342v58.58l43.342,1.463V-448.2Z" fill="#4c6d75"/>
    <path id="Path_521" data-name="Path 521" d="M-957.639-437.559l-28.762-1.1v40.945h28.762v-39.85Z" fill="#2f383a"/>
    <path id="Path_522" data-name="Path 522" d="M-986.4-397.709l28.762-21.035-28.762-19.91v40.945Z" fill="#345863"/>
    <path id="Path_523" data-name="Path 523" d="M-986.4-351.147h-33.8v44.082l33.8.848v-44.93Z" fill="#2f383a"/>
    <path id="Path_524" data-name="Path 524" d="M-988.625-349.58h-29.58V-309.6l29.58,1v-40.98Z" fill="#4c6d75"/>
    <path id="Path_525" data-name="Path 525" d="M-993.8-342.314l-19.63-.748v27.945h19.63v-27.2Z" fill="#2f383a"/>
    <path id="Path_526" data-name="Path 526" d="M-1013.434-315.117l19.63-14.356-19.63-13.589v27.945Z" fill="#345863"/>
    <path id="Path_527" data-name="Path 527" d="M-694.726-107.1c-1.329-1.133-4.293-4.728-2.007-8.906.838-1.533,2.617-2.291,4.229-2.967a17.193,17.193,0,0,0,4.636-2.39c2.513-2.129,3.207-5.665,4.875-8.506,1.916-3.258,5.492-5.7,9.269-5.53,4.326.194,7.934,3.712,9.569,7.723s1.693,8.461,1.726,12.791c.019,2.395-.088,5.094-1.854,6.711-1.629,1.491-4.08,1.51-6.286,1.442q-11.82-.363-23.639-.723" fill="#2f383a"/>
    <g id="Group_8" data-name="Group 8">
      <g id="Group_7" data-name="Group 7" clip-path="url(#clip-path)">
        <path id="Path_528" data-name="Path 528" d="M-655.864-146.426h-5.689l1.395-16.243h6.208l-1.914,16.243Zm-4.856,41.189h-4.367l1.307-15.238h4.856l-1.8,15.238Zm-42.687-57.432c.224,1.176,1.256,7.567,2.638,16.243h-5.674l-2.736-16.243Zm34.351,16.243.542-16.243h7.793l-1.4,16.243Zm-1.375,41.189.509-15.238h5.579l-1.308,15.238Zm-26.23-15.238c.831,5.275,1.649,10.472,2.4,15.238h-5.24l-2.568-15.238Zm-.663-4.206h-5.455l-2.955-17.539h5.634c.861,5.422,1.815,11.453,2.776,17.539Zm7.548-17.539,1.369,17.539h-8.349c-.282-1.779-.566-3.58-.85-5.38-.655-4.141-1.31-8.28-1.926-12.159Zm-.328-4.206h-10.1c-.357-2.243-.7-4.366-1-6.276-1.052-6.568-1.449-9.037-1.669-9.967h11.5l1.269,16.243Zm10.1,0h-9.543l-1.268-16.243h10.435l.376,16.243Zm.561,0-.376-16.243h10.737l-.542,16.243Zm.5,21.745-.407-17.539h9.584l-.587,17.539Zm-8.91,0-1.368-17.539h9.311l.4,17.539Zm.957,19.444h-6.806c-.646-4.114-1.488-9.461-2.4-15.238h8.015l1.191,15.238Zm-.628-15.238h8.117l.353,15.238h-7.281l-1.189-15.238Zm9.031,15.238-.352-15.238h8.352l-.508,15.238Zm16.571-36.983h5.554l-2.068,17.539h-4.99l1.5-17.539Zm-2.068,17.539h-5.8l.586-17.539h6.721l-1.506,17.539Zm10.664-38.548h-56.524l10.181,60.433a6.763,6.763,0,0,0,4.827,5.381l.2.053c.168.043.331.1.5.13a7,7,0,0,0,1.149.131l.009.059.276-.045,0,0h25.192a7.081,7.081,0,0,0,1.383-.139,6.789,6.789,0,0,0,5.719-5.906l4.908-41.64.222-1.656h-.026l1.943-16.489.038-.314Z" fill="#345863"/>
        <path id="Path_529" data-name="Path 529" d="M-614.71-96.661c0,.213-95.647.383-213.606.383-118,0-213.627-.17-213.627-.383s95.626-.381,213.627-.381c117.959,0,213.606.172,213.606.381" fill="#192e35"/>
      </g>
    </g>
    <path id="Path_530" data-name="Path 530" d="M-841.652-335.2l-61.839-.232.323-86.285,61.841.232-.325,86.285Z" fill="#345863"/>
    <path id="Path_531" data-name="Path 531" d="M-889.307-361.1a2.305,2.305,0,0,1,.24-.012c.174,0,.4-.008.681-.012q.93-.009,2.625-.026c2.3-.011,5.631-.029,9.854-.048l-.141.14c-.022-4.357-.049-9.755-.081-15.937v-.2l.2,0,9.643-.172.22,0,0,.22c.1,4.92.21,10.337.326,16.046l-.243-.241,13.742.1-.258.263c-.123-4.667-.25-9.532-.38-14.5-.1-3.752-.192-7.448-.285-11.059l.1.2-19.171-14.78.3-.012c-6.634,6.006-12.595,11.4-17.669,15.995l.06-.138c.088,7.435.158,13.454.207,17.643.017,2.076.03,3.7.038,4.827,0,.538,0,.956,0,1.267a4.19,4.19,0,0,1-.011.442,3.066,3.066,0,0,1-.026-.405c-.011-.3-.024-.711-.041-1.234-.031-1.119-.074-2.727-.129-4.784-.1-4.214-.235-10.269-.406-17.749l0-.082.062-.057c5.053-4.617,10.99-10.039,17.6-16.074l.145-.133.157.121c5.95,4.568,12.4,9.525,19.2,14.744l.1.074,0,.124c.095,3.611.191,7.306.289,11.058.128,4.967.253,9.83.372,14.5l.007.265-.265,0-13.742-.116-.239,0,0-.239c-.1-5.709-.192-11.128-.276-16.047l.224.216-9.645.127.2-.2c-.013,6.182-.024,11.578-.032,15.937v.143l-.141,0-9.937-.108-2.593-.042c-.274-.008-.489-.012-.657-.018a.95.95,0,0,1-.213-.015Z" fill="#192e35"/>
    <path id="Path_532" data-name="Path 532" d="M-899.452-418.978s.319-.011.963-.011l2.863.011,10.984.076,39.922.359.207,0v.208c.013,21.945.03,49.391.048,79.11v.26h-.259l-.409,0c-19.308.115-37.662.227-54.155.326l-.241,0v-.24c0-23.635,0-43.684,0-57.842.014-7.039.024-12.609.031-16.441.009-1.888.015-3.343.02-4.346.005-.478.009-.846.011-1.111.005-.248.014-.367.014-.367s.009.138.015.394c0,.273.009.649.016,1.139.009,1.013.021,2.485.037,4.393.023,3.845.056,9.434.1,16.495.057,14.119.138,34.115.234,57.686l-.239-.237,54.155-.372.409,0-.259.26c.02-29.719.039-57.165.054-79.11l.207.21-39.788-.58c-4.758-.078-8.478-.141-11.03-.184l-2.9-.056c-.657-.016-1.007-.035-1.007-.035Z" fill="#192e35"/>
    <path id="Path_533" data-name="Path 533" d="M-852.273-424.744l13.018,12.92,2.282-2.95-13.1-11.741-2.2,1.771Z" fill="#385a65"/>
    <path id="Path_534" data-name="Path 534" d="M-908.052-342.979l13.019,12.92,2.281-2.951-13.1-11.741-2.2,1.772Z" fill="#385a65"/>
    <path id="Path_535" data-name="Path 535" d="M-844.725-343.213a23.5,23.5,0,0,1-3.5.211c-2.161.064-5.145.115-8.442.141-3.078.025-5.885.021-7.973-.006l.191-.2c.021,1.223.029,2.215.022,2.9a3.919,3.919,0,0,1-.068,1.068,3.98,3.98,0,0,1-.147-1.06c-.058-.685-.124-1.674-.193-2.9l-.012-.193.2-.006c2.089-.058,4.9-.1,7.973-.129,3.3-.027,6.282-.019,8.443.01a23.3,23.3,0,0,1,3.5.158Z" fill="#192e35"/>
    <path id="Path_536" data-name="Path 536" d="M-751.051-347.022l-42.341,8.9L-805.808-397.2l42.341-8.9,12.416,59.081Z" fill="#345863"/>
    <path id="Path_537" data-name="Path 537" d="M-787.447-357.76a1.124,1.124,0,0,1,.165-.049l.467-.113c.44-.1,1.035-.238,1.794-.412l6.719-1.5-.109.168c-.66-2.984-1.474-6.67-2.406-10.889l-.042-.189.191-.045,6.571-1.537.214-.049.05.213c.792,3.352,1.663,7.043,2.581,10.93l-.288-.184,9.415-1.953-.2.311c-.769-3.174-1.568-6.483-2.384-9.862l-1.815-7.523.141.172-15.28-7.31.293-.075c-3.661,5.074-6.952,9.635-9.757,13.521l.029-.147c1.131,5.056,2.05,9.157,2.693,12.03.307,1.408.549,2.516.721,3.307.075.359.136.646.183.871a2.208,2.208,0,0,1,.052.312,1.408,1.408,0,0,1-.082-.267c-.054-.215-.125-.489-.214-.831-.191-.778-.459-1.864-.8-3.245-.7-2.891-1.688-7.012-2.912-12.094l-.018-.08.048-.069,9.674-13.584.113-.16.18.085,15.3,7.27.111.052.029.12q.89,3.686,1.818,7.524c.815,3.379,1.612,6.688,2.377,9.863l.063.258-.26.053-9.42,1.93-.235.048-.053-.232c-.9-3.891-1.756-7.584-2.532-10.94l.264.165-6.582,1.493.15-.235c.89,4.228,1.666,7.921,2.294,10.912l.031.142-.139.026-6.831,1.361-1.778.34a4.249,4.249,0,0,1-.594.1Z" fill="#192e35"/>
    <path id="Path_538" data-name="Path 538" d="M-802.866-395.875s.212-.057.649-.153l1.954-.418,7.515-1.572,27.379-5.636.2-.042.043.2c3.229,15.016,7.265,33.787,11.635,54.113l.055.254-.253.055-.279.061c-13.193,2.907-25.734,5.669-37,8.151l-.235.051-.049-.234c-3.449-16.176-6.373-29.9-8.443-39.605-1.01-4.806-1.813-8.616-2.366-11.248l-.614-2.972c-.062-.319-.112-.569-.149-.759a1.517,1.517,0,0,1-.04-.25,2.186,2.186,0,0,1,.074.272c.045.2.1.451.182.779.159.705.386,1.711.679,3.006.586,2.639,1.433,6.458,2.5,11.275,2.118,9.655,5.112,23.309,8.64,39.4l-.284-.182,36.995-8.193c.1-.02.192-.042.279-.061l-.2.309c-4.333-20.334-8.334-39.115-11.535-54.136l.246.161c-11.388,2.252-20.752,4.1-27.294,5.395l-7.583,1.476-2,.38c-.455.084-.7.118-.7.118Z" fill="#192e35"/>
    <path id="Path_539" data-name="Path 539" d="M-771.431-406.729l10.8,6.933,1.13-2.353-10.683-6.113-1.245,1.534Z" fill="#385a65"/>
    <path id="Path_540" data-name="Path 540" d="M-797.618-342.619l10.8,6.933,1.13-2.353-10.684-6.115-1.245,1.535Z" fill="#385a65"/>
    <path id="Path_541" data-name="Path 541" d="M-754.327-352.055a11.368,11.368,0,0,1-2.349.711c-1.465.373-3.5.856-5.75,1.356-2.1.468-4.024.869-5.46,1.144l.146-.236a13.61,13.61,0,0,1,.493,2.738,13.837,13.837,0,0,1-.868-2.642l-.052-.186.2-.052c1.417-.356,3.329-.807,5.431-1.274,2.251-.5,4.3-.926,5.783-1.207a11.471,11.471,0,0,1,2.428-.352Z" fill="#192e35"/>
    <path id="Path_542" data-name="Path 542" d="M-743.458-461.731l-6.1,36.689-51.191-8.508,6.1-36.687,51.191,8.507Z" fill="#345863"/>
    <path id="Path_543" data-name="Path 543" d="M-781.86-438.547a3.264,3.264,0,0,1,.451.035c.325.037.737.084,1.248.144l4.631.578-.159.12c.269-2.07.6-4.612.974-7.518l.026-.192.2.023,4.556.539.217.025-.026.219c-.27,2.328-.569,4.886-.882,7.583l-.208-.272,6.468.937-.292.225c.247-2.207.505-4.506.768-6.854.2-1.774.4-3.521.591-5.229l.072.21c-2.851-2.909-5.559-5.674-8.057-8.225l.3.029c-3.517,2.383-6.681,4.526-9.386,6.357l.079-.128c-.462,3.463-.837,6.281-1.1,8.29-.135.954-.242,1.713-.323,2.284a7.8,7.8,0,0,1-.139.82,5.572,5.572,0,0,1,.053-.761c.057-.563.133-1.313.227-2.255.224-2.04.538-4.9.922-8.423l.009-.081.07-.048,9.327-6.445.162-.112.139.142,8.089,8.194.086.088-.013.123q-.288,2.561-.586,5.229c-.266,2.347-.526,4.646-.776,6.853l-.029.264-.263-.039-6.466-.959-.236-.036.029-.237c.331-2.693.646-5.251.933-7.576l.191.245c-1.607-.207-3.136-.4-4.55-.583l.22-.169c-.421,2.9-.788,5.435-1.088,7.5l-.02.143-.14-.023-4.69-.745-1.207-.206a1.922,1.922,0,0,1-.393-.085Z" fill="#192e35"/>
    <g id="Group_10" data-name="Group 10">
      <g id="Group_9" data-name="Group 9" clip-path="url(#clip-path)">
        <path id="Path_544" data-name="Path 544" d="M-798.763-435.492s.017-.186.076-.565c.065-.408.155-.97.272-1.693.252-1.521.616-3.714,1.081-6.507.964-5.686,2.344-13.815,4.021-23.7l.035-.2.205.033c13.036,2.1,29.329,4.73,46.972,7.574l.255.042-.04.256-.038.242c-1.793,11.473-3.5,22.377-5.032,32.18l-.038.237-.236-.038-34.362-5.626-9.741-1.626-2.568-.44c-.271-.05-.485-.088-.653-.118a1.149,1.149,0,0,1-.209-.049,2.094,2.094,0,0,1,.242.025l.684.1,2.622.391,9.817,1.508,34.244,5.369-.273.2c1.519-9.8,3.21-20.712,4.989-32.187l.038-.242.215.3-46.955-7.676.24-.17c-1.759,9.814-3.2,17.884-4.217,23.531-.512,2.8-.915,5.006-1.194,6.536q-.207,1.1-.325,1.722c-.074.392-.127.6-.127.6Z" fill="#192e35"/>
        <path id="Path_545" data-name="Path 545" d="M-797.639-464.055l8.924-6.484-1.531-1.639-8.232,6.647.84,1.477Z" fill="#385a65"/>
      </g>
    </g>
    <path id="Path_546" data-name="Path 546" d="M-754.475-423.064l8.923-6.483-1.531-1.639-8.231,6.646.84,1.475Z" fill="#385a65"/>
    <path id="Path_547" data-name="Path 547" d="M-748.512-460.68a50.058,50.058,0,0,1-.838,7.137c-.283,1.83-.565,3.494-.8,4.729l-.167-.221a10.188,10.188,0,0,1,2.343.486,10.312,10.312,0,0,1-2.391-.1l-.192-.018.024-.2c.152-1.248.383-2.92.666-4.75a49.492,49.492,0,0,1,1.353-7.057Z" fill="#192e35"/>
    <path id="Path_548" data-name="Path 548" d="M-890.6-252.219c-.176.986,0,155.56,0,155.56h-6.86v-155.56Z" fill="#385a65"/>
    <path id="Path_549" data-name="Path 549" d="M-771.84-238.628c-.176.985,0,141.692,0,141.692H-778.7V-238.628Z" fill="#385a65"/>
    <path id="Path_550" data-name="Path 550" d="M-737.332-264.446c-.177.986,0,167.51,0,167.51h-6.86v-167.51Z" fill="#385a65"/>
    <path id="Path_551" data-name="Path 551" d="M-739.817-310.279c.556-.928,0,50.311,0,50.311l-6.324.973,1.5-50.665,4.823-.619Z" fill="#385a65"/>
    <path id="Path_552" data-name="Path 552" d="M-775.5-235.571c-.473,1.423,51-94.192,51-94.192l-.947-4.315-125.174-7.232-47.624,90.571L-775.5-235.571" fill="#192e35"/>
    <path id="Path_553" data-name="Path 553" d="M-776.015-238.982c-.126-2.4,50.573-95.45,50.573-95.45l-127.8-11.728-46.845,91.7,124.068,15.474" fill="#385a65"/>
    <path id="Path_554" data-name="Path 554" d="M-835.389-264.981l44.062,4.6,28.247-71.36-63.367-7.8L-858.2-267.823l22.811,2.842" fill="#f5f6f6"/>
    <path id="Path_555" data-name="Path 555" d="M-794.933-321.334a6.658,6.658,0,0,1,1.045.279,10.62,10.62,0,0,1,2.762,1.421,12.126,12.126,0,0,1,3.347,3.6,10.914,10.914,0,0,1,1.616,6.278,12.317,12.317,0,0,1-2.9,7.293,10.052,10.052,0,0,1-3.507,2.716c-1.385.646-2.869,1.116-4.363,1.646-.747.261-1.5.534-2.244.842-.372.153-.739.321-1.1.5l-.537.282a2.4,2.4,0,0,0-.418.357,8.624,8.624,0,0,0-1.4,1.992c-.387.717-.6,1.559-1.015,2.356a4.63,4.63,0,0,1-1.788,2.059,4.812,4.812,0,0,1-2.739.386q-2.664-.311-5.4-.633c-.913-.119-1.818-.252-2.718-.428a5.613,5.613,0,0,1-2.579-1.114,1.6,1.6,0,0,1-.544-1.413,4.973,4.973,0,0,1,.5-1.309c.4-.8.818-1.562,1.236-2.32l1.235-2.25.292-.558.142-.28a.552.552,0,0,0,.053-.213,4.091,4.091,0,0,0-.167-1.155c-.409-1.588-.974-3.133-1.288-4.714a12.145,12.145,0,0,1,1.809-8.787,15.2,15.2,0,0,1,5.759-5.365,18.57,18.57,0,0,1,6.177-2.05,20.472,20.472,0,0,1,4.914,0c1.339.149,2.368.33,3.066.447.322.063.583.112.791.151a1.13,1.13,0,0,1,.267.068,1,1,0,0,1-.275-.015l-.8-.1c-.7-.084-1.734-.232-3.069-.349a20.977,20.977,0,0,0-4.853.081,18.516,18.516,0,0,0-6.044,2.085,14.886,14.886,0,0,0-5.565,5.271,11.71,11.71,0,0,0-1.705,8.461c.31,1.539.873,3.061,1.3,4.693a4.444,4.444,0,0,1,.183,1.318,1.091,1.091,0,0,1-.1.393l-.143.283-.3.568-1.233,2.258c-.416.758-.836,1.52-1.221,2.3a4.626,4.626,0,0,0-.445,1.154,1.071,1.071,0,0,0,.385.965,5.169,5.169,0,0,0,2.328.983c.876.17,1.777.3,2.682.422l5.38.633a4.329,4.329,0,0,0,2.449-.324,4.132,4.132,0,0,0,1.578-1.837c.389-.734.6-1.574,1.022-2.357a9.03,9.03,0,0,1,1.5-2.109,2.744,2.744,0,0,1,.531-.442l.56-.291c.377-.179.755-.35,1.135-.506.76-.31,1.522-.583,2.274-.843,1.5-.524,2.979-.987,4.327-1.608a9.591,9.591,0,0,0,3.372-2.58,11.976,11.976,0,0,0,2.865-7.031,10.668,10.668,0,0,0-1.5-6.111,12.1,12.1,0,0,0-3.217-3.58,11.155,11.155,0,0,0-2.678-1.485c-.656-.258-1.017-.354-1.009-.379Z" fill="#f0525f"/>
    <path id="Path_556" data-name="Path 556" d="M-803.586-292.506a7.507,7.507,0,0,1-.515,1.315c-.359.833-.9,2.029-1.514,3.523-.306.748-.628,1.571-.948,2.467a7.006,7.006,0,0,1-1.5,2.732,6.281,6.281,0,0,1-3.112,1.5,13.6,13.6,0,0,1-3.658.286,13.673,13.673,0,0,1-3.6-.7,8.28,8.28,0,0,1-3.022-1.65,3.7,3.7,0,0,1-1.257-2.877,6.611,6.611,0,0,1,.931-2.553l1.821-3.384a7.371,7.371,0,0,1,.73-1.208,7.238,7.238,0,0,1-.55,1.3c-.438.906-1,2.067-1.672,3.459a6.41,6.41,0,0,0-.829,2.408,3.275,3.275,0,0,0,1.153,2.5,7.907,7.907,0,0,0,2.858,1.518,13.45,13.45,0,0,0,3.47.666,13.412,13.412,0,0,0,3.52-.264,5.882,5.882,0,0,0,2.885-1.348,6.745,6.745,0,0,0,1.433-2.54c.339-.893.683-1.719,1.013-2.462.664-1.484,1.254-2.659,1.669-3.466a7.19,7.19,0,0,1,.7-1.227Z" fill="#f0525f"/>
    <path id="Path_557" data-name="Path 557" d="M-805.461-287.994a10.67,10.67,0,0,1-2.356.063c-1.45-.026-3.45-.1-5.657-.213s-4.205-.246-5.65-.368a10.688,10.688,0,0,1-2.337-.3,10.324,10.324,0,0,1,2.348-.063c1.45.027,3.454.1,5.665.215s4.211.244,5.657.367a10.509,10.509,0,0,1,2.33.3Z" fill="#f0525f"/>
    <path id="Path_558" data-name="Path 558" d="M-807-284.8a56.823,56.823,0,0,1-7.673.243,56.224,56.224,0,0,1-7.671-.279,57.11,57.11,0,0,1,7.673-.242A56.959,56.959,0,0,1-807-284.8Z" fill="#f0525f"/>
    <path id="Path_559" data-name="Path 559" d="M-813.111-280.983c.057.018-.074.512-.69.993a4.092,4.092,0,0,1-2.822.693,4.435,4.435,0,0,1-1.592-.346,1.768,1.768,0,0,1-.962-1.006,1.233,1.233,0,0,1,.017-.935c.1-.2.216-.267.24-.246a1.645,1.645,0,0,0,.085,1.041c.251.613,1.174.937,2.247.973a4.377,4.377,0,0,0,2.58-.479c.591-.344.827-.732.9-.688Z" fill="#f0525f"/>
    <path id="Path_560" data-name="Path 560" d="M-810.86-289.934a6.153,6.153,0,0,1,.582-1.163c.466-.817,1.054-1.845,1.754-3.071l2.659-4.521a6.106,6.106,0,0,0,1.172-2.674,2.045,2.045,0,0,0-1.956-1.848,3.634,3.634,0,0,0-2.765,1.187,16.109,16.109,0,0,0-1.833,2.423c-1.085,1.638-1.964,3.177-2.659,4.493s-1.2,2.409-1.55,3.166a6.911,6.911,0,0,1-.578,1.163,5.608,5.608,0,0,1,.39-1.241c.293-.786.756-1.907,1.41-3.255a45.068,45.068,0,0,1,2.585-4.588,16.074,16.074,0,0,1,1.876-2.524,4.11,4.11,0,0,1,3.164-1.344,2.553,2.553,0,0,1,2.427,2.36,3.322,3.322,0,0,1-.485,1.619c-.262.467-.531.885-.787,1.31-1.021,1.655-1.951,3.161-2.754,4.464-.757,1.191-1.392,2.193-1.9,2.986a6.346,6.346,0,0,1-.756,1.058Z" fill="#f0525f"/>
    <path id="Path_561" data-name="Path 561" d="M-808.449-309.509a9.75,9.75,0,0,1,.556,3.105,9.648,9.648,0,0,1,.038,3.152,9.7,9.7,0,0,1-.556-3.1,9.694,9.694,0,0,1-.038-3.154Z" fill="#f0525f"/>
    <path id="Path_562" data-name="Path 562" d="M-808.916-310.084c.057.047.025.192.122.346s.26.234.421.078.093-.309-.074-.42-.3-.069-.344-.127c-.054-.041.088-.273.448-.227a.665.665,0,0,1,.5.368.686.686,0,0,1-.163.777.691.691,0,0,1-.779.154.666.666,0,0,1-.361-.5c-.043-.36.192-.5.232-.446Z" fill="#f0525f"/>
    <path id="Path_563" data-name="Path 563" d="M-798.187-306.972a12.4,12.4,0,0,1-3.06,2.533,12.445,12.445,0,0,1-3.487,1.9,19.809,19.809,0,0,1,3.2-2.33,19.886,19.886,0,0,1,3.352-2.1Z" fill="#f0525f"/>
    <path id="Path_564" data-name="Path 564" d="M-797.881-307.746c-.051-.043.16-.3.6-.182a.724.724,0,0,1,.5.6.818.818,0,0,1-.46.853.836.836,0,0,1-.947-.2.678.678,0,0,1-.1-.795.458.458,0,0,1,.485-.223c.127.034.159.11.142.135-.027.047-.254.057-.3.249a.326.326,0,0,0,.114.3.405.405,0,0,0,.393.059.377.377,0,0,0,.194-.336.364.364,0,0,0-.167-.309c-.209-.144-.417-.092-.452-.154Z" fill="#f0525f"/>
    <path id="Path_565" data-name="Path 565" d="M-797.962-307.641a26.02,26.02,0,0,1-5.117-.816,25.914,25.914,0,0,1-5.008-1.328,25.9,25.9,0,0,1,5.116.817,26.124,26.124,0,0,1,5.009,1.327Z" fill="#f0525f"/>
    <path id="Path_566" data-name="Path 566" d="M-829.945-295.418c.056.133-.8.617-1.9,1.082a4.787,4.787,0,0,1-2.107.6c-.056-.133.8-.618,1.9-1.083a4.758,4.758,0,0,1,2.107-.6Z" fill="#192e35"/>
    <path id="Path_567" data-name="Path 567" d="M-818.113-326.326c.132.058-4.358,10.545-10.028,23.42s-10.375,23.269-10.507,23.211,4.359-10.543,10.03-23.422,10.374-23.267,10.505-23.209Z" fill="#192e35"/>
    <path id="Path_568" data-name="Path 568" d="M-797.24-324.709c.132.059-4.6,11.086-10.562,24.629s-10.906,24.48-11.038,24.422,4.6-11.084,10.562-24.631,10.906-24.478,11.038-24.42Z" fill="#192e35"/>
    <path id="Path_569" data-name="Path 569" d="M-803.844-277.852c-.017.143-8.149-.759-18.158-2.013s-18.116-2.387-18.1-2.529,8.148.757,18.162,2.013,18.113,2.387,18.094,2.529Z" fill="#192e35"/>
    <path id="Path_570" data-name="Path 570" d="M-798.226-290.3a7.468,7.468,0,0,1-1.438-.076l-3.894-.406c-3.287-.363-7.823-.9-12.828-1.53s-9.535-1.224-12.81-1.681l-3.875-.569a7.579,7.579,0,0,1-1.412-.279,7.7,7.7,0,0,1,1.437.078l3.9.4c3.287.363,7.823.9,12.83,1.529s9.533,1.225,12.808,1.683l3.875.569a7.6,7.6,0,0,1,1.412.277Z" fill="#192e35"/>
    <path id="Path_571" data-name="Path 571" d="M-784.317-320.166a7.706,7.706,0,0,1-1.437-.078c-1.018-.107-2.327-.242-3.9-.4-3.287-.365-7.822-.9-12.827-1.531s-9.536-1.222-12.811-1.681l-3.875-.569a7.471,7.471,0,0,1-1.411-.279,7.706,7.706,0,0,1,1.437.078c1.017.107,2.326.242,3.9.4,3.286.365,7.823.9,12.829,1.531s9.534,1.223,12.809,1.68l3.875.57a7.324,7.324,0,0,1,1.412.279Z" fill="#192e35"/>
    <path id="Path_572" data-name="Path 572" d="M-816.912-325.621c.07.125-.608.645-1.516,1.16s-1.7.832-1.773.707.608-.644,1.517-1.16,1.7-.832,1.772-.707Z" fill="#192e35"/>
    <path id="Path_573" data-name="Path 573" d="M-835.215-283.115a6.431,6.431,0,0,1-2.235,1.236,6.441,6.441,0,0,1-2.441.76,6.407,6.407,0,0,1,2.236-1.238,6.413,6.413,0,0,1,2.44-.758Z" fill="#192e35"/>
    <path id="Path_574" data-name="Path 574" d="M-816.511-278.555a6.9,6.9,0,0,1,.253-1.66l.184.287c-.462-.045-1-.111-1.577-.193l.286-.181-.006.019c-.181.58-.362,1.119-.527,1.57l-.183-.289a6.592,6.592,0,0,1,1.57.447c.06.071-.561.092-1.632,0l-.253-.021.069-.268c.121-.465.278-1.01.459-1.59l.006-.019.067-.211.219.03c.575.084,1.111.175,1.566.263l.268.049-.082.238c-.362,1.041-.646,1.617-.687,1.533Z" fill="#192e35"/>
    <path id="Path_575" data-name="Path 575" d="M-775.5-235.571l51-30.334h-34.448L-775.5-235.571Z" fill="#192e35"/>
    <path id="Path_576" data-name="Path 576" d="M-773.414-335.531l11.14,13.681,2.13-4.12-8.763-10.906-4.507,1.346Z" fill="#192e35"/>
    <path id="Path_577" data-name="Path 577" d="M-724.495-265.905v-5.382l-31.182-.662-14.036,25.909,45.218-19.865Z" fill="#192e35"/>
    <path id="Path_578" data-name="Path 578" d="M-859.637-60.886h-5.481v-98.066h5.481v98.066Z" fill="#385a65"/>
    <path id="Path_579" data-name="Path 579" d="M-819.213-166.7c0,7.223-18.1,13.08-40.424,13.08s-40.423-5.857-40.423-13.08c0-2.26-1.046-7.019.444-11.549,2.488-7.57,24.646-1.528,39.979-1.528,16.46,0,37.213-3.04,39.841,4.288,1.175,3.283.583,6.892.583,8.789Z" fill="#192e35"/>
    <path id="Path_580" data-name="Path 580" d="M-819.213-176.308c0,7.223-18.1,13.079-40.424,13.079s-40.423-5.856-40.423-13.079,18.1-13.078,40.423-13.078,40.424,5.856,40.424,13.078Z" fill="#385a65"/>
    <path id="Path_581" data-name="Path 581" d="M-859.741-110.2S-829.1-112.3-827.7-69.587h-4.958s2.5-35.053-27.082-36.057v-3.792" fill="#385a65"/>
    <path id="Path_582" data-name="Path 582" d="M-863.393-110.2s-30.638-2.092-32.04,40.617h4.959s-2.5-35.053,27.081-36.057v-3.792" fill="#385a65"/>
    <path id="Path_583" data-name="Path 583" d="M-790.321-323.136l-47.979,6.3-.728-5.548,47.978-6.295.729,5.547Z" fill="#385a65"/>
    <path id="Path_584" data-name="Path 584" d="M-824.219-111.567l4.664-9.752-18.211-8.854-6.975,14.2,1.094.622c4.89,2.721,25.053,13.494,28.907,14.109,4.3.686-9.479-10.32-9.479-10.32" fill="#ffc032"/>
    <path id="Path_585" data-name="Path 585" d="M-839.755-114l-2.588-1.289q-.672-.344-1.237-.636l-.894-.45a.34.34,0,0,0-.039-.019l2.4-4.919a6.82,6.82,0,0,1,3.613,3.392,6.791,6.791,0,0,1,.48,1.3l-.08.121-.165-.109-1.039,1.934-.447.679m.756-3.64h-.009c-.065.022-.04.27.056.551s.213.475.28.475l.009,0c.064-.022.039-.268-.057-.551s-.212-.474-.279-.474m-5.6,1.414h0l.062-.127.009.005-.07.122" fill="#f4848f"/>
    <path id="Path_586" data-name="Path 586" d="M-814.2-101.132a3.015,3.015,0,0,1-.729-.15c.066.014.128.025.187.035a2.147,2.147,0,0,0,.341.03c.284,0,.438-.085.48-.239h.006l-.005-.006a.424.424,0,0,0,.009-.115.344.344,0,0,1-.157.422.319.319,0,0,1-.132.023m-2.368-3.794c-.335-.325-.688-.659-1.052-.995h0s.457.412,1.052.995m-23.6-8.452c-1.718-.939-3.276-1.822-4.573-2.6h0l1.094.622c.806.449,2.025,1.115,3.518,1.918l-.039.06" fill="#fff"/>
    <path id="Path_587" data-name="Path 587" d="M-814.4-101.217a2.147,2.147,0,0,1-.341-.03c-.059-.01-.121-.021-.187-.035a66.541,66.541,0,0,1-6.956-2.9l.1-.154.283-.435,1.053.48c-.062.127-.082.207-.064.211l.006,0c.023,0,.077-.064.163-.166.638.289,1.24.559,1.8.809l3.376,1.474.924.385a3.143,3.143,0,0,0,.323.119c-.042.154-.2.239-.48.239m.481-.245a2.964,2.964,0,0,0-.3-.158l-.905-.428-3.344-1.544c-.542-.251-1.124-.52-1.739-.807a4.771,4.771,0,0,1,1.086-.958,4.918,4.918,0,0,1,1.4-.6.993.993,0,0,1,.1.037c.364.336.717.67,1.052.995,1.04,1.023,2.5,2.57,2.657,3.349a.424.424,0,0,1-.009.115m-26.211-11.976c-1.493-.8-2.712-1.469-3.518-1.918l-1.094-.622.146-.251,4.235,2.154c.158.082.319.168.483.256l-.252.381" fill="#f4848f"/>
    <path id="Path_588" data-name="Path 588" d="M-840.36-114.075l-4.236-2.154.071-.122.028.016.872.492q1.321.716,3.239,1.754a.131.131,0,0,1,.026.014" fill="#f7a7b0"/>
    <path id="Path_589" data-name="Path 589" d="M-839.776-113.972l-.529-.271-2.038-1.049,2.588,1.289-.021.031" fill="#f7a7b0"/>
    <path id="Path_590" data-name="Path 590" d="M-844.794-116.521a1.924,1.924,0,0,0,.3.186l.872.492q1.321.716,3.239,1.754c2.746,1.461,6.566,3.43,10.831,5.512s8.172,3.879,11.013,5.143l3.376,1.474.924.385a2.414,2.414,0,0,0,.329.119,1.807,1.807,0,0,0-.309-.164l-.905-.428-3.344-1.544c-2.821-1.3-6.71-3.128-10.976-5.206s-8.093-4.025-10.858-5.445l-3.275-1.685-.894-.45a1.929,1.929,0,0,0-.32-.143" fill="#192e35"/>
    <path id="Path_591" data-name="Path 591" d="M-820.512-104.079a8.253,8.253,0,0,1,1.388-1.278,8.315,8.315,0,0,1,1.745-.718,2.717,2.717,0,0,0-1.877.511,2.723,2.723,0,0,0-1.256,1.485" fill="#192e35"/>
    <path id="Path_592" data-name="Path 592" d="M-824.556-109.419c.035.057.444-.131.914-.42s.821-.57.785-.628-.445.13-.914.419-.821.571-.785.629Z" fill="#192e35"/>
    <path id="Path_593" data-name="Path 593" d="M-825.651-110.917c.02.066.4.014.85-.115s.8-.287.783-.352-.4-.013-.85.116-.8.287-.783.351Z" fill="#192e35"/>
    <path id="Path_594" data-name="Path 594" d="M-825.746-113.089c-.03.061.369.322.891.584a2.363,2.363,0,0,0,1,.363c.03-.06-.369-.32-.892-.583a2.38,2.38,0,0,0-1-.364Z" fill="#192e35"/>
    <path id="Path_595" data-name="Path 595" d="M-825.476-114.456c-.047.045.314.479.91.824a2.068,2.068,0,0,0,1.165.387,6.551,6.551,0,0,0-1.041-.6,6.509,6.509,0,0,0-1.034-.612Z" fill="#192e35"/>
    <path id="Path_596" data-name="Path 596" d="M-823.165-110.706a3.782,3.782,0,0,0,1.173.562,7.745,7.745,0,0,0,1.379.331,3.773,3.773,0,0,0,.857.053.692.692,0,0,0,.466-.222.514.514,0,0,0,.05-.554,2.389,2.389,0,0,0-2.959-.664,2.309,2.309,0,0,0-.761.595c-.145.177-.2.292-.184.3a3.643,3.643,0,0,1,1.019-.738,2.32,2.32,0,0,1,1.315-.162,2.018,2.018,0,0,1,1.348.772c.118.23-.06.412-.327.435a4.062,4.062,0,0,1-.793-.039,9.183,9.183,0,0,1-1.358-.274c-.762-.218-1.208-.433-1.225-.4Z" fill="#192e35"/>
    <path id="Path_597" data-name="Path 597" d="M-822.89-110.5a1.3,1.3,0,0,0,.53-.746,2.141,2.141,0,0,0,.1-1.011,1.31,1.31,0,0,0-.684-1.071.519.519,0,0,0-.624.365,1.416,1.416,0,0,0-.055.619,3.9,3.9,0,0,0,.208.977,1.876,1.876,0,0,0,.438.8c.035-.018-.131-.323-.272-.85a4.5,4.5,0,0,1-.149-.94c-.04-.326.067-.824.386-.734.307.115.463.551.528.872a2.137,2.137,0,0,1-.039.921,4.974,4.974,0,0,1-.364.8Z" fill="#192e35"/>
    <path id="Path_598" data-name="Path 598" d="M-842-121.321c-.016.043.546.2,1.321.7a6.548,6.548,0,0,1,2.346,2.639,6.536,6.536,0,0,1,.572,3.484c-.1.916-.331,1.453-.287,1.467a1.131,1.131,0,0,0,.179-.366,5.263,5.263,0,0,0,.28-1.079,6.255,6.255,0,0,0-.523-3.612,6.259,6.259,0,0,0-2.476-2.681,5.37,5.37,0,0,0-1.014-.461,1.164,1.164,0,0,0-.4-.092" fill="#192e35"/>
    <path id="Path_599" data-name="Path 599" d="M-836.421-127.978a35.461,35.461,0,0,0-1.979,3.662,34.949,34.949,0,0,0-1.759,3.774,35.766,35.766,0,0,0,1.979-3.664,35.812,35.812,0,0,0,1.759-3.772Z" fill="#192e35"/>
    <path id="Path_600" data-name="Path 600" d="M-834.913-113.571a11.476,11.476,0,0,0,2.529,1.558,11.385,11.385,0,0,0,2.766,1.083c.025-.067-1.2-.573-2.656-1.3s-2.6-1.4-2.639-1.339" fill="#192e35"/>
    <path id="Path_601" data-name="Path 601" d="M-838.478-115.313c-.067.023-.026.3-.037.63s-.063.608,0,.633.233-.242.243-.625-.148-.662-.208-.638" fill="#192e35"/>
    <path id="Path_602" data-name="Path 602" d="M-839.008-117.642c-.065.022-.04.27.056.551s.225.494.289.473.039-.268-.057-.551-.224-.494-.288-.473" fill="#192e35"/>
    <path id="Path_603" data-name="Path 603" d="M-840.56-119.343c-.017.069.225.184.447.408s.345.46.413.442.038-.342-.241-.616-.61-.3-.619-.234Z" fill="#192e35"/>
    <path id="Path_604" data-name="Path 604" d="M-841.754-120.37c-.05.045.009.19.132.322s.262.2.312.155-.01-.19-.132-.321-.262-.2-.312-.156Z" fill="#192e35"/>
    <path id="Path_605" data-name="Path 605" d="M-823.687-101.382l5.856-9.085-16.947-11.079-8.71,13.2,1.007.755c4.507,3.317,23.15,16.55,26.9,17.644,4.178,1.223-8.1-11.434-8.1-11.434" fill="#ffc032"/>
    <path id="Path_606" data-name="Path 606" d="M-840.261-113.237l.049-.074h0l-.049.074" fill="#fff"/>
    <path id="Path_607" data-name="Path 607" d="M-837.168-104.676l-6.045-4.03-.1.129h0l3.051-4.66.049-.074a6.828,6.828,0,0,1,3.156,3.822,7.029,7.029,0,0,1-.112,4.813" fill="#f4848f"/>
    <path id="Path_608" data-name="Path 608" d="M-815-89.762a2.415,2.415,0,0,1-.764-.241c.063.021.121.039.178.055a1.723,1.723,0,0,0,.475.084c.253,0,.376-.11.39-.307a.345.345,0,0,1-.209.4.229.229,0,0,1-.07.009m-1.993-4.139c-.259-.325-.534-.659-.816-1,.111.13.428.5.816,1m-10.607-3.26c-5.744-3.774-12.081-8.189-15.888-11.186h0l1.007.755c2.405,1.771,8.837,6.365,14.881,10.431" fill="#fff"/>
    <path id="Path_609" data-name="Path 609" d="M-815.111-89.864a1.723,1.723,0,0,1-.475-.084c-.057-.016-.115-.034-.178-.055A120.484,120.484,0,0,1-827.6-97.161c-6.044-4.066-12.476-8.66-14.881-10.431l-1.007-.755.176-.23,6.056,4.115c.031-.07.06-.141.088-.214l16.39,10.931a4.992,4.992,0,0,1,2.444-1.324.937.937,0,0,1,.483.123s.016.017.042.05c.282.336.557.67.816,1,.907,1.142,2.212,2.919,2.272,3.73-.014.2-.137.307-.39.307" fill="#f4848f"/>
    <path id="Path_610" data-name="Path 610" d="M-837.256-104.462l-6.056-4.115.1-.129,6.045,4.03c-.028.073-.057.144-.088.214" fill="#f7a7b0"/>
    <path id="Path_611" data-name="Path 611" d="M-843.472-108.892a1.885,1.885,0,0,0,.27.223c.241.178.505.375.8.6.813.582,1.812,1.3,2.992,2.147,2.54,1.8,6.081,4.232,10.049,6.835s7.615,4.881,10.276,6.492l3.162,1.889.868.5a1.987,1.987,0,0,0,.312.159,2.061,2.061,0,0,0-.286-.2c-.254-.16-.531-.338-.845-.537l-3.121-1.953c-2.634-1.651-6.262-3.951-10.231-6.551s-7.521-5.013-10.085-6.771q-1.8-1.234-3.036-2.084l-.83-.561a2.125,2.125,0,0,0-.3-.182Z" fill="#192e35"/>
    <path id="Path_612" data-name="Path 612" d="M-820.955-93.485a8.306,8.306,0,0,1,1.539-1.092,8.391,8.391,0,0,1,1.821-.494,2.749,2.749,0,0,0-1.927.271,2.737,2.737,0,0,0-1.433,1.315Z" fill="#192e35"/>
    <path id="Path_613" data-name="Path 613" d="M-824.292-99.292a2.156,2.156,0,0,0,.96-.3c.5-.227.885-.462.857-.524s-.457.074-.959.3-.887.462-.858.525Z" fill="#192e35"/>
    <path id="Path_614" data-name="Path 614" d="M-825.189-100.917c.01.067.394.064.858-.006s.831-.184.82-.252-.394-.064-.858.008-.831.184-.82.25Z" fill="#192e35"/>
    <path id="Path_615" data-name="Path 615" d="M-825.011-103.083c-.036.055.326.365.811.691s.91.543.948.487-.326-.365-.811-.691-.909-.544-.948-.487Z" fill="#192e35"/>
    <path id="Path_616" data-name="Path 616" d="M-824.57-104.407c-.052.039.252.516.8.933a2.062,2.062,0,0,0,1.107.532c.029-.065-.44-.326-.958-.725s-.892-.783-.948-.74" fill="#192e35"/>
    <path id="Path_617" data-name="Path 617" d="M-822.75-100.395a3.7,3.7,0,0,0,1.092.706,7.62,7.62,0,0,0,1.327.5,3.757,3.757,0,0,0,.842.161.7.7,0,0,0,.491-.161.511.511,0,0,0,.12-.543,2.387,2.387,0,0,0-2.851-1.033,2.331,2.331,0,0,0-.831.494c-.165.158-.231.267-.221.275a3.773,3.773,0,0,1,1.1-.6,2.367,2.367,0,0,1,1.326,0,2.021,2.021,0,0,1,1.239.937c.089.242-.111.4-.378.389a3.841,3.841,0,0,1-.783-.139,8.749,8.749,0,0,1-1.312-.442c-.728-.312-1.144-.582-1.165-.548Z" fill="#192e35"/>
    <path id="Path_618" data-name="Path 618" d="M-822.5-100.157c.007.022.349-.151.62-.672a2.139,2.139,0,0,0,.223-.992,1.3,1.3,0,0,0-.543-1.148.52.52,0,0,0-.665.284,1.437,1.437,0,0,0-.133.608,3.965,3.965,0,0,0,.083,1,1.862,1.862,0,0,0,.335.847c.036-.013-.089-.337-.165-.878a4.545,4.545,0,0,1-.027-.952c0-.328.169-.808.474-.679.289.152.391.6.414.932a2.12,2.12,0,0,1-.154.908,4.82,4.82,0,0,1-.462.746Z" fill="#192e35"/>
    <path id="Path_619" data-name="Path 619" d="M-840.092-113.3c-.021.04.516.271,1.222.863a6.545,6.545,0,0,1,1.994,2.914,6.539,6.539,0,0,1,.128,3.529c-.217.894-.512,1.4-.47,1.42a1.2,1.2,0,0,0,.224-.342,5.358,5.358,0,0,0,.414-1.035,6.259,6.259,0,0,0-.063-3.649,6.256,6.256,0,0,0-2.118-2.972,5.3,5.3,0,0,0-.948-.586,1.215,1.215,0,0,0-.383-.142Z" fill="#192e35"/>
    <path id="Path_620" data-name="Path 620" d="M-833.721-119.2a35.473,35.473,0,0,0-2.425,3.385,35.149,35.149,0,0,0-2.221,3.521,35.6,35.6,0,0,0,2.425-3.385,35.135,35.135,0,0,0,2.221-3.521" fill="#192e35"/>
    <path id="Path_621" data-name="Path 621" d="M-834.043-104.719a11.408,11.408,0,0,0,2.313,1.866,11.391,11.391,0,0,0,2.607,1.422c.033-.062-1.117-.719-2.472-1.627s-2.4-1.715-2.448-1.661Z" fill="#192e35"/>
    <path id="Path_622" data-name="Path 622" d="M-837.36-106.9c-.069.014-.063.293-.116.621s-.139.592-.078.628.263-.211.32-.59-.063-.676-.126-.659Z" fill="#192e35"/>
    <path id="Path_623" data-name="Path 623" d="M-837.592-109.273c-.066.013-.072.261-.013.553s.16.52.227.506.072-.262.013-.554-.16-.518-.227-.505Z" fill="#192e35"/>
    <path id="Path_624" data-name="Path 624" d="M-838.916-111.157c-.026.065.2.211.392.461s.283.5.353.492.081-.336-.16-.643-.568-.374-.585-.31Z" fill="#192e35"/>
    <path id="Path_625" data-name="Path 625" d="M-839.971-112.327c-.056.041-.015.19.09.336s.235.234.289.195.015-.191-.089-.336-.235-.234-.29-.195Z" fill="#192e35"/>
    <path id="Path_626" data-name="Path 626" d="M-821.387-104.95h0l.214-.33h0l-.213.33" fill="#d73e48"/>
    <path id="Path_627" data-name="Path 627" d="M-821.784-104.335l.282-.437h0l-.282.436" fill="#d86a72"/>
    <path id="Path_628" data-name="Path 628" d="M-821.5-104.771h0l.113-.179h0l-.114.18" fill="#122329"/>
    <path id="Path_629" data-name="Path 629" d="M-839.308-114.682h0l1.039-1.935.165.109-1.2,1.825" fill="#d86a72"/>
    <path id="Path_630" data-name="Path 630" d="M-822.212-103.669l-15.241-9.818c.347-.489.77-1.1,1.227-1.774l15.052,9.981-.214.33-.113.179-.283.436-.428.666m-15.4-9.92-1.7-1.093,1.2-1.825,1.675,1.112c-.453.678-.86,1.3-1.182,1.806" fill="#e99437"/>
    <path id="Path_631" data-name="Path 631" d="M-837.453-113.487l-.158-.1c.322-.506.729-1.128,1.182-1.806l.2.134c-.457.674-.88,1.285-1.227,1.774" fill="#122329"/>
    <path id="Path_632" data-name="Path 632" d="M-821.78-189.9l-19.986,65.677,17.726,6.887,25.679-58.971L-821.78-189.9Z" fill="#192e35"/>
    <path id="Path_633" data-name="Path 633" d="M-863.276-173.717S-793.9-191.005-792-191.837c0,0,7.734-22.41-8.5-30.9-15.447-8.076-66.789,19.257-66.789,19.257l4.012,29.759Z" fill="#192e35"/>
    <path id="Path_634" data-name="Path 634" d="M-885.3-178.183c7.921,1.212,16.839,3.994,22.022,4.466,14.017,1.279,20.67-4.45,32.313-1.334.061-8.5-.569-24.252-.569-24.252l-64.775-8.59s1.185,22.574,11.009,29.71Z" fill="#192e35"/>
    <path id="Path_635" data-name="Path 635" d="M-767.336-179.257l-.04-.011c1.874-3.479,3.26-7.619,2.479-11.569-1.553-7.855-10.948-8.711-20.763-9.894-22.045-2.658-50.665-6.434-50.665-6.434l5.362,32.114,26.109,1.894-35.694,55.068,25.452,17.068,46.375-75.968c.285-.445.568-.906.845-1.383l.54-.885Z" fill="#192e35"/>
    <path id="Path_636" data-name="Path 636" d="M-787.654-200.973a11.293,11.293,0,0,1-1.785-.057c-1.148-.067-2.8-.2-4.85-.4-4.092-.385-9.728-1.063-15.94-1.879s-11.837-1.551-15.914-2.03l-4.829-.562a11.441,11.441,0,0,1-1.767-.26,12.064,12.064,0,0,1,1.785.058c1.148.067,2.8.2,4.85.4,4.092.383,9.729,1.061,15.942,1.879s11.835,1.552,15.912,2.029l4.829.563a11.673,11.673,0,0,1,1.767.258Z" fill="#385a65"/>
    <path id="Path_637" data-name="Path 637" d="M-803.959-204.066c.074.125-.139.389-.422.659s-.559.465-.68.384-.008-.451.322-.763.708-.4.78-.28Z" fill="#385a65"/>
    <path id="Path_638" data-name="Path 638" d="M-803.635-176.038a3.155,3.155,0,0,1-.335.572c-.27.406-.617.932-1.048,1.582-.955,1.42-2.278,3.385-3.9,5.787-3.29,4.887-7.789,11.668-12.625,19.242s-9.095,14.513-12.143,19.553c-1.5,2.481-2.725,4.506-3.609,5.971l-.995,1.615a3.309,3.309,0,0,1-.378.547,3.178,3.178,0,0,1,.287-.6l.91-1.666c.8-1.44,1.982-3.512,3.468-6.057,2.97-5.09,7.181-12.061,12.021-19.645s9.391-14.332,12.758-19.169c1.684-2.419,3.064-4.362,4.036-5.694l1.128-1.527a3.242,3.242,0,0,1,.421-.512Z" fill="#385a65"/>
    <path id="Path_639" data-name="Path 639" d="M-805.613-173.21a24.177,24.177,0,0,1-3.482,0c-2.149-.064-5.115-.166-8.391-.359s-6.239-.482-8.373-.762c-1.067-.142-1.928-.27-2.52-.379a3.236,3.236,0,0,1-.913-.218,26.355,26.355,0,0,1,3.473.23c2.139.186,5.093.416,8.364.609s6.234.352,8.378.512a22,22,0,0,1,3.464.369Z" fill="#385a65"/>
    <path id="Path_640" data-name="Path 640" d="M-785.784-300.438s1.161-1.546,2.49-.548,7.185,5.727,7.185,5.727l4.006,10.841-5.692,10.387-9.825-4.213a46.26,46.26,0,0,1,2.141-7.121s-6.592-5.1-4.54-7.107c0,0,.547-.985,3.34,1.327l2.793,2.311s-4.9-6.841-4.593-8.392a1.925,1.925,0,0,1,2.427-1.7l.268-1.511" fill="#fab9a0"/>
    <path id="Path_641" data-name="Path 641" d="M-791.958-297.734l4.056,1.029,17.6,15.557a1.55,1.55,0,0,1,.151,2.172,1.553,1.553,0,0,1-2.192.166l-17.538-15.128-2.075-3.8" fill="#f0525f"/>
    <path id="Path_642" data-name="Path 642" d="M-771.145-278.291a1.527,1.527,0,0,1-1.011-.381,1.547,1.547,0,0,0,.825.237,1.55,1.55,0,0,0,1.178-.541,1.554,1.554,0,0,0-.014-2.037l.106.107a1.531,1.531,0,0,1,.091,2.066,1.521,1.521,0,0,1-1.175.549m.843-2.855,0,0-.438-.389.023-.027.417.418" fill="#8a9da3"/>
    <path id="Path_643" data-name="Path 643" d="M-771.331-278.435a1.547,1.547,0,0,1-.825-.237.134.134,0,0,0-.022-.018l-.474-.433,1.91-2.414.438.389h0l.135.134a1.554,1.554,0,0,1,.014,2.037,1.55,1.55,0,0,1-1.178.541" fill="#f5949f"/>
    <path id="Path_644" data-name="Path 644" d="M-788.474-296.85l-2.146-.544.01-.012,2.134.541,0,.015" fill="#f9fafa"/>
    <path id="Path_645" data-name="Path 645" d="M-787.806-296.621l-.1-.084-.572-.145,0-.015.629.16a.878.878,0,0,1,.041.084" fill="#fcd5c5"/>
    <path id="Path_646" data-name="Path 646" d="M-789.573-293.718l-.255-.22-1.461-2.67.669-.786,2.146.544.572.145.1.084a.861.861,0,0,1-.041.85.441.441,0,0,1-.368.173.984.984,0,0,1-.416-.109s.013.025.031.071l-.086-.071a.911.911,0,0,1,.018.916.708.708,0,0,1-.631.315h-.005a1.171,1.171,0,0,1-.2-.03l.011.014a.416.416,0,0,1-.065-.014l.128.109a.491.491,0,0,1-.145.679" fill="#f5949f"/>
    <path id="Path_647" data-name="Path 647" d="M-772.1-279.887l-17.325-14.51a.724.724,0,0,0-.063-.1,1.008,1.008,0,0,0,.187.016c.033,0,.068,0,.105,0a.655.655,0,0,0,.562-.235,1.029,1.029,0,0,0,.037-.929l17.414,14.593-.917,1.156" fill="#a22c34"/>
    <path id="Path_648" data-name="Path 648" d="M-789.428-294.4l-.128-.109a.416.416,0,0,0,.065.014.724.724,0,0,1,.063.1m.229-.075c-.037,0-.072,0-.105,0h.005a.708.708,0,0,0,.631-.315.911.911,0,0,0-.018-.916l.086.071a1.029,1.029,0,0,1-.037.929.655.655,0,0,1-.562.235" fill="#a35a5e"/>
    <path id="Path_649" data-name="Path 649" d="M-787-281.2a39.148,39.148,0,0,0,1.87-4.875c.22-1.2-1.884-9.078,1.268-9.7l1.02.472,2.613,12.657-5.225,5.029L-787-281.2Z" fill="#fab9a0"/>
    <path id="Path_650" data-name="Path 650" d="M-779.56-290.268c-.083.018-.259-.734-.8-1.832a10.264,10.264,0,0,0-2.926-3.668,11.609,11.609,0,0,1-2.108-1.72,2.863,2.863,0,0,1-.775-2.154,1.882,1.882,0,0,1,.775-1.337c.316-.207.536-.193.539-.167.014.042-.177.1-.413.326a1.81,1.81,0,0,0-.534,1.212,2.582,2.582,0,0,0,.769,1.8,13.314,13.314,0,0,0,2.057,1.619,9.322,9.322,0,0,1,2.952,3.935,4.4,4.4,0,0,1,.467,1.982Z" fill="#f7986e"/>
    <path id="Path_651" data-name="Path 651" d="M-780.826-284.6a5.34,5.34,0,0,1-.257-1c-.146-.646-.427-1.556-.735-2.711a15.408,15.408,0,0,1-.379-1.929c-.089-.7-.134-1.446-.251-2.207a7.111,7.111,0,0,0-.259-1.135,6.605,6.605,0,0,0-.443-1.09.339.339,0,0,0-.327-.166,1.662,1.662,0,0,0-.521.178,2.093,2.093,0,0,0-.828.84,4.658,4.658,0,0,0-.558,2.408,11.624,11.624,0,0,0,.3,2.394,9.637,9.637,0,0,1,.255,2.262,5.144,5.144,0,0,1-.53,1.934,7.765,7.765,0,0,0-.918,2.6,6.43,6.43,0,0,0,.053,1.007,1.555,1.555,0,0,1-.255-1.016,7.056,7.056,0,0,1,.781-2.731,4.867,4.867,0,0,0,.437-1.8,9.637,9.637,0,0,0-.293-2.152,11.655,11.655,0,0,1-.338-2.486,5.068,5.068,0,0,1,.623-2.68,3.479,3.479,0,0,1,.438-.582,1.874,1.874,0,0,1,.6-.453,2.11,2.11,0,0,1,.719-.228.864.864,0,0,1,.777.381,6.374,6.374,0,0,1,.5,1.234,7.5,7.5,0,0,1,.261,1.218c.108.794.137,1.543.205,2.229a16.638,16.638,0,0,0,.309,1.893c.258,1.15.489,2.093.574,2.757a3.135,3.135,0,0,1,.059,1.039Z" fill="#f7986e"/>
    <path id="Path_652" data-name="Path 652" d="M-878.261-294.131l26.982-26.117L-837.5-309.91l-28.129,33.483-12.637-17.7" fill="#f0525f"/>
    <path id="Path_653" data-name="Path 653" d="M-865.625-276.427l-12.637-17.7,26.982-26.117L-837.5-309.91l-4.38,5.213-23.749,28.271" fill="#e99437"/>
    <path id="Path_654" data-name="Path 654" d="M-835.008-322.932l12.226-1.6c-.892-.756-3.8-2.727-11.042-3.983-9.105-1.581-16.806,8.755-16.806,8.755l11.182,8.463,4.169-4.157s6.463-.942,9.991-1.754a3.086,3.086,0,0,0,2.028-1.619l-.173.022c-5.25-.41-9.954-1.826-11.575-4.124Z" fill="#fab9a0"/>
    <path id="Path_655" data-name="Path 655" d="M-830.092-319.949a6.59,6.59,0,0,1-3.349-1.563,6.586,6.586,0,0,1-2.389-2.82c.126-.092,1.121,1.209,2.705,2.406,1.572,1.213,3.088,1.831,3.033,1.977Z" fill="#f7986e"/>
    <path id="Path_656" data-name="Path 656" d="M-879.139-349.484l-.146,47.716,20.471.977.592-11.606s7.271,1.444,9.147-5.31c1.2-4.313.9-37.649.9-37.649l-30.963,5.872Z" fill="#fab9a0"/>
    <path id="Path_657" data-name="Path 657" d="M-849.351-362.754c-6.227,2.016-7.731,2.69-10.522,2.913-2.679.216-21.755.232-23.485,10.925l-.126,1.308v-.05c0,.05-4.09-1.649-3.016,5.748.56,3.859,2.143,7.422,3.613,11.66,1.007,6.279-2.575,7.846-5.521,9.924-.725.512-1.606,1.156-1.485,2.035.111.8,1.01,1.223,1.807,1.353a6.729,6.729,0,0,0,4.925-1.14,26.587,26.587,0,0,1-1.4,2.678c-.4.927-.354,2.22.533,2.7a2.334,2.334,0,0,0,1.633.074,8.286,8.286,0,0,0,4.284-2.571,1.817,1.817,0,0,0,.691,2.317,4.4,4.4,0,0,0,2.568.558c4.047-.069,8.924,0,12.656-4.148,3.448-3.832,4.269-6.3,4.635-11.609,0,0-4.068-.662-3.6-3.934.655-4.527,4.115-4.642,6.691-2.626l2.966-7.948s7.516-4.932,7.945-8.069.43-14.12-5.8-12.1Z" fill="#192e35"/>
    <path id="Path_658" data-name="Path 658" d="M-824.595-241.427c-6.158-7.541-11.873-14.3-11.873-14.3.265,9.855,1.285,18.4,1.285,18.4l2.929,30.512a8.956,8.956,0,0,1-6.835,9.554c-19.128,4.62-41.514,5.928-54.06-2.678a12.144,12.144,0,0,1-5.2-10.036V-236l-3.293-34.939a56.431,56.431,0,0,1,1.488-16.378A22.779,22.779,0,0,1-879.6-303.553c6.912-.388,14.666-.966,21.6-1.085a36.462,36.462,0,0,1,22.667,7.412c10.22,7.758,17.934,25.574,25.155,36.926l19.773-23.847,16.346,10.44-22.333,32.962a18.581,18.581,0,0,1-28.2-.682Z" fill="#ffc032"/>
    <path id="Path_659" data-name="Path 659" d="M-886.83-280.529a22.173,22.173,0,0,1,1.474-4.549,22.1,22.1,0,0,1,1.959-4.365,22.147,22.147,0,0,1-1.473,4.551,22.085,22.085,0,0,1-1.96,4.363Z" fill="#192e35"/>
    <path id="Path_660" data-name="Path 660" d="M-864.075-269.13a13.307,13.307,0,0,1-2.493-2.741,13.439,13.439,0,0,1-2.084-3.064,13.318,13.318,0,0,1,2.494,2.742,13.355,13.355,0,0,1,2.083,3.063Z" fill="#192e35"/>
    <path id="Path_661" data-name="Path 661" d="M-850.769-287.744a9.85,9.85,0,0,1-2.94,1.215,9.919,9.919,0,0,1-3.1.718,9.835,9.835,0,0,1,2.94-1.214,9.871,9.871,0,0,1,3.1-.719Z" fill="#192e35"/>
    <path id="Path_662" data-name="Path 662" d="M-884.541-256.089a14.3,14.3,0,0,1,1.361-3.6,14.3,14.3,0,0,1,1.834-3.381,14.436,14.436,0,0,1-1.361,3.6,14.4,14.4,0,0,1-1.834,3.381Z" fill="#192e35"/>
    <path id="Path_663" data-name="Path 663" d="M-885.818-236.524a16.389,16.389,0,0,1-2.521-3.225,16.279,16.279,0,0,1-2.091-3.52,16.241,16.241,0,0,1,2.521,3.225,16.249,16.249,0,0,1,2.091,3.52Z" fill="#192e35"/>
    <path id="Path_664" data-name="Path 664" d="M-855.1-243.743a22.664,22.664,0,0,1-4.4,1.994,22.523,22.523,0,0,1-4.587,1.506,22.648,22.648,0,0,1,4.4-1.992,22.6,22.6,0,0,1,4.585-1.508Z" fill="#192e35"/>
    <path id="Path_665" data-name="Path 665" d="M-872.746-247.9a6.634,6.634,0,0,1-.517-3.138,6.633,6.633,0,0,1,.517-3.141,19.006,19.006,0,0,1,0,3.141,18.981,18.981,0,0,1,0,3.138Z" fill="#192e35"/>
    <path id="Path_666" data-name="Path 666" d="M-845.91-254.669a18.124,18.124,0,0,1-2.022-4.9,18.065,18.065,0,0,1-1.018-5.207c.147-.027.675,2.275,1.516,5.056s1.663,4.995,1.524,5.055Z" fill="#192e35"/>
    <path id="Path_667" data-name="Path 667" d="M-827.1-271.559a30.553,30.553,0,0,1-3.61-.827,31.559,31.559,0,0,1-3.627-.754,8.672,8.672,0,0,1,3.738.246,8.71,8.71,0,0,1,3.5,1.335Z" fill="#192e35"/>
    <path id="Path_668" data-name="Path 668" d="M-818.387-258.452a15.068,15.068,0,0,1-3.675,1.424,15.082,15.082,0,0,1-3.831.926,15.112,15.112,0,0,1,3.675-1.423,15.061,15.061,0,0,1,3.831-.927Z" fill="#192e35"/>
    <path id="Path_669" data-name="Path 669" d="M-810.178-242.1a11.222,11.222,0,0,1-.345-4.522,11.2,11.2,0,0,1,.992-4.427c.15.04-.3,2-.472,4.464-.186,2.459-.022,4.467-.175,4.485Z" fill="#192e35"/>
    <path id="Path_670" data-name="Path 670" d="M-795.022-255.106c-.115.1-1.242-1.069-2.82-2.272s-2.988-2-2.921-2.141a7.908,7.908,0,0,1,3.239,1.727,7.913,7.913,0,0,1,2.5,2.686Z" fill="#192e35"/>
    <path id="Path_671" data-name="Path 671" d="M-785.313-271.545a19.2,19.2,0,0,1-3.736,2.4,19.1,19.1,0,0,1-3.99,1.948,19.11,19.11,0,0,1,3.735-2.4,18.943,18.943,0,0,1,3.991-1.947Z" fill="#192e35"/>
    <path id="Path_672" data-name="Path 672" d="M-845.949-222.059a20.36,20.36,0,0,1,1.169-4.436,20.323,20.323,0,0,1,1.665-4.278,20.426,20.426,0,0,1-1.169,4.438,20.424,20.424,0,0,1-1.665,4.276Z" fill="#192e35"/>
    <path id="Path_673" data-name="Path 673" d="M-870.1-217.87a19.39,19.39,0,0,1-2.8-3.483c-.953-1.337-1.743-2.536-2.122-3.2l-.489-.858.681.681c.287.286.43.463.4.5s-.232-.071-.568-.3l.191-.176c.5.574,1.378,1.711,2.331,3.047a19.467,19.467,0,0,1,2.379,3.787Z" fill="#192e35"/>
    <path id="Path_674" data-name="Path 674" d="M-857.942-219.171a23.33,23.33,0,0,1,1.112,4.783,23.4,23.4,0,0,1,.6,4.873,23.276,23.276,0,0,1-1.112-4.781,23.4,23.4,0,0,1-.6-4.875Z" fill="#192e35"/>
    <path id="Path_675" data-name="Path 675" d="M-883.833-209.278a14.373,14.373,0,0,1-2.845-2.6,14.45,14.45,0,0,1-2.468-2.957,14.384,14.384,0,0,1,2.844,2.6,14.466,14.466,0,0,1,2.469,2.957Z" fill="#192e35"/>
    <path id="Path_676" data-name="Path 676" d="M-863.569-199.259a12,12,0,0,1-3.5.262,12.048,12.048,0,0,1-3.5-.26,12.023,12.023,0,0,1,3.5-.261,12.025,12.025,0,0,1,3.5.259Z" fill="#192e35"/>
    <path id="Path_677" data-name="Path 677" d="M-839.238-209.813a17.744,17.744,0,0,1-3.136,2.928,17.636,17.636,0,0,1-3.468,2.525,17.889,17.889,0,0,1,3.137-2.926,17.917,17.917,0,0,1,3.467-2.527Z" fill="#192e35"/>
    <path id="Path_678" data-name="Path 678" d="M-973.09-144.968a10.9,10.9,0,0,0-2.121-10.738,14.475,14.475,0,0,0-10.143-4.717c-1.769-.1-3.728.157-4.924,1.465a4.664,4.664,0,0,0-.7,4.674,9.433,9.433,0,0,0,3.012,3.877c4.369,3.629,9.263,6.339,14.872,5.439" fill="#f0525f"/>
    <path id="Path_679" data-name="Path 679" d="M-964.093-139.7a25.494,25.494,0,0,1,16.223-16.721c1.955-.642,4.433-.906,5.766.661s.676,3.984-.313,5.791a21.79,21.79,0,0,1-21.617,10.824l-.059-.555" fill="#f0525f"/>
    <path id="Path_680" data-name="Path 680" d="M-961.261-138.948a19.833,19.833,0,0,1-2.773-.2l-.059-.555a25.494,25.494,0,0,1,16.223-16.721,9.3,9.3,0,0,1,2.826-.5,3.7,3.7,0,0,1,2.94,1.166,3.311,3.311,0,0,1,.752,2.209,7.843,7.843,0,0,1-1.065,3.582,21.882,21.882,0,0,1-18.844,11.019" fill="#ffde81"/>
    <path id="Path_681" data-name="Path 681" d="M-961.486-190.9a12.773,12.773,0,0,0-7.555,6.559,22.526,22.526,0,0,0-2.216,9.954c-.132,6.636,2.7,13.728,6,19.485,6.144-4.07,8.528-12.28,9.476-16.519,1.5-6.7.136-19.728-5.709-19.479" fill="#ffc032"/>
    <path id="Path_682" data-name="Path 682" d="M-968.431-125.36a26.483,26.483,0,0,0,.134-3.326,46.762,46.762,0,0,0-2.577-12.262,23.442,23.442,0,0,0-7.247-10.192,15.3,15.3,0,0,0-3.274-1.968,4.214,4.214,0,0,0-1.329-.438,32.084,32.084,0,0,1,4.273,2.816,24.58,24.58,0,0,1,6.882,10.047,54.138,54.138,0,0,1,2.749,12.057l.389,3.266" fill="#192e35"/>
    <path id="Path_683" data-name="Path 683" d="M-968.444-125.247c.185-1.6.426-3.692.718-6.217.594-5.25,1.432-12.5,2.462-20.5s2.062-15.217,2.821-20.445c.359-2.518.656-4.6.883-6.2a13.452,13.452,0,0,0,.235-2.288,13.708,13.708,0,0,0-.52,2.241c-.289,1.45-.672,3.555-1.117,6.161-.892,5.211-2.006,12.43-3.039,20.431s-1.788,15.272-2.247,20.538c-.232,2.634-.4,4.767-.484,6.243" fill="#192e35"/>
    <path id="Path_684" data-name="Path 684" d="M-949.545-150.311a4.549,4.549,0,0,0-1.3.326,10.675,10.675,0,0,0-1.469.547,18,18,0,0,0-1.882.88,26.8,26.8,0,0,0-4.521,2.979,31.022,31.022,0,0,0-4.625,4.756,31.161,31.161,0,0,0-3.409,5.695,26.864,26.864,0,0,0-1.714,5.135,17.872,17.872,0,0,0-.368,2.045,10.951,10.951,0,0,0-.149,1.559c-.038.859.193,1.111.245,1.114a42.783,42.783,0,0,1,.782-4.593,29.866,29.866,0,0,1,1.827-4.973,33.319,33.319,0,0,1,3.375-5.529,33.419,33.419,0,0,1,4.474-4.683,29.986,29.986,0,0,1,4.336-3.045c2.628-1.5,4.441-2.077,4.393-2.213Z" fill="#192e35"/>
    <path id="Path_685" data-name="Path 685" d="M-975.258-144.794c-4.714,0-8.907-2.459-12.7-5.613a9.433,9.433,0,0,1-3.012-3.877,5.387,5.387,0,0,1-.323-1.82,4.188,4.188,0,0,1,1.019-2.854,5.633,5.633,0,0,1,4.257-1.484q.337,0,.667.019a14.475,14.475,0,0,1,10.143,4.717,11.394,11.394,0,0,1,2.741,7.315,9.585,9.585,0,0,1-.514,3.129,21.3,21.3,0,0,0-5.137-5.878,15.3,15.3,0,0,0-3.274-1.968,5.856,5.856,0,0,0-1.3-.446c-.014,0-.023,0-.025.008a32.084,32.084,0,0,1,4.273,2.816A22.425,22.425,0,0,1-973.6-144.9a13.76,13.76,0,0,1-1.659.1" fill="#e99437"/>
    <path id="Path_686" data-name="Path 686" d="M-973.6-144.9h0a22.425,22.425,0,0,0-4.852-5.835,32.084,32.084,0,0,0-4.273-2.816c0-.006.011-.008.025-.008a5.856,5.856,0,0,1,1.3.446,15.3,15.3,0,0,1,3.274,1.968,21.3,21.3,0,0,1,5.137,5.878h0c-.033.1-.069.2-.106.294-.171.028-.34.051-.509.073" fill="#122329"/>
    <path id="Path_687" data-name="Path 687" d="M-985.856-126.577h34.247v12.793a17.123,17.123,0,0,1-17.123,17.125,17.123,17.123,0,0,1-17.124-17.125v-12.793Z" fill="#385a65"/>
    <path id="Path_688" data-name="Path 688" d="M-951.637-118.341a6.683,6.683,0,0,1-1.342.024l-3.648-.109c-3.08-.1-7.334-.233-12.034-.315s-8.957-.09-12.038-.092l-3.65-.016a6.673,6.673,0,0,1-1.341-.068,6.712,6.712,0,0,1,1.336-.134c.861-.053,2.108-.106,3.649-.151,3.083-.092,7.346-.139,12.053-.06s8.964.271,12.042.468c1.539.1,2.783.193,3.643.275a6.729,6.729,0,0,1,1.33.178Z" fill="#192e35"/>
    <path id="Path_689" data-name="Path 689" d="M-951.65-116.392a6.583,6.583,0,0,1-1.342.024c-.964-.028-2.187-.066-3.648-.108-3.08-.1-7.334-.234-12.033-.316s-8.957-.09-12.038-.093l-3.651-.014a6.554,6.554,0,0,1-1.341-.07,6.835,6.835,0,0,1,1.336-.132c.862-.054,2.109-.105,3.65-.152,3.083-.092,7.345-.139,12.053-.06s8.963.273,12.041.468c1.54.1,2.784.192,3.643.274a6.67,6.67,0,0,1,1.33.179Z" fill="#192e35"/>
  </g>
</svg>
