<svg xmlns="http://www.w3.org/2000/svg" width="619.12" height="398.194" viewBox="0 0 619.12 398.194">
  <g id="develop" transform="translate(788.203 -12.37)">
    <path id="Path_198" data-name="Path 198" d="M-605.706,218.529H-768.683l12.046-116.095h164.36l-13.43,116.095Z" fill="#2f383a"/>
    <path id="Path_199" data-name="Path 199" d="M-750.768,199.046c-.143-.015,1.541-17.474,3.762-38.99s4.137-38.955,4.28-38.942-1.541,17.47-3.762,38.994-4.137,38.954-4.28,38.938Z" fill="#525859"/>
    <path id="Path_200" data-name="Path 200" d="M-721.093,125a64.15,64.15,0,0,1-8.181.261,64.16,64.16,0,0,1-8.182-.261,64.727,64.727,0,0,1,8.182-.26,64.716,64.716,0,0,1,8.181.26Z" fill="#525859"/>
    <path id="Path_201" data-name="Path 201" d="M-651.482,125c0,.145-14.591.261-32.586.261s-32.588-.116-32.588-.261,14.588-.26,32.588-.26,32.586.117,32.586.26Z" fill="#525859"/>
    <path id="Path_202" data-name="Path 202" d="M-723.022,166.255a64.373,64.373,0,0,1-8.181.261,64.383,64.383,0,0,1-8.182-.261,64.379,64.379,0,0,1,8.182-.261,64.37,64.37,0,0,1,8.181.261Z" fill="#525859"/>
    <path id="Path_203" data-name="Path 203" d="M-653.411,166.255c0,.144-14.59.261-32.586.261s-32.587-.117-32.587-.261,14.587-.261,32.587-.261,32.586.117,32.586.261Z" fill="#525859"/>
    <path id="Path_204" data-name="Path 204" d="M-675.611,185.274c0,.143-14.591.26-32.585.26s-32.589-.117-32.589-.26,14.588-.26,32.589-.26,32.585.115,32.585.26Z" fill="#525859"/>
    <path id="Path_205" data-name="Path 205" d="M-713.883,136.646c0,.143-5.153.259-11.509.259s-11.509-.116-11.509-.259,5.152-.26,11.509-.26,11.509.115,11.509.26Z" fill="#525859"/>
    <path id="Path_206" data-name="Path 206" d="M-714.469,153.723c0,.143-5.153.259-11.508.259s-11.511-.116-11.511-.259,5.153-.262,11.511-.262,11.508.117,11.508.262Z" fill="#525859"/>
    <path id="Path_207" data-name="Path 207" d="M-695.009,178.127c0,.145-5.153.262-11.509.262s-11.509-.117-11.509-.262,5.152-.26,11.509-.26,11.509.116,11.509.26Z" fill="#525859"/>
    <path id="Path_208" data-name="Path 208" d="M-630.142,136.646c0,.143-13.166.259-29.4.259s-29.406-.116-29.406-.259,13.162-.26,29.406-.26,29.4.115,29.4.26Z" fill="#525859"/>
    <path id="Path_209" data-name="Path 209" d="M-648.29,154.711c0,.145-13.167.262-29.4.262s-29.405-.117-29.405-.262,13.163-.26,29.405-.26,29.4.116,29.4.26Z" fill="#525859"/>
    <path id="Path_210" data-name="Path 210" d="M-628.054,178.127c0,.145-13.166.262-29.4.262s-29.405-.117-29.405-.262,13.162-.26,29.405-.26,29.4.116,29.4.26Z" fill="#525859"/>
    <path id="Path_211" data-name="Path 211" d="M-681.748,199.046c0,.144-13.166.261-29.4.261s-29.406-.117-29.406-.261,13.163-.261,29.406-.261,29.4.117,29.4.261Z" fill="#525859"/>
    <path id="Path_212" data-name="Path 212" d="M-616.716,199.046c0,.144-13.166.261-29.4.261s-29.4-.117-29.4-.261,13.163-.261,29.4-.261,29.4.117,29.4.261Z" fill="#525859"/>
    <path id="Path_213" data-name="Path 213" d="M-681.753,205.853c0,.142-13.166.258-29.4.258s-29.4-.116-29.4-.258,13.163-.261,29.4-.261,29.4.116,29.4.261Z" fill="#525859"/>
    <path id="Path_214" data-name="Path 214" d="M-678.892,141.549c0,.143-13.166.261-29.4.261s-29.405-.118-29.405-.261,13.163-.261,29.405-.261,29.4.116,29.4.261Z" fill="#525859"/>
    <path id="Path_215" data-name="Path 215" d="M-694.575,136.709a55,55,0,0,1-7.573.261,55.023,55.023,0,0,1-7.575-.261,55.214,55.214,0,0,1,7.575-.261,55.2,55.2,0,0,1,7.573.261Z" fill="#525859"/>
    <path id="Path_216" data-name="Path 216" d="M-724.947,171.861a55,55,0,0,1-7.573.261,55.021,55.021,0,0,1-7.575-.261,55.619,55.619,0,0,1,7.575-.259,55.6,55.6,0,0,1,7.573.259Z" fill="#525859"/>
    <path id="Path_217" data-name="Path 217" d="M-725.3,178.127a54.909,54.909,0,0,1-7.574.262,54.908,54.908,0,0,1-7.574-.262,55.309,55.309,0,0,1,7.574-.26,55.31,55.31,0,0,1,7.574.26Z" fill="#525859"/>
    <path id="Path_218" data-name="Path 218" d="M-594.072,114.711c0,.145-36.652.262-81.855.262-45.218,0-81.863-.117-81.863-.262s36.645-.26,81.863-.26c45.2,0,81.855.116,81.855.26Z" fill="#525859"/>
    <path id="Path_219" data-name="Path 219" d="M-744.807,109.176a1.94,1.94,0,0,1-1.94,1.939,1.939,1.939,0,0,1-1.939-1.939,1.941,1.941,0,0,1,1.939-1.941,1.941,1.941,0,0,1,1.94,1.941Z" fill="#525859"/>
    <path id="Path_220" data-name="Path 220" d="M-736.476,109.176a1.939,1.939,0,0,1-1.939,1.939,1.939,1.939,0,0,1-1.94-1.939,1.941,1.941,0,0,1,1.94-1.941,1.941,1.941,0,0,1,1.939,1.941Z" fill="#525859"/>
    <path id="Path_221" data-name="Path 221" d="M-728.144,109.176a1.939,1.939,0,0,1-1.939,1.939,1.939,1.939,0,0,1-1.94-1.939,1.941,1.941,0,0,1,1.94-1.941,1.941,1.941,0,0,1,1.939,1.941Z" fill="#525859"/>
    <path id="Path_222" data-name="Path 222" d="M-182.512,160.482H-345.49l12.046-116.1h164.361l-13.43,116.1Z" fill="#2f383a"/>
    <rect id="Rectangle_5" data-name="Rectangle 5" width="619.119" height="398.194" transform="translate(-788.203 12.37)" fill="none"/>
    <path id="Path_223" data-name="Path 223" d="M-327.576,141c-.141-.015,1.542-17.474,3.763-38.99s4.138-38.956,4.28-38.941-1.541,17.47-3.761,38.995-4.138,38.952-4.282,38.936Z" fill="#525859"/>
    <path id="Path_224" data-name="Path 224" d="M-297.9,66.949a64.139,64.139,0,0,1-8.18.261,64.123,64.123,0,0,1-8.181-.261,64.817,64.817,0,0,1,8.181-.259,64.833,64.833,0,0,1,8.18.259Z" fill="#525859"/>
    <path id="Path_225" data-name="Path 225" d="M-228.289,66.949c0,.145-14.59.261-32.585.261s-32.588-.116-32.588-.261,14.588-.259,32.588-.259,32.585.116,32.585.259Z" fill="#525859"/>
    <path id="Path_226" data-name="Path 226" d="M-299.83,108.207a64.353,64.353,0,0,1-8.179.261,64.379,64.379,0,0,1-8.183-.261,64.6,64.6,0,0,1,8.183-.261,64.576,64.576,0,0,1,8.179.261Z" fill="#525859"/>
    <path id="Path_227" data-name="Path 227" d="M-230.217,108.207c0,.144-14.592.261-32.585.261s-32.59-.117-32.59-.261,14.589-.261,32.59-.261,32.585.118,32.585.261Z" fill="#525859"/>
    <path id="Path_228" data-name="Path 228" d="M-252.416,127.227c0,.143-14.591.259-32.586.259s-32.589-.116-32.589-.259,14.588-.261,32.589-.261,32.586.116,32.586.261Z" fill="#525859"/>
    <path id="Path_229" data-name="Path 229" d="M-290.69,78.6c0,.143-5.152.26-11.509.26s-11.508-.117-11.508-.26,5.152-.261,11.508-.261,11.509.117,11.509.261Z" fill="#525859"/>
    <path id="Path_230" data-name="Path 230" d="M-291.276,95.675c0,.143-5.152.26-11.509.26s-11.508-.117-11.508-.26,5.15-.261,11.508-.261,11.509.117,11.509.261Z" fill="#525859"/>
    <path id="Path_231" data-name="Path 231" d="M-271.816,120.08c0,.145-5.152.261-11.509.261s-11.508-.116-11.508-.261,5.151-.261,11.508-.261,11.509.118,11.509.261Z" fill="#525859"/>
    <path id="Path_232" data-name="Path 232" d="M-206.95,78.6c0,.143-13.165.26-29.4.26s-29.4-.117-29.4-.26,13.163-.261,29.4-.261,29.4.117,29.4.261Z" fill="#525859"/>
    <path id="Path_233" data-name="Path 233" d="M-225.1,96.664c0,.144-13.166.261-29.4.261s-29.407-.117-29.407-.261,13.163-.261,29.407-.261,29.4.118,29.4.261Z" fill="#525859"/>
    <path id="Path_234" data-name="Path 234" d="M-204.862,120.08c0,.145-13.165.261-29.4.261s-29.4-.116-29.4-.261,13.163-.261,29.4-.261,29.4.118,29.4.261Z" fill="#525859"/>
    <path id="Path_235" data-name="Path 235" d="M-258.555,141c0,.145-13.166.261-29.4.261s-29.407-.116-29.407-.261,13.163-.26,29.407-.26,29.4.117,29.4.26Z" fill="#525859"/>
    <path id="Path_236" data-name="Path 236" d="M-193.523,141c0,.145-13.166.261-29.4.261s-29.407-.116-29.407-.261,13.164-.26,29.407-.26,29.4.117,29.4.26Z" fill="#525859"/>
    <path id="Path_237" data-name="Path 237" d="M-258.561,147.8c0,.143-13.165.26-29.4.26s-29.406-.117-29.406-.26,13.162-.262,29.406-.262,29.4.117,29.4.262Z" fill="#525859"/>
    <path id="Path_238" data-name="Path 238" d="M-255.7,83.5c0,.144-13.166.26-29.4.26s-29.4-.116-29.4-.26,13.163-.261,29.4-.261,29.4.117,29.4.261Z" fill="#525859"/>
    <path id="Path_239" data-name="Path 239" d="M-271.381,78.661a55.036,55.036,0,0,1-7.575.261,55.015,55.015,0,0,1-7.574-.261,55.5,55.5,0,0,1,7.574-.26,55.521,55.521,0,0,1,7.575.26Z" fill="#525859"/>
    <path id="Path_240" data-name="Path 240" d="M-301.753,113.814a55.331,55.331,0,0,1-7.575.26,55.322,55.322,0,0,1-7.574-.26,55.319,55.319,0,0,1,7.574-.26,55.329,55.329,0,0,1,7.575.26Z" fill="#525859"/>
    <path id="Path_241" data-name="Path 241" d="M-302.113,120.08a54.981,54.981,0,0,1-7.573.261,54.981,54.981,0,0,1-7.573-.261,55.361,55.361,0,0,1,7.573-.261,55.361,55.361,0,0,1,7.573.261Z" fill="#525859"/>
    <path id="Path_242" data-name="Path 242" d="M-170.877,56.664c0,.144-36.655.261-81.857.261-45.219,0-81.862-.117-81.862-.261s36.643-.261,81.862-.261c45.2,0,81.857.118,81.857.261Z" fill="#525859"/>
    <path id="Path_243" data-name="Path 243" d="M-321.615,51.128a1.939,1.939,0,0,1-1.938,1.939,1.941,1.941,0,0,1-1.941-1.939,1.941,1.941,0,0,1,1.941-1.94,1.939,1.939,0,0,1,1.938,1.94Z" fill="#525859"/>
    <path id="Path_244" data-name="Path 244" d="M-313.283,51.128a1.939,1.939,0,0,1-1.938,1.939,1.941,1.941,0,0,1-1.942-1.939,1.942,1.942,0,0,1,1.942-1.94,1.939,1.939,0,0,1,1.938,1.94Z" fill="#525859"/>
    <path id="Path_245" data-name="Path 245" d="M-304.951,51.128a1.94,1.94,0,0,1-1.94,1.939,1.94,1.94,0,0,1-1.94-1.939,1.941,1.941,0,0,1,1.94-1.94,1.941,1.941,0,0,1,1.94,1.94Z" fill="#525859"/>
    <path id="Path_246" data-name="Path 246" d="M-524.347,84.678H-625.853l7.5-72.308h102.368l-8.364,72.308Z" fill="#2f383a"/>
    <path id="Path_247" data-name="Path 247" d="M-614.7,72.543c-.142-.015.864-10.894,2.246-24.295s2.62-24.258,2.764-24.243-.863,10.891-2.246,24.3-2.621,24.256-2.764,24.241Z" fill="#525859"/>
    <path id="Path_248" data-name="Path 248" d="M-596.214,26.423a25.119,25.119,0,0,1-5.1.261,25.113,25.113,0,0,1-5.1-.261,25.16,25.16,0,0,1,5.1-.26,25.166,25.166,0,0,1,5.1.26Z" fill="#525859"/>
    <path id="Path_249" data-name="Path 249" d="M-552.858,26.423c0,.144-9.088.261-20.3.261s-20.3-.117-20.3-.261,9.086-.26,20.3-.26,20.3.116,20.3.26Z" fill="#525859"/>
    <path id="Path_250" data-name="Path 250" d="M-597.415,52.119a25.119,25.119,0,0,1-5.1.261,25.111,25.111,0,0,1-5.1-.261,25.245,25.245,0,0,1,5.1-.26,25.254,25.254,0,0,1,5.1.26Z" fill="#525859"/>
    <path id="Path_251" data-name="Path 251" d="M-554.06,52.119c0,.144-9.086.261-20.293.261s-20.3-.117-20.3-.261,9.086-.26,20.3-.26,20.293.117,20.293.26Z" fill="#525859"/>
    <path id="Path_252" data-name="Path 252" d="M-567.886,63.965c0,.143-9.088.261-20.3.261s-20.3-.118-20.3-.261,9.086-.261,20.3-.261,20.3.117,20.3.261Z" fill="#525859"/>
    <path id="Path_253" data-name="Path 253" d="M-591.722,33.678a49.661,49.661,0,0,1-7.168.261,49.655,49.655,0,0,1-7.17-.261,49.482,49.482,0,0,1,7.17-.261,49.488,49.488,0,0,1,7.168.261Z" fill="#525859"/>
    <path id="Path_254" data-name="Path 254" d="M-592.087,44.314a49.582,49.582,0,0,1-7.168.26,49.576,49.576,0,0,1-7.17-.26,49.576,49.576,0,0,1,7.17-.26,49.582,49.582,0,0,1,7.168.26Z" fill="#525859"/>
    <path id="Path_255" data-name="Path 255" d="M-579.968,59.514a49.559,49.559,0,0,1-7.168.26,49.56,49.56,0,0,1-7.168-.26,49.56,49.56,0,0,1,7.168-.26,49.559,49.559,0,0,1,7.168.26Z" fill="#525859"/>
    <path id="Path_256" data-name="Path 256" d="M-539.567,33.678c0,.143-8.2.261-18.313.261s-18.314-.118-18.314-.261,8.2-.261,18.314-.261,18.313.117,18.313.261Z" fill="#525859"/>
    <path id="Path_257" data-name="Path 257" d="M-550.871,44.93c0,.144-8.2.26-18.312.26s-18.315-.116-18.315-.26,8.2-.26,18.315-.26,18.312.116,18.312.26Z" fill="#525859"/>
    <path id="Path_258" data-name="Path 258" d="M-538.267,59.514c0,.144-8.2.26-18.313.26s-18.314-.116-18.314-.26,8.2-.26,18.314-.26,18.313.116,18.313.26Z" fill="#525859"/>
    <path id="Path_259" data-name="Path 259" d="M-571.708,72.543c0,.144-8.2.26-18.313.26s-18.314-.116-18.314-.26,8.2-.261,18.314-.261,18.313.117,18.313.261Z" fill="#525859"/>
    <path id="Path_260" data-name="Path 260" d="M-531.205,72.543c0,.144-8.2.26-18.312.26s-18.314-.116-18.314-.26,8.2-.261,18.314-.261,18.312.117,18.312.261Z" fill="#525859"/>
    <path id="Path_261" data-name="Path 261" d="M-571.711,76.781c0,.144-8.2.261-18.314.261s-18.314-.117-18.314-.261,8.2-.259,18.314-.259,18.314.116,18.314.259Z" fill="#525859"/>
    <path id="Path_262" data-name="Path 262" d="M-569.929,36.732c0,.144-8.2.26-18.314.26s-18.315-.116-18.315-.26,8.2-.26,18.315-.26,18.314.116,18.314.26Z" fill="#525859"/>
    <path id="Path_263" data-name="Path 263" d="M-579.7,33.718a21.661,21.661,0,0,1-4.716.26,21.68,21.68,0,0,1-4.718-.26,21.532,21.532,0,0,1,4.718-.26,21.513,21.513,0,0,1,4.716.26Z" fill="#525859"/>
    <path id="Path_264" data-name="Path 264" d="M-598.614,55.611a21.552,21.552,0,0,1-4.717.261,21.544,21.544,0,0,1-4.717-.261,21.659,21.659,0,0,1,4.717-.26,21.666,21.666,0,0,1,4.717.26Z" fill="#525859"/>
    <path id="Path_265" data-name="Path 265" d="M-598.836,59.514a21.613,21.613,0,0,1-4.718.26,21.585,21.585,0,0,1-4.717-.26,21.585,21.585,0,0,1,4.717-.26,21.613,21.613,0,0,1,4.718.26Z" fill="#525859"/>
    <path id="Path_266" data-name="Path 266" d="M-517.1,20.017c0,.144-22.828.26-50.981.26s-50.988-.116-50.988-.26,22.823-.26,50.988-.26,50.981.116,50.981.26Z" fill="#525859"/>
    <path id="Path_267" data-name="Path 267" d="M-610.984,16.569a1.207,1.207,0,0,1-1.208,1.207,1.207,1.207,0,0,1-1.208-1.207,1.208,1.208,0,0,1,1.208-1.209,1.208,1.208,0,0,1,1.208,1.209Z" fill="#525859"/>
    <path id="Path_268" data-name="Path 268" d="M-605.794,16.569A1.207,1.207,0,0,1-607,17.776a1.207,1.207,0,0,1-1.208-1.207A1.208,1.208,0,0,1-607,15.36a1.208,1.208,0,0,1,1.208,1.209Z" fill="#525859"/>
    <path id="Path_269" data-name="Path 269" d="M-600.6,16.569a1.207,1.207,0,0,1-1.207,1.207,1.208,1.208,0,0,1-1.209-1.207,1.209,1.209,0,0,1,1.209-1.209,1.208,1.208,0,0,1,1.207,1.209Z" fill="#525859"/>
    <path id="Path_270" data-name="Path 270" d="M-248.468,376.325h-51.12V210.869h51.12V376.325Z" fill="#4c6d75"/>
    <path id="Path_271" data-name="Path 271" d="M-205.073,376.3h-43.4V210.9h43.4V376.3Z" fill="#2f383a"/>
    <path id="Path_272" data-name="Path 272" d="M-254.582,253.214h-41.012V217.569h41.012v35.645Z" fill="#345863"/>
    <path id="Path_273" data-name="Path 273" d="M-254.582,292.9h-41.012V257.251h41.012V292.9Z" fill="#345863"/>
    <path id="Path_274" data-name="Path 274" d="M-254.582,332.576h-41.012V296.934h41.012v35.643Z" fill="#345863"/>
    <path id="Path_275" data-name="Path 275" d="M-254.582,372.26h-41.012V336.615h41.012V372.26Z" fill="#345863"/>
    <path id="Path_276" data-name="Path 276" d="M-275.088,224.15a1.424,1.424,0,0,1-1.424,1.425,1.425,1.425,0,0,1-1.426-1.425,1.424,1.424,0,0,1,1.426-1.422,1.423,1.423,0,0,1,1.424,1.422Z" fill="#f8f7f6"/>
    <path id="Path_277" data-name="Path 277" d="M-275.088,264.294a1.426,1.426,0,0,1-1.424,1.426,1.427,1.427,0,0,1-1.426-1.426,1.426,1.426,0,0,1,1.426-1.424,1.426,1.426,0,0,1,1.424,1.424Z" fill="#f8f7f6"/>
    <path id="Path_278" data-name="Path 278" d="M-275.088,304.439a1.424,1.424,0,0,1-1.424,1.423,1.424,1.424,0,0,1-1.426-1.423,1.424,1.424,0,0,1,1.426-1.424,1.424,1.424,0,0,1,1.424,1.424Z" fill="#f8f7f6"/>
    <path id="Path_279" data-name="Path 279" d="M-275.088,344.582a1.426,1.426,0,0,1-1.424,1.425,1.426,1.426,0,0,1-1.426-1.425,1.426,1.426,0,0,1,1.426-1.425,1.425,1.425,0,0,1,1.424,1.425Z" fill="#f8f7f6"/>
    <path id="Path_280" data-name="Path 280" d="M-293.68,409.514h-5.908V376.325h5.908v33.189Z" fill="#d8d9d9"/>
    <path id="Path_281" data-name="Path 281" d="M-248.673,409.514h-5.909V376.325h5.909v33.189Z" fill="#d8d9d9"/>
    <path id="Path_282" data-name="Path 282" d="M-205.706,409.514h-5.909V376.325h5.909v33.189Z" fill="#d8d9d9"/>
    <path id="Path_283" data-name="Path 283" d="M-729.023,400.153c-1.516-1.293-4.9-5.39-2.289-10.159.956-1.748,2.985-2.611,4.823-3.383a19.546,19.546,0,0,0,5.288-2.725c2.867-2.429,3.658-6.461,5.561-9.7,2.184-3.719,6.263-6.5,10.571-6.311,4.934.225,9.049,4.235,10.914,8.81s1.93,9.65,1.969,14.589c.022,2.732-.1,5.81-2.115,7.655-1.857,1.7-4.653,1.72-7.17,1.643q-13.48-.409-26.963-.824" fill="#2f383a"/>
    <path id="Path_284" data-name="Path 284" d="M-464.984,193.2h-110.9l8.2-79h111.845l-9.14,79Z" fill="#0b2b34"/>
    <path id="Path_285" data-name="Path 285" d="M-470.629,193.2h-110.9l8.2-79h111.844l-9.138,79Z" fill="#345863"/>
    <path id="Path_286" data-name="Path 286" d="M-474.743,189.622H-577.652l7.608-73.307h103.782l-8.48,73.307Z" fill="#b4bebf"/>
    <path id="Path_287" data-name="Path 287" d="M-566.5,177.4c-.144-.015.877-11.043,2.28-24.63s2.656-24.594,2.8-24.579-.879,11.041-2.282,24.631-2.654,24.592-2.8,24.578Z" fill="#0b2b34"/>
    <path id="Path_288" data-name="Path 288" d="M-547.761,130.641a25.993,25.993,0,0,1-5.166.259,25.993,25.993,0,0,1-5.166-.259,25.716,25.716,0,0,1,5.166-.261,25.716,25.716,0,0,1,5.166.261Z" fill="#0b2b34"/>
    <path id="Path_289" data-name="Path 289" d="M-503.806,130.641c0,.143-9.213.259-20.574.259s-20.578-.116-20.578-.259,9.21-.261,20.578-.261,20.574.116,20.574.261Z" fill="#f15b66"/>
    <path id="Path_290" data-name="Path 290" d="M-548.978,156.691a25.8,25.8,0,0,1-5.166.261,25.8,25.8,0,0,1-5.166-.261,25.984,25.984,0,0,1,5.166-.259,25.992,25.992,0,0,1,5.166.259Z" fill="#0b2b34"/>
    <path id="Path_291" data-name="Path 291" d="M-505.023,156.691c0,.144-9.214.261-20.576.261s-20.578-.117-20.578-.261,9.211-.259,20.578-.259,20.576.116,20.576.259Z" fill="#f15b66"/>
    <path id="Path_292" data-name="Path 292" d="M-519.04,168.7c0,.145-9.215.261-20.577.261s-20.578-.116-20.578-.261,9.212-.26,20.578-.26,20.577.118,20.577.26Z" fill="#f15b66"/>
    <path id="Path_293" data-name="Path 293" d="M-543.208,137.995a50.646,50.646,0,0,1-7.266.261,50.684,50.684,0,0,1-7.269-.261,51.038,51.038,0,0,1,7.269-.261,51,51,0,0,1,7.266.261Z" fill="#f15b66"/>
    <path id="Path_294" data-name="Path 294" d="M-543.578,148.778a50.939,50.939,0,0,1-7.267.26,50.948,50.948,0,0,1-7.268-.26,51.221,51.221,0,0,1,7.268-.259,51.211,51.211,0,0,1,7.267.259Z" fill="#f15b66"/>
    <path id="Path_295" data-name="Path 295" d="M-531.29,164.189a51.1,51.1,0,0,1-7.266.26,51.12,51.12,0,0,1-7.269-.26,50.771,50.771,0,0,1,7.269-.26,50.746,50.746,0,0,1,7.266.26Z" fill="#f15b66"/>
    <path id="Path_296" data-name="Path 296" d="M-490.331,137.995c0,.145-8.313.261-18.565.261s-18.568-.116-18.568-.261,8.311-.261,18.568-.261,18.565.118,18.565.261Z" fill="#0b2b34"/>
    <path id="Path_297" data-name="Path 297" d="M-501.79,149.4c0,.145-8.313.261-18.565.261s-18.568-.116-18.568-.261,8.31-.259,18.568-.259,18.565.117,18.565.259Z" fill="#0b2b34"/>
    <path id="Path_298" data-name="Path 298" d="M-489.013,164.189c0,.143-8.313.26-18.566.26s-18.567-.117-18.567-.26,8.313-.26,18.567-.26,18.566.115,18.566.26Z" fill="#0b2b34"/>
    <path id="Path_299" data-name="Path 299" d="M-522.916,177.4c0,.143-8.314.259-18.567.259s-18.567-.116-18.567-.259,8.311-.261,18.567-.261,18.567.116,18.567.261Z" fill="#0b2b34"/>
    <path id="Path_300" data-name="Path 300" d="M-481.853,177.4c0,.143-8.313.259-18.565.259s-18.568-.116-18.568-.259,8.311-.261,18.568-.261,18.565.116,18.565.261Z" fill="#0b2b34"/>
    <path id="Path_301" data-name="Path 301" d="M-522.919,181.694c0,.145-8.314.261-18.567.261s-18.566-.116-18.566-.261,8.31-.259,18.566-.259,18.567.116,18.567.259Z" fill="#0b2b34"/>
    <path id="Path_302" data-name="Path 302" d="M-521.114,141.092c0,.142-8.313.26-18.565.26s-18.568-.118-18.568-.26,8.312-.261,18.568-.261,18.565.116,18.565.261Z" fill="#0b2b34"/>
    <path id="Path_303" data-name="Path 303" d="M-531.015,138.035a22.13,22.13,0,0,1-4.783.26,22.115,22.115,0,0,1-4.783-.26,22.266,22.266,0,0,1,4.783-.26,22.281,22.281,0,0,1,4.783.26Z" fill="#345863"/>
    <path id="Path_304" data-name="Path 304" d="M-550.194,160.232a22.253,22.253,0,0,1-4.782.26,22.266,22.266,0,0,1-4.783-.26,22.267,22.267,0,0,1,4.783-.26,22.255,22.255,0,0,1,4.782.26Z" fill="#345863"/>
    <path id="Path_305" data-name="Path 305" d="M-550.419,164.189a22.287,22.287,0,0,1-4.784.26,22.267,22.267,0,0,1-4.782-.26,22.116,22.116,0,0,1,4.782-.26,22.136,22.136,0,0,1,4.784.26Z" fill="#345863"/>
    <path id="Path_306" data-name="Path 306" d="M-467.553,124.146c0,.143-23.145.259-51.688.259s-51.692-.116-51.692-.259,23.141-.26,51.692-.26,51.688.115,51.688.26Z" fill="#0b2b34"/>
    <path id="Path_307" data-name="Path 307" d="M-562.734,120.649a1.225,1.225,0,0,1-1.224,1.225,1.225,1.225,0,0,1-1.227-1.225,1.226,1.226,0,0,1,1.227-1.224,1.225,1.225,0,0,1,1.224,1.224Z" fill="#fff"/>
    <path id="Path_308" data-name="Path 308" d="M-557.474,120.649a1.224,1.224,0,0,1-1.225,1.225,1.225,1.225,0,0,1-1.224-1.225,1.225,1.225,0,0,1,1.224-1.224,1.224,1.224,0,0,1,1.225,1.224Z" fill="#fff"/>
    <path id="Path_309" data-name="Path 309" d="M-552.212,120.649a1.225,1.225,0,0,1-1.225,1.225,1.225,1.225,0,0,1-1.226-1.225,1.226,1.226,0,0,1,1.226-1.224,1.226,1.226,0,0,1,1.225,1.224Z" fill="#fff"/>
    <path id="Path_310" data-name="Path 310" d="M-319.29,195.6H-435.953l8.622-83.1h117.654l-9.614,83.1Z" fill="#0b2b34"/>
    <path id="Path_311" data-name="Path 311" d="M-325.23,195.6H-441.892l8.623-83.1h117.652l-9.613,83.1Z" fill="#345863"/>
    <path id="Path_312" data-name="Path 312" d="M-329.555,191.833H-437.809l8-77.113h109.173l-8.92,77.113Z" fill="#b4bebf"/>
    <path id="Path_313" data-name="Path 313" d="M-426.016,177.811c-.143-.016.937-11.616,2.412-25.908s2.787-25.872,2.932-25.856-.939,11.612-2.413,25.909-2.788,25.869-2.931,25.855Z" fill="#0b2b34"/>
    <path id="Path_314" data-name="Path 314" d="M-406.3,128.625a28.385,28.385,0,0,1-5.434.262,28.353,28.353,0,0,1-5.433-.262,28.655,28.655,0,0,1,5.433-.26,28.688,28.688,0,0,1,5.434.26Z" fill="#0b2b34"/>
    <path id="Path_315" data-name="Path 315" d="M-360.068,128.625c0,.145-9.69.262-21.642.262s-21.648-.117-21.648-.262,9.691-.26,21.648-.26,21.642.117,21.642.26Z" fill="#f15b66"/>
    <path id="Path_316" data-name="Path 316" d="M-407.585,156.029a28.446,28.446,0,0,1-5.435.261,28.437,28.437,0,0,1-5.435-.261,28.839,28.839,0,0,1,5.435-.259,28.848,28.848,0,0,1,5.435.259Z" fill="#0b2b34"/>
    <path id="Path_317" data-name="Path 317" d="M-361.348,156.029c0,.145-9.692.261-21.645.261s-21.646-.116-21.646-.261,9.689-.259,21.646-.259,21.645.117,21.645.259Z" fill="#f15b66"/>
    <path id="Path_318" data-name="Path 318" d="M-376.093,168.662c0,.145-9.693.261-21.646.261s-21.644-.116-21.644-.261,9.688-.26,21.644-.26,21.646.117,21.646.26Z" fill="#f15b66"/>
    <path id="Path_319" data-name="Path 319" d="M-401.515,136.362a56.059,56.059,0,0,1-7.645.261,56.047,56.047,0,0,1-7.645-.261,56.651,56.651,0,0,1,7.645-.259,56.663,56.663,0,0,1,7.645.259Z" fill="#f15b66"/>
    <path id="Path_320" data-name="Path 320" d="M-401.9,147.705a56.029,56.029,0,0,1-7.643.261,56.066,56.066,0,0,1-7.647-.261,56.563,56.563,0,0,1,7.647-.26,56.526,56.526,0,0,1,7.643.26Z" fill="#f15b66"/>
    <path id="Path_321" data-name="Path 321" d="M-388.979,163.916a56.038,56.038,0,0,1-7.644.261,56.057,56.057,0,0,1-7.646-.261,56.446,56.446,0,0,1,7.646-.261,56.427,56.427,0,0,1,7.644.261Z" fill="#f15b66"/>
    <path id="Path_322" data-name="Path 322" d="M-345.893,136.362c0,.145-8.744.261-19.529.261s-19.533-.116-19.533-.261,8.745-.259,19.533-.259,19.529.116,19.529.259Z" fill="#0b2b34"/>
    <path id="Path_323" data-name="Path 323" d="M-357.948,148.362c0,.145-8.745.261-19.53.261s-19.53-.116-19.53-.261,8.742-.259,19.53-.259,19.53.116,19.53.259Z" fill="#0b2b34"/>
    <path id="Path_324" data-name="Path 324" d="M-344.505,163.916c0,.145-8.745.261-19.532.261s-19.531-.116-19.531-.261,8.743-.261,19.531-.261,19.532.118,19.532.261Z" fill="#0b2b34"/>
    <path id="Path_325" data-name="Path 325" d="M-380.17,177.811c0,.143-8.746.259-19.532.259s-19.531-.116-19.531-.259,8.743-.26,19.531-.26,19.532.115,19.532.26Z" fill="#0b2b34"/>
    <path id="Path_326" data-name="Path 326" d="M-336.975,177.811c0,.143-8.744.259-19.529.259s-19.533-.116-19.533-.259,8.745-.26,19.533-.26,19.529.115,19.529.26Z" fill="#0b2b34"/>
    <path id="Path_327" data-name="Path 327" d="M-380.173,182.331c0,.145-8.745.261-19.532.261s-19.531-.116-19.531-.261,8.743-.261,19.531-.261,19.532.118,19.532.261Z" fill="#0b2b34"/>
    <path id="Path_328" data-name="Path 328" d="M-378.274,139.619c0,.145-8.745.261-19.529.261s-19.531-.116-19.531-.261,8.743-.261,19.531-.261,19.529.118,19.529.261Z" fill="#0b2b34"/>
    <path id="Path_329" data-name="Path 329" d="M-388.691,136.4a24.4,24.4,0,0,1-5.03.261,24.392,24.392,0,0,1-5.03-.261,24.736,24.736,0,0,1,5.03-.259,24.744,24.744,0,0,1,5.03.259Z" fill="#345863"/>
    <path id="Path_330" data-name="Path 330" d="M-408.865,159.753a24.355,24.355,0,0,1-5.03.262,24.347,24.347,0,0,1-5.03-.262,24.519,24.519,0,0,1,5.03-.26,24.527,24.527,0,0,1,5.03.26Z" fill="#345863"/>
    <path id="Path_331" data-name="Path 331" d="M-409.1,163.916a24.384,24.384,0,0,1-5.029.261,24.4,24.4,0,0,1-5.032-.261,24.563,24.563,0,0,1,5.032-.261,24.553,24.553,0,0,1,5.029.261Z" fill="#345863"/>
    <path id="Path_332" data-name="Path 332" d="M-321.934,121.793c0,.145-24.346.262-54.369.262s-54.377-.117-54.377-.262,24.342-.26,54.377-.26,54.369.116,54.369.26Z" fill="#0b2b34"/>
    <path id="Path_333" data-name="Path 333" d="M-422.055,118.116a1.288,1.288,0,0,1-1.289,1.288,1.288,1.288,0,0,1-1.288-1.288,1.288,1.288,0,0,1,1.288-1.288,1.288,1.288,0,0,1,1.289,1.288Z" fill="#fff"/>
    <path id="Path_334" data-name="Path 334" d="M-416.522,118.116a1.287,1.287,0,0,1-1.289,1.288,1.287,1.287,0,0,1-1.287-1.288,1.287,1.287,0,0,1,1.287-1.288,1.287,1.287,0,0,1,1.289,1.288Z" fill="#fff"/>
    <path id="Path_335" data-name="Path 335" d="M-410.988,118.116a1.288,1.288,0,0,1-1.289,1.288,1.287,1.287,0,0,1-1.288-1.288,1.287,1.287,0,0,1,1.288-1.288,1.288,1.288,0,0,1,1.289,1.288Z" fill="#fff"/>
    <path id="Path_336" data-name="Path 336" d="M-385.858,97.219h-111.4l8.234-79.358h112.351l-9.182,79.358Z" fill="#0b2b34"/>
    <path id="Path_337" data-name="Path 337" d="M-391.529,97.219h-111.4l8.234-79.358h112.35l-9.18,79.358Z" fill="#345863"/>
    <path id="Path_338" data-name="Path 338" d="M-395.66,93.625H-499.034l7.642-73.638h104.25l-8.518,73.638Z" fill="#b4bebf"/>
    <path id="Path_339" data-name="Path 339" d="M-487.67,81.267c-.144-.015.882-11.093,2.292-24.741s2.667-24.705,2.809-24.689-.883,11.09-2.292,24.742-2.667,24.7-2.809,24.688Z" fill="#0b2b34"/>
    <path id="Path_340" data-name="Path 340" d="M-468.848,34.3a26.266,26.266,0,0,1-5.19.26,26.246,26.246,0,0,1-5.188-.26,25.879,25.879,0,0,1,5.188-.262,25.9,25.9,0,0,1,5.19.262Z" fill="#0b2b34"/>
    <path id="Path_341" data-name="Path 341" d="M-424.7,34.3c0,.142-9.255.26-20.669.26s-20.67-.118-20.67-.26,9.253-.262,20.67-.262,20.669.117,20.669.262Z" fill="#f15b66"/>
    <path id="Path_342" data-name="Path 342" d="M-470.072,60.468a26.114,26.114,0,0,1-5.188.261,26.149,26.149,0,0,1-5.191-.261,26.059,26.059,0,0,1,5.191-.261,26.025,26.025,0,0,1,5.188.261Z" fill="#0b2b34"/>
    <path id="Path_343" data-name="Path 343" d="M-425.917,60.468c0,.143-9.255.261-20.668.261s-20.671-.118-20.671-.261,9.253-.261,20.671-.261,20.668.117,20.668.261Z" fill="#f15b66"/>
    <path id="Path_344" data-name="Path 344" d="M-440,72.531c0,.144-9.254.261-20.667.261s-20.671-.117-20.671-.261,9.253-.26,20.671-.26,20.667.117,20.667.26Z" fill="#f15b66"/>
    <path id="Path_345" data-name="Path 345" d="M-464.275,41.688a51.657,51.657,0,0,1-7.3.259,51.648,51.648,0,0,1-7.3-.259,51.1,51.1,0,0,1,7.3-.261,51.106,51.106,0,0,1,7.3.261Z" fill="#f15b66"/>
    <path id="Path_346" data-name="Path 346" d="M-464.646,52.519a51.591,51.591,0,0,1-7.3.26,51.591,51.591,0,0,1-7.3-.26,51.411,51.411,0,0,1,7.3-.26,51.412,51.412,0,0,1,7.3.26Z" fill="#f15b66"/>
    <path id="Path_347" data-name="Path 347" d="M-452.3,68a51.424,51.424,0,0,1-7.3.26,51.424,51.424,0,0,1-7.3-.26,51.327,51.327,0,0,1,7.3-.261,51.327,51.327,0,0,1,7.3.261Z" fill="#f15b66"/>
    <path id="Path_348" data-name="Path 348" d="M-411.16,41.688c0,.143-8.349.259-18.649.259s-18.65-.116-18.65-.259,8.348-.261,18.65-.261,18.649.116,18.649.261Z" fill="#0b2b34"/>
    <path id="Path_349" data-name="Path 349" d="M-422.67,53.147c0,.143-8.352.259-18.651.259s-18.65-.116-18.65-.259,8.348-.261,18.65-.261,18.651.117,18.651.261Z" fill="#0b2b34"/>
    <path id="Path_350" data-name="Path 350" d="M-409.834,68c0,.144-8.352.26-18.651.26s-18.65-.116-18.65-.26,8.348-.261,18.65-.261,18.651.117,18.651.261Z" fill="#0b2b34"/>
    <path id="Path_351" data-name="Path 351" d="M-443.893,81.267c0,.143-8.351.26-18.648.26s-18.653-.117-18.653-.26,8.351-.26,18.653-.26,18.648.116,18.648.26Z" fill="#0b2b34"/>
    <path id="Path_352" data-name="Path 352" d="M-402.643,81.267c0,.143-8.352.26-18.648.26s-18.653-.117-18.653-.26,8.35-.26,18.653-.26,18.648.116,18.648.26Z" fill="#0b2b34"/>
    <path id="Path_353" data-name="Path 353" d="M-443.9,85.584c0,.144-8.351.26-18.648.26s-18.652-.116-18.652-.26,8.35-.261,18.652-.261,18.648.117,18.648.261Z" fill="#0b2b34"/>
    <path id="Path_354" data-name="Path 354" d="M-442.081,44.8c0,.143-8.351.261-18.649.261s-18.65-.118-18.65-.261,8.347-.261,18.65-.261,18.649.117,18.649.261Z" fill="#0b2b34"/>
    <path id="Path_355" data-name="Path 355" d="M-452.028,41.728a22.452,22.452,0,0,1-4.8.26,22.45,22.45,0,0,1-4.8-.26,22.331,22.331,0,0,1,4.8-.261,22.332,22.332,0,0,1,4.8.261Z" fill="#345863"/>
    <path id="Path_356" data-name="Path 356" d="M-471.291,64.024a22.41,22.41,0,0,1-4.805.26,22.4,22.4,0,0,1-4.8-.26,22.4,22.4,0,0,1,4.8-.26,22.409,22.409,0,0,1,4.805.26Z" fill="#345863"/>
    <path id="Path_357" data-name="Path 357" d="M-471.52,68a22.373,22.373,0,0,1-4.8.26,22.369,22.369,0,0,1-4.8-.26,22.327,22.327,0,0,1,4.8-.261,22.331,22.331,0,0,1,4.8.261Z" fill="#345863"/>
    <path id="Path_358" data-name="Path 358" d="M-388.28,27.774c0,.145-23.249.262-51.92.262s-51.924-.117-51.924-.262,23.244-.259,51.924-.259,51.92.117,51.92.259Z" fill="#0b2b34"/>
    <path id="Path_359" data-name="Path 359" d="M-483.888,24.264a1.232,1.232,0,0,1-1.232,1.229,1.232,1.232,0,0,1-1.231-1.229,1.232,1.232,0,0,1,1.231-1.231,1.232,1.232,0,0,1,1.232,1.231Z" fill="#fff"/>
    <path id="Path_360" data-name="Path 360" d="M-478.605,24.264a1.23,1.23,0,0,1-1.229,1.229,1.231,1.231,0,0,1-1.232-1.229,1.231,1.231,0,0,1,1.232-1.231,1.23,1.23,0,0,1,1.229,1.231Z" fill="#fff"/>
    <path id="Path_361" data-name="Path 361" d="M-473.32,24.264a1.231,1.231,0,0,1-1.229,1.229,1.231,1.231,0,0,1-1.232-1.229,1.231,1.231,0,0,1,1.232-1.231,1.231,1.231,0,0,1,1.229,1.231Z" fill="#fff"/>
    <path id="Path_362" data-name="Path 362" d="M-574.586,408.848h-8.675V397.009h8.675v11.839Z" fill="#0b2b34"/>
    <path id="Path_363" data-name="Path 363" d="M-528.062,258.854h77.014v-3.747h-77.014v3.747Z" fill="#0b2b34"/>
    <path id="Path_364" data-name="Path 364" d="M-439.115,258.854l14.447-54.134H-484.8l-13.082,54.134Z" fill="#0b2b34"/>
    <path id="Path_365" data-name="Path 365" d="M-494.279,254.757h53.72l12.5-47.534h-54l-12.227,47.534Z" fill="#f0efee"/>
    <path id="Path_366" data-name="Path 366" d="M-480.716,216.429l-3.328,13.463h35.619l3.8-13.463Z" fill="#d8d9d9"/>
    <path id="Path_367" data-name="Path 367" d="M-452.141,214.654c0,.145-6.246.26-13.951.26s-13.954-.115-13.954-.26,6.246-.259,13.954-.259,13.951.116,13.951.259Z" fill="#345863"/>
    <path id="Path_368" data-name="Path 368" d="M-468.374,219.006a30.711,30.711,0,0,1-5.624.26,30.7,30.7,0,0,1-5.625-.26,30.274,30.274,0,0,1,5.625-.262,30.284,30.284,0,0,1,5.624.262Z" fill="#0b2b34"/>
    <path id="Path_369" data-name="Path 369" d="M-459.356,218.792a13.01,13.01,0,0,1-3.661.262,12.984,12.984,0,0,1-3.659-.262,13.119,13.119,0,0,1,3.659-.26,13.146,13.146,0,0,1,3.661.26Z" fill="#0b2b34"/>
    <path id="Path_370" data-name="Path 370" d="M-449.168,221.445c0,.145-6.891.26-15.387.26s-15.386-.115-15.386-.26,6.888-.259,15.386-.259,15.387.116,15.387.259Z" fill="#345863"/>
    <path id="Path_371" data-name="Path 371" d="M-470.6,223.674a24.118,24.118,0,0,1-4.985.261,24.159,24.159,0,0,1-4.989-.261,23.994,23.994,0,0,1,4.989-.261,23.954,23.954,0,0,1,4.985.261Z" fill="#f15b66"/>
    <path id="Path_372" data-name="Path 372" d="M-451.927,226.857c0,.143-6.392.26-14.273.26s-14.272-.117-14.272-.26,6.39-.26,14.272-.26,14.273.117,14.273.26Z" fill="#345863"/>
    <path id="Path_373" data-name="Path 373" d="M-472.938,233.754a29.413,29.413,0,0,1-5.518.261,29.39,29.39,0,0,1-5.516-.261,29.288,29.288,0,0,1,5.516-.261,29.311,29.311,0,0,1,5.518.261Z" fill="#345863"/>
    <path id="Path_374" data-name="Path 374" d="M-463.494,233.8a13.853,13.853,0,0,1-3.768.229,13.716,13.716,0,0,1-3.766-.291,13.947,13.947,0,0,1,3.771-.228,13.768,13.768,0,0,1,3.763.29Z" fill="#0b2b34"/>
    <path id="Path_375" data-name="Path 375" d="M-458.189,233.541c0,.146-.713.262-1.592.262s-1.592-.116-1.592-.262.713-.26,1.592-.26,1.592.117,1.592.26Z" fill="#0b2b34"/>
    <path id="Path_376" data-name="Path 376" d="M-480.259,236.514c0,.142-.783.259-1.75.259s-1.752-.117-1.752-.259.785-.262,1.752-.262,1.75.117,1.75.262Z" fill="#f15b66"/>
    <path id="Path_377" data-name="Path 377" d="M-469.754,236.514a17.245,17.245,0,0,1-4.192.259,17.235,17.235,0,0,1-4.19-.259,16.963,16.963,0,0,1,4.19-.262,16.973,16.973,0,0,1,4.192.262Z" fill="#0b2b34"/>
    <path id="Path_378" data-name="Path 378" d="M-444.712,236.194c0,.145-5.013.26-11.2.26s-11.195-.115-11.195-.26,5.013-.259,11.195-.259,11.2.117,11.2.259Z" fill="#345863"/>
    <path id="Path_379" data-name="Path 379" d="M-480.79,239.377c0,.145-.807.262-1.8.262s-1.805-.117-1.805-.262.809-.26,1.805-.26,1.8.116,1.8.26Z" fill="#0b2b34"/>
    <path id="Path_380" data-name="Path 380" d="M-475.273,239.272a4.792,4.792,0,0,1-2.175.259,4.792,4.792,0,0,1-2.175-.259,4.768,4.768,0,0,1,2.175-.26,4.768,4.768,0,0,1,2.175.26Z" fill="#0b2b34"/>
    <path id="Path_381" data-name="Path 381" d="M-458.826,239.06a48.271,48.271,0,0,1-7.054.259,48.294,48.294,0,0,1-7.058-.259,47.871,47.871,0,0,1,7.058-.26,47.848,47.848,0,0,1,7.054.26Z" fill="#345863"/>
    <path id="Path_382" data-name="Path 382" d="M-467.527,244.046a70.007,70.007,0,0,1-8.541.262,70,70,0,0,1-8.542-.262,70.264,70.264,0,0,1,8.542-.26,70.268,70.268,0,0,1,8.541.26Z" fill="#345863"/>
    <path id="Path_383" data-name="Path 383" d="M-457.551,243.834a14.539,14.539,0,0,1-3.873.262,14.514,14.514,0,0,1-3.873-.262,14.591,14.591,0,0,1,3.873-.261,14.615,14.615,0,0,1,3.873.261Z" fill="#f15b66"/>
    <path id="Path_384" data-name="Path 384" d="M-442.749,243.834a39.516,39.516,0,0,1-6.419.262,39.514,39.514,0,0,1-6.42-.262,39.725,39.725,0,0,1,6.42-.261,39.727,39.727,0,0,1,6.419.261Z" fill="#0b2b34"/>
    <path id="Path_385" data-name="Path 385" d="M-446.2,214.441c0,.145-.592.261-1.326.261s-1.326-.116-1.326-.261.6-.258,1.326-.258,1.326.116,1.326.258Z" fill="#0b2b34"/>
    <path id="Path_386" data-name="Path 386" d="M-473.255,212.639a8.467,8.467,0,0,1-2.918.26,8.448,8.448,0,0,1-2.918-.26,8.348,8.348,0,0,1,2.918-.261,8.366,8.366,0,0,1,2.918.261Z" fill="#f15b66"/>
    <path id="Path_387" data-name="Path 387" d="M-428.954,210.639h-54.005l.907-3.416h54l-.9,3.416Z" fill="#e5e5e4"/>
    <path id="Path_388" data-name="Path 388" d="M-479.187,208.948a.591.591,0,0,1-.591.59.59.59,0,0,1-.59-.59.591.591,0,0,1,.59-.59.591.591,0,0,1,.591.59Z" fill="#f8f7f6"/>
    <path id="Path_389" data-name="Path 389" d="M-477.156,208.948a.589.589,0,0,1-.59.59.588.588,0,0,1-.588-.59.589.589,0,0,1,.588-.59.59.59,0,0,1,.59.59Z" fill="#f8f7f6"/>
    <path id="Path_390" data-name="Path 390" d="M-475.123,208.948a.59.59,0,0,1-.59.59.59.59,0,0,1-.59-.59.59.59,0,0,1,.59-.59.59.59,0,0,1,.59.59Z" fill="#f8f7f6"/>
    <path id="Path_391" data-name="Path 391" d="M-363.148,338.6H-491.183v-74.71h128.035V338.6Z" fill="#0b2b34"/>
    <path id="Path_392" data-name="Path 392" d="M-432.856,338.6h-58.327v-74.71h58.327V338.6Z" fill="#345863"/>
    <path id="Path_393" data-name="Path 393" d="M-438.8,289.265a2.965,2.965,0,0,1-.021-.385c-.005-.274-.012-.635-.019-1.092-.012-.98-.028-2.373-.047-4.148-.025-3.607-.06-8.767-.1-15.129l.189.186c-12.128.02-28.682.044-46.918.074-.236.232.312-.319.257-.258v2.715q0,1.352,0,2.691c0,1.784,0,3.548,0,5.282,0,3.474-.008,6.839-.01,10.064l-.248-.248,33.61.118c4.148.028,7.455.053,9.762.067,1.119.015,1.995.025,2.623.031l.684.016a1.74,1.74,0,0,1,.243.016,1.119,1.119,0,0,1-.212.014l-.656.015q-.924.014-2.572.031c-2.293.018-5.582.04-9.705.07l-33.777.118h-.248v-.249c0-3.225-.006-6.59-.01-10.064,0-1.734,0-3.5,0-5.282v-5.406c-.059.052.493-.495.264-.264,18.236.028,34.79.056,46.918.073h.187v.189c-.043,6.41-.077,11.609-.1,15.241-.021,1.76-.037,3.138-.046,4.108-.01.444-.017.792-.022,1.057a2.576,2.576,0,0,1-.018.348Z" fill="#0b2b34"/>
    <path id="Path_394" data-name="Path 394" d="M-460.262,278.888a2.7,2.7,0,0,0-.9-1.441,1.823,1.823,0,0,0-1.693-.209,1.786,1.786,0,0,0-1.138,1.65,1.783,1.783,0,0,0,1.138,1.647,1.821,1.821,0,0,0,1.693-.209,2.7,2.7,0,0,0,.9-1.438c.029,0,.084.177.035.511a1.973,1.973,0,0,1-.712,1.22,2.157,2.157,0,0,1-2.081.367,2.23,2.23,0,0,1-1.494-2.1,2.234,2.234,0,0,1,1.494-2.1,2.172,2.172,0,0,1,2.081.367,1.992,1.992,0,0,1,.712,1.221c.049.333-.006.514-.035.513Z" fill="#0b2b34"/>
    <path id="Path_395" data-name="Path 395" d="M-438.8,312.109a2.882,2.882,0,0,1-.021-.384c-.005-.275-.012-.634-.019-1.091-.012-.982-.028-2.373-.047-4.151-.025-3.6-.06-8.764-.1-15.128l.189.187c-12.128.02-28.682.046-46.918.073-.236.234.312-.316.257-.258v2.715c0,.9,0,1.8,0,2.693q0,2.676,0,5.283c0,3.472-.008,6.838-.01,10.06l-.248-.247c13.592.048,25.282.088,33.61.119l9.762.068c1.119.014,1.995.023,2.623.03l.684.017a2.018,2.018,0,0,1,.243.014,1.043,1.043,0,0,1-.212.015l-.656.017q-.924.009-2.572.031l-9.705.067c-8.37.031-20.119.072-33.777.118h-.248v-.249c0-3.222-.006-6.588-.01-10.06q0-2.6,0-5.283v-5.408c-.059.054.493-.5.264-.261l46.918.071h.187v.187c-.043,6.412-.077,11.612-.1,15.243-.021,1.759-.037,3.136-.046,4.107-.01.443-.017.792-.022,1.058a2.54,2.54,0,0,1-.018.346Z" fill="#0b2b34"/>
    <path id="Path_396" data-name="Path 396" d="M-460.262,301.732a2.712,2.712,0,0,0-.9-1.44,1.826,1.826,0,0,0-1.693-.209,1.788,1.788,0,0,0-1.138,1.649,1.789,1.789,0,0,0,1.138,1.65,1.829,1.829,0,0,0,1.693-.209,2.709,2.709,0,0,0,.9-1.441c.029,0,.084.179.035.512a1.986,1.986,0,0,1-.712,1.222,2.169,2.169,0,0,1-2.081.366,2.233,2.233,0,0,1-1.494-2.1,2.232,2.232,0,0,1,1.494-2.1,2.169,2.169,0,0,1,2.081.366,1.989,1.989,0,0,1,.712,1.222c.049.333-.006.512-.035.511Z" fill="#0b2b34"/>
    <path id="Path_397" data-name="Path 397" d="M-438.8,334.954a2.947,2.947,0,0,1-.021-.385c-.005-.272-.012-.632-.019-1.089-.012-.983-.028-2.374-.047-4.152-.025-3.6-.06-8.764-.1-15.128l.189.188c-12.128.018-28.682.045-46.918.072-.236.232.312-.316.257-.258v2.715c0,.9,0,1.8,0,2.692q0,2.679,0,5.284c0,3.47-.008,6.838-.01,10.061l-.248-.248,33.61.118c4.148.031,7.455.052,9.762.07,1.119.011,1.995.022,2.623.031l.684.014a1.506,1.506,0,0,1,.243.015,1.007,1.007,0,0,1-.212.017c-.172,0-.387.009-.656.013l-2.572.033-9.705.067-33.777.118h-.248v-.248c0-3.223-.006-6.591-.01-10.061q0-2.607,0-5.284V314.2c-.059.055.493-.495.264-.262,18.236.029,34.79.053,46.918.074h.187v.186c-.043,6.411-.077,11.612-.1,15.242-.021,1.759-.037,3.137-.046,4.11-.01.441-.017.791-.022,1.055a2.51,2.51,0,0,1-.018.347Z" fill="#0b2b34"/>
    <path id="Path_398" data-name="Path 398" d="M-460.262,324.577a2.7,2.7,0,0,0-.9-1.439,1.826,1.826,0,0,0-1.693-.209,1.784,1.784,0,0,0-1.138,1.648,1.788,1.788,0,0,0,1.138,1.65,1.826,1.826,0,0,0,1.693-.209,2.709,2.709,0,0,0,.9-1.441c.029,0,.084.18.035.513a1.987,1.987,0,0,1-.712,1.221,2.172,2.172,0,0,1-2.081.367,2.236,2.236,0,0,1-1.494-2.1,2.228,2.228,0,0,1,1.494-2.1,2.157,2.157,0,0,1,2.081.366,1.98,1.98,0,0,1,.712,1.22c.049.333-.006.513-.035.512Z" fill="#0b2b34"/>
    <path id="Path_399" data-name="Path 399" d="M-576.453,399.405l-85.574-.06V263.888h85.574V399.405" fill="#0b2b34"/>
    <path id="Path_400" data-name="Path 400" d="M-358.5,265.775H-666.156v-7.1H-358.5v7.1" fill="#0b2b34"/>
    <path id="Path_401" data-name="Path 401" d="M-652.487,409.479h-9.54v-143.7h9.54v143.7Z" fill="#0b2b34"/>
    <path id="Path_402" data-name="Path 402" d="M-363.148,409.514h-9.539V265.775h9.539V409.514Z" fill="#0b2b34"/>
    <path id="Path_403" data-name="Path 403" d="M-423.316,409.514h-9.54V265.775h9.54V409.514Z" fill="#0b2b34"/>
    <path id="Path_404" data-name="Path 404" d="M-622.89,258.677c0,.142-9.172.261-20.481.261s-20.482-.119-20.482-.261,9.168-.262,20.482-.262,20.481.117,20.481.262Z" fill="#345863"/>
    <path id="Path_405" data-name="Path 405" d="M-532.939,402.482l.243-10.277-19.248-.579-.515,15.032,1.19.114c5.3.455,26.993,1.937,30.576.967,4-1.082-12.246-5.257-12.246-5.257" fill="#ffc032"/>
    <path id="Path_406" data-name="Path 406" d="M-534,407.85c-6.539-.211-13.882-.649-18.461-1.192h0l1.19.114c2.834.243,10.344.779,17.271,1.078m10.227-2.611c-.387-.139-.789-.28-1.2-.418.137.044.6.2,1.2.418" fill="#fff"/>
    <path id="Path_407" data-name="Path 407" d="M-526.419,407.988c-2.205,0-4.82-.048-7.579-.138-6.927-.3-14.437-.835-17.271-1.078l-1.19-.114.045-.428,25.625,1s.655-2.414,1.778-2.425l.039.012c.412.138.814.279,1.2.418.547.2,1.2.456,1.814.732l-.015,1.914c-1.108.07-2.64.1-4.447.1" fill="#f5909a"/>
    <path id="Path_408" data-name="Path 408" d="M-552.718,406.207a1.546,1.546,0,0,0,.33.047c.285.025.6.055.949.087.949.069,2.116.155,3.493.258,2.952.2,7.033.415,11.545.557s8.6.18,11.558.169l3.5-.038c.354-.01.666-.017.953-.026a1.752,1.752,0,0,0,.332-.026,2.265,2.265,0,0,0-.332-.022l-.953-.017c-.95-.008-2.121-.021-3.5-.036-2.955-.031-7.041-.1-11.551-.236s-8.589-.336-11.541-.489c-1.379-.074-2.548-.134-3.5-.186-.353-.016-.666-.028-.951-.042a1.779,1.779,0,0,0-.334,0Z" fill="#0b2b34"/>
    <path id="Path_409" data-name="Path 409" d="M-526.8,407.533a7.92,7.92,0,0,1,.705-1.648,7.867,7.867,0,0,1,1.234-1.3,2.591,2.591,0,0,0-1.428,1.174,2.6,2.6,0,0,0-.511,1.778Z" fill="#0b2b34"/>
    <path id="Path_410" data-name="Path 410" d="M-532.394,404.479c.053.036.336-.288.629-.72s.49-.816.436-.852-.335.285-.629.72-.49.814-.436.852Z" fill="#0b2b34"/>
    <path id="Path_411" data-name="Path 411" d="M-533.927,403.606c.041.048.351-.145.692-.431s.583-.563.542-.611-.351.143-.693.431-.582.563-.541.611Z" fill="#0b2b34"/>
    <path id="Path_412" data-name="Path 412" d="M-534.857,401.76a2.28,2.28,0,0,0,1,.158,2.306,2.306,0,0,0,1.008-.074,2.218,2.218,0,0,0-1-.158,2.221,2.221,0,0,0-1.01.074Z" fill="#0b2b34"/>
    <path id="Path_413" data-name="Path 413" d="M-535.156,400.468a1.958,1.958,0,0,0,1.112.359,1.95,1.95,0,0,0,1.162-.118,6.28,6.28,0,0,0-1.137-.112,5.942,5.942,0,0,0-1.137-.129" fill="#0b2b34"/>
    <path id="Path_414" data-name="Path 414" d="M-531.69,402.818a3.525,3.525,0,0,0,1.237.032,7.463,7.463,0,0,0,1.327-.25,3.559,3.559,0,0,0,.762-.287.683.683,0,0,0,.319-.375.485.485,0,0,0-.173-.5,2.264,2.264,0,0,0-2.824.577,2.185,2.185,0,0,0-.43.811.708.708,0,0,0-.043.334,3.583,3.583,0,0,1,.6-1.038,2.241,2.241,0,0,1,1.077-.653,1.921,1.921,0,0,1,1.471.144c.193.153.109.38-.114.5a3.821,3.821,0,0,1-.7.277,8.933,8.933,0,0,1-1.285.293c-.744.107-1.217.093-1.218.131Z" fill="#0b2b34"/>
    <path id="Path_415" data-name="Path 415" d="M-531.372,402.891a1.214,1.214,0,0,0,.17-.856,2.071,2.071,0,0,0-.309-.914,1.249,1.249,0,0,0-1.012-.662.494.494,0,0,0-.4.561,1.348,1.348,0,0,0,.193.558,3.726,3.726,0,0,0,.562.767,1.763,1.763,0,0,0,.692.521c.022-.029-.24-.228-.568-.632a4.382,4.382,0,0,1-.5-.756c-.162-.268-.264-.741.048-.788.311-.02.617.3.8.55a2.054,2.054,0,0,1,.325.817,4.386,4.386,0,0,1-.006.834" fill="#0b2b34"/>
    <path id="Path_416" data-name="Path 416" d="M-552.163,400.953c0,.044.553-.035,1.42.094a6.233,6.233,0,0,1,3.064,1.374,6.221,6.221,0,0,1,1.854,2.8c.269.835.281,1.388.324,1.385a1.151,1.151,0,0,0,.012-.387,5.11,5.11,0,0,0-.177-1.045,5.98,5.98,0,0,0-1.863-2.931,5.957,5.957,0,0,0-3.193-1.359,5.054,5.054,0,0,0-1.06-.006,1.14,1.14,0,0,0-.381.075Z" fill="#0b2b34"/>
    <path id="Path_417" data-name="Path 417" d="M-549.921,393.005a32.812,32.812,0,0,0-.288,3.948,33.573,33.573,0,0,0-.056,3.959,33.949,33.949,0,0,0,.289-3.949,34.2,34.2,0,0,0,.055-3.958" fill="#0b2b34"/>
    <path id="Path_418" data-name="Path 418" d="M-543,404.915a10.846,10.846,0,0,0,2.8.365,10.97,10.97,0,0,0,2.821-.138c0-.069-1.262-.031-2.811-.1s-2.8-.2-2.812-.132Z" fill="#0b2b34"/>
    <path id="Path_419" data-name="Path 419" d="M-546.769,404.793c-.048.046.1.271.215.563s.181.549.248.547.108-.3-.033-.636-.387-.519-.43-.474Z" fill="#0b2b34"/>
    <path id="Path_420" data-name="Path 420" d="M-548.136,402.981c-.047.043.072.249.264.457s.388.339.435.3-.07-.248-.264-.456-.388-.339-.435-.3Z" fill="#0b2b34"/>
    <path id="Path_421" data-name="Path 421" d="M-550.144,402.109c.01.067.267.073.545.18s.479.266.531.224-.1-.314-.449-.443-.646-.02-.627.039Z" fill="#0b2b34"/>
    <path id="Path_422" data-name="Path 422" d="M-551.581,401.685c-.026.058.083.161.24.227s.3.072.332.015-.084-.162-.24-.23-.307-.073-.332-.012Z" fill="#0b2b34"/>
    <path id="Path_423" data-name="Path 423" d="M-532.882,400.709h0a.03.03,0,0,0-.014-.016l.053-2.255-.039,2.271" fill="#a8abab"/>
    <path id="Path_424" data-name="Path 424" d="M-532.9,400.693c-.087-.047-.561-.035-1.123-.1-.5-.053-.923-.147-1.076-.147-.035,0-.057,0-.061.018-.013.033.149.129.417.216l-15.453-.217c.031-.315.067-.778.1-1.343l17.246-.732v.046l-.053,2.255" fill="#e99437"/>
    <path id="Path_425" data-name="Path 425" d="M-532.882,400.709l-1.857-.025c-.268-.087-.43-.183-.417-.216,0-.013.026-.018.061-.018.153,0,.574.094,1.076.147.562.061,1.036.049,1.123.1a.03.03,0,0,1,.014.016h0" fill="#001821"/>
    <path id="Path_426" data-name="Path 426" d="M-552.212,399.469l-.024-.253.033,0-.009.255" fill="#a8abab"/>
    <path id="Path_427" data-name="Path 427" d="M-550.3,400.464l-1.821-.024-.091-.971.008-.255,1.918-.081c-.012.559-.018,1.019-.014,1.331" fill="#e99437"/>
    <path id="Path_428" data-name="Path 428" d="M-550.192,400.467l-.108,0c0-.312,0-.772.014-1.331l.2-.009c-.036.565-.072,1.028-.1,1.343" fill="#001821"/>
    <path id="Path_429" data-name="Path 429" d="M-502.577,404.08l-.028-10.279-19.257-.071-.118,15.041,1.194.081c5.312.313,27.036,1.223,30.59.16,3.968-1.188-12.381-4.932-12.381-4.932" fill="#ffc032"/>
    <path id="Path_430" data-name="Path 430" d="M-513.8,409.252c-3.1-.116-5.963-.278-8.18-.481h0l1.194.081c1.7.1,5.094.262,9.034.4H-513.8" fill="#fff"/>
    <path id="Path_431" data-name="Path 431" d="M-503.5,409.474c-3.382-.022-6.98-.1-10.3-.222h2.048c2.618.093,5.483.175,8.252.222" fill="#717f84"/>
    <path id="Path_432" data-name="Path 432" d="M-490.373,409.06l.177-.048c.552-.165.71-.38.575-.627a.329.329,0,0,1,.04.428,1.641,1.641,0,0,1-.792.247m-2.851-2.427c-.438-.148-.9-.294-1.367-.439h0s.589.173,1.365.439" fill="#fff"/>
    <path id="Path_433" data-name="Path 433" d="M-501.664,409.479q-.9,0-1.836-.005c-2.769-.047-5.634-.129-8.252-.222-3.94-.138-7.33-.3-9.034-.4l-1.194-.081.033-.432,25.645.328s.59-2.429,1.711-2.473c.47.145.929.291,1.367.439,1.31.446,3.153,1.157,3.6,1.752.135.247-.023.462-.575.627l-.177.048a98.728,98.728,0,0,1-11.291.419" fill="#f5909a"/>
    <path id="Path_434" data-name="Path 434" d="M-522.249,408.326a1.632,1.632,0,0,0,.331.037c.284.02.6.039.95.063l3.5.165c2.955.118,7.041.228,11.554.253s8.6-.048,11.559-.138l3.5-.13c.354-.018.666-.037.951-.052a1.641,1.641,0,0,0,.331-.034,1.9,1.9,0,0,0-.333-.012l-.952.007c-.952.015-2.12.036-3.5.056-2.957.047-7.042.091-11.554.068s-8.594-.107-11.551-.182c-1.379-.036-2.549-.069-3.5-.093l-.952-.018a1.816,1.816,0,0,0-.333.01Z" fill="#0b2b34"/>
    <path id="Path_435" data-name="Path 435" d="M-496.31,408.967a7.984,7.984,0,0,1,.661-1.667,7.854,7.854,0,0,1,1.2-1.336,2.587,2.587,0,0,0-1.4,1.213,2.59,2.59,0,0,0-.463,1.79Z" fill="#0b2b34"/>
    <path id="Path_436" data-name="Path 436" d="M-501.978,406.061c.053.034.326-.3.609-.738s.468-.827.414-.862-.328.3-.609.736-.47.827-.414.864Z" fill="#0b2b34"/>
    <path id="Path_437" data-name="Path 437" d="M-503.535,405.23c.043.046.348-.155.682-.452s.567-.576.524-.624-.346.155-.68.451-.569.577-.526.625Z" fill="#0b2b34"/>
    <path id="Path_438" data-name="Path 438" d="M-504.513,403.406a2.233,2.233,0,0,0,1,.133,2.285,2.285,0,0,0,1.009-.1,2.243,2.243,0,0,0-1.005-.132,2.3,2.3,0,0,0-1.008.1Z" fill="#0b2b34"/>
    <path id="Path_439" data-name="Path 439" d="M-504.845,402.123a1.935,1.935,0,0,0,1.119.331,1.954,1.954,0,0,0,1.158-.148,5.981,5.981,0,0,0-1.139-.083,6.55,6.55,0,0,0-1.138-.1" fill="#0b2b34"/>
    <path id="Path_440" data-name="Path 440" d="M-501.319,404.383a3.59,3.59,0,0,0,1.238,0,7.407,7.407,0,0,0,1.318-.285,3.649,3.649,0,0,0,.756-.308.664.664,0,0,0,.307-.384.489.489,0,0,0-.184-.495,2.269,2.269,0,0,0-2.81.653,2.22,2.22,0,0,0-.407.824.668.668,0,0,0-.033.334,3.466,3.466,0,0,1,.568-1.054,2.239,2.239,0,0,1,1.061-.683,1.913,1.913,0,0,1,1.473.108c.2.145.118.377-.1.507a3.775,3.775,0,0,1-.7.294,8.741,8.741,0,0,1-1.275.326c-.742.128-1.214.127-1.214.165Z" fill="#0b2b34"/>
    <path id="Path_441" data-name="Path 441" d="M-501,404.445a1.216,1.216,0,0,0,.147-.858,2.018,2.018,0,0,0-.336-.9,1.238,1.238,0,0,0-1.027-.636.491.491,0,0,0-.383.569,1.326,1.326,0,0,0,.207.554,3.754,3.754,0,0,0,.582.752,1.833,1.833,0,0,0,.705.505c.022-.03-.244-.225-.584-.616a4.593,4.593,0,0,1-.516-.746c-.168-.262-.282-.733.028-.788.31-.028.625.282.813.53a2.021,2.021,0,0,1,.347.8,4.565,4.565,0,0,1,.017.835" fill="#0b2b34"/>
    <path id="Path_442" data-name="Path 442" d="M-521.833,403.06c0,.044.55-.05,1.42.055a6.227,6.227,0,0,1,3.1,1.292,6.218,6.218,0,0,1,1.928,2.75c.291.826.316,1.381.36,1.376a1.041,1.041,0,0,0,0-.387,5.1,5.1,0,0,0-.2-1.04,5.957,5.957,0,0,0-1.939-2.879,5.96,5.96,0,0,0-3.229-1.276,5,5,0,0,0-1.059.024,1.071,1.071,0,0,0-.378.085Z" fill="#0b2b34"/>
    <path id="Path_443" data-name="Path 443" d="M-519.8,395.055a33.43,33.43,0,0,0-.184,3.954,34.136,34.136,0,0,0,.049,3.959,32.929,32.929,0,0,0,.184-3.954,33.849,33.849,0,0,0-.049-3.959" fill="#0b2b34"/>
    <path id="Path_444" data-name="Path 444" d="M-512.566,406.776a10.809,10.809,0,0,0,2.811.291,10.872,10.872,0,0,0,2.816-.212c-.006-.069-1.264,0-2.813-.021s-2.806-.125-2.814-.058Z" fill="#0b2b34"/>
    <path id="Path_445" data-name="Path 445" d="M-516.339,406.755c-.047.048.1.267.228.557s.2.545.262.541.1-.3-.049-.636-.4-.509-.441-.462Z" fill="#0b2b34"/>
    <path id="Path_446" data-name="Path 446" d="M-517.755,404.98c-.045.044.078.246.277.449s.4.33.441.284-.077-.245-.275-.447-.4-.331-.443-.286Z" fill="#0b2b34"/>
    <path id="Path_447" data-name="Path 447" d="M-519.787,404.161c.014.067.27.066.552.165s.486.252.536.209-.109-.308-.461-.429-.646,0-.627.055Z" fill="#0b2b34"/>
    <path id="Path_448" data-name="Path 448" d="M-521.234,403.774c-.023.06.088.16.246.221s.309.067.332.005-.087-.158-.246-.222-.307-.064-.332,0Z" fill="#0b2b34"/>
    <path id="Path_449" data-name="Path 449" d="M-521.923,401.576l-.03-.253.032,0,0,.255" fill="#a8abab"/>
    <path id="Path_450" data-name="Path 450" d="M-521.806,402.543l-.117-.967,0-.255,1.916-.131c0,.558.008,1.019.02,1.331l-1.821.022" fill="#e99437"/>
    <path id="Path_451" data-name="Path 451" d="M-502.568,402.306a.029.029,0,0,0-.013-.017l-.006-2.285.019,2.3" fill="#a8abab"/>
    <path id="Path_452" data-name="Path 452" d="M-519.876,402.52c.023-.315.045-.78.066-1.344l17.223-1.19V400l.006,2.285c-.087-.045-.561-.019-1.126-.066-.492-.038-.907-.118-1.068-.118-.042,0-.066,0-.07.018-.014.034.15.125.42.205l-15.451.192" fill="#e99437"/>
    <path id="Path_453" data-name="Path 453" d="M-504.425,402.328c-.27-.08-.434-.171-.42-.205,0-.013.028-.018.07-.018.161,0,.576.08,1.068.118.565.047,1.039.021,1.126.066a.029.029,0,0,1,.013.017h0l-1.857.022" fill="#001821"/>
    <path id="Path_454" data-name="Path 454" d="M-519.985,402.521c-.012-.312-.018-.773-.02-1.331l.2-.014c-.021.564-.043,1.029-.066,1.344h-.109" fill="#001821"/>
    <path id="Path_455" data-name="Path 455" d="M-545.095,228.112l7.711,23.22c2.082,6.272,7.56,7.345,14.168,7.345h42.893v-9.623l-39.186-5.6-9.338-23.855-16.248,8.509Z" fill="#f9b399"/>
    <path id="Path_456" data-name="Path 456" d="M-475.608,247.055l3.4-1.612s3.667-7.088,4.512-6.8,1.088,2.371-.385,5.628l4.522-1.291s9.8,4.527,9.369,5.137a2.262,2.262,0,0,1-3.372.963c-2.135-1.092-4.932-2.373-4.932-2.373l-5.282,1.509,6.812.864,6.4,5.828a3.135,3.135,0,0,1-3.917-.1l-16.637,3.574-5.211.3v-9.623l4.715-2Z" fill="#f9b399"/>
    <path id="Path_457" data-name="Path 457" d="M-458.475,254.808c-.07.047-.381-.447-.981-1.1a5.1,5.1,0,0,0-1.209-.936,4.964,4.964,0,0,0-1.8-.468,24.674,24.674,0,0,1-4.995-.854,24.841,24.841,0,0,1,5.057.336,4.93,4.93,0,0,1,1.975.571,4.639,4.639,0,0,1,1.25,1.112,2.96,2.96,0,0,1,.7,1.339Z" fill="#f79570"/>
    <path id="Path_458" data-name="Path 458" d="M-461.079,255.476c-.062,0-.114-.344-.581-.445s-1.233-.176-2.02-.257a16.932,16.932,0,0,1-2.926-.3,5.864,5.864,0,0,1,2.977-.221,8.84,8.84,0,0,1,2.092.429.831.831,0,0,1,.506.522c.043.18-.015.274-.048.269Z" fill="#f79570"/>
    <path id="Path_459" data-name="Path 459" d="M-581.3,132.643l-2.328,47.175,20.2,1.9,1.116-11.45s7.124,1.76,9.288-4.832c1.382-4.21,2.613-37.188,2.613-37.188l-30.886,4.391Z" fill="#f9b399"/>
    <path id="Path_460" data-name="Path 460" d="M-548.675,133.762c.559,4.414-5.614,6.97-5.614,6.97l-1.079,10.444a20.5,20.5,0,0,0-2.9-.026c.521-4.9-5.791-3.944-6.434-.6-.618,3.214,3.042,5.358,3.042,5.358-2.526,3.876-3.549,5.921-7.134,9.553-3.88,3.932-5.966,4.249-9.972,4.131l-4.412-.2s-1.571-3.77-2.724-12.676c-.553-4.282-3.9-9.9-2.946-16.859,2.705-19.791,21.668-17.7,21.668-17.7,9.838.275,17.209,1.367,18.506,11.612Z" fill="#0b2b34"/>
    <path id="Path_461" data-name="Path 461" d="M-563.208,122.722c4.285.111,8.722.447,12.484,2.5s6.66,6.273,5.888,10.489l-2.14.385q-.439-.79-.882-1.578.013,1.259.025,2.521l-3.766,1.052a27.381,27.381,0,0,0-3.334-9.111" fill="#0b2b34"/>
    <path id="Path_462" data-name="Path 462" d="M-580.5,144.432a2.19,2.19,0,0,1-.335-.742,12.936,12.936,0,0,1-.54-2.147,15.9,15.9,0,0,1,.484-7.263,15.953,15.953,0,0,1,3.692-6.274,13.082,13.082,0,0,1,1.657-1.469c.421-.307.673-.451.694-.424.056.072-.871.759-2.078,2.142a17.236,17.236,0,0,0-3.467,6.18,17.211,17.211,0,0,0-.617,7.056c.219,1.823.595,2.913.51,2.941Z" fill="#345863"/>
    <path id="Path_463" data-name="Path 463" d="M-576.523,142.779a8.21,8.21,0,0,1-.8-2.419,20.526,20.526,0,0,1-.388-6.14,20.514,20.514,0,0,1,1.447-5.983,8.181,8.181,0,0,1,1.2-2.244,31.977,31.977,0,0,0-2.133,8.272,32,32,0,0,0,.666,8.514Z" fill="#345863"/>
    <path id="Path_464" data-name="Path 464" d="M-550.737,135.465c-.095.019-.27-1.221-1.088-3.021a14.182,14.182,0,0,0-4.866-5.809,14.205,14.205,0,0,0-7.2-2.36c-1.975-.09-3.19.208-3.207.113a2.5,2.5,0,0,1,.838-.254,11.612,11.612,0,0,1,2.379-.227,13.579,13.579,0,0,1,7.485,2.3,13.576,13.576,0,0,1,4.912,6.1,11.6,11.6,0,0,1,.675,2.293,2.571,2.571,0,0,1,.075.873Z" fill="#345863"/>
    <path id="Path_465" data-name="Path 465" d="M-579.875,118.9a5.194,5.194,0,0,1,2.9,1.712,5.191,5.191,0,0,1,1.7,2.91c-.14.066-.79-1.277-2.065-2.543-1.258-1.281-2.6-1.938-2.532-2.079Z" fill="#0b2b34"/>
    <path id="Path_466" data-name="Path 466" d="M-575.151,118.924c.144.052-.159,1.1-.1,2.414.039,1.311.419,2.337.279,2.4a3.335,3.335,0,0,1-.8-2.38,3.317,3.317,0,0,1,.622-2.433Z" fill="#345863"/>
    <path id="Path_467" data-name="Path 467" d="M-548.73,223.051l3.3,11.175,20.935-9.479c-.752-2.339-4.214-12.762-10.843-29.3a28.43,28.43,0,0,0-21.7-17.492,124.151,124.151,0,0,0-20.045-1.966c-11.741.13-29.023,7.467-31.344,18.976-1.774,8.784-.064,24.294-.064,43.137l1.533,36,60.158,2.041-1.928-53.1" fill="#ffc032"/>
    <path id="Path_468" data-name="Path 468" d="M-576.453,277.457v-2.313l12.565.425c.019.371.039.746.057,1.122l-12.622.766" fill="#a8abab"/>
    <path id="Path_469" data-name="Path 469" d="M-600.042,278.888l-.78-4.57,24.37.826v2.314l-23.59,1.431" fill="#001821"/>
    <path id="Path_470" data-name="Path 470" d="M-563.888,275.569l-12.565-.425-24.37-.827-7.606-44.544a34.983,34.983,0,0,0,7.014.646c5.066,0,10.187-.8,15.281-1.1,1.574-.092,3.207-.212,4.816-.212,3.022,0,5.969.421,8.3,2.236,2.838,2.2,3.979,5.909,4.8,9.406,3.035,12.965,3.656,21.774,4.332,34.823" fill="#e99437"/>
    <path id="Path_471" data-name="Path 471" d="M-537.1,192c0,.145-15.795.262-35.274.262s-35.276-.117-35.276-.262,15.791-.26,35.276-.26,35.274.116,35.274.26Z" fill="#f8f7f6"/>
    <path id="Path_472" data-name="Path 472" d="M-532.708,202.109c0,.144-17.172.26-38.35.26s-38.352-.116-38.352-.26,17.167-.259,38.352-.259,38.35.117,38.35.259Z" fill="#f8f7f6"/>
    <path id="Path_473" data-name="Path 473" d="M-527.191,214.792c0,.146-18.324.262-40.921.262s-40.925-.116-40.925-.262,18.321-.26,40.925-.26,40.921.117,40.921.26Z" fill="#f8f7f6"/>
    <path id="Path_474" data-name="Path 474" d="M-549.187,228.467c0,.143-5.725.261-12.783.261s-12.782-.118-12.782-.261,5.721-.261,12.782-.261,12.783.116,12.783.261Z" fill="#f8f7f6"/>
    <path id="Path_475" data-name="Path 475" d="M-548,243.291c0,.145-5.991.212-13.377.152s-13.377-.224-13.376-.369,5.99-.212,13.379-.151,13.375.225,13.374.368Z" fill="#f8f7f6"/>
    <path id="Path_476" data-name="Path 476" d="M-547.414,255.374a4.044,4.044,0,0,1-1.054.044c-.793-.015-1.748-.031-2.867-.054-2.42-.053-5.762-.12-9.452-.123s-7.033.062-9.453.114c-1.118.019-2.074.038-2.865.05a4.088,4.088,0,0,1-1.057-.045,4.269,4.269,0,0,1,1.045-.157c.675-.068,1.653-.142,2.864-.217,2.419-.145,5.766-.266,9.466-.265s7.047.127,9.466.275c1.21.074,2.189.151,2.863.221a4.24,4.24,0,0,1,1.044.157Z" fill="#f8f7f6"/>
    <path id="Path_477" data-name="Path 477" d="M-547.6,265.128c0,.145-5.9.262-13.178.262s-13.178-.117-13.178-.262,5.9-.26,13.178-.26,13.178.116,13.178.26Z" fill="#f8f7f6"/>
    <path id="Path_478" data-name="Path 478" d="M-545.82,182.1c0,.142-11.579.26-25.859.26s-25.862-.118-25.862-.26,11.575-.261,25.862-.261,25.859.116,25.859.261Z" fill="#f8f7f6"/>
    <path id="Path_479" data-name="Path 479" d="M-547.187,183.973c.008.052-.6.09-1.6.48a8.346,8.346,0,0,0-3.463,2.806,11.652,11.652,0,0,0-2.072,6.267,39.457,39.457,0,0,0,.633,8.248,138.515,138.515,0,0,0,3.361,14.748c.5,1.8.907,3.3,1.216,4.428a10.364,10.364,0,0,1,.386,1.645,10.95,10.95,0,0,1-.58-1.585c-.338-1.031-.817-2.528-1.375-4.388a114.592,114.592,0,0,1-3.523-14.767,37.982,37.982,0,0,1-.6-8.363,11.837,11.837,0,0,1,2.254-6.455,8.182,8.182,0,0,1,3.688-2.773,6.141,6.141,0,0,1,1.232-.281,1.347,1.347,0,0,1,.439-.01Z" fill="#0b2b34"/>
    <path id="Path_480" data-name="Path 480" d="M-525.15,221.9a20.6,20.6,0,0,1-2.949,1.69c-1.859.976-4.461,2.258-7.381,3.574s-5.6,2.418-7.566,3.167a20.155,20.155,0,0,1-3.221,1.09,24.68,24.68,0,0,1,3.082-1.432c1.922-.834,4.577-1.986,7.491-3.3s5.533-2.541,7.431-3.43a23.434,23.434,0,0,1,3.113-1.361Z" fill="#0b2b34"/>
    <path id="Path_481" data-name="Path 481" d="M-588.358,274.679l71.88,2.544A21.439,21.439,0,0,1-495.8,298.982l-2.984,102.664-27.766-.925,2.06-96.116-63.868-1.679V274.679Z" fill="#0b2b34"/>
    <path id="Path_482" data-name="Path 482" d="M-618.05,274.679l71.879,2.544a21.439,21.439,0,0,1,20.679,21.759l-2.984,102.664L-556.61,399.4l2.429-94.8-63.869-1.679V274.679Z" fill="#0b2b34"/>
    <path id="Path_483" data-name="Path 483" d="M-564.255,396.686h-7.07v-84.71h7.07v84.71Z" fill="#345863"/>
    <path id="Path_484" data-name="Path 484" d="M-630.651,229.749v62.358a14.809,14.809,0,0,0,14.81,14.809h41.523V229.749a6.6,6.6,0,0,0-6.6-6.6H-624.05a6.6,6.6,0,0,0-6.6,6.6Z" fill="#345863"/>
    <path id="Path_485" data-name="Path 485" d="M-518.431,311.976H-619.552A10.976,10.976,0,0,1-608.576,301h79.169a10.976,10.976,0,0,1,10.976,10.978Z" fill="#345863"/>
    <path id="Path_486" data-name="Path 486" d="M-574.318,299.542a1.624,1.624,0,0,1,.029.479,5.848,5.848,0,0,1-.166,1.362,7.348,7.348,0,0,1-2.709,4.2,7.36,7.36,0,0,1-3.209,1.43,29.452,29.452,0,0,1-4,.149c-2.8.009-5.868.021-9.086.03-6.448.006-12.285-.015-16.508-.058-2.051-.031-3.74-.059-5-.077-.539-.02-.988-.035-1.361-.048a1.584,1.584,0,0,1-.473-.053,1.774,1.774,0,0,1,.473-.053c.373-.012.822-.03,1.361-.049l5-.088c4.225-.052,10.062-.087,16.51-.094l9.085.011a31.207,31.207,0,0,0,3.921-.1,7.076,7.076,0,0,0,3.066-1.3,7.351,7.351,0,0,0,2.733-3.957c.3-1.127.275-1.794.333-1.79Z" fill="#0b2b34"/>
    <path id="Path_487" data-name="Path 487" d="M-561.587,312.191a37,37,0,0,1-6.2.261,36.99,36.99,0,0,1-6.205-.261,37.588,37.588,0,0,1,6.205-.258,37.593,37.593,0,0,1,6.2.258Z" fill="#0b2b34"/>
    <path id="Path_488" data-name="Path 488" d="M-530.821,307.461a16.9,16.9,0,0,1-.627-2.97c-.337-1.922-.79-4.707-1.327-8.151-.578-3.444-.91-7.608-2.808-11.742a28.736,28.736,0,0,0-3.756-6,26.814,26.814,0,0,0-5.637-5.078,25.18,25.18,0,0,0-6.834-3.294,25.7,25.7,0,0,0-6.972-1.2c-4.577-.106-8.753-.085-12.231-.151-3.486-.047-6.308-.1-8.258-.166a17.126,17.126,0,0,1-3.027-.2,16.728,16.728,0,0,1,3.027-.2c1.95-.064,4.772-.118,8.258-.165,3.492-.031,7.623-.126,12.263-.073a26.074,26.074,0,0,1,7.243,1.188,25.792,25.792,0,0,1,7.113,3.4,27.447,27.447,0,0,1,5.842,5.292,28.974,28.974,0,0,1,3.845,6.257c.231.539.422,1.087.629,1.619.1.268.2.532.3.795.076.273.152.541.227.81.147.535.295,1.06.438,1.581.095.528.191,1.051.282,1.562.358,2.047.542,3.93.784,5.662.445,3.458.787,6.26,1,8.2a16.748,16.748,0,0,1,.225,3.025Z" fill="#345863"/>
    <path id="Path_489" data-name="Path 489" d="M-536.865,404.359h-1a30.119,30.119,0,0,0-30.084-30.085,30.119,30.119,0,0,0-30.084,30.085h-1a31.12,31.12,0,0,1,31.084-31.085,31.12,31.12,0,0,1,31.084,31.085Z" fill="#345863"/>
    <path id="Path_490" data-name="Path 490" d="M-593.873,405.9a4.659,4.659,0,0,1-4.66,4.661,4.661,4.661,0,0,1-4.661-4.661,4.661,4.661,0,0,1,4.661-4.661,4.66,4.66,0,0,1,4.66,4.661Z" fill="#0b2b34"/>
    <path id="Path_491" data-name="Path 491" d="M-532.47,405.261a4.662,4.662,0,0,1-4.662,4.66,4.659,4.659,0,0,1-4.659-4.66,4.659,4.659,0,0,1,4.659-4.66,4.662,4.662,0,0,1,4.662,4.66Z" fill="#0b2b34"/>
    <path id="Path_492" data-name="Path 492" d="M-537.165,396.686c0,.142-13.526.259-30.208.259s-30.21-.117-30.21-.259,13.523-.261,30.21-.261,30.208.116,30.208.261Z" fill="#345863"/>
    <path id="Path_493" data-name="Path 493" d="M-640.369,202.085a6.5,6.5,0,0,1,2.9,4.18,11.462,11.462,0,0,1-.157,5.181c-.765,3.286-3.05,6.426-5.4,8.849-2.518-2.773-2.664-7.118-2.6-9.326.1-3.491,2.406-9.738,5.253-8.884" fill="#ffc032"/>
    <path id="Path_494" data-name="Path 494" d="M-640.405,226.171a5.54,5.54,0,0,1,2.39-5.024,7.356,7.356,0,0,1,5.59-1.054,3.1,3.1,0,0,1,2.242,1.339,2.372,2.372,0,0,1-.242,2.389,4.808,4.808,0,0,1-1.969,1.534c-2.608,1.241-5.359,1.961-8.011.816" fill="#ffde81"/>
    <path id="Path_495" data-name="Path 495" d="M-644.623,233.485a10.966,10.966,0,0,1,.633-2.137,10.422,10.422,0,0,1,1.11-2.171,22.7,22.7,0,0,1,1.748-2.408,11.059,11.059,0,0,1,4.356-3.174,7.831,7.831,0,0,1,1.591-.418,1.824,1.824,0,0,1,.6-.027c.01.07-.845.158-2.093.692a11.894,11.894,0,0,0-4.172,3.175,26.338,26.338,0,0,0-1.742,2.351,11.335,11.335,0,0,0-1.152,2.078,16.084,16.084,0,0,1-.882,2.039Z" fill="#0b2b34"/>
    <path id="Path_496" data-name="Path 496" d="M-641.7,207a6.223,6.223,0,0,1-.018,1.128c-.037.727-.105,1.773-.2,3.066-.191,2.587-.492,6.16-.921,10.094s-.92,7.489-1.328,10.052c-.206,1.281-.383,2.316-.52,3.028a6.509,6.509,0,0,1-.248,1.1,6.507,6.507,0,0,1,.1-1.123c.1-.786.237-1.812.4-3.044.34-2.57.789-6.122,1.219-10.056.4-3.9.758-7.43,1.029-10.076.129-1.236.235-2.266.317-3.055A6.462,6.462,0,0,1-641.7,207Z" fill="#0b2b34"/>
    <path id="Path_497" data-name="Path 497" d="M-644.786,226.956a12.971,12.971,0,0,0-7.282-9.343c-.953-.429-2.191-.7-2.951.02s-.561,1.975-.16,2.943a11.072,11.072,0,0,0,10.332,6.657" fill="#ffde81"/>
    <path id="Path_498" data-name="Path 498" d="M-651.336,220.589c.013-.024.2.07.532.261s.8.482,1.361.868a14.6,14.6,0,0,1,3.807,3.731,9.221,9.221,0,0,1,1.215,2.7,8.87,8.87,0,0,1,.263,2.4,8.676,8.676,0,0,1-.189,1.609,1.772,1.772,0,0,1-.162.571c-.074-.01.1-.84.084-2.18a9.582,9.582,0,0,0-.334-2.314,9.423,9.423,0,0,0-1.193-2.585,16.476,16.476,0,0,0-3.649-3.724,18.911,18.911,0,0,1-1.735-1.344Z" fill="#0b2b34"/>
    <path id="Path_499" data-name="Path 499" d="M-645.11,258.677h0a12.505,12.505,0,0,1-12.505-12.5V233.668h25.01v12.505a12.507,12.507,0,0,1-12.505,12.5Z" fill="#0b2b34"/>
    <path id="Path_500" data-name="Path 500" d="M-632.6,239.818a1.888,1.888,0,0,1-.344.355l-1.034.926c-.967.832-2.25,1.935-3.772,3.248l-.092.079-.107-.066c-2.1-1.258-4.579-2.753-7.248-4.357l-.014-.009.218,0c-2.472,1.6-4.781,3.1-6.744,4.37l-.1.07-.1-.075c-1.675-1.313-3.087-2.418-4.148-3.249-.453-.37-.832-.676-1.142-.929a1.989,1.989,0,0,1-.382-.359,2.018,2.018,0,0,1,.447.274l1.2.852c1.084.8,2.525,1.869,4.236,3.132l-.2-.008c1.955-1.286,4.25-2.8,6.711-4.421l.107-.071.112.069.014.007,7.212,4.416-.2.016,3.864-3.137,1.095-.853a1.791,1.791,0,0,1,.41-.276Z" fill="#d8d9d9"/>
    <path id="Path_501" data-name="Path 501" d="M-632.6,237.318a1.888,1.888,0,0,1-.344.355c-.283.253-.625.558-1.034.926-.967.832-2.25,1.935-3.772,3.247l-.092.079-.107-.065c-2.1-1.259-4.579-2.753-7.248-4.358l-.014-.009.218,0c-2.472,1.6-4.781,3.1-6.744,4.371l-.1.069-.1-.075c-1.675-1.313-3.087-2.417-4.148-3.249-.453-.37-.832-.676-1.142-.929a2.048,2.048,0,0,1-.382-.358,1.969,1.969,0,0,1,.447.274l1.2.851c1.084.8,2.525,1.869,4.236,3.132l-.2-.007,6.711-4.421.107-.072.112.069.014.007,7.212,4.417-.2.015c1.56-1.267,2.875-2.333,3.864-3.137.435-.338.8-.621,1.095-.852a1.791,1.791,0,0,1,.41-.276Z" fill="#d8d9d9"/>
    <path id="Path_502" data-name="Path 502" d="M-632.6,242.361a1.888,1.888,0,0,1-.344.355c-.283.253-.625.558-1.034.926-.967.832-2.25,1.935-3.772,3.248l-.092.079-.107-.066c-2.1-1.258-4.579-2.753-7.248-4.357l-.014-.009.218,0c-2.472,1.6-4.781,3.1-6.744,4.37l-.1.07-.1-.076-4.148-3.249c-.453-.37-.832-.676-1.142-.928a1.989,1.989,0,0,1-.382-.359,2.018,2.018,0,0,1,.447.274l1.2.852c1.084.8,2.525,1.868,4.236,3.132l-.2-.008c1.955-1.287,4.25-2.8,6.711-4.421l.107-.071.112.069.014.007,7.212,4.416-.2.015c1.56-1.266,2.875-2.333,3.864-3.137l1.095-.852a1.791,1.791,0,0,1,.41-.276Z" fill="#d8d9d9"/>
    <path id="Path_503" data-name="Path 503" d="M-308.6,288.042c-5.183.834-7.5,7.2-7.047,12.433s2.6,10.34,2.028,15.558c-.73,6.626-5.738,12.228-6.321,18.866-.686,7.833,4.851,14.779,6.5,22.463.806,3.741.693,7.7,2.085,11.257a14.529,14.529,0,0,0,15.581,8.731,14.523,14.523,0,0,0,11.6-13.584c.115-6.015-3.6-11.678-3.145-17.674.333-4.435,2.932-8.635,2.375-13.044-.662-5.248-5.523-8.976-7.241-13.979s-.066-10.518-.659-15.777c-1.064-9.432-6.293-16.007-15.754-15.25" fill="#ffc032"/>
    <path id="Path_504" data-name="Path 504" d="M-335.069,333.71c-.882,8.739,2.985,19.022,7.479,26.568a41.669,41.669,0,0,0,19.563,16.983c.914.383,2.052.7,2.821.079a2.815,2.815,0,0,0,.714-2.241,43.257,43.257,0,0,0-8.395-25.786,43.27,43.27,0,0,0-22.182-15.6" fill="#f15b66"/>
    <path id="Path_505" data-name="Path 505" d="M-306.291,377.691a4.743,4.743,0,0,1-1.736-.43,41.669,41.669,0,0,1-19.563-16.983c-4.057-6.809-7.6-15.846-7.605-23.967a25.669,25.669,0,0,1,.126-2.6,43.27,43.27,0,0,1,22.182,15.6,43.283,43.283,0,0,1,8.4,25.515c0,.09,0,.181,0,.271a6.672,6.672,0,0,1-.049.843,2.076,2.076,0,0,1-.665,1.4,1.668,1.668,0,0,1-1.085.351" fill="#e99437"/>
    <path id="Path_506" data-name="Path 506" d="M-297,395.533a2.391,2.391,0,0,1-.25-.487c-.164-.377-.371-.851-.623-1.431-.525-1.248-1.309-3.045-2.309-5.251a186.366,186.366,0,0,0-8.678-16.8,186.214,186.214,0,0,0-10.379-15.805c-1.429-1.954-2.609-3.521-3.441-4.591-.381-.505-.693-.917-.941-1.244a2.138,2.138,0,0,1-.3-.456,2.355,2.355,0,0,1,.379.391c.266.315.6.706,1.013,1.19.878,1.033,2.1,2.568,3.571,4.5a159.1,159.1,0,0,1,10.528,15.765,160.276,160.276,0,0,1,8.568,16.907c.961,2.227,1.7,4.049,2.168,5.32.219.6.4,1.08.538,1.468a2.333,2.333,0,0,1,.156.522Z" fill="#0b2b34"/>
    <path id="Path_507" data-name="Path 507" d="M-302.624,312.222a5.353,5.353,0,0,1,.094.838q.064.887.175,2.407c.138,2.137.331,5.149.569,8.853.472,7.48,1.135,17.808,1.938,29.211s1.6,21.729,2.175,29.2c.282,3.7.511,6.711.675,8.848.07,1.01.124,1.815.165,2.406a4.88,4.88,0,0,1,.023.843,5.074,5.074,0,0,1-.123-.833q-.1-.888-.257-2.4c-.2-2.135-.484-5.141-.835-8.836-.669-7.465-1.515-17.782-2.318-29.194s-1.409-21.741-1.792-29.224c-.174-3.708-.314-6.727-.412-8.865q-.053-1.521-.082-2.413a5.252,5.252,0,0,1,.005-.842Z" fill="#0b2b34"/>
    <path id="Path_508" data-name="Path 508" d="M-310.664,383.07h21.887v16.07a10.506,10.506,0,0,1-10.506,10.506,10.508,10.508,0,0,1-10.492-9.947l-.889-16.629Z" fill="#0b2b34"/>
    <path id="Path_509" data-name="Path 509" d="M-421.527,171.215l52.2,28.9-1.964,3.688-51.734-29.451,1.5-3.137" fill="#ffc032"/>
    <path id="Path_510" data-name="Path 510" d="M-424.091,168.479l2.4-3.671,1.4.858-2.151,3.708-1.645-.9Z" fill="#f15b66"/>
    <path id="Path_511" data-name="Path 511" d="M-375.253,195.548l2.681,1.545-8.744,55.771-4.133.052,10.2-57.368Z" fill="#ffc032"/>
    <path id="Path_512" data-name="Path 512" d="M-397.48,258.677s6.363-6.442,14.891-5.967a18.5,18.5,0,0,1,12.9,5.936l-27.788.031Z" fill="#ffc032"/>
    <path id="Path_513" data-name="Path 513" d="M-424.044,193.766l-20.668-11.933,5.965-10.334a11.932,11.932,0,0,1,16.3-4.367,11.933,11.933,0,0,1,4.368,16.3l-5.965,10.334Z" fill="#ffc032"/>
  </g>
</svg>
