<svg xmlns="http://www.w3.org/2000/svg" width="192.703" height="526.848" viewBox="0 0 192.703 526.848">
  <g id="Group_8" data-name="Group 8" transform="translate(-415.649 -106.876)">
    <path id="Path_1" data-name="Path 1" d="M551.783,629.807s-4.131,1.916-9.548-8.75-6-18.082-8-21.332,3.974-9.549,5.446-9.942,10.326,22.194,10.326,22.194S551.831,628.473,551.783,629.807Z" fill="#b7733b"/>
    <path id="Path_2" data-name="Path 2" d="M589.424,512.18s-10.535,53.165-68.154,46.271,43.23-88.316,48.972-94.271S582.861,501.8,589.424,512.18Z" fill="#5b340d"/>
    <path id="Path_3" data-name="Path 3" d="M578.985,493.18s-4.5,32-6,35.5-23.5,60-24,64,1.75,29.043,2.75,35.543-17.25-13.543-11.75-40.043c1.233-5.94,2.12-11.287,2.8-16.11,2.354-16.7,1.2-23.972,4.95-35.1,1.613-4.787,3.079-6.374,3.548-7.854,3.836-12.1,8.2-29.439,8.2-29.439l9.5-35.5,11.5,6Z" fill="#ffc5bb"/>
    <path id="Path_4" data-name="Path 4" d="M576.769,510.362s2.672,14.61.4,18.027-1.293,7.177-8.7,11.714C568.475,540.1,577.388,516.085,576.769,510.362Z" fill="#472607"/>
    <path id="Path_5" data-name="Path 5" d="M572.985,528.68c1.5-3.5,6-35.5,6-35.5l1.5-23-11.5-6-7.207,26.931,1.351,6.613s-.033.424-.1,1.2c-.546,6.686-3.311,39.491-6.022,52.632-3.025,14.666-13.78,38.444-12.9,46.221.876,7.761,6.762,31.5,6.787,31.595.009,0,.021.01.03.014l.06.019c.6.184.9-.183.751-1.183-1-6.5-3.25-31.543-2.75-35.543S571.485,532.18,572.985,528.68Z" fill="#f59493"/>
    <path id="Path_6" data-name="Path 6" d="M550.894,629.377s-5.471-15.9-11.945-22.486c0,0,.942-1.188,1.849-.731S550.832,622.283,550.894,629.377Z" fill="#894613"/>
    <path id="Path_7" data-name="Path 7" d="M550.894,629.377s.2-13.463-.887-17.4a13.738,13.738,0,0,1,1.666,2.205C551.773,614.619,552.644,626.423,550.894,629.377Z" fill="#894613"/>
    <path id="Path_8" data-name="Path 8" d="M441.423,630.348s-.875,3.312-2.063,3.375-4.125-1.813-2.437-33.063c0,0-.688-11,10.062-8.187,0,0,1.438,5,.625,9.125S441.423,630.348,441.423,630.348Z" fill="#b7733b"/>
    <path id="Path_9" data-name="Path 9" d="M566.735,485.939s18.25,30.034,8.5,47.034a64.187,64.187,0,0,0,5.25-36c-1.287-8.688-10.966-32.1-10.966-32.1Z" fill="#894613"/>
    <path id="Path_10" data-name="Path 10" d="M466.485,565.68l-19.5,26.793a12.923,12.923,0,0,0-7.5,9.207c-1.5,7-2.609,25.543-.609,30.543s7.109-25.043,12.109-30.043,51-38,51-38S470.985,560.18,466.485,565.68Z" fill="#ffc5bb"/>
    <path id="Path_11" data-name="Path 11" d="M501.985,564.18s-3.785-.489-8.9-.889l-8.125,2.932s-34.31,31.666-39.977,34.333c-4.624,2.176-5.623,24.1-5.834,32.1,2.162,2.03,7.048-25.688,11.834-30.474C455.985,597.18,501.985,564.18,501.985,564.18Z" fill="#f59493"/>
    <path id="Path_12" data-name="Path 12" d="M439.1,632.633s7.39-18.66,6.985-20.656c0,0,.9-.192.78,1.5S443.548,625.91,439.1,632.633Z" fill="#894613"/>
    <path id="Path_13" data-name="Path 13" d="M438.152,608.932s2.1,16.492.84,23.537c0,0,3.992-13.121-.393-25.514A10.435,10.435,0,0,0,438.152,608.932Z" fill="#894613"/>
    <path id="Path_14" data-name="Path 14" d="M558.735,366.929s17.75,50.251,17.75,61-5,47.25-7,57.5-5.25,21.75-11,31-17.5,29.5-26.75,36-34.75,18.25-48,16-13.75-4.25-24.5-4.5-8.5-17.75-14-21.25-.916-7.539,4.584-8.289,21.416-6.211,29.166-7.961,12.75-10.75,12.75-10.75S470.36,420.223,506.39,398.412C506.39,398.412,519.485,411.18,558.735,366.929Z" fill="#d59758"/>
    <path id="Path_15" data-name="Path 15" d="M489.819,501.891s.142-2.6,6.238-2.967,22.155-5.949,25.542-10.074,49.553-34.793,48.886-71.793c0,0-.083-7.145-2.75-8.864s-5.167,1.03-5.167,1.03l-22.583,50s-25.444,18.041-27.23,18.864-21.439,5.645-21.792,6.47a141.877,141.877,0,0,0-1.774,17.334" fill="#b7733b"/>
    <path id="Path_16" data-name="Path 16" d="M564.727,423.889s-4.438,28.7-6.772,34.834c-3.822,10.047-5.678,15.175-8.3,21-3.787,8.4-7.834,19.2-14.254,32.457-5,10.326-8.246,12.543-8.913,19.043a36.7,36.7,0,0,1-3.5,12.281c-.5,1-4.333-4.79-6.834-11.613-5.561-15.182-12.241-19.576,1.167-29" fill="#b7733b"/>
    <path id="Path_17" data-name="Path 17" d="M569.485,485.43c2-10.25,7-46.75,7-57.5s-17.75-61-17.75-61c-18.794,21.188-31.588,29.3-39.822,32a11.668,11.668,0,0,0,.52,2.683s20.664-14.551,27.054-12.5,23.638,31.438,23.736,45.771-9.635,62.118-13.844,69.749-6.777,57.012-86.753,59.3c-2.014.056-3.877.15-5.605.273,6.517.671,8.764,2.359,19.714,4.219,13.25,2.25,38.75-9.5,48-16s21-26.75,26.75-36S567.485,495.68,569.485,485.43Z" fill="#b7733b"/>
    <path id="Path_18" data-name="Path 18" d="M465.61,200.973s.042-18.294,25.042-12.294,25.333,10.334,41.333,10.334c0,0,7.667-26.667-3.333-42.334s-14.334-42.333,5.333-48,37.667,2,55.333,23.334c0,0,15,9,15.334,34.666s-12.668,33.667-8,47.667,12.666,56.333-4.667,79-32,54.667-97.333,46.667-81.667-55-78.667-79,22.625-79.04,49.625-60.04" fill="#ff743d"/>
    <path id="Path_19" data-name="Path 19" d="M494.354,233.549s41.841,89.511,95.07,15.759c0,0,5.811-9.835,4.186-29.21s10.25-20.5,10.25-20.5.166-.073.2.078c.015.061.112,1.24.132,1.323,2.008,8.3,29.18,128.878-86.96,140.225-120.25,11.749-76.372-81.6-70.359-86.2" fill="#f2532c"/>
    <path id="Path_20" data-name="Path 20" d="M443.083,263.709s-1.156,44.439,25,47.476,30.392-23.462,26.273-26.712,1.78,4.25,6.081-6.75-6.533-31-6.616-43.377S447.931,247.2,443.083,263.709Z" fill="#e54b2c"/>
    <path id="Path_21" data-name="Path 21" d="M510.252,386.535a5.619,5.619,0,0,1-1.305,1.231c-1,.75-1.624,3.025.835,2.644,2.988-.463,2.8-.586,2.8-.586Z" fill="#8b5c29"/>
    <path id="Path_22" data-name="Path 22" d="M552.36,356.036l-2.1,2.893-1.857,1.393-5.354-11.349S551.152,352.348,552.36,356.036Z" fill="#8b5c29"/>
    <path id="Path_23" data-name="Path 23" d="M496.057,367.334s15.175,17.471,15.352,22.236,38.117-17.823,40.411-24.353c0,0-9.528-22.058-11.469-25.235S496.057,367.334,496.057,367.334Z" fill="#ffc5bb"/>
    <path id="Path_24" data-name="Path 24" d="M522.136,379.112c1.775-5.486,12.364-20.552,12.364-20.552-4.836.205-19.39,12.038-25.868,17.913a7.758,7.758,0,0,0-2.338,3.718c2.775,3.86,5.047,7.553,5.115,9.379.021.557.575.729,1.514.606l7.437-4.328S520.36,384.6,522.136,379.112Z" fill="#f7a9a9"/>
    <path id="Path_25" data-name="Path 25" d="M528.4,315.161s5.04-22.833,12.437-19.886S530.318,320.765,528.4,315.161Z" fill="#eda400"/>
    <path id="Path_26" data-name="Path 26" d="M453.235,364.987s-1.062,1.986,2.125,1.674,23.75-3.5,24.625-6.938C479.985,359.723,464.423,358.627,453.235,364.987Z" fill="#eda400"/>
    <path id="Path_27" data-name="Path 27" d="M526.235,292.3s35.125,13.75,39.5,19.25c0,0-6,8.125-10.875,8.375s-16.125-1.375-34.5-11.5C520.36,308.429,524.985,292.679,526.235,292.3Z" fill="#ffc5bb"/>
    <path id="Path_28" data-name="Path 28" d="M456.61,339.6s-2.375,38.33,1.125,43.58c4.929,7.392,14.322,1.275,15.75.75,0,0,5-29.518,3.5-34.518S456.61,339.6,456.61,339.6Z" fill="#ffc5bb"/>
    <path id="Path_29" data-name="Path 29" d="M481.4,296.64s12.333-9.461,17.833-10.711,42.188,9.419,42.188,9.419-3.138-1.094-4.888,1.156c-1.635,2.1-8.112,15.532-7.8,18.657.029.283-5.567-3.828-5.75-3.678,0,0,21.689,27.052,25.125,31.053,2.486,2.893,6.063,5.187,6.813,6.437s-2.563,7.063-2.563,7.063-5-7.188-10-4.938-20.493,23.014-23.932,30.177c-4.406,9.178-19.859,9.782-20.625,6.33,0,0-.5-1.75.75-5.5s-8.818-25.927-17.568-30.177c0,0-1.25,7.544-1,7.794s-13.25-1.486-26.75,5.264c0,0-.25-28.308,1.25-34.308s13.6-24.551,13.6-24.551Z" fill="#ffbf00"/>
    <g id="Group_1" data-name="Group 1">
      <path id="Path_30" data-name="Path 30" d="M541.168,295.274l.255.074S541.326,295.316,541.168,295.274Z" fill="#efab00"/>
      <path id="Path_31" data-name="Path 31" d="M548.11,342.536c-3.436-4-25.125-31.053-25.125-31.053.183-.15,5.779,3.961,5.75,3.678-.312-3.125,6.165-16.556,7.8-18.657,1.452-1.867,3.856-1.432,4.633-1.23-3.113-.9-36.689-10.537-41.933-9.345-5.5,1.25-17.833,10.711-17.833,10.711l-5.349,3.811,15.439,3.537s11.358.431,18.127,9.554,16,24.265,20.683,30.723a71.313,71.313,0,0,0,8.413,9.72,15.137,15.137,0,0,1,3.645-2.887c5-2.25,10,4.938,10,4.938s3.313-5.813,2.563-7.063S550.6,345.429,548.11,342.536Z" fill="#efab00"/>
    </g>
    <path id="Path_32" data-name="Path 32" d="M492.235,303.39c1-3.417-2.555-6.117-9.735-7.575l.748-.55c-1.141.835-1.846,1.375-1.846,1.375l-13.321,9.488s-1.353,2.076-3.207,5.057c0,0,2.718-3.639,9.83-2.806S491.235,306.806,492.235,303.39Z" fill="#eda400"/>
    <path id="Path_33" data-name="Path 33" d="M468.763,208s23.389,1.844,25.056,26.344-.667,33-5.5,40.833-13.334,10.666-22.834.5-17.833-19.666-17.333-32.333S453.041,217.324,468.763,208Z" fill="#ffc5bb"/>
    <path id="Path_34" data-name="Path 34" d="M474.735,281.179s.383,9.953,6.006,14.283a9.261,9.261,0,0,0,2.744,1.467c8.25,2.75,6.154,4.064,5.834,4.628-1.77,3.123-7.084,5.122-14.834,4.622s-7.833,3.044-7.833,3.044-2.833-16.919-6.035-26.235c-2.835-8.248-9.132-25.309-9.132-25.309S462.485,276.679,474.735,281.179Z" fill="#ffc5bb"/>
    <path id="Path_35" data-name="Path 35" d="M443.485,258.553c-2.836,4.661,2.848,12.859,8,12.571s6.75-3.276,6.75-3.276l-3.125-7.437S445.11,255.882,443.485,258.553Z" fill="#ffc5bb"/>
    <path id="Path_36" data-name="Path 36" d="M488.319,275.179c4.833-7.834,7.166-16.333,5.5-40.833-1.27-18.666-15.14-24.177-21.677-25.745l5.611,11.508s5.4,12.948,6.4,16.114-1.894,6.057-1.03,8.529,5.7,9.457,7.03,11.638-2.815,4.791-3.792,5.9a7.992,7.992,0,0,0-1.327,3.332,18.24,18.24,0,0,1-3.188,15.676A15.346,15.346,0,0,0,488.319,275.179Z" fill="#f59493"/>
    <path id="Path_37" data-name="Path 37" d="M558.985,365.679s17.056,19.791,19.5,29.5c4.5,17.875,7.5,54.5,7,62s-2,43.5,2.5,50.5-3,1.5-3,1.5-12-20.5-13.5-36,6.5-48,1.5-58.5S558.985,365.679,558.985,365.679Z" fill="#d59758"/>
    <path id="Path_38" data-name="Path 38" d="M544.86,308.429a197.807,197.807,0,0,0,18.159-19.115c2.9-3.553,5.747-6.972,8.133-9.924,3.45-4.264,5.052-9.477,5.458-10.086,1.5-2.25,7.375-10.875,10.5-10.75s11.5,7,9,12.75-29.134,40.991-33.384,43.741S539.36,316.929,544.86,308.429Z" fill="#ffc5bb"/>
    <path id="Path_39" data-name="Path 39" d="M570.36,303.929s-5,2.125-4.375-19.25,1.125-37,1.125-37,9.125-9.25,12.25-10,3.875,8.957,3.75,10.582-.25,41.293-.25,41.293S572.61,303.179,570.36,303.929Z" fill="#d8bffd"/>
    <path id="Path_40" data-name="Path 40" d="M578.735,236.679s-2.375-1.75-3.75-1.125-12.25,9.625-12,10.375,2.75,1.875,4.75,1.5,11.625-9.75,11.625-9.75Z" fill="#9656fc"/>
    <path id="Path_41" data-name="Path 41" d="M569.235,303.929a4.527,4.527,0,0,1-3.5,0c-2.125-.75-3.375-19.875-3-27s-1.5-30.25.25-31,4.125,2.125,4.125,2.125-1.25,47.25-.75,48.75S566.86,303.3,569.235,303.929Z" fill="#9656fc"/>
    <path id="Path_42" data-name="Path 42" d="M486.706,437.52s4.779,89.16,9.779,102.66C496.485,540.18,480.992,487.723,486.706,437.52Z" fill="#b7733b"/>
    <path id="Path_43" data-name="Path 43" d="M526.187,313.542A62.065,62.065,0,0,1,528.86,301.6a24.916,24.916,0,0,1,4.827-8.428l-5.578-1.51a35.5,35.5,0,0,0-3.99,9c-.642,2.457-1.588,10.375-1.588,10.375Z" fill="#d38d00"/>
    <path id="Path_44" data-name="Path 44" d="M470.235,205.179s-7.5,46-33.5,46.5S463.985,207.679,470.235,205.179Z" fill="#ff743d"/>
    <path id="Path_45" data-name="Path 45" d="M555.235,371.679s-4.5,3.5-5.5,12.5-.763,25.378-2.513,34.378-21.9,59.333-31.4,69.373c-3.793,4.01-10.651,12.577-9.677,24.25.716,8.59,7,18.857,15.094,30.25,0,0,1.75-.25,1-5.5s-1-13.25,4.25-20,8.75-15,11-20,21.083-38.5,26.333-57S556.485,372.429,555.235,371.679Z" fill="#ffae00"/>
    <g id="Group_2" data-name="Group 2">
      <path id="Path_46" data-name="Path 46" d="M446.106,248.459s-14.153-12.7-4.865-14.035,11.028,1.017,10.416,3.549a43.6,43.6,0,0,1-2.185,6.994C448.492,247.3,447.816,249.52,446.106,248.459Z" fill="#f2532c"/>
      <path id="Path_47" data-name="Path 47" d="M448.9,248.892s3.295-11.086,6.589-10.2,6.278,5.654,5.61,8.1-7.7,5.556-10.413,4.042S448.9,248.892,448.9,248.892Z" fill="#f59493"/>
      <path id="Path_48" data-name="Path 48" d="M450.629,262.727s-4.663-.9-4.113-5.015.6-6.472,1.381-6.723,11.067,4.046,10.917,5.955a4.281,4.281,0,0,1-1.538,2.3A14.239,14.239,0,0,1,450.629,262.727Z" fill="#f59493"/>
      <path id="Path_49" data-name="Path 49" d="M445.4,249.2s-9.127.045-8.682,3.027,2.227,10.728,4.231,8.5,6.1-8.949,5.92-9.884S445.4,249.2,445.4,249.2Z" fill="#f2532c"/>
      <path id="Path_50" data-name="Path 50" d="M448.144,249.929a.727.727,0,1,1-.727-.725A.726.726,0,0,1,448.144,249.929Z" fill="#f2532c"/>
    </g>
    <path id="Path_51" data-name="Path 51" d="M469.686,208s5.2,9.371,10.07,14.371,12.177,11.725,16.265,11.35-16.411-31.25-21.411-30.75A5.073,5.073,0,0,0,469.686,208Z" fill="#ff743d"/>
    <path id="Path_52" data-name="Path 52" d="M465.694,243.66a2.625,2.625,0,1,0,3.479-1.3A2.625,2.625,0,0,0,465.694,243.66Z" fill="#9a2531"/>
    <path id="Path_53" data-name="Path 53" d="M485.271,241.526a2.625,2.625,0,1,0,3.48-1.3A2.625,2.625,0,0,0,485.271,241.526Z" fill="#9a2531"/>
    <path id="Path_54" data-name="Path 54" d="M487.414,265.094s-8.434,2.008-13.909,2.16c0,0,2.154,7.529,9.733,5.368C487.558,271.39,488.267,266.033,487.414,265.094Z" fill="#9a2531"/>
    <path id="Path_55" data-name="Path 55" d="M480.005,268.852a15.165,15.165,0,0,1,6.623,1.174,5.842,5.842,0,0,1-3.39,2.6c-4.081,1.163-6.587-.482-8.033-2.249A11.424,11.424,0,0,1,480.005,268.852Z" fill="#fd4e72"/>
    <path id="Path_56" data-name="Path 56" d="M531.985,199.013s18.333.377,28.5-16.123c0,0-12.02,16.089-27.842,13.461Z" fill="#f2532c"/>
    <path id="Path_57" data-name="Path 57" d="M494.823,234.508s44.412,38.715,84.537-3.285c0,0-41.137,47.78-85.006,2.515" fill="#f2532c"/>
    <path id="Path_58" data-name="Path 58" d="M440.319,211.39c11-13.833,25.137-9.667,25.137-9.667a5.941,5.941,0,0,0-.04-.879c-26.9-18.6-46.438,36.227-49.431,60.169-1,8.029.162,18.635,4.6,29.491C412.193,268.293,429.321,225.221,440.319,211.39Z" fill="#ff9d78"/>
    <path id="Path_59" data-name="Path 59" d="M532.61,198.6c-.167-.01-.33-.042-.5-.061-.079.3-.129.476-.129.476-16,0-16.334-4.334-41.333-10.334a45.184,45.184,0,0,0-5.562-.985c.985.333,15.331,5.216,25.063,10.4,10.082,5.375,42.452,18.393,50.332-15.208C560.485,182.89,549.818,199.6,532.61,198.6Z" fill="#ff9d78"/>
    <g id="Group_3" data-name="Group 3">
      <path id="Path_60" data-name="Path 60" d="M533.985,108.679c-18.447,5.316-16.658,29.108-7.286,44.967,0-.01-11.71-35.923,13.536-36.173s25.667-5.671,49.083,14.54C571.652,110.679,553.652,103.013,533.985,108.679Z" fill="#ff9d78"/>
      <path id="Path_61" data-name="Path 61" d="M589.318,132.013c.877.757,1.756,1.439,2.635,2.065A19.173,19.173,0,0,0,589.318,132.013Z" fill="#ff9d78"/>
    </g>
    <path id="Path_62" data-name="Path 62" d="M598.318,224.072s-7.083-12.849-4.708-38.849-4.125-39.5-24.375-41.5c0,0,21.417,2.334,23.75,30.334C594.293,189.754,588.693,211.947,598.318,224.072Z" fill="#f2532c"/>
    <path id="Path_63" data-name="Path 63" d="M497.485,374.557s18.333-19.108,21.25-20.092,12.036-7.819,12.333-13.575-2.25-4.788-5.25-12.56-9.248-17.076-12.449-15.61c-7.908,3.623-2.439,9.471-4.772,10.067-1.508.383-3.083-3.554-3.737-2.834-1.666,1.833,7.722,17.1,7.722,17.1l-18.815,30.622Z" fill="#efab00"/>
    <path id="Path_64" data-name="Path 64" d="M547.908,356.264s-15.923,27.752-29.173,32.23c0,0,30.063-14.844,36.188-22.815Z" fill="#ffae00"/>
    <path id="Path_65" data-name="Path 65" d="M552.86,373.473s-27.542,40-47.208,24.625c0,0,4.833-5.375,11.333-6.5s36.625-24.9,36.625-24.9,1,3.374,1.313,4.179S552.86,373.473,552.86,373.473Z" fill="#ffae00"/>
    <path id="Path_66" data-name="Path 66" d="M508.947,387.766a6.276,6.276,0,0,0-2.2,6.093c.256,1.723-2.511,5.855,1.984,5.2,21.567-3.166,25.25-8.875,30.625-12.625s17.75-17.5,18.5-19.5-3.125-4.875-5.75-2.75c-1.938,1.57-3.385,6.844-18.062,14.933a174.918,174.918,0,0,1-21.161,9.607s.806.863-1.943,1.363S507.947,388.516,508.947,387.766Z" fill="#ffbf00"/>
    <g id="Group_4" data-name="Group 4">
      <path id="Path_67" data-name="Path 67" d="M445.269,248.006s-13.245-11.885-4.553-13.136,10.322.952,9.748,3.321a40.648,40.648,0,0,1-2.044,6.546C447.5,246.918,446.87,249,445.269,248.006Z" fill="#ffbf00"/>
      <path id="Path_68" data-name="Path 68" d="M448.261,248.337s3.084-10.375,6.167-9.542,5.875,5.291,5.25,7.583-7.2,5.2-9.745,3.783S448.261,248.337,448.261,248.337Z" fill="#ffbf00"/>
      <path id="Path_69" data-name="Path 69" d="M449.882,261.285s-4.363-.847-3.85-4.694.563-6.057,1.293-6.292,10.358,3.787,10.216,5.574a3.994,3.994,0,0,1-1.439,2.154A13.308,13.308,0,0,1,449.882,261.285Z" fill="#ffbf00"/>
      <path id="Path_70" data-name="Path 70" d="M444.636,248.628s-8.542.043-8.125,2.834,2.083,10.041,3.958,7.958,5.708-8.375,5.542-9.25S444.636,248.628,444.636,248.628Z" fill="#ffbf00"/>
      <path id="Path_71" data-name="Path 71" d="M447.556,249.308a.68.68,0,1,1-.681-.68A.68.68,0,0,1,447.556,249.308Z" fill="#ffbf00"/>
    </g>
    <path id="Path_72" data-name="Path 72" d="M532.469,323.286S518.61,304.1,510.485,301.473a117.393,117.393,0,0,0-12.75-3.5s11.75,4.078,15.25,6.289,22.853,23.205,22.853,23.205Z" fill="#d38d00"/>
    <path id="Path_73" data-name="Path 73" d="M550.527,351.89s1.166,3.071.791,4.583,1.328-.391,1.436-1.154S550.527,351.89,550.527,351.89Z" fill="#ffbf00"/>
    <path id="Path_74" data-name="Path 74" d="M588.86,258.553s-2.9-4.744-3.771-5.329-.445-1.9-2.1-1.334c-2.053.7-1.366,4.276-.491,5.819s1.283,6.712,1.283,6.712Z" fill="#ffc5bb"/>
    <path id="Path_75" data-name="Path 75" d="M573.425,253.508s4.173-4.108,5.044-1.515,2.11,8.26-1.348,11.255S572.286,254.5,573.425,253.508Z" fill="#9656fc"/>
    <path id="Path_76" data-name="Path 76" d="M483.485,296.929a9.261,9.261,0,0,1-2.744-1.467c-4.731-3.643-5.752-11.265-5.957-13.592h0l-6.549-3.4s1.875,14.25,11.75,19.5,6.265,5.96,3.822,7.354c2.694-.823,4.588-2.141,5.512-3.77C489.639,300.993,491.735,299.679,483.485,296.929Z" fill="#f59493"/>
    <path id="Path_77" data-name="Path 77" d="M509.948,386.9c-12.894,2.288-4.963-5.507-6.963-7.007s-2.55-11.167-2.55-11.167.384-14.166-8.314-13.439-14.009-16.851-14.009-16.851l2.724,14.415c.089-.554.149-.919.149-.919,8.75,4.25,18.818,26.427,17.568,30.177s-.75,5.5-.75,5.5c.357,1.608,3.9,2.335,8.026,1.727C511.846,387.365,515.652,385.885,509.948,386.9Z" fill="#efab00"/>
    <path id="Path_78" data-name="Path 78" d="M488.152,355.284s10.732-5.515,12.283-8.871,4.532-10.231,2.391-14.565-5.091-8.75-.718-13.579l3.659,5.829,4.218,10.792-.571,11.595-10.346,7.571-4.714,4.443S485.386,356.8,488.152,355.284Z" fill="#efab00"/>
    <g id="Group_5" data-name="Group 5">
      <path id="Path_79" data-name="Path 79" d="M460.485,376.679l43.25-29.25s-.5-11.25,4-13.25,8.5-4.25,11.25-2.25,4.843,8.75,2.593,13.5-6.458,3.378-9.259,6.628c-2.693,3.123-27.029,31.2-44.521,33.791C467.8,385.848,459.735,385.18,460.485,376.679Z" fill="#ffc5bb"/>
      <path id="Path_80" data-name="Path 80" d="M511.14,338.433s-13.927-14.72-10.011-19.5,12.24,16.009,12.24,16.009Z" fill="#ffc5bb"/>
      <path id="Path_81" data-name="Path 81" d="M502.826,318.269c.9,1.61,2.156,4.742,2.941,5.829,1.112,1.542,6.831,9.265,5.691,10.486-.916.983.875.045,1.613-.361C511.779,331.135,506.5,319.041,502.826,318.269Z" fill="#f59493"/>
      <path id="Path_82" data-name="Path 82" d="M514.6,334.9l3.324-1.483-2.045-14.356s-3.039-5.375-5.408-2.512S514.6,334.9,514.6,334.9Z" fill="#ffc5bb"/>
      <path id="Path_83" data-name="Path 83" d="M515.315,334.584l2.606-1.162-2.045-14.356s-1.376-2.424-3-3.145c.662,1.291.7,4.047,1.056,5.01.437,1.188,2.176,9.292,2.051,10.238C515.886,331.92,515.479,333.827,515.315,334.584Z" fill="#f59493"/>
      <path id="Path_84" data-name="Path 84" d="M518.985,331.929a4.366,4.366,0,0,0-3-.759c-.126.948-.74,3.735-.74,3.735s.553,6.756,3.49,8.256c2.111,1.077.868,3.9,0,5.4a6.717,6.717,0,0,0,2.843-3.136C523.828,340.679,521.735,333.929,518.985,331.929Z" fill="#f59493"/>
      <path id="Path_85" data-name="Path 85" d="M509.948,334.9a14.839,14.839,0,0,1,4.188-1.135,8.842,8.842,0,0,1,3.785.567c.659.079,3.065,7.387,1.647,8.8s-1.666.162-3.583.414-2,1.493-4.333,1.123S507.16,335.17,509.948,334.9Z" fill="#f59493"/>
      <path id="Path_86" data-name="Path 86" d="M508.819,334.39s7.332.926,6.332,3.3-.793,3.866-2.4,5.868-5.853.716-5.853.716S504.319,335.557,508.819,334.39Z" fill="#ffc5bb"/>
      <path id="Path_87" data-name="Path 87" d="M521.028,346.413s8.457-7.234,4.457-10.984-9.5-.25-9.5,1.75.5,3.25,4.5,3.5S521.028,346.413,521.028,346.413Z" fill="#ffc5bb"/>
      <path id="Path_88" data-name="Path 88" d="M517.519,340.091s2.541-.118,3.753-1.2.96.42.38.644-3.731,1.064-3.731,1.064S515.533,339.843,517.519,340.091Z" fill="#f59493"/>
      <path id="Path_89" data-name="Path 89" d="M516.786,342.6s.678,2.079,0,3.084c-1.285,1.916-1.219,1.25-3.1,1.708-2.309.564-3.329-1.132-4.074-2.715a1.663,1.663,0,0,1,1.086-2.429C512.7,341.521,516.9,339.911,516.786,342.6Z" fill="#f59493"/>
      <path id="Path_90" data-name="Path 90" d="M510.153,339.534s4.167,1.395,4.167,3.252c0,3.647-2.085,3.879-2.522,3.627s-1.5-2.653-2.438-2.859S508.009,339.969,510.153,339.534Z" fill="#ffc5bb"/>
    </g>
    <path id="Path_91" data-name="Path 91" d="M474.985,356.264a43.769,43.769,0,0,1-8.46,4.278l.03.076a66.611,66.611,0,0,1,13.43-.9c-.25-.25,1-7.794,1-7.794.208.1.417.221.625.341l-3.068-15.228S478.319,353.888,474.985,356.264Z" fill="#efab00"/>
    <path id="Path_92" data-name="Path 92" d="M480.985,351.929s-3.333-9.711-2.916-16.75C478.069,335.179,481.152,346.718,480.985,351.929Z" fill="#d38d00"/>
    <path id="Path_93" data-name="Path 93" d="M453.152,358.929a66.8,66.8,0,0,1,14.367-2.622,72.273,72.273,0,0,1,12.645,1.057l.545-3.715a70,70,0,0,0-13.822-2.009,76.079,76.079,0,0,0-13.625,1.13Z" fill="#d38d00"/>
    <path id="Path_94" data-name="Path 94" d="M534.5,349.552s1.61.859.8,4.234a22.739,22.739,0,0,0-.8,4.774l4.743-5.085v-3.923H534.8" fill="#efab00"/>
    <g id="Group_6" data-name="Group 6">
      <path id="Path_95" data-name="Path 95" d="M482.972,379.112c.155-.1.31-.2.464-.3C483.225,378.935,483.074,379.036,482.972,379.112Z" fill="#f59493"/>
      <path id="Path_96" data-name="Path 96" d="M514.784,350.247s-6.049,1.872-9.132,5.789c-2.821,3.582-13.785,16.458-20.478,21.564,13.114-9.347,25.286-23.388,27.145-25.543a7.477,7.477,0,0,1,2.926-2.016h0Z" fill="#f59493"/>
    </g>
    <path id="Path_97" data-name="Path 97" d="M470.3,360.1a9.813,9.813,0,0,1,.542,3.891c-.255,1.488-1.214,6.508-1.214,6.508l6.427-4.346.783-6.5A14.005,14.005,0,0,0,470.3,360.1Z" fill="#f59493"/>
    <path id="Path_98" data-name="Path 98" d="M530.859,307.891s17.376,9.775,27.814,10.335c0,0,.522,1.144-4.8,1.727s-19.779-4.111-25.113-7.233Z" fill="#f59493"/>
    <path id="Path_99" data-name="Path 99" d="M535.2,298.712l14.6,5.009.949-.943L536.535,296.5Z" fill="#f59493"/>
    <path id="Path_100" data-name="Path 100" d="M581.641,257.709s-7.9,14.015-7.114,18.848,1.791,11.994.791,15.747a107.5,107.5,0,0,1-4.147,10.921l12.606-13.853Z" fill="#bca6e8"/>
    <path id="Path_101" data-name="Path 101" d="M585.235,255.179s7,3.125,8.25,5.75,2.125,9.5,1.125,13.375a37.076,37.076,0,0,1-7.25,12.875c-2.5,2.5-6.75,2.875-6.25.75s-6.467-12.776-1.5-22.835c3.228-6.541,2-10.165,5.5-10.29Z" fill="#ffc5bb"/>
    <path id="Path_102" data-name="Path 102" d="M587.39,256.241s6.428,2.827,6.813,6.624c.157,1.556,2.961,4.112,2.367,6.421s-2.265,5.847-2.328,6.222-1.556,3.627-1.756,4.011-3.948,6.308-3.948,6.308,4.13-6.895,3.192-9.27-.662-6.98,1.088-9.167-.916-4.167-1.666-6.105S588.794,259.258,587.39,256.241Z" fill="#f59493"/>
    <path id="Path_103" data-name="Path 103" d="M537.152,355.807s4.359,2.161,3.346,11.872l7.41-11.415-2.527-5.5S542.36,349.265,537.152,355.807Z" fill="#f59493"/>
    <path id="Path_104" data-name="Path 104" d="M549.545,373s-14.685,11.381-21.185,13.8c0,0,17.734-12.143,19.679-14.425C548.039,372.379,548.98,371.619,549.545,373Z" fill="#efab00"/>
    <path id="Path_105" data-name="Path 105" d="M506.141,397.16s13.032-1.5,20.344-6.125c0,0-15.258,5.688-20.191,5.063Z" fill="#efab00"/>
    <path id="Path_106" data-name="Path 106" d="M541.9,365.679a11.513,11.513,0,0,1,4.087-1.69c1.667-.115,0,3.792,0,5.4s-2.638,3.884-4.544,5.167,13.592-11.385,13.592-11.385l-6.877-6.345Z" fill="#f4a300"/>
    <path id="Path_107" data-name="Path 107" d="M543.048,369.13l-9,9.981,5.2-3.082Z" fill="#f4a300"/>
    <path id="Path_108" data-name="Path 108" d="M547.17,379.112s-14.768,18-36.435,20.013c0,0,14.544-.472,23.313-6.985A59.63,59.63,0,0,0,547.17,379.112Z" fill="#efab00"/>
    <path id="Path_109" data-name="Path 109" d="M552.859,374.556s.186,13.667.469,17.917-4.461,30.587-4.461,30.587,8.039-24.751,8.141-32.607S552.859,374.556,552.859,374.556Z" fill="#f4a300"/>
    <path id="Path_110" data-name="Path 110" d="M564.986,432.105s-5.186,16.743-7.031,20.618-10.845,17.375-15.47,20.625c-2.938,2.066-20.675,19.586-29.9,31.209-5.295,6.669-2.987,8.338-5.7,11.816,0,0-5.564-11.65,7.151-26.443l11.576-16.207,38.25-54.875S565.625,426.568,564.986,432.105Z" fill="#f4a300"/>
    <path id="Path_111" data-name="Path 111" d="M557.985,367.679s12.25,34.751,11.5,41-4.5,17.293-5.75,22.793-9,18.957-9.5,22.707-4.75,10-11.25,14.5-14.25,9.5-24.5,16.25-15.75,9.75-27.75,11.25-16-1.25-24,5.5-10.75,10.5-10.75,10.5-2.765-5.957-1.5-18.29c.69-6.72-3.5-12.21-3.5-12.21s9.468-13.86,19.167-14.957c7.221-.817,30.833,1.207,38.583-2.543s9.5-1.623,19.75-12.623,17-18.627,20-27.377,10-30.5,8.25-36.25-4.25-15.5-4.25-15.5S555.735,368.179,557.985,367.679Z" fill="#ffbf00"/>
    <g id="Group_7" data-name="Group 7">
      <path id="Path_112" data-name="Path 112" d="M547.222,366.694a19.233,19.233,0,0,1,.482,3.8c.031,1.976.929,3.608,2.406,3.89s1.892.272,4.923-.508a5.9,5.9,0,0,0,3.952-3.625l.468-1.906-.172-1.419S546.639,363.569,547.222,366.694Z" fill="#eda400"/>
      <path id="Path_113" data-name="Path 113" d="M555.4,362.1c-1.122,0-1.5-2.791-2.875-1.375s-3.834,0-4.5,2.125-1.418,2.167,0,5.5-.209,3.667,3.625,4.5,4.459-1.917,5.916-3.083,2.258-.963,1.713-2.836S557.027,362.1,555.4,362.1Z" fill="#ffbf00"/>
      <path id="Path_114" data-name="Path 114" d="M549.545,361.584s5.065,3.67,4.722,5.764-.125.906-1.907.594a1.471,1.471,0,0,1-1.312-1.906s-.563-.532-.719.031-.374,2.205.892,2.493a13.446,13.446,0,0,0,2.671.569c.937.032,2.25-.712,1.5-2.2a12.425,12.425,0,0,0-2.144-3.5C552.329,362.536,550.762,361.352,549.545,361.584Z" fill="#eda400"/>
      <path id="Path_115" data-name="Path 115" d="M555.033,362.192a8.115,8.115,0,0,1,1.515,2.562c.312,1.188.75,1.694.344,2.925s-2.136,2.934-1.279,4.27c0,0,.334-.07.432-.663s-.185-.657.6-1.594a4.4,4.4,0,0,0,1.187-3.344c-.187-1.187-1.812-3.437-1.937-3.719s-.664-.556-.664-.556S554.634,361.691,555.033,362.192Z" fill="#eda400"/>
    </g>
    <path id="Path_116" data-name="Path 116" d="M546.487,469.424s-18.669,26.966-21.669,34.966-6.166,18.167-6.166,18.167,1.832-16.334,5-22S546.487,469.424,546.487,469.424Z" fill="#f4a300"/>
    <path id="Path_117" data-name="Path 117" d="M530.3,481.723s-14.15,22.578-14.984,29.623.995,16.211.995,16.211-5.12-18.966-2.828-22.918S530.3,481.723,530.3,481.723Z" fill="#f4a300"/>
    <path id="Path_118" data-name="Path 118" d="M557,389.75s4.322,21.974,1.989,27.974-5.667,16.334-15.167,27.667-26.5,22.429-26.5,22.429,21.792-18.6,25.73-24.929,10.091-11.833,11.847-18.5,2.363-11.334,3.06-14.667S557,389.75,557,389.75Z" fill="#efab00"/>
    <path id="Path_119" data-name="Path 119" d="M512.43,469.424s-38.112,4.967-40.278,6.967-13.712,7.645-14.667,9.833c-.109.249,5.118-3,9.059-3.833s7.994-5.334,15.275-7S512.43,469.424,512.43,469.424Z" fill="#efab00"/>
    <path id="Path_120" data-name="Path 120" d="M528.36,468.724a101.361,101.361,0,0,1-24.234,11.333c-13.307,4-21.974,4.334-29.474,7.667s-15.167,10-15.167,10,14.334-8.5,20.5-9.833,23.874-5.441,32.77-9.8A110.375,110.375,0,0,0,528.36,468.724Z" fill="#efab00"/>
    <path id="Path_121" data-name="Path 121" d="M460.436,477.83s8.208-5.273,12.795-6.273a86.642,86.642,0,0,1,9.973-1.42s-9.052-.414-11.552.086S460.436,477.83,460.436,477.83Z" fill="#efab00"/>
    <path id="Path_122" data-name="Path 122" d="M551.82,445.89s-7.647,12.632-14.991,17.733C536.829,463.623,548.156,455.723,551.82,445.89Z" fill="#efab00"/>
    <path id="Path_123" data-name="Path 123" d="M520.4,477.83s-8.412,6.255-22.245,8.407C498.152,486.237,509.143,486.772,520.4,477.83Z" fill="#efab00"/>
    <path id="Path_124" data-name="Path 124" d="M469.626,481.148s18.526-4.925,27.859-6.258.667,0,.667,0-22.037,2.333-27.333,4S469.626,481.148,469.626,481.148Z" fill="#efab00"/>
    <path id="Path_125" data-name="Path 125" d="M561.152,388.494s4.215,19.9,3.942,24.065-3.942,15.333-3.942,15.333,3.787-12.9,2.977-19.7S561.152,388.494,561.152,388.494Z" fill="#efab00"/>
    <path id="Path_126" data-name="Path 126" d="M578.485,395.18c-2.23-8.86-16.618-26.1-19.122-29.057a8.529,8.529,0,0,0,.354,2.63v0s17.745,29.468,17.757,37.967,3.324,20.25,3.668,22.062,3.773,43.068,3.773,43.068h0c.131-6.615.4-12.2.569-14.673C585.985,449.68,582.985,413.055,578.485,395.18Z" fill="#b7733b"/>
  </g>
</svg>
