<svg xmlns="http://www.w3.org/2000/svg" viewBox="776 4351 48 48">
  <defs>
    <style>
      .cls-1, .cls-2 {
        fill: #fff;
      }

      .cls-1 {
        fill-rule: evenodd;
      }
    </style>
  </defs>
  <g id="Group_16" data-name="Group 16" transform="translate(776 4351)">
    <path id="Path_10" data-name="Path 10" class="cls-1" d="M24,0A24,24,0,1,0,48,24,24,24,0,0,0,24,0ZM34,15.749a3.25,3.25,0,0,1,2.263,2.324A35.1,35.1,0,0,1,36.8,24.4a35.1,35.1,0,0,1-.535,6.327A3.25,3.25,0,0,1,34,33.051c-2,.549-10,.549-10,.549s-8.005,0-10-.549a3.25,3.25,0,0,1-2.263-2.324A35.112,35.112,0,0,1,11.2,24.4a35.111,35.111,0,0,1,.535-6.327A3.25,3.25,0,0,1,14,15.749c2-.549,10-.549,10-.549S32.005,15.2,34,15.749Z"/>
    <path id="Path_11" data-name="Path 11" class="cls-2" d="M21.6,28.8v-8l6.4,4Z"/>
  </g>
</svg>
