<svg xmlns="http://www.w3.org/2000/svg" xmlns:xlink="http://www.w3.org/1999/xlink" viewBox="684.796 1030 71.807 69.988">
  <defs>
    <style>
      .cls-1 {
        fill: none;
      }

      .cls-2 {
        clip-path: url(#clip-path);
      }

      .cls-3 {
        fill: url(#linear-gradient);
      }

      .cls-4 {
        clip-path: url(#clip-path-2);
      }

      .cls-5 {
        fill: url(#linear-gradient-2);
      }

      .cls-6 {
        clip-path: url(#clip-path-3);
      }

      .cls-7 {
        fill: url(#linear-gradient-3);
      }

      .cls-8 {
        clip-path: url(#clip-path-4);
      }

      .cls-9 {
        fill: url(#linear-gradient-4);
      }

      .cls-10 {
        clip-path: url(#clip-path-5);
      }

      .cls-11 {
        fill: url(#linear-gradient-5);
      }

      .cls-12 {
        clip-path: url(#clip-path-6);
      }

      .cls-13 {
        fill: url(#linear-gradient-6);
      }

      .cls-14 {
        clip-path: url(#clip-path-7);
      }

      .cls-15 {
        fill: url(#linear-gradient-7);
      }

      .cls-16 {
        clip-path: url(#clip-path-8);
      }

      .cls-17 {
        fill: url(#linear-gradient-8);
      }

      .cls-18 {
        clip-path: url(#clip-path-9);
      }

      .cls-19 {
        fill: url(#linear-gradient-9);
      }

      .cls-20 {
        clip-path: url(#clip-path-10);
      }

      .cls-21 {
        fill: url(#linear-gradient-10);
      }

      .cls-22 {
        clip-path: url(#clip-path-11);
      }

      .cls-23 {
        fill: url(#linear-gradient-11);
      }

      .cls-24 {
        clip-path: url(#clip-path-12);
      }

      .cls-25 {
        fill: url(#linear-gradient-12);
      }

      .cls-26 {
        clip-path: url(#clip-path-13);
      }

      .cls-27 {
        fill: url(#linear-gradient-13);
      }

      .cls-28 {
        clip-path: url(#clip-path-14);
      }

      .cls-29 {
        fill: url(#linear-gradient-14);
      }
    </style>
    <clipPath id="clip-path">
      <path id="Path_210" data-name="Path 210" class="cls-1" d="M47.531-79.518c-.114,0-.233.022-.341.022h0q-15-.009-30.006,0h0c-.111,0-.223-.005-.334-.011h0a1.714,1.714,0,0,0-1.335.318h0c-.4.334-.75.576-.749,1.157h0q.012,20.265.007,40.531h0c0,.738,0,.739-.729.739H1.523A1.547,1.547,0,0,0,.014-35.239h0q0,12.089,0,24.178h0A1.474,1.474,0,0,0,1.533-9.531H50.427c.9,0,1.225-.329,1.227-1.237h0c0-1.692,0-3.382,0-5.074h0c0-.727.041-.758.762-.759h7.772c1.319,0,1.321,0,1.321-1.3h0q0-13.25,0-26.5h0c0-.3.029-.6.046-.951h.7c2.321,0,4.643.015,6.963-.013h0c.081,0,.163,0,.246.005h0a1.255,1.255,0,0,0,1.185-.423h0c.331-.4.839-.635.811-1.263h0c0-.061.062-.122.086-.187h0a2.274,2.274,0,0,0,.249-.7h0c.018-2.914.007-5.828.014-8.743h0a3.442,3.442,0,0,0-.765-2.38h0c-.334-.391-.6-.791-1.178-.769h0c-.084,0-.218-.019-.241-.07h0c-.142-.312-.394-.3-.641-.283h0c-.054,0-.106.007-.158.006h0c-2.25,0-4.5-.013-6.747.007h0c-.442,0-.584-.115-.576-.57h0c.028-1.6.011-3.2.007-4.8h0a.978.978,0,0,0-.083-.514h0a9.417,9.417,0,0,0-.816-1.018h0c-.386-.422-.8-.817-1.2-1.229h0c-.368-.383-.727-.773-1.09-1.157h0c-.188-.2-.368-.414-.57-.6h0c-.542-.5-1.1-.987-1.641-1.494h0c-.443-.417-.861-.86-1.29-1.29h0c-.181-.18-.373-.352-.545-.54h0c-.347-.383-.668-.788-1.028-1.157h0c-.393-.4-.826-.77-1.222-1.171h0c-.347-.351-.65-.746-1-1.09h0c-.543-.527-1.113-1.027-1.672-1.538h0c-.358-.328-.559-.891-1.2-.8h0c-.045.006-.128-.023-.138-.054h0a.425.425,0,0,0-.435-.321h0ZM16.878-37.665V-76.517c0-.809,0-.809.791-.809H46c.76,0,.76,0,.76.754h0c0,2.716-.01,5.432.006,8.148h0c.008,1.207-.229,2.451.558,3.629h0c.2.012.5.047.8.048h0q5.369,0,10.738,0h0c.819,0,.819,0,.819.82h0c0,1.024-.031,2.052.012,3.075h0c.023.531-.168.681-.667.678h0c-2.087-.016-4.174-.006-6.26-.006h0q-.36,0-.721,0h0c-.551,0-1.1,0-1.653.008h0a2.041,2.041,0,0,1-.252-.012h0c-.3-.024-.609-.048-.8.319h0c-.025.046-.169.046-.256.04h0c-.556-.044-.808.354-1.118.713h0a3.81,3.81,0,0,0-.777,2.677h0c.02,2.824-.012,5.648.025,8.471h0a2.478,2.478,0,0,0,.423,1.558h0a2.444,2.444,0,0,0,1.891,1.083h0c3.073-.076,6.151-.028,9.227-.027h0c.907,0,.928.02.928.937h0V-19.1h0v.661H51.637V-36.2a5.252,5.252,0,0,0-3.219-.554h0q-15.325-.005-30.65,0h0c-.888,0-.891,0-.891-.907M48.9-67.012c0-.16-.016-.323-.016-.484h0c0-2.481,0-4.963.006-7.444h0a2.546,2.546,0,0,1,.165-.625h0c.139.12.281.236.417.356h0c.559.5,1.134.982,1.67,1.5h0c.361.351.651.775,1.005,1.135h0c.363.371.775.7,1.146,1.061h0c.374.367.718.763,1.085,1.136h0c.375.38.768.742,1.144,1.122h0c.386.394.755.806,1.142,1.2h0c.341.351.7.686,1.044,1.037h0a4.379,4.379,0,0,1,.334.479H52.986c-1.186,0-2.373-.016-3.559.009H49.4c-.361,0-.495-.147-.5-.488m.384,18.75c-.058-2.949-.026-5.9-.014-8.849h0a4.237,4.237,0,0,1,.176-.844H69.534c.035.337.092.632.092.929h0q.012,4.424,0,8.848h0c0,.935-.059.991-1.012.991h0q-9.119,0-18.238,0h-.264c-.662,0-.811-.052-.832-1.074M2.121-12.239q0-10.871-.011-21.743h0c0-.525.154-.656.664-.655h0q23.228.017,46.455.009h.578v22.965H2.147c-.01-.2-.026-.386-.026-.576" transform="translate(-0.013 79.518)"/>
    </clipPath>
    <linearGradient id="linear-gradient" x1="0.029" y1="0.57" x2="0.977" y2="0.57" gradientUnits="objectBoundingBox">
      <stop offset="0" stop-color="#ffde81"/>
      <stop offset="0.1" stop-color="#ffd36f"/>
      <stop offset="0.2" stop-color="#ffc85e"/>
      <stop offset="0.3" stop-color="#ffbe4d"/>
      <stop offset="0.4" stop-color="#ffb43c"/>
      <stop offset="0.5" stop-color="#ffaa2d"/>
      <stop offset="0.6" stop-color="#ffa52f"/>
      <stop offset="0.7" stop-color="#fda131"/>
      <stop offset="0.8" stop-color="#f69c33"/>
      <stop offset="0.9" stop-color="#f09835"/>
      <stop offset="1" stop-color="#e99437"/>
    </linearGradient>
    <clipPath id="clip-path-2">
      <path id="Path_212" data-name="Path 212" class="cls-1" d="M11.193-74.509H8.615a7.654,7.654,0,0,0-.386,1.6h0Q8.2-58.5,8.216-44.1h0c0,.143-.044.336.03.422h0c.536.622.08,1.516.668,2.183h0c.276.316.159.958.435,1.451h0a7.352,7.352,0,0,1,.438,1.788h0c.187.733.782.954,1.1,1.465h0a.576.576,0,0,0,.287-.106h0c.074-.056.09-.2.165-.241h0a1.422,1.422,0,0,0,.815-1.179h0c.117-.767.305-1.525.466-2.286h0c.01-.047.041-.12.074-.126h0c.419-.091.295-.434.325-.7h0c.038-.339-.073-.868.1-.983h0c.55-.366.351-.863.354-1.3h0q.024-9.549.01-19.1h0q0-5.368,0-10.736h0c0-.806-.118-.936-.93-.964h0c-.327-.01-.652-.012-.978-.012h-.386m-.826,30.047V-72.63h1.247c.012.256.034.482.034.708h0q0,13.243,0,26.485h0c0,.8-.069,1.064-.568,1.064h0a4.519,4.519,0,0,1-.716-.089m.408,2.209c-.011-.084.161-.194.251-.29h0c.083.123.165.248.275.414h0c-.124.168-.214.29-.3.409h0a2.086,2.086,0,0,1-.222-.532" transform="translate(-8.203 74.51)"/>
    </clipPath>
    <linearGradient id="linear-gradient-2" x1="0.029" y1="0.6" x2="0.977" y2="0.6" xlink:href="#linear-gradient"/>
    <clipPath id="clip-path-3">
      <path id="Path_214" data-name="Path 214" class="cls-1" d="M2.212-74.306c-.235.289-.707.53-.533,1.053h0c.014.04-.07.108-.1.169h0a3.212,3.212,0,0,0-.294.676h0c-.066.331.067.864-.106.98h0c-.5.334-.291.79-.386,1.19h0a5.7,5.7,0,0,0-.481,1.958h0a.064.064,0,0,1-.019.048h0c-.386.239-.279.625-.28.97h0q0,14.033,0,28.064h0a3.65,3.65,0,0,0,.3,1.961h0a.806.806,0,0,0,.767.521h0c1.1-.006,2.2,0,3.293-.009h.039c.121,0,.276,0,.319-.064h0a2.074,2.074,0,0,0,.6-1.282h0c-.04-4.947-.023-9.895-.023-14.842h0q0-5.937,0-11.873h0c0-1.061-.005-2.123-.019-3.183h0c0-.195.007-.5-.1-.56h0c-.385-.225-.3-.577-.34-.9h0c-.035-.284.04-.712-.116-.826h0c-.415-.3-.272-.692-.34-1.053h0c-.026-.138,0-.367-.077-.4h0c-.448-.226-.311-.636-.358-.989h0c-.044-.329.084-.686-.355-.917h0c-.239-.127-.3-.584-.54-.711h0a1.029,1.029,0,0,0-.445-.09h0a.563.563,0,0,0-.4.114m.054,35.385c-.066-.006-.14-.334-.141-.513h0c-.01-2-.005-3.991-.005-5.987h0v-7.443q0-6.688-.009-13.375h0c0-.436.057-.66.576-.63h0c.789.047.8.015.8.648h0q0,13.347-.007,26.7h0c0,.194-.065.531-.161.554h0a2.728,2.728,0,0,1-.648.073h0a3.81,3.81,0,0,1-.4-.023" transform="translate(0 74.42)"/>
    </clipPath>
    <linearGradient id="linear-gradient-3" x1="0.029" y1="0.666" x2="0.977" y2="0.666" xlink:href="#linear-gradient"/>
    <clipPath id="clip-path-4">
      <path id="Path_216" data-name="Path 216" class="cls-1" d="M25.134-74.249a8.341,8.341,0,0,0-1.516.694h0a2.648,2.648,0,0,0-.9.77h0c-.273.295-.331.711-.554.944h0a2.978,2.978,0,0,0-.607,2.015h0a2.591,2.591,0,0,0,.653,2.215h0c.051.047.012.183.055.255h0c.192.327.386.657.6.966h0a1.343,1.343,0,0,0,.461.459h0c.46.208.95.355,1.425.525h0c.05.018.131.026.142.057h0c.156.46.555.344.858.315h0a5.262,5.262,0,0,1,.576-.011h0a2.361,2.361,0,0,0,1.463-.314h0a6.1,6.1,0,0,0,1.4-.9h0c.469-.52,1.17-.863,1.223-1.686h0c0-.061.048-.164.09-.173h0c.387-.088.29-.4.305-.651h0a6.324,6.324,0,0,1,.014-.884h0c.216-.907-.328-1.612-.5-2.4h0c-.013-.056-.088-.1-.138-.147h0a10.213,10.213,0,0,1-1.131-1.034h0a1.661,1.661,0,0,0-1.278-.773h0c-.223-.006-.437-.248-.661-.261h0c-.381-.021-.769-.053-1.152-.053h0a4.433,4.433,0,0,0-.84.07m.661,7.213c-.169-.046-.325-.18-.491-.194h0c-.663-.057-.95-.512-1.323-1h0A2.875,2.875,0,0,1,23.6-70.18h0a2.2,2.2,0,0,1,.975-1.648h0a2.431,2.431,0,0,1,1.641-.474h0a5.174,5.174,0,0,1,1.106.122h0a2.147,2.147,0,0,1,.788.546h0a1.623,1.623,0,0,1,.435.64h0c.085.263.08.508.4.675h0c.2.107,0,1.145-.21,1.353h0a.387.387,0,0,0-.125.216h0c-.04.547-.524.767-.774,1.135h0c-.358.53-.992.263-1.322.708h0a.1.1,0,0,1-.084.026h0a3.514,3.514,0,0,1-.633-.157" transform="translate(-21.544 74.319)"/>
    </clipPath>
    <linearGradient id="linear-gradient-4" x1="0.029" y1="0.412" x2="0.977" y2="0.412" xlink:href="#linear-gradient"/>
    <clipPath id="clip-path-5">
      <path id="Path_218" data-name="Path 218" class="cls-1" d="M9.784-20.345c-.013,0-.022.028-.036.04h0c-.352.282-.7.57-1.06.843h0c-.356.27-.735.516-.782,1.022h0c-.008.085-.021.214-.075.244h0c-.585.323-.443,1-.688,1.486h0c-.441.87.335,1.716.394,2.605h0c0,.027.05.047.069.077h0c.12.195.24.389.356.586h0c.042.074.048.2.106.228h0A5.607,5.607,0,0,1,9.277-12.2h0c.509.5,1.143.457,1.678.709h0c1.024.481,2.067-.248,3.11-.413h0c.04-.006.07-.073.107-.109h0c.235-.229.478-.451.708-.685h0a5.1,5.1,0,0,0,1.079-1.164h0a13.072,13.072,0,0,0,.635-2.111h0c-.034-.014-.071-.026-.106-.04h0c-.025-.394.1-.965-.1-1.146h0c-.5-.434-.129-1.188-.764-1.568h0c-.422-.252-.613-.882-1.03-1.157h0a8.024,8.024,0,0,0-1.939-.878h0a1.965,1.965,0,0,0-.613-.1h0a16.555,16.555,0,0,0-2.253.508m2.026,7.059a4.248,4.248,0,0,1-1.5-.451h0A2.6,2.6,0,0,1,9.258-16.4h0a2.721,2.721,0,0,0,.049-.535h0c.008-.584.475-.824.786-1.214h0c.518-.651,1.193-.277,1.672-.542h0a8.222,8.222,0,0,1,1.342.176h0c.25.075.444.336.663.516h0c.468.39.464,1.043.824,1.5h0a.62.62,0,0,1,.065.562h0c-.309.466-.213,1.137-.788,1.473h0c-.211.123-.337.389-.517.574h0a.937.937,0,0,1-.34.24h0c-.362.13-.733.234-1.1.347h0a.317.317,0,0,1-.087.022h0a.06.06,0,0,1-.018,0" transform="translate(-7.008 20.853)"/>
    </clipPath>
    <linearGradient id="linear-gradient-5" x1="0.029" y1="0.828" x2="0.977" y2="0.828" xlink:href="#linear-gradient"/>
    <clipPath id="clip-path-6">
      <path id="Path_220" data-name="Path 220" class="cls-1" d="M39.785-11.532a4.956,4.956,0,0,0-1.417.441h0c-.048.017-.078.113-.1.177h0A1.157,1.157,0,0,0,39.4-9.382h0c1.473.007,2.946,0,4.419,0h0c1.223,0,2.443.013,3.664,0h0c.117,0,.237,0,.356.011h0a1.351,1.351,0,0,0,1.39-.5h0c.166-.241.319-1.056.041-1.186h0a3.687,3.687,0,0,0-1.4-.474h0q-2.011-.034-4.022-.033h0q-2.031,0-4.059.033" transform="translate(-38.212 11.565)"/>
    </clipPath>
    <linearGradient id="linear-gradient-6" x1="0.029" y1="0.653" x2="0.977" y2="0.653" xlink:href="#linear-gradient"/>
    <clipPath id="clip-path-7">
      <path id="Path_222" data-name="Path 222" class="cls-1" d="M38.276-15.616c-.108.121.005.5.1.723h0c.061.151.263.243.517.459h.43c3,0,6-.026,9,.023h0a1.226,1.226,0,0,0,1.073-.636h0c.3-.416-.254-1.186-.807-1.187h0c-3.178-.011-6.356,0-9.536-.016h0c-.454,0-.556.4-.769.635" transform="translate(-38.232 16.251)"/>
    </clipPath>
    <linearGradient id="linear-gradient-7" x1="0.029" y1="0.624" x2="0.977" y2="0.624" xlink:href="#linear-gradient"/>
    <clipPath id="clip-path-8">
      <path id="Path_224" data-name="Path 224" class="cls-1" d="M38.8-21.3c-.222.239-.468.393-.547.609h0a.955.955,0,0,0,.9,1.169h0q4.687.007,9.377,0h0a.989.989,0,0,0,.9-1.128h0a.472.472,0,0,0-.129-.2h0c-.127-.132-.261-.257-.461-.45H38.8Z" transform="translate(-38.215 21.301)"/>
    </clipPath>
    <linearGradient id="linear-gradient-8" x1="0.029" y1="0.593" x2="0.977" y2="0.593" xlink:href="#linear-gradient"/>
    <clipPath id="clip-path-9">
      <path id="Path_226" data-name="Path 226" class="cls-1" d="M60.107-54.024a3.063,3.063,0,0,0-1.212.534h0a8.982,8.982,0,0,0-1.133,1.185h0c-.355.4-.8.735-.729,1.381h0c.021.2-.166.419-.25.633h0a2.409,2.409,0,0,0-.106.349h0c-.206.853.5,1.535.448,2.361h0c0,.04.054.091.09.128h0c.232.242.476.476.7.723h0a6.078,6.078,0,0,0,1.05,1.149h0a3.333,3.333,0,0,0,1.577.52h0c1,.039,2.056.334,2.976-.417h0a11.79,11.79,0,0,1,1.076-.54h0a1.549,1.549,0,0,0,.513-.6h0a5.974,5.974,0,0,1,.622-1.409h0a1.622,1.622,0,0,0,.329-1.277h0a3.716,3.716,0,0,0-.327-1.93h0a5.651,5.651,0,0,0-.971-1.573h0c-.372-.351-.623-.811-1.211-.826h0c-.047,0-.127-.035-.134-.067h0c-.084-.371-.341-.36-.591-.348h0a1.731,1.731,0,0,1-.19,0h0c-.394-.024-.79-.006-1.186-.006h0v.006c-.272,0-.55-.026-.823-.026h0a2.548,2.548,0,0,0-.52.047m.9,7.143a2.183,2.183,0,0,1-1.281-.7h0c-.214-.246-.491-.436-.725-.667h0a.464.464,0,0,1-.106-.275h0c-.03-.358-.044-.716-.064-1.076h.03c0-.216.011-.431,0-.648h0c-.035-.552.376-.821.708-1.143h0c.221-.215.441-.432.667-.643h0c.07-.065.158-.156.241-.158h0c.591-.021,1.3-.229,1.749.023h0c.623.347,1.595.472,1.634,1.536h0c.011.291.274.566.377.865h0c.213.611-.285,1.033-.465,1.538h0c-.187.524-.693.71-1.112,1.021h0a1.8,1.8,0,0,1-1.124.379h0a2.956,2.956,0,0,1-.526-.053" transform="translate(-56.64 54.071)"/>
    </clipPath>
    <linearGradient id="linear-gradient-9" x1="0.029" y1="0.308" x2="0.977" y2="0.308" xlink:href="#linear-gradient"/>
    <clipPath id="clip-path-10">
      <path id="Path_228" data-name="Path 228" class="cls-1" d="M69.341-51.9a.906.906,0,0,0-.427.151h0a5.087,5.087,0,0,0-.495.4h0v1.076c.327.156.613.407.907.412h0c1.9.036,3.811.024,5.719.014h0a.97.97,0,0,0,.96-1h0c0-.2-.034-.392-.053-.6h0c-.323-.157-.632-.433-.947-.44h0c-.915-.019-1.831-.026-2.746-.026h0c-.973,0-1.946.007-2.919.011" transform="translate(-68.419 51.909)"/>
    </clipPath>
    <linearGradient id="linear-gradient-10" x1="0.029" y1="0.231" x2="0.977" y2="0.231" xlink:href="#linear-gradient"/>
    <clipPath id="clip-path-11">
      <path id="Path_230" data-name="Path 230" class="cls-1" d="M69.408-48.384a.955.955,0,0,0-1.031,1.046h0c0,.2.022.393.03.537h0a4.806,4.806,0,0,0,2.828.527h0c.24-.006.481-.011.721-.008h0a20.371,20.371,0,0,0,2.26-.015h0a8.931,8.931,0,0,0,1.564-.4h0a.277.277,0,0,0,.143-.137h0a1.1,1.1,0,0,0-.911-1.548h0q-1.4-.005-2.8,0h0l-2.8,0" transform="translate(-68.377 48.387)"/>
    </clipPath>
    <linearGradient id="linear-gradient-11" x1="0.029" y1="0.252" x2="0.977" y2="0.252" xlink:href="#linear-gradient"/>
    <clipPath id="clip-path-12">
      <path id="Path_232" data-name="Path 232" class="cls-1" d="M25.507-69.821c-.4.9.122,1.614,1.017,1.925h0l.99-.286h0c.175-.334.341-.633.486-.942h0a.389.389,0,0,0,0-.3h0c-.149-.3-.321-.6-.505-.928h0a6.544,6.544,0,0,0-.894-.094h0a1.068,1.068,0,0,0-1.094.621" transform="translate(-25.371 70.442)"/>
    </clipPath>
    <linearGradient id="linear-gradient-12" x1="0.029" y1="0.411" x2="0.977" y2="0.411" xlink:href="#linear-gradient"/>
    <clipPath id="clip-path-13">
      <path id="Path_234" data-name="Path 234" class="cls-1" d="M12.551-16.758c-.071,0-.145,0-.221,0h0a1.449,1.449,0,0,0-.754.124h0c-.584.371-.494,1.015-.437,1.6h0a.542.542,0,0,0,.534.553h0a1.855,1.855,0,0,1,.545.214h0L13.3-14.59h0c.1-.34.214-.709.336-1.12h0c-.043-.062-.213-.205-.209-.341h0c.025-.6-.325-.711-.755-.711h0l-.117,0" transform="translate(-11.097 16.761)"/>
    </clipPath>
    <linearGradient id="linear-gradient-13" x1="0.029" y1="0.827" x2="0.977" y2="0.827" xlink:href="#linear-gradient"/>
    <clipPath id="clip-path-14">
      <path id="Path_236" data-name="Path 236" class="cls-1" d="M61.358-50.393c-.821.466-.777,1.282-.58,2.2h0c.446.12.986.437,1.423.331h0a1.822,1.822,0,0,0,1.045-1h0c.266-.664-.424-1.071-.791-1.481h0a.816.816,0,0,0-.56-.159h0a1.166,1.166,0,0,0-.537.113" transform="translate(-60.657 50.506)"/>
    </clipPath>
    <linearGradient id="linear-gradient-14" x1="0.029" y1="0.31" x2="0.977" y2="0.31" xlink:href="#linear-gradient"/>
  </defs>
  <g id="Group_329" data-name="Group 329" transform="translate(684.796 1030)">
    <g id="Group_214" data-name="Group 214" class="cls-2" transform="translate(0.012 0)">
      <g id="Group_213" data-name="Group 213" transform="translate(-34.954 -35.851)">
        <path id="Path_209" data-name="Path 209" class="cls-3" d="M0,52.128,49.385,0l50.808,48.134L50.808,100.262Z" transform="matrix(0.688, 0.726, -0.726, 0.688, 72.786, 0)"/>
      </g>
    </g>
    <g id="Group_216" data-name="Group 216" class="cls-4" transform="translate(7.22 4.408)">
      <g id="Group_215" data-name="Group 215" transform="translate(-42.163 -40.259)">
        <path id="Path_211" data-name="Path 211" class="cls-5" d="M0,52.128,49.385,0l50.808,48.134L50.808,100.262Z" transform="matrix(0.688, 0.726, -0.726, 0.688, 72.786, 0)"/>
      </g>
    </g>
    <g id="Group_218" data-name="Group 218" class="cls-6" transform="translate(0 4.487)">
      <g id="Group_217" data-name="Group 217" transform="translate(-34.943 -40.338)">
        <path id="Path_213" data-name="Path 213" class="cls-7" d="M0,52.128,49.385,0l50.808,48.134L50.808,100.262Z" transform="matrix(0.688, 0.726, -0.726, 0.688, 72.786, 0)"/>
      </g>
    </g>
    <g id="Group_220" data-name="Group 220" class="cls-8" transform="translate(18.962 4.576)">
      <g id="Group_219" data-name="Group 219" transform="translate(-53.904 -40.427)">
        <path id="Path_215" data-name="Path 215" class="cls-9" d="M0,52.128,49.385,0l50.808,48.134L50.808,100.262Z" transform="matrix(0.688, 0.726, -0.726, 0.688, 72.786, 0)"/>
      </g>
    </g>
    <g id="Group_222" data-name="Group 222" class="cls-10" transform="translate(6.168 51.634)">
      <g id="Group_221" data-name="Group 221" transform="translate(-41.111 -87.485)">
        <path id="Path_217" data-name="Path 217" class="cls-11" d="M0,52.128,49.385,0l50.808,48.134L50.808,100.262Z" transform="translate(72.786 0) rotate(46.548)"/>
      </g>
    </g>
    <g id="Group_224" data-name="Group 224" class="cls-12" transform="translate(33.632 59.809)">
      <g id="Group_223" data-name="Group 223" transform="translate(-68.575 -95.66)">
        <path id="Path_219" data-name="Path 219" class="cls-13" d="M0,52.128,49.385,0l50.808,48.134L50.808,100.262Z" transform="matrix(0.688, 0.726, -0.726, 0.688, 72.786, 0)"/>
      </g>
    </g>
    <g id="Group_226" data-name="Group 226" class="cls-14" transform="translate(33.65 55.684)">
      <g id="Group_225" data-name="Group 225" transform="translate(-68.593 -91.536)">
        <path id="Path_221" data-name="Path 221" class="cls-15" d="M0,52.128,49.385,0l50.808,48.134L50.808,100.262Z" transform="translate(72.786 0) rotate(46.548)"/>
      </g>
    </g>
    <g id="Group_228" data-name="Group 228" class="cls-16" transform="translate(33.635 51.24)">
      <g id="Group_227" data-name="Group 227" transform="translate(-68.578 -87.091)">
        <path id="Path_223" data-name="Path 223" class="cls-17" d="M0,52.128,49.385,0l50.808,48.134L50.808,100.262Z" transform="matrix(0.688, 0.726, -0.726, 0.688, 72.786, 0)"/>
      </g>
    </g>
    <g id="Group_230" data-name="Group 230" class="cls-18" transform="translate(49.852 22.397)">
      <g id="Group_229" data-name="Group 229" transform="translate(-84.795 -58.248)">
        <path id="Path_225" data-name="Path 225" class="cls-19" d="M0,52.128,49.385,0l50.808,48.134L50.808,100.262Z" transform="translate(72.786 0) rotate(46.548)"/>
      </g>
    </g>
    <g id="Group_232" data-name="Group 232" class="cls-20" transform="translate(60.219 24.3)">
      <g id="Group_231" data-name="Group 231" transform="translate(-95.162 -60.151)">
        <path id="Path_227" data-name="Path 227" class="cls-21" d="M0,52.128,49.385,0l50.808,48.134L50.808,100.262Z" transform="translate(72.786 0) rotate(46.548)"/>
      </g>
    </g>
    <g id="Group_234" data-name="Group 234" class="cls-22" transform="translate(60.182 27.4)">
      <g id="Group_233" data-name="Group 233" transform="translate(-95.125 -63.251)">
        <path id="Path_229" data-name="Path 229" class="cls-23" d="M0,52.128,49.385,0l50.808,48.134L50.808,100.262Z" transform="matrix(0.688, 0.726, -0.726, 0.688, 72.786, 0)"/>
      </g>
    </g>
    <g id="Group_236" data-name="Group 236" class="cls-24" transform="translate(22.33 7.988)">
      <g id="Group_235" data-name="Group 235" transform="translate(-57.273 -43.839)">
        <path id="Path_231" data-name="Path 231" class="cls-25" d="M0,52.128,49.385,0l50.808,48.134L50.808,100.262Z" transform="matrix(0.688, 0.726, -0.726, 0.688, 72.786, 0)"/>
      </g>
    </g>
    <g id="Group_238" data-name="Group 238" class="cls-26" transform="translate(9.767 55.236)">
      <g id="Group_237" data-name="Group 237" transform="translate(-44.71 -91.087)">
        <path id="Path_233" data-name="Path 233" class="cls-27" d="M0,52.128,49.385,0l50.808,48.134L50.808,100.262Z" transform="matrix(0.688, 0.726, -0.726, 0.688, 72.786, 0)"/>
      </g>
    </g>
    <g id="Group_240" data-name="Group 240" class="cls-28" transform="translate(53.387 25.535)">
      <g id="Group_239" data-name="Group 239" transform="translate(-88.33 -61.386)">
        <path id="Path_235" data-name="Path 235" class="cls-29" d="M0,52.128,49.385,0l50.808,48.134L50.808,100.262Z" transform="matrix(0.688, 0.726, -0.726, 0.688, 72.786, 0)"/>
      </g>
    </g>
  </g>
</svg>
