<svg xmlns="http://www.w3.org/2000/svg" viewBox="569 4351 48 48">
  <defs>
    <style>
      .cls-1 {
        fill: #fff;
        fill-rule: evenodd;
      }
    </style>
  </defs>
  <g id="Group_14" data-name="Group 14" transform="translate(569 4351)">
    <path id="Path_5" data-name="Path 5" class="cls-1" d="M24,0A24,24,0,1,0,48,24,24,24,0,0,0,24,0ZM36.539,21.409a12.783,12.783,0,0,1-.746,7.548,12.512,12.512,0,0,1-1.181,2.171A12.892,12.892,0,0,1,33.05,33.02a13.148,13.148,0,0,1-1.894,1.56,12.8,12.8,0,0,1-14.315,0,13.06,13.06,0,0,1-1.893-1.56,12.815,12.815,0,0,1-2.743-4.062,12.743,12.743,0,0,1-.747-2.4,12.92,12.92,0,0,1,0-5.146,12.745,12.745,0,0,1,1.928-4.574,12.864,12.864,0,0,1,5.63-4.631,12.68,12.68,0,0,1,2.405-.744,12.929,12.929,0,0,1,5.156,0,12.662,12.662,0,0,1,4.579,1.925,13.083,13.083,0,0,1,1.894,1.558,12.891,12.891,0,0,1,1.561,1.892,12.518,12.518,0,0,1,1.181,2.172A12.668,12.668,0,0,1,36.539,21.409Z"/>
    <path id="Path_6" data-name="Path 6" class="cls-1" d="M31.218,15.791v0A10.887,10.887,0,0,0,24,13.068a11.01,11.01,0,0,0-2.576.306l.018.024a56.088,56.088,0,0,1,4.069,6.344A11.946,11.946,0,0,0,31.218,15.791Zm1.223,1.258a14.091,14.091,0,0,1-6.089,4.318c.254.52.5,1.05.726,1.583.081.191.16.378.236.565a25.442,25.442,0,0,1,7.6.352l.013,0a10.85,10.85,0,0,0-2.486-6.822Zm-4.46,8.189a47.192,47.192,0,0,1,2.128,7.8,10.918,10.918,0,0,0,4.684-7.322A15.881,15.881,0,0,0,27.98,25.238Zm-2.048.506a45.39,45.39,0,0,1,2.335,8.288,10.937,10.937,0,0,1-10.986-1.445c.023-.049,2.129-4.574,8.579-6.819l.046-.015ZM24.3,22.08c.313.613.612,1.235.887,1.855-.144.041-.289.084-.431.131a17.218,17.218,0,0,0-8.887,7.21,10.86,10.86,0,0,1-2.8-7.294c0-.081,0-.16.005-.24,0-.036,0-.072,0-.108A39.945,39.945,0,0,0,24.3,22.08ZM23.394,20.4a65.733,65.733,0,0,0-4.059-6.29A10.932,10.932,0,0,0,13.3,21.732h.01A40.653,40.653,0,0,0,23.394,20.4Z"/>
  </g>
</svg>
