<svg xmlns="http://www.w3.org/2000/svg" xmlns:xlink="http://www.w3.org/1999/xlink" viewBox="702.461 -1243.121 62.981 62.743">
  <defs>
    <style>
      .cls-1 {
        fill: none;
      }

      .cls-2 {
        clip-path: url(#clip-path);
      }

      .cls-3 {
        fill: url(#linear-gradient);
      }

      .cls-4 {
        clip-path: url(#clip-path-2);
      }

      .cls-5 {
        fill: url(#linear-gradient-2);
      }

      .cls-6 {
        clip-path: url(#clip-path-3);
      }

      .cls-7 {
        fill: url(#linear-gradient-3);
      }

      .cls-8 {
        fill: url(#linear-gradient-4);
      }
    </style>
    <clipPath id="clip-path">
      <path id="Path_204" data-name="Path 204" class="cls-1" d="M2.072-64.217c-1.613,0-2.051.443-2.047,2.035h0c0,1.2-.073,2.4.029,3.59h0c.047.539.307,1.326.7,1.516h0c.873.417.818,1.057.818,1.766h0q0,13.1-.006,26.192h0c0,.623-.061,1.247-.092,1.84h0A1.764,1.764,0,0,0,.025-25.363h0c0,.631,0,1.26,0,1.892h0a1.7,1.7,0,0,0,1.918,1.892H6.52q6.032,0,12.065.009h0a4.258,4.258,0,0,1,1.019.253h0c-.2.213-.4.423-.6.638h0c-.041.045-.065.1-.1.154h0a39.594,39.594,0,0,1-3.361,4.448h0c-.8.812-.6,1.5-.594,2.476h0a5.365,5.365,0,0,0,2-.237h0c.514-.3.779-1.018,1.17-1.538h0q.85-1.129,1.729-2.236h0c.435-.545.913-1.057,1.338-1.61h0c.376-.491.659-1.062,1.071-1.517h0c.308-.339.749-.767,1.146-.783h0c2.045-.086,4.1-.07,6.144-.05h0c.671.006,1.089.285,1.039,1.105h0c-.072,1.163-.018,2.332-.018,3.5h0v3.243c1.736.246,1.816.185,1.82-1.314h0c0-1.829.028-3.657-.017-5.484h0c-.017-.75.333-1.049,1-1.051h0c2.048-.008,4.1.009,6.145.026h0a.787.787,0,0,1,.515.14h0A8.261,8.261,0,0,1,41.5-19.714h0a8.509,8.509,0,0,0,2.475,3.054h0a2.586,2.586,0,0,1,.774,1.112h0c.7,1.763,1.23,2.093,3.141,1.813h0c.575-1.388-.39-2.161-1.069-3.037h0a10.744,10.744,0,0,0-.7-.838h0c-.4-.423-1.022-.758-1.194-1.253h0a4.45,4.45,0,0,0-1.514-2h0a.813.813,0,0,1,.214-.664h0a3.12,3.12,0,0,1,1.027-.055h0c5.484,0,10.97-.039,16.453.038h0a1.745,1.745,0,0,0,1.7-1.205h0a9.382,9.382,0,0,0,.048-3.281h0a1.422,1.422,0,0,0-.809-1.015h0c-.869-.234-.817-.9-.818-1.465h0q-.031-13.521.014-27.044h0a1.81,1.81,0,0,1,.556-1.288h0a2.318,2.318,0,0,0,1.124-2.126h0c-.058-1.036-.015-2.08-.013-3.12h0c0-1.636-.48-2.128-2.121-2.128h0q-18.616,0-37.228,0H2.072m.264,3.877c0-.377,0-.754,0-1.314h0a19.47,19.47,0,0,1,1.995-.21h0q27.229-.015,54.458-.009h0a1.158,1.158,0,0,1,.376,0h0c.44.165,1.258.412,1.241.525h0c-.1.668.415,1.357-.366,2.061h0a2.181,2.181,0,0,1-1.71.558h0q-27.182.006-54.364.006h0a1.613,1.613,0,0,1-1.63-1.614m1.671,31.03q0-12.813,0-25.627h0c0-1.282.1-1.394,1.375-1.394h0q10.544,0,21.088.007h0c2.458,0,4.918,0,7.375.011h0a4.7,4.7,0,0,1,1.215.128h0c.1.027.2.565.141.6h0a20.589,20.589,0,0,0-3.939,3.715h0A13.705,13.705,0,0,0,29.244-49.9h0c-.34.56-.156,1.437-.207,2.178h0c1.29.464,1.692-.536,2.333-1h0a9.17,9.17,0,0,0,1.152-1.22h0c.429-.457.851-.922,1.3-1.354h0a.8.8,0,0,1,.541-.213h0c.11.007.3.244.3.375h0c-.02,1.576-.069,3.15-.111,4.725h0c-1.167.635-.27,2.194-1.365,2.972h0c-.407.29-.478,1.135-.8,1.718h0a5.572,5.572,0,0,1-1.595,2.083h0c-.4.281-.586.862-.908,1.276h0a2.611,2.611,0,0,1-.863.879h0c-1.048.44-1.558,1.611-2.805,1.844h0c-.679.127-1.255.806-1.878,1.236h0c-.076.053-.149.135-.232.147h0a5.85,5.85,0,0,0-1.727.7h0a16.482,16.482,0,0,1-3.467.951h0a3.837,3.837,0,0,1-.9.065h0a1.916,1.916,0,0,0-1.784.65h0c-.073.1-.3.084-.519.071h0c-.075,0-.149-.009-.214-.009h0c-1.7,0-3.4,0-4.95,0h0c-.383.366-.663.6-.9.875h0a.987.987,0,0,0-.172.467h0c.56.291.578,1.194,1.52,1.118h0c1.756-.141,3.527-.084,5.29-.163h0c.367-.017.716-.3,1.089-.386h0c.605-.143,1.226-.212,1.836-.337h0a3.07,3.07,0,0,1,.668-.034h0a1.364,1.364,0,0,0,1.446-.605h0c.077-.134.473-.083.721-.117h0c.561-.079,1.23.118,1.517-.649h0c.035-.092.345-.071.523-.121h0c.422-.12,1.083.185,1.135-.629h0c0-.049.211-.113.328-.125h0c1.36-.144,2.273-1.174,3.385-1.787h0c.746-.411,1.212-1.313,1.848-1.953h0c.6-.6,1.279-1.113,1.863-1.722h0c.445-.466.7-1.29,1.208-1.482h0c.979-.366.344-1.708,1.369-1.9h0c.023,0,.046-.047.055-.075h0c.292-.963.569-1.932.883-2.889h0c.117-.355.347-.674.478-1.026h0a3.534,3.534,0,0,0,.248-.982h0c.1-1.658.181-3.32.265-4.938h0c1.136-.592,1.468.527,2.04.929h0c.7.489,1.059,1.482,1.774,1.9h0a2.35,2.35,0,0,0,2-.148h0c.445-.261.058-.833-.326-1.308h0a13.944,13.944,0,0,0-2.406-2.423h0A16.639,16.639,0,0,1,38.467-54.4h0a15.2,15.2,0,0,0-1.3-1.049h0c-.143-.121-.329-.337-.305-.471h0c.03-.149.263-.307.439-.366h0a2.139,2.139,0,0,1,.657-.032h0q9.788-.009,19.574-.006h0a9.765,9.765,0,0,1,1.4.214h0V-29.25c0,1.316-.126,1.446-1.445,1.446h0l-19.383,0h0l-32.626,0h0c-1.394,0-1.478-.084-1.478-1.505m53.619,4.434a16.741,16.741,0,0,0,2-.264h0l.236,1.014h0a5.4,5.4,0,0,1-1.048.207h0q-27.374.014-54.748,0h0a5.768,5.768,0,0,1-1.057-.2h0c.087-.369.175-.737.24-1.013h0a11.06,11.06,0,0,0,1.581.255h0q17.164.019,34.326.009h7.73q5.368,0,10.737-.013" transform="translate(0 64.217)"/>
    </clipPath>
    <linearGradient id="linear-gradient" x1="0.031" y1="0.46" x2="0.961" y2="0.46" gradientUnits="objectBoundingBox">
      <stop offset="0" stop-color="#ffde81"/>
      <stop offset="0.1" stop-color="#ffd36f"/>
      <stop offset="0.2" stop-color="#ffc85e"/>
      <stop offset="0.3" stop-color="#ffbe4d"/>
      <stop offset="0.4" stop-color="#ffb43c"/>
      <stop offset="0.5" stop-color="#ffaa2d"/>
      <stop offset="0.6" stop-color="#ffa52f"/>
      <stop offset="0.7" stop-color="#fda131"/>
      <stop offset="0.8" stop-color="#f69c33"/>
      <stop offset="0.9" stop-color="#f09835"/>
      <stop offset="1" stop-color="#e99437"/>
    </linearGradient>
    <clipPath id="clip-path-2">
      <path id="Path_206" data-name="Path 206" class="cls-1" d="M51.967-37.056c-.454.013-.931-.062-1.26.551h0a2.534,2.534,0,0,1-1.321.906h0c-.511.192-.856.413-.953.968h0a.865.865,0,0,1-.238.5h0a3.885,3.885,0,0,0-1.22,2.5h0a17.407,17.407,0,0,0-.028,3.387h0a1.584,1.584,0,0,0,.207.686h0c.422.761.85,1.52,1.316,2.254h0a3.845,3.845,0,0,0,.694.731h0a4.4,4.4,0,0,0,.783.623h0c.723.4,1.209,1.227,2.229,1.112h0a12.655,12.655,0,0,1,1.979.078h0v-.08h0a9.542,9.542,0,0,0,2.071-.031h0a8.281,8.281,0,0,0,2.407-.938h0A7.891,7.891,0,0,0,60.172-25.3h0a4.5,4.5,0,0,0,.806-1.059h0a10.85,10.85,0,0,0,.69-1.889h0c.517-1.933-.148-3.727-.724-5.524h0c-.021-.068-.144-.1-.21-.161h0a16.786,16.786,0,0,1-1.92-1.8h0a3.031,3.031,0,0,0-2.424-1.344h0c-.617-.006-1.235-.01-1.852-.01h0c-.858,0-1.714.009-2.571.032m.286,11.713A3,3,0,0,1,50.8-26.28h0a12.645,12.645,0,0,1-1.27-1.535h0a.9.9,0,0,1-.206-.494h0a24,24,0,0,1,.035-3.393h0a3.311,3.311,0,0,1,.927-1.482h0a12.621,12.621,0,0,1,1.414-1.3h0a.845.845,0,0,1,.491-.2h0a29.368,29.368,0,0,1,4.141.045h0c.576.074,1.014.952,1.617,1.157h0c1.085.363.429,1.689,1.385,2.129h0c.419.192-.013,2.523-.306,2.955h0a5.39,5.39,0,0,0-.469,1.385h0c-.485.4-1.014.845-1.557,1.272h0c-.222.176-.471.436-.714.442h0c-.716.021-1.435.048-2.153.048h0a18.488,18.488,0,0,1-1.883-.084" transform="translate(-46.873 37.088)"/>
    </clipPath>
    <linearGradient id="linear-gradient-2" x1="0.031" y1="0.43" x2="0.961" y2="0.43" xlink:href="#linear-gradient"/>
    <clipPath id="clip-path-3">
      <path id="Path_208" data-name="Path 208" class="cls-1" d="M13.886-49.883c.132.791-.542,1.762.686,2.4h0c.469.243.719.888,1.111,1.311h0c.4.433.849.82,1.278,1.225h0c.5.477,1.011.953,1.659,1.561h0c-.013.253.145.891-.1,1.141h0c-1.125,1.163-2.369,2.209-3.55,3.318h0c-.369.346-.861.709-.972,1.147h0a7.564,7.564,0,0,0-.071,2.148h0c.023.527.417.586.694.256h0c.491-.586,1.3-.558,1.811-1.287h0a17.743,17.743,0,0,1,2.815-2.576h0c.323-.295.556-.687.858-1.007h0c.166-.177.416-.441.585-.411h0a2.04,2.04,0,0,1,.986.464h0c.667.612,1.268,1.3,1.914,1.937h0c.4.4.852.747,1.255,1.146h0c.623.62,1.211,1.277,1.848,1.879h0c.084.08.4-.023.569-.117h0a.868.868,0,0,0,.426-.435h0c.129-.519.444-1.242.221-1.55h0a17.53,17.53,0,0,0-2.3-2.409h0c-.944-.887-1.942-1.717-2.9-2.595h0a.533.533,0,0,1-.051-.512h0a5.709,5.709,0,0,1,.739-.9h0q1.176-1.2,2.377-2.384h0a11.158,11.158,0,0,1,.973-.845h0c.767-.589,1.57-1.144,1.291-2.316h0a7.573,7.573,0,0,1-.08-.759h0a6.494,6.494,0,0,1-.654.014h0a2.059,2.059,0,0,0-1.156.184h0A19.544,19.544,0,0,0,23.491-47.5h0c-.87.878-1.646,1.85-2.51,2.736h0a.776.776,0,0,1-.744-.09h0c-.626-.659-1.159-1.405-1.781-2.067h0a17.7,17.7,0,0,0-2.21-2.107h0c-.5-.372-.925-1.057-1.645-1.057h0a1.526,1.526,0,0,0-.715.2" transform="translate(-13.818 50.084)"/>
    </clipPath>
    <linearGradient id="linear-gradient-3" x1="0.031" y1="0.539" x2="0.961" y2="0.539" xlink:href="#linear-gradient"/>
    <linearGradient id="linear-gradient-4" x1="-0.015" x2="1" y2="1" gradientUnits="objectBoundingBox">
      <stop offset="0" stop-color="#ffde81"/>
      <stop offset="1" stop-color="#fea42f"/>
    </linearGradient>
  </defs>
  <g id="Group_13331" data-name="Group 13331" transform="translate(886 46)">
    <g id="Group_212" data-name="Group 212" transform="translate(-183.539 -1283.192)">
      <g id="Group_207" data-name="Group 207" class="cls-2" transform="translate(0 0)">
        <g id="Group_206" data-name="Group 206" transform="translate(-24.683 -30.712)">
          <path id="Path_203" data-name="Path 203" class="cls-3" d="M0,39.3,49.213,0,80.8,39.551l-49.213,39.3Z" transform="matrix(0.781, 0.624, -0.624, 0.781, 49.21, 0)"/>
        </g>
      </g>
      <g id="Group_209" data-name="Group 209" class="cls-4" transform="translate(36.946 21.383)">
        <g id="Group_208" data-name="Group 208" transform="translate(-61.628 -52.095)">
          <path id="Path_205" data-name="Path 205" class="cls-5" d="M0,39.3,49.213,0,80.8,39.551l-49.213,39.3Z" transform="matrix(0.781, 0.624, -0.624, 0.781, 49.21, 0)"/>
        </g>
      </g>
      <g id="Group_211" data-name="Group 211" class="cls-6" transform="translate(10.891 11.14)">
        <g id="Group_210" data-name="Group 210" transform="translate(-35.574 -41.852)">
          <path id="Path_207" data-name="Path 207" class="cls-7" d="M0,39.3,49.213,0,80.8,39.551l-49.213,39.3Z" transform="matrix(0.781, 0.624, -0.624, 0.781, 49.21, 0)"/>
        </g>
      </g>
    </g>
    <rect id="Rectangle_551" data-name="Rectangle 551" class="cls-8" width="62.271" height="2.359" rx="1.179" transform="translate(-183.138 -1289.121)"/>
    <rect id="Rectangle_552" data-name="Rectangle 552" class="cls-8" width="62.271" height="2.359" rx="1.179" transform="translate(-183.138 -1228.737)"/>
  </g>
</svg>
