<svg xmlns="http://www.w3.org/2000/svg" xmlns:xlink="http://www.w3.org/1999/xlink" viewBox="-1027 5702 48 48.016">
  <defs>
    <style>
      .cls-1 {
        fill: none;
      }

      .cls-2 {
        clip-path: url(#clip-path);
      }

      .cls-3 {
        fill: #fff;
      }
    </style>
    <clipPath id="clip-path">
      <path id="Path_12271" data-name="Path 12271" class="cls-1" d="M0-512.077H48v48.016H0Z" transform="translate(0 512.077)"/>
    </clipPath>
  </defs>
  <g id="Group_13334" data-name="Group 13334" transform="translate(-1027 5702)">
    <g id="Group_13333" data-name="Group 13333" class="cls-2">
      <g id="Group_13332" data-name="Group 13332" transform="translate(0 0)">
        <path id="Path_12270" data-name="Path 12270" class="cls-3" d="M-196.718-175.383l-.094.036c-.006.06-.017.12-.017.181,0,2.889,0,5.778-.008,8.667a.479.479,0,0,0,.328.489q3.791,1.885,7.577,3.783c.09.045.19.071.4.149l-8.188-13.305m8.9,13.692c.182.1.3.169.427.231q3.474,1.738,6.95,3.474c.756.377,1.026.21,1.026-.645q0-8.061,0-16.123c0-.128-.02-.257-.042-.523l-8.36,13.585m-.251-1.112c.094-.132.142-.192.182-.257q4.113-6.681,8.231-13.359c.209-.339.105-.479-.212-.636q-4.068-2.018-8.122-4.065a.552.552,0,0,0-.868.248q-2.447,4.021-4.935,8.017a.633.633,0,0,0,.016.789c1.241,1.986,2.461,3.985,3.688,5.98l2.021,3.284m-9.529-4.64c0-2.953-.006-5.906.008-8.859a.718.718,0,0,0-.461-.757c-2.631-1.3-5.252-2.616-7.876-3.927-.661-.33-.81-.235-.81.526q0,8.765-.007,17.53a1.284,1.284,0,0,0,.792,1.295c2.437,1.2,4.86,2.421,7.288,3.635a2.222,2.222,0,0,0,.382.176c.345.1.59-.014.655-.389a3.029,3.029,0,0,0,.028-.513q0-4.359,0-8.718m3.211-26.088h2.625c.151.03.3.067.454.088,1.02.138,2.052.214,3.058.417a24.017,24.017,0,0,1,18.578,28.787,23.9,23.9,0,0,1-30.985,17.427c-9.111-3.142-14.463-9.714-16.139-19.23-.127-.719-.188-1.45-.28-2.175v-2.625a3.708,3.708,0,0,0,.086-.454,21.655,21.655,0,0,1,1.728-7.338c3.615-8.205,9.841-13.107,18.7-14.617.719-.123,1.449-.187,2.173-.279" transform="translate(217.072 193.53)"/>
      </g>
    </g>
  </g>
</svg>
