<svg xmlns="http://www.w3.org/2000/svg" viewBox="-1273 5702 48 48">
  <defs>
    <style>
      .cls-1 {
        fill: #fff;
      }
    </style>
  </defs>
  <g id="facebook" transform="translate(-1273 5702)">
    <path id="Subtraction_1" data-name="Subtraction 1" class="cls-1" d="M1297-5654a23.853,23.853,0,0,1-9.342-1.886,23.912,23.912,0,0,1-7.629-5.144,23.919,23.919,0,0,1-5.144-7.629A23.852,23.852,0,0,1,1273-5678a23.848,23.848,0,0,1,1.886-9.342,23.912,23.912,0,0,1,5.144-7.628,23.924,23.924,0,0,1,7.629-5.144A23.856,23.856,0,0,1,1297-5702a23.854,23.854,0,0,1,9.342,1.886,23.922,23.922,0,0,1,7.629,5.144,23.912,23.912,0,0,1,5.144,7.628A23.847,23.847,0,0,1,1321-5678a23.853,23.853,0,0,1-1.886,9.342,23.919,23.919,0,0,1-5.144,7.629,23.911,23.911,0,0,1-7.629,5.144A23.852,23.852,0,0,1,1297-5654Zm-4.738-23.061v15.689h6.488v-15.689h4.283l.567-5.508h-4.848v-3.246a1.478,1.478,0,0,1,.474-1.208,1.441,1.441,0,0,1,.9-.294h3.487v-5.352l-4.805-.02a6.14,6.14,0,0,0-5.274,2.316,7.279,7.279,0,0,0-1.273,4.23v3.567h-3.085v5.514Z" transform="translate(-1273 5702)"/>
  </g>
</svg>
