<svg id="marketing" xmlns="http://www.w3.org/2000/svg" xmlns:xlink="http://www.w3.org/1999/xlink" width="440.987" height="383.484" viewBox="0 0 440.987 383.484">
  <defs>
    <clipPath id="clip-path">
      <path id="Path_66" data-name="Path 66" d="M35.5,350.448a4.811,4.811,0,0,1-1.774-.441,42.523,42.523,0,0,1-19.976-17.339c-4.147-6.961-7.768-16.2-7.766-24.5,0-.888.043-1.766.13-2.629a44.182,44.182,0,0,1,22.649,15.932,44.173,44.173,0,0,1,8.574,26.053c0,.093,0,.184,0,.276a6.778,6.778,0,0,1-.051.862,2.121,2.121,0,0,1-.678,1.427,1.7,1.7,0,0,1-1.107.359" fill="#ffc032"/>
    </clipPath>
    <clipPath id="clip-path-2">
      <path id="Path_104" data-name="Path 104" d="M208.816,381.669a5.861,5.861,0,0,1,2.023-3.459,5.712,5.712,0,0,1,3.621-1.337c.094,0,.187,0,.281.007l.131,4.707-.014-.135-6.042.217" fill="none"/>
    </clipPath>
  </defs>
  <path id="Path_1" data-name="Path 1" d="M215.792,300.442l-19.609,82.634h-4.061L209.915,300.1l5.877.339" fill="#0b2b34"/>
  <path id="Path_2" data-name="Path 2" d="M203.556,94.534V37.561h45.131V94.534Z" fill="#475456"/>
  <path id="Path_3" data-name="Path 3" d="M223.276,93.257v1.52h6.259v-1.52Z" fill="#2f383a"/>
  <path id="Path_4" data-name="Path 4" d="M227.566,57.176l-8.313,1.216-3.1,7.808,5.209,6.591,8.314-1.216,3.1-7.808-5.209-6.591Z" fill="#556163"/>
  <path id="Path_5" data-name="Path 5" d="M231.452,62.223l-8.314,1.217-3.1,7.807,5.209,6.592,8.313-1.217,3.1-7.807-5.21-6.592Z" fill="#2f383a"/>
  <path id="Path_6" data-name="Path 6" d="M224.159,36.787v1.3h6.261v-1.3Z" fill="#2f383a"/>
  <path id="Path_7" data-name="Path 7" d="M305.786,60.637H275.132v65.62h30.654V60.637Z" fill="#2f383a"/>
  <path id="Path_8" data-name="Path 8" d="M307.06,194.245h37.669v-63.4H307.06v63.4Z" fill="#2f383a"/>
  <path id="Path_9" data-name="Path 9" d="M349.313,59.5h35.769V1.291h1.272V59.5h33.1V0H349.313V59.5Z" fill="#2f383a"/>
  <rect id="Rectangle_1" data-name="Rectangle 1" width="440.986" height="383.336" transform="translate(0.001)" fill="none"/>
  <path id="Path_10" data-name="Path 10" d="M305.786,194.245v-63.4H275.132v63.4Z" fill="#2f383a"/>
  <path id="Path_11" data-name="Path 11" d="M386.353,194.245h33.1v-63.4h-33.1v63.4Z" fill="#2f383a"/>
  <path id="Path_12" data-name="Path 12" d="M344.728,60.637H307.06v65.62h37.669V60.637Z" fill="#2f383a"/>
  <path id="Path_13" data-name="Path 13" d="M386.353,60.637v65.62h33.1V60.637Z" fill="#2f383a"/>
  <path id="Path_14" data-name="Path 14" d="M305.786,195.379H275.132v57.134h30.654V195.379Z" fill="#2f383a"/>
  <path id="Path_15" data-name="Path 15" d="M305.786,59.5V1.291h1.273V59.5h37.669V0h-69.6V59.5Z" fill="#2f383a"/>
  <rect id="Rectangle_2" data-name="Rectangle 2" width="440.986" height="383.336" transform="translate(0.001)" fill="none"/>
  <path id="Path_16" data-name="Path 16" d="M307.06,252.513h37.669V195.379H307.06v57.134Z" fill="#2f383a"/>
  <path id="Path_17" data-name="Path 17" d="M386.353,195.379v57.134h33.1V195.379Z" fill="#2f383a"/>
  <path id="Path_18" data-name="Path 18" d="M385.081,60.637H349.313v65.62h35.769V60.637Z" fill="#2f383a"/>
  <path id="Path_19" data-name="Path 19" d="M385.081,252.513V195.379H349.313v57.134Z" fill="#2f383a"/>
  <path id="Path_20" data-name="Path 20" d="M349.313,194.245h35.769v-63.4H349.313v63.4Z" fill="#2f383a"/>
  <path id="Path_21" data-name="Path 21" d="M68.631,60.637H37.976v65.62H68.631V60.637Z" fill="#2f383a"/>
  <path id="Path_22" data-name="Path 22" d="M69.9,194.245h37.669v-63.4H69.9v63.4Z" fill="#2f383a"/>
  <path id="Path_23" data-name="Path 23" d="M112.157,59.5h35.768V1.291H149.2V59.5H182.3V0H112.157V59.5Z" fill="#2f383a"/>
  <path id="Path_24" data-name="Path 24" d="M68.631,194.245v-63.4H37.976v63.4Z" fill="#2f383a"/>
  <path id="Path_25" data-name="Path 25" d="M149.2,194.245H182.3v-63.4H149.2v63.4Z" fill="#2f383a"/>
  <path id="Path_26" data-name="Path 26" d="M107.573,60.637H69.9v65.62h37.669V60.637Z" fill="#2f383a"/>
  <path id="Path_27" data-name="Path 27" d="M149.2,60.637v65.62H182.3V60.637Z" fill="#2f383a"/>
  <path id="Path_28" data-name="Path 28" d="M68.631,195.379H37.976v57.134H68.631V195.379Z" fill="#2f383a"/>
  <path id="Path_29" data-name="Path 29" d="M68.631,59.5V1.291H69.9V59.5h37.669V0h-69.6V59.5Z" fill="#2f383a"/>
  <path id="Path_30" data-name="Path 30" d="M69.9,252.513h37.669V195.379H69.9v57.134Z" fill="#2f383a"/>
  <path id="Path_31" data-name="Path 31" d="M149.2,195.379v57.134H182.3V195.379Z" fill="#2f383a"/>
  <path id="Path_32" data-name="Path 32" d="M147.925,60.637H112.157v65.62h35.768V60.637Z" fill="#2f383a"/>
  <path id="Path_33" data-name="Path 33" d="M147.925,252.513V195.379H112.157v57.134Z" fill="#2f383a"/>
  <path id="Path_34" data-name="Path 34" d="M112.157,194.245h35.768v-63.4H112.157v63.4Z" fill="#2f383a"/>
  <path id="Path_35" data-name="Path 35" d="M347.447,353.682v29.39h90.38v-29.39Z" fill="#345863"/>
  <path id="Path_36" data-name="Path 36" d="M197.983,378.639l-.158-8.992,16.841-.4.372,13.153-1.042.092c-4.642.37-23.624,1.553-26.753.687-3.49-.969,10.74-4.535,10.74-4.535" fill="#ffc032"/>
  <path id="Path_37" data-name="Path 37" d="M343.655,345.465v8.217h97.332v-8.217H343.655Z" fill="#2f383a"/>
  <path id="Path_38" data-name="Path 38" d="M392.321,383.071h45.506v-29.39h3.16v-8.217H390.426v7.456l1.9,30.15Z" fill="#2f383a"/>
  <path id="Path_39" data-name="Path 39" d="M360.089,358.421v4.424h18.327v-4.424Z" fill="#4c6d75"/>
  <path id="Path_40" data-name="Path 40" d="M381.264,377.718H357.728v-9.343h23.535v9.343Z" fill="#4c6d75"/>
  <path id="Path_41" data-name="Path 41" d="M369.774,313.017l-.131-11.049,38.713,3.319,1.208,10.928-39.79-3.2Z" fill="#4c6d75"/>
  <path id="Path_42" data-name="Path 42" d="M378.112,306.968l-.17,1.986,24.215,2.077.172-1.987-24.217-2.076Z" fill="#345863"/>
  <path id="Path_43" data-name="Path 43" d="M365.159,302.526l-.015-11.05L403.82,295.2l.985,9.874-39.647-2.552Z" fill="#345863"/>
  <path id="Path_44" data-name="Path 44" d="M365.146,292.98l-.018,7.455,37.689,2.78-.63-6.88-37.041-3.355Z" fill="#4c6d75"/>
  <path id="Path_45" data-name="Path 45" d="M399.953,299.2a7.039,7.039,0,0,1-1.367-.037l-3.7-.292c-3.128-.268-7.443-.674-12.2-1.156s-9.075-.946-12.193-1.308l-3.688-.456a7.089,7.089,0,0,1-1.349-.238,6.841,6.841,0,0,1,1.364.036l3.7.291c3.126.269,7.444.675,12.209,1.157s9.076.946,12.192,1.308l3.689.456a6.7,6.7,0,0,1,1.346.239Z" fill="#345863"/>
  <path id="Path_46" data-name="Path 46" d="M399.874,300.136a7.073,7.073,0,0,1-1.377.006l-3.739-.178c-3.157-.172-7.516-.446-12.326-.78s-9.167-.667-12.316-.934l-3.727-.341a7,7,0,0,1-1.362-.2,7,7,0,0,1,1.378-.006l3.74.177c3.158.173,7.515.446,12.328.781s9.163.667,12.312.933l3.728.343a6.92,6.92,0,0,1,1.361.2Z" fill="#345863"/>
  <path id="Path_47" data-name="Path 47" d="M370.22,323.2l-.143-11.049,38.716,3.282,1.1,9.861L370.22,323.2Z" fill="#2f383a"/>
  <path id="Path_48" data-name="Path 48" d="M374.485,323.432a29.079,29.079,0,0,1-.472-5.441,28.691,28.691,0,0,1,.047-5.463,57.228,57.228,0,0,1,.425,10.9Z" fill="#345863"/>
  <path id="Path_49" data-name="Path 49" d="M375.941,312.65a57.051,57.051,0,0,1,.237,10.869,28.464,28.464,0,0,1-.378-5.429,28.763,28.763,0,0,1,.141-5.44Z" fill="#345863"/>
  <path id="Path_50" data-name="Path 50" d="M379.466,317.515c6.747.745,14.682,1.171,21.544,1.782" fill="#fff"/>
  <path id="Path_51" data-name="Path 51" d="M401.01,319.3a20.055,20.055,0,0,1-3.17-.08c-1.953-.109-4.651-.277-7.627-.5s-5.671-.471-7.615-.7a17.459,17.459,0,0,1-3.132-.5,21.114,21.114,0,0,1,3.167.135l7.619.55c2.975.221,5.67.446,7.616.65a18.367,18.367,0,0,1,3.142.447Z" fill="#345863"/>
  <path id="Path_52" data-name="Path 52" d="M403.838,324.978a47.131,47.131,0,0,1-.485-9.891,23.671,23.671,0,0,1,.5,4.933,24.012,24.012,0,0,1-.017,4.958Z" fill="#345863"/>
  <path id="Path_53" data-name="Path 53" d="M406.222,325.1a47.9,47.9,0,0,1-.976-9.9,47.706,47.706,0,0,1,.976,9.9Z" fill="#345863"/>
  <path id="Path_54" data-name="Path 54" d="M385.211,319.989c4.266.292,7.516.5,10.916.583" fill="#fff"/>
  <path id="Path_55" data-name="Path 55" d="M396.127,320.572a57.619,57.619,0,0,1-10.916-.583,57.421,57.421,0,0,1,10.916.583Z" fill="#345863"/>
  <path id="Path_56" data-name="Path 56" d="M372.816,344.778l-.727-11.026,38.836,1.228,1.619,9.789-39.729.009Z" fill="#2f383a"/>
  <path id="Path_57" data-name="Path 57" d="M374.353,343.394l37.791-.541-1.05-6.862-37.453-.693.712,8.1Z" fill="#4c6d75"/>
  <path id="Path_58" data-name="Path 58" d="M373.874,333.97l-.357-11.043,38.772,2.529,1.29,9.839-39.705-1.325Z" fill="#345863"/>
  <path id="Path_59" data-name="Path 59" d="M382.088,327.753l-.131,1.99,24.252,1.583.131-1.99-24.252-1.583Z" fill="#2f383a"/>
  <path id="Path_60" data-name="Path 60" d="M411.48,338.814a8.15,8.15,0,0,1-1.483.107l-4.044.1c-3.414.06-8.129.107-13.337.128s-9.926.01-13.341-.025l-4.044-.066a8.176,8.176,0,0,1-1.484-.1,8.1,8.1,0,0,1,1.48-.107l4.043-.1c3.415-.06,8.131-.107,13.344-.128s9.928-.009,13.342.025l4.043.066a8.1,8.1,0,0,1,1.481.1Z" fill="#2f383a"/>
  <path id="Path_61" data-name="Path 61" d="M411.926,340.955a8.179,8.179,0,0,1-1.5.082l-4.074.026c-3.438,0-8.186-.037-13.43-.109s-10-.167-13.433-.261l-4.069-.14a8.279,8.279,0,0,1-1.494-.121,8.193,8.193,0,0,1,1.494-.081l4.07-.026c3.439,0,8.19.036,13.438.108s10,.167,13.433.262l4.07.138a8.289,8.289,0,0,1,1.491.122Z" fill="#2f383a"/>
  <path id="Path_62" data-name="Path 62" d="M430.345,383.076c0,.144-96.344.26-215.162.26C96.323,383.336,0,383.22,0,383.076s96.323-.261,215.183-.261c118.818,0,215.162.117,215.162.261" fill="#0b2b34"/>
  <path id="Path_63" data-name="Path 63" d="M33.14,258.908c-5.292.851-7.659,7.354-7.2,12.694s2.658,10.561,2.071,15.888c-.746,6.765-5.858,12.484-6.454,19.264-.7,8,4.952,15.089,6.64,22.937.821,3.818.706,7.856,2.128,11.493a14.834,14.834,0,0,0,15.91,8.915,14.833,14.833,0,0,0,11.84-13.871c.117-6.141-3.672-11.924-3.211-18.047.34-4.527,2.992-8.816,2.425-13.319-.676-5.359-5.641-9.163-7.394-14.273s-.068-10.741-.673-16.11c-1.085-9.63-6.425-16.344-16.086-15.571" fill="#ffde81"/>
  <path id="Path_64" data-name="Path 64" d="M6.117,305.539c-.9,8.924,3.046,19.423,7.636,27.129a42.523,42.523,0,0,0,19.976,17.339c.934.391,2.1.719,2.881.082a2.878,2.878,0,0,0,.729-2.289,44.178,44.178,0,0,0-8.573-26.329A44.182,44.182,0,0,0,6.117,305.539" fill="#f15b66"/>
  <g id="Group_2" data-name="Group 2">
    <path id="Path_65" data-name="Path 65" d="M35.5,350.448a4.811,4.811,0,0,1-1.774-.441,42.523,42.523,0,0,1-19.976-17.339c-4.147-6.961-7.768-16.2-7.766-24.5,0-.888.043-1.766.13-2.629a44.182,44.182,0,0,1,22.649,15.932,44.173,44.173,0,0,1,8.574,26.053c0,.093,0,.184,0,.276a6.778,6.778,0,0,1-.051.862,2.121,2.121,0,0,1-.678,1.427,1.7,1.7,0,0,1-1.107.359" fill="#ffc032"/>
    <g id="Group_1" data-name="Group 1" clip-path="url(#clip-path)">
      <rect id="Rectangle_3" data-name="Rectangle 3" width="31.357" height="44.909" transform="translate(5.985 305.539)" fill="#ffc032"/>
    </g>
  </g>
  <path id="Path_67" data-name="Path 67" d="M44.99,368.666a2.391,2.391,0,0,1-.254-.5c-.169-.384-.379-.868-.636-1.462-.537-1.274-1.338-3.108-2.359-5.36a190.624,190.624,0,0,0-8.861-17.153,190.584,190.584,0,0,0-10.6-16.14c-1.46-1.995-2.665-3.594-3.513-4.686-.389-.516-.708-.936-.961-1.272a2.313,2.313,0,0,1-.308-.466,2.316,2.316,0,0,1,.388.4l1.035,1.214c.9,1.056,2.146,2.624,3.646,4.6a162.911,162.911,0,0,1,10.749,16.1,162.975,162.975,0,0,1,8.75,17.262c.982,2.275,1.734,4.133,2.214,5.434.223.607.4,1.1.549,1.5a2.238,2.238,0,0,1,.159.534Z" fill="#0b2b34"/>
  <path id="Path_68" data-name="Path 68" d="M39.245,283.6a5.209,5.209,0,0,1,.1.857q.065.908.177,2.457c.141,2.182.338,5.259.582,9.042.482,7.635,1.159,18.183,1.978,29.827s1.628,22.186,2.22,29.814c.289,3.778.523,6.854.691,9.034q.1,1.549.167,2.458a5.762,5.762,0,0,1,.025.861,5.3,5.3,0,0,1-.126-.851q-.1-.906-.263-2.45c-.2-2.179-.495-5.248-.852-9.022-.683-7.622-1.547-18.158-2.368-29.808s-1.439-22.2-1.83-29.843c-.177-3.786-.319-6.867-.421-9.052q-.053-1.553-.084-2.463a5.552,5.552,0,0,1,.006-.861Z" fill="#0b2b34"/>
  <path id="Path_69" data-name="Path 69" d="M31.037,355.941H53.386v16.407a10.729,10.729,0,0,1-21.442.572l-.907-16.979Z" fill="#345863"/>
  <path id="Path_70" data-name="Path 70" d="M320.477,226.741c-1.006.755-2.811.638-3.986.426a20.763,20.763,0,0,0,1.148-5.122,4.5,4.5,0,0,1,2.955.684,2.315,2.315,0,0,1,.719,1.886,2.471,2.471,0,0,1-.836,2.126Zm1.617-5.787a6.451,6.451,0,0,0-4.325-1.246c0-.833-.032-1.346-.032-1.346H294.149s-.741,15.573,11.185,16.124c5.338.246,8.392-2.146,10.14-5.156a11.9,11.9,0,0,0,2.675.326,6.185,6.185,0,0,0,3.716-1.051,4.679,4.679,0,0,0,1.773-3.99,4.561,4.561,0,0,0-1.544-3.661Z" fill="#ffc032"/>
  <path id="Path_71" data-name="Path 71" d="M310.847,216.941a1.249,1.249,0,0,0,.191-.592,1.834,1.834,0,0,0-.974-1.419,5.977,5.977,0,0,0-1.251-.429,3.856,3.856,0,0,1-1.509-.675,2.262,2.262,0,0,1-.777-1.756,3.983,3.983,0,0,1,.6-2.058c.808-1.311,2.269-2.14,3.293-3.435a5.739,5.739,0,0,0,.851-4.99,5.545,5.545,0,0,0-1.387-2.424,9.449,9.449,0,0,0-2.524-1.6,7.277,7.277,0,0,1-2.667-1.908,3.913,3.913,0,0,1-.7-1.586,2.646,2.646,0,0,1,.224-1.783,2.148,2.148,0,0,1,.651-.7l.268.446a5.038,5.038,0,0,0-2.27,5.179,4.391,4.391,0,0,0,1.293,2.482,10.279,10.279,0,0,1,2.046,2.1,2.728,2.728,0,0,1,.348,1.459,3.364,3.364,0,0,1-.408,1.38,5.645,5.645,0,0,1-1.817,1.945c-1.449.917-2.944,1.378-4.046,2.218a4.237,4.237,0,0,0-1.769,3.092,5.1,5.1,0,0,0,.464,2.731,5.249,5.249,0,0,0,1.532,1.834c0,.008-.054-.015-.147-.069a2.776,2.776,0,0,1-.4-.262,4.262,4.262,0,0,1-1.166-1.414,5.234,5.234,0,0,1-.574-2.846,4.508,4.508,0,0,1,1.836-3.355c1.152-.9,2.673-1.4,4.027-2.282a5.247,5.247,0,0,0,1.655-1.8,2.42,2.42,0,0,0,.047-2.394,10.242,10.242,0,0,0-1.975-1.983,4.878,4.878,0,0,1-1.45-2.75,5.532,5.532,0,0,1,2.519-5.722l.267.446a1.6,1.6,0,0,0-.48.514,2.8,2.8,0,0,0,.435,2.808,6.853,6.853,0,0,0,2.481,1.759,9.859,9.859,0,0,1,2.642,1.7,6.011,6.011,0,0,1,1.5,2.648,6.165,6.165,0,0,1-.972,5.383c-1.124,1.372-2.573,2.169-3.321,3.363-.745,1.155-.814,2.689.052,3.4.853.688,1.956.69,2.676,1.151a1.91,1.91,0,0,1,.975,1.6.924.924,0,0,1-.172.473l-.124.116Z" fill="#fff"/>
  <path id="Path_72" data-name="Path 72" d="M163.74,127.554H48.667a3.231,3.231,0,0,1-3.231-3.231V96.709a3.231,3.231,0,0,1,3.231-3.23H163.74a3.23,3.23,0,0,1,3.23,3.23v27.614a3.23,3.23,0,0,1-3.23,3.231Z" fill="#345863"/>
  <path id="Path_73" data-name="Path 73" d="M71.055,116.2a7.406,7.406,0,1,1-1.146-10.41,7.407,7.407,0,0,1,1.146,10.41Z" fill="#2f383a"/>
  <path id="Path_74" data-name="Path 74" d="M69.439,109.053a32.9,32.9,0,0,1-4,4.265l-.978.944-.182.175-.174-.177a22.97,22.97,0,0,1-2.99-3.349,22.8,22.8,0,0,1,3.348,2.99l-.356,0q.471-.462.969-.954a32.984,32.984,0,0,1,4.364-3.892Z" fill="#e99437"/>
  <path id="Path_75" data-name="Path 75" d="M155.108,108.02c0,.143-15.449.26-34.5.26s-34.505-.117-34.505-.26,15.445-.261,34.505-.261,34.5.117,34.5.261Z" fill="#6a8c93"/>
  <path id="Path_76" data-name="Path 76" d="M126.8,114.759c0,.144-8.93.26-19.946.26s-19.949-.116-19.949-.26,8.93-.261,19.949-.261,19.946.117,19.946.261Z" fill="#6a8c93"/>
  <path id="Path_77" data-name="Path 77" d="M163.74,166.53H48.667a3.231,3.231,0,0,1-3.231-3.23V135.685a3.231,3.231,0,0,1,3.231-3.23H163.74a3.23,3.23,0,0,1,3.23,3.23V163.3a3.23,3.23,0,0,1-3.23,3.23Z" fill="#345863"/>
  <path id="Path_78" data-name="Path 78" d="M71.055,155.176a7.406,7.406,0,1,1-1.146-10.41,7.407,7.407,0,0,1,1.146,10.41Z" fill="#2f383a"/>
  <path id="Path_79" data-name="Path 79" d="M69.439,148.029a32.9,32.9,0,0,1-4,4.265l-.978.944-.182.175-.174-.177a22.909,22.909,0,0,1-2.99-3.349,22.876,22.876,0,0,1,3.348,2.99l-.356,0q.471-.462.969-.954a32.983,32.983,0,0,1,4.364-3.892Z" fill="#e99437"/>
  <path id="Path_80" data-name="Path 80" d="M155.108,147c0,.144-15.449.26-34.5.26S86.1,147.14,86.1,147s15.445-.261,34.505-.261,34.5.117,34.5.261Z" fill="#6a8c93"/>
  <path id="Path_81" data-name="Path 81" d="M126.8,153.735c0,.144-8.93.261-19.946.261s-19.949-.117-19.949-.261,8.93-.26,19.949-.26,19.946.116,19.946.26Z" fill="#6a8c93"/>
  <path id="Path_82" data-name="Path 82" d="M163.74,205.506H48.667a3.231,3.231,0,0,1-3.231-3.23V174.662a3.231,3.231,0,0,1,3.231-3.231H163.74a3.23,3.23,0,0,1,3.23,3.231v27.614a3.23,3.23,0,0,1-3.23,3.23Z" fill="#345863"/>
  <path id="Path_83" data-name="Path 83" d="M71.055,194.152a7.406,7.406,0,1,1-1.146-10.41,7.407,7.407,0,0,1,1.146,10.41Z" fill="#2f383a"/>
  <path id="Path_84" data-name="Path 84" d="M69.439,187.005a32.9,32.9,0,0,1-4,4.265l-.978.944-.182.176-.174-.178a22.911,22.911,0,0,1-2.99-3.349,22.849,22.849,0,0,1,3.348,2.991l-.356,0q.471-.462.969-.954a33.071,33.071,0,0,1,4.364-3.892Z" fill="#e99437"/>
  <path id="Path_85" data-name="Path 85" d="M155.108,185.972c0,.144-15.449.26-34.5.26s-34.505-.116-34.505-.26,15.445-.26,34.505-.26,34.5.116,34.5.26Z" fill="#6a8c93"/>
  <path id="Path_86" data-name="Path 86" d="M126.8,192.711c0,.144-8.93.26-19.946.26s-19.949-.116-19.949-.26,8.93-.26,19.949-.26,19.946.116,19.946.26Z" fill="#6a8c93"/>
  <path id="Path_87" data-name="Path 87" d="M235.846,300.442l-1.911,82.634h-3.646l.232-82.426,5.325-.208Z" fill="#345863"/>
  <path id="Path_88" data-name="Path 88" d="M249.01,299.526l17.72,83.55h4.06l-14.751-83.55Z" fill="#345863"/>
  <path id="Path_89" data-name="Path 89" d="M272.019,209.6s22.466-1.283,20.22,24.714-3.531,52.312-11.875,61.3-92.432,9.306-99.494,1.924,13.481-7.059,17.332-7.059,27.6,2.246,35.305-17.974,5.776-64.188,38.512-62.9" fill="#0b2b34"/>
  <path id="Path_90" data-name="Path 90" d="M273.461,209.614s17.175,3.517,15.567,21.49-6.1,49.425-14.44,57.448-41.043,9.773-58.735,8.666c-20.54-1.284-33.5-5.195-33.5-5.195s-3.748,2.411-2.613,3.964,11.151,7.8,59.7,6.757,45.173-8.2,47.188-16.029,6.244-49.542,5.657-58.714-5.206-16.778-18.819-18.387Z" fill="#345863"/>
  <path id="Path_91" data-name="Path 91" d="M225.22,133.389a13.045,13.045,0,0,1,15.025,4.977c2.171,3.351,2.672,7.581,4.89,10.9,1.569,2.353,3.89,4.085,5.805,6.166s3.493,4.826,3.009,7.613c-.454,2.619-2.668,4.931-2.222,7.552.416,2.455,3.036,4.055,3.542,6.492.6,2.871-2.17,5.555-5.067,6s-5.782-.67-8.508-1.752-5.633-2.166-8.516-1.643c-3.359.608-5.921,3.237-8.859,4.974a18.316,18.316,0,0,1-19.954-1.189c-2.208-1.689-4.128-4.316-3.6-7.044.5-2.542,2.95-4.3,3.664-6.79,1.061-3.7-2.017-7.484-1.552-11.307.625-5.145,6.965-7.495,9.279-12.134,1.109-2.225,1.206-4.832,2.186-7.119s3.52-4.328,5.809-3.354" fill="#0b2b34"/>
  <path id="Path_92" data-name="Path 92" d="M223.058,180.172c.337-1.825-.253-9.527-.253-9.527s-6.828-.861-7.121-7.829.4-23.013.4-23.013l12.564-6.035,10.966,12.5.208,33.789-16.763.113Z" fill="#f9b399"/>
  <path id="Path_93" data-name="Path 93" d="M216.975,152.1a.869.869,0,1,0,.884-.876.881.881,0,0,0-.884.876Z" fill="#0b2b34"/>
  <path id="Path_94" data-name="Path 94" d="M216.417,150.541c.11.118.762-.431,1.7-.466s1.629.439,1.73.312c.049-.057-.065-.271-.367-.493a2.263,2.263,0,0,0-2.735.123c-.283.249-.378.472-.324.524Z" fill="#0b2b34"/>
  <path id="Path_95" data-name="Path 95" d="M227.147,152.1a.869.869,0,1,0,.884-.876.88.88,0,0,0-.884.876Z" fill="#0b2b34"/>
  <path id="Path_96" data-name="Path 96" d="M226.777,150.721c.11.117.761-.432,1.7-.466.934-.05,1.628.438,1.728.311.049-.056-.063-.271-.366-.492a2.258,2.258,0,0,0-2.734.123c-.284.248-.378.472-.325.524Z" fill="#0b2b34"/>
  <path id="Path_97" data-name="Path 97" d="M223.265,158.764a5.719,5.719,0,0,0-1.525-.232c-.238-.017-.466-.059-.509-.232a1.4,1.4,0,0,1,.149-.764c.215-.629.438-1.287.675-1.977a35.917,35.917,0,0,0,1.507-5.159,35.722,35.722,0,0,0-1.888,5.026q-.339,1.04-.647,1.987a1.59,1.59,0,0,0-.108,1.008.6.6,0,0,0,.4.359,1.52,1.52,0,0,0,.408.044,5.717,5.717,0,0,0,1.54-.06Z" fill="#0b2b34"/>
  <path id="Path_98" data-name="Path 98" d="M222.8,170.645a16.628,16.628,0,0,0,9.04-2.959s-2.125,5.076-8.921,4.669l-.119-1.71Z" fill="#f79570"/>
  <path id="Path_99" data-name="Path 99" d="M223.6,161.221a1.826,1.826,0,0,1,1.084-1.338,1.444,1.444,0,0,1,1.205.022,1.032,1.032,0,0,1,.556,1.027,1.2,1.2,0,0,1-.967.9,3.292,3.292,0,0,1-1.386-.094.985.985,0,0,1-.364-.133.344.344,0,0,1-.151-.333" fill="#f79570"/>
  <path id="Path_100" data-name="Path 100" d="M225.92,158.727c.064-.008.177.256.142.71a2.48,2.48,0,0,1-2.383,2.248c-.454.009-.711-.12-.7-.184,0-.143,1.1-.054,1.958-.87s.84-1.909.984-1.9Z" fill="#0b2b34"/>
  <path id="Path_101" data-name="Path 101" d="M215.509,139.025a8.366,8.366,0,0,0,8.278,7.326l-1.9-4.163a19.826,19.826,0,0,0,5.727,5.127c2.3,1.166,5.326,1.295,7.289-.379.64,1.705.627,3.594,1.212,5.318s1.963,8.833,3.765,8.561c1.652-.247,2.827-7.416,3.248-9.034a14.775,14.775,0,0,0-3.267-12.931,17.743,17.743,0,0,0-14.6-6.154,12.307,12.307,0,0,0-6.778,2.386,9.424,9.424,0,0,0-3.333,5.328" fill="#0b2b34"/>
  <path id="Path_102" data-name="Path 102" d="M206.149,170.421a1.688,1.688,0,0,1-.472-.108,6.532,6.532,0,0,1-1.286-.538,9.17,9.17,0,0,1-3.638-3.568,8.651,8.651,0,0,1-.644-7.443,9.68,9.68,0,0,1,2.552-3.738,9.093,9.093,0,0,1,4.324-2.19,3.716,3.716,0,0,0,2.02-.958,3.333,3.333,0,0,0,.765-2c.121-1.474-.458-2.9-.621-4.343a6.386,6.386,0,0,1,3.407-6.479c.965-.513,1.882-.844,2.662-1.179a10.264,10.264,0,0,0,1.91-1,6.6,6.6,0,0,0,1.311-1.282,1.607,1.607,0,0,1-.221.434,4.662,4.662,0,0,1-.969,1.011,9.673,9.673,0,0,1-1.914,1.1c-.775.363-1.681.718-2.6,1.234a6.069,6.069,0,0,0-2.393,2.353,5.927,5.927,0,0,0-.715,3.745c.156,1.367.767,2.8.653,4.441a3.837,3.837,0,0,1-.891,2.314,4.186,4.186,0,0,1-2.28,1.114,9.008,9.008,0,0,0-6.55,5.592,8.338,8.338,0,0,0,.516,7.094,9.34,9.34,0,0,0,3.416,3.57c1.026.6,1.679.77,1.659.823Z" fill="#0b2b34"/>
  <path id="Path_103" data-name="Path 103" d="M251.438,179.583c-.023-.038.591-.4,1.625-1.141a9.606,9.606,0,0,0,3.424-3.994,5.569,5.569,0,0,0,.192-3.542,3.762,3.762,0,0,0-.993-1.678,8.73,8.73,0,0,0-1.788-1.2,4.823,4.823,0,0,1-2.535-4.046c-.075-1.81,1.054-3.313,1.453-4.923a6.689,6.689,0,0,0-.758-4.738,12.119,12.119,0,0,0-2.965-3.551c-2.295-1.924-4.68-3.328-6.33-4.97a10.572,10.572,0,0,1-2.94-4.571,6.563,6.563,0,0,1-.242-1.469,2.07,2.07,0,0,1,.029-.518,12.553,12.553,0,0,0,.407,1.927,10.8,10.8,0,0,0,3,4.365c1.64,1.57,4.019,2.926,6.384,4.87a12.47,12.47,0,0,1,3.107,3.677,7.165,7.165,0,0,1,.812,5.1c-.46,1.755-1.528,3.2-1.448,4.779a4.338,4.338,0,0,0,2.273,3.653,9.107,9.107,0,0,1,1.863,1.281,4.217,4.217,0,0,1,1.085,1.884,5.91,5.91,0,0,1-.265,3.8,7.741,7.741,0,0,1-1.805,2.565,12.529,12.529,0,0,1-1.844,1.459c-.539.354-.974.6-1.272.759a1.9,1.9,0,0,1-.47.216Z" fill="#0b2b34"/>
  <g id="Group_4" data-name="Group 4">
    <g id="Group_3" data-name="Group 3" clip-path="url(#clip-path-2)">
      <rect id="Rectangle_4" data-name="Rectangle 4" width="6.056" height="4.796" transform="translate(208.816 376.873)" fill="#f69fa8"/>
    </g>
  </g>
  <path id="Path_105" data-name="Path 105" d="M198.77,382.816c6.053-.242,12.608-.69,15.083-.894l1.042-.1c-4,.461-10.4.822-16.115.989h-.01" fill="#fff"/>
  <path id="Path_106" data-name="Path 106" d="M198.743,382.818a.129.129,0,0,1,.027,0h.01a.238.238,0,0,0-.037,0" fill="#717f84"/>
  <path id="Path_107" data-name="Path 107" d="M187.245,382.72a1.379,1.379,0,0,1-.684-.2.288.288,0,0,1,.028-.376c-.116.22.026.4.513.539.045.012.092.024.143.035m2.471-2.183c.668-.245,1.174-.406,1.174-.406h0c-.4.134-.8.27-1.174.406" fill="#fff"/>
  <path id="Path_108" data-name="Path 108" d="M192.544,382.918a47.092,47.092,0,0,1-5.3-.2c-.051-.011-.1-.023-.143-.035-.487-.134-.629-.319-.513-.539a9.219,9.219,0,0,1,3.127-1.609c.377-.136.77-.272,1.174-.406.98.015,1.547,2.128,1.547,2.128l16.379-.59-.03.19,6.086-.272.023.24-1.042.1c-2.475.2-9.03.652-15.083.894a.129.129,0,0,0-.027,0c-2.236.065-4.363.1-6.2.1" fill="#f5909a"/>
  <path id="Path_109" data-name="Path 109" d="M208.786,381.859l.03-.19,6.042-.217.014.135-6.086.272" fill="#f9c1c5"/>
  <path id="Path_110" data-name="Path 110" d="M215.122,381.434a1.6,1.6,0,0,1-.289.039c-.248.023-.522.046-.83.073l-3.056.216c-2.583.164-6.153.344-10.1.456s-7.525.133-10.112.115l-3.064-.043-.832-.026a1.729,1.729,0,0,1-.291-.022,1.494,1.494,0,0,1,.291-.019l.832-.012c.832-.007,1.856-.013,3.064-.022,2.586-.019,6.159-.065,10.106-.175s7.514-.268,10.1-.4l3.061-.152.832-.034a1.506,1.506,0,0,1,.291,0Z" fill="#0b2b34"/>
  <path id="Path_111" data-name="Path 111" d="M192.449,382.521a4.449,4.449,0,0,0-1.688-2.588,2.717,2.717,0,0,1,1.688,2.588Z" fill="#0b2b34"/>
  <path id="Path_112" data-name="Path 112" d="M197.349,379.864c-.047.031-.293-.252-.549-.632s-.426-.714-.379-.745.291.251.549.631.425.714.379.746Z" fill="#0b2b34"/>
  <path id="Path_113" data-name="Path 113" d="M198.692,379.105c-.037.043-.308-.127-.6-.38s-.508-.492-.472-.535.308.126.6.38.508.492.472.535Z" fill="#0b2b34"/>
  <path id="Path_114" data-name="Path 114" d="M199.511,377.492a3.849,3.849,0,1,1-.885-.068,2.013,2.013,0,0,1,.885.068Z" fill="#0b2b34"/>
  <path id="Path_115" data-name="Path 115" d="M199.775,376.363a2.476,2.476,0,0,1-1.989.2,75.669,75.669,0,0,0,1.989-.2Z" fill="#0b2b34"/>
  <path id="Path_116" data-name="Path 116" d="M196.736,378.411a3.133,3.133,0,0,1-1.082.022,6.284,6.284,0,0,1-1.159-.222,3.2,3.2,0,0,1-.666-.254.583.583,0,0,1-.277-.329.424.424,0,0,1,.152-.437,1.984,1.984,0,0,1,2.469.513,1.912,1.912,0,0,1,.373.712.6.6,0,0,1,.037.292,3.127,3.127,0,0,0-.519-.909,1.953,1.953,0,0,0-.94-.576,1.679,1.679,0,0,0-1.287.124c-.17.132-.1.332.1.441a3.227,3.227,0,0,0,.615.243,7.341,7.341,0,0,0,1.123.259c.65.1,1.063.087,1.063.121Z" fill="#0b2b34"/>
  <path id="Path_117" data-name="Path 117" d="M196.458,378.472a1.062,1.062,0,0,1-.146-.748,1.773,1.773,0,0,1,.275-.8,1.082,1.082,0,0,1,.885-.576.43.43,0,0,1,.347.49,1.177,1.177,0,0,1-.171.489,3.225,3.225,0,0,1-.493.668,1.575,1.575,0,0,1-.607.456c-.02-.027.211-.2.5-.551a3.8,3.8,0,0,0,.434-.662c.142-.233.234-.647-.04-.688-.271-.019-.54.258-.7.479a1.777,1.777,0,0,0-.286.712,3.954,3.954,0,0,0,0,.73Z" fill="#0b2b34"/>
  <path id="Path_118" data-name="Path 118" d="M214.652,376.835c0,.038-.483-.032-1.243.078a5.285,5.285,0,0,0-4.314,3.638c-.237.729-.247,1.214-.285,1.211a.93.93,0,0,1-.01-.34,4.383,4.383,0,0,1,.158-.913,5.121,5.121,0,0,1,4.434-3.739,4.473,4.473,0,0,1,.926,0,1.021,1.021,0,0,1,.334.066Z" fill="#0b2b34"/>
  <path id="Path_119" data-name="Path 119" d="M212.714,369.876a29.428,29.428,0,0,1,.24,3.454,28.963,28.963,0,0,1,.037,3.464,59.043,59.043,0,0,1-.277-6.918Z" fill="#0b2b34"/>
  <path id="Path_120" data-name="Path 120" d="M206.622,380.276a9.57,9.57,0,0,1-2.451.311,9.47,9.47,0,0,1-2.469-.13c0-.059,1.106-.022,2.461-.074s2.451-.167,2.459-.107Z" fill="#0b2b34"/>
  <path id="Path_121" data-name="Path 121" d="M209.923,380.18c.041.04-.084.235-.19.49s-.16.482-.218.479-.094-.264.031-.558.34-.451.377-.411Z" fill="#0b2b34"/>
  <path id="Path_122" data-name="Path 122" d="M211.124,378.6c.041.038-.063.217-.232.4s-.34.3-.381.258.062-.216.231-.4.341-.3.382-.258Z" fill="#0b2b34"/>
  <path id="Path_123" data-name="Path 123" d="M212.884,377.841c-.01.058-.235.062-.479.156s-.42.231-.465.193.089-.273.4-.384.564-.018.549.035Z" fill="#0b2b34"/>
  <path id="Path_124" data-name="Path 124" d="M214.142,377.473c.021.051-.073.141-.211.2s-.268.063-.29.011.073-.142.211-.2.268-.063.29-.011Z" fill="#0b2b34"/>
  <path id="Path_125" data-name="Path 125" d="M157.163,330.015l3.9-8.1,15.222,7.216L170.7,341.042l-.972-.386c-4.311-1.758-21.795-9.243-24.2-11.424-2.68-2.435,11.634.783,11.634.783" fill="#ffc032"/>
  <path id="Path_126" data-name="Path 126" d="M170.79,340.818h0l.049-.128-5.486-2.539a5.853,5.853,0,0,1,3.369-2.169,6.064,6.064,0,0,1,1.318-.146,5.51,5.51,0,0,1,2.764.726l-2.014,4.256" fill="#f69fa8"/>
  <path id="Path_127" data-name="Path 127" d="M170.7,341.042c-3.787-1.4-9.693-3.993-14.876-6.435,5.522,2.529,11.6,5.108,13.9,6.049l.972.386m-25.056-11.709c-.322-.225-.5-.392-.526-.491-.029-.141.045-.246.193-.322-.2.144-.157.373.216.712.036.032.075.066.117.1m4.394-.668c-.392-.059-.777-.112-1.149-.159.594.072,1.049.143,1.149.159" fill="#fff"/>
  <path id="Path_128" data-name="Path 128" d="M170.7,341.042l-.972-.386c-2.307-.941-8.382-3.52-13.9-6.049a99.731,99.731,0,0,1-10.18-5.274c-.042-.035-.081-.069-.117-.1-.373-.339-.417-.568-.216-.712a3.235,3.235,0,0,1,1.287-.179,20.645,20.645,0,0,1,2.291.165c.372.047.757.1,1.149.159l.021,0c.868.457.418,2.6.418,2.6l14.874,6.885c-.038.052-.076.1-.113.156l5.55,2.511-.088.224" fill="#f5909a"/>
  <path id="Path_129" data-name="Path 129" d="M170.79,340.818l-5.55-2.511c.037-.053.075-.1.113-.156l5.486,2.539-.049.128" fill="#f9c1c5"/>
  <path id="Path_130" data-name="Path 130" d="M171.083,340.794a1.464,1.464,0,0,1-.275-.1l-.774-.31L167.21,339.2c-2.377-1.022-5.642-2.478-9.213-4.163s-6.77-3.286-9.068-4.473l-2.715-1.425c-.271-.148-.51-.28-.731-.4a1.557,1.557,0,0,1-.248-.153,1.713,1.713,0,0,1,.268.116l.748.366,2.741,1.366c2.317,1.153,5.524,2.73,9.093,4.417s6.822,3.16,9.184,4.216l2.8,1.249c.282.129.531.242.758.347a1.7,1.7,0,0,1,.259.132Z" fill="#0b2b34"/>
  <path id="Path_131" data-name="Path 131" d="M150.372,331.505a7.011,7.011,0,0,0,.107-1.566,6.91,6.91,0,0,0-.441-1.506,2.723,2.723,0,0,1,.334,3.072Z" fill="#0b2b34"/>
  <path id="Path_132" data-name="Path 132" d="M155.943,331.352c-.057.007-.147-.356-.2-.812a1.8,1.8,0,0,1,0-.836,3.42,3.42,0,0,1,.2,1.648Z" fill="#0b2b34"/>
  <path id="Path_133" data-name="Path 133" d="M157.484,331.284c-.051.021-.216-.253-.367-.613s-.231-.669-.179-.691.217.253.368.612.23.67.178.692Z" fill="#0b2b34"/>
  <path id="Path_134" data-name="Path 134" d="M158.944,330.215a1.96,1.96,0,0,1-.842-.275c-.443-.2-.781-.408-.757-.46a1.993,1.993,0,0,1,.842.275c.441.2.781.409.757.46Z" fill="#0b2b34"/>
  <path id="Path_135" data-name="Path 135" d="M159.691,329.329a2.495,2.495,0,0,1-1.867-.717,93.981,93.981,0,0,0,1.867.717Z" fill="#0b2b34"/>
  <path id="Path_136" data-name="Path 136" d="M156.056,329.779a3.126,3.126,0,0,1-.977-.469,6.445,6.445,0,0,1-.933-.723,3.105,3.105,0,0,1-.479-.528.587.587,0,0,1-.1-.418.426.426,0,0,1,.333-.321,1.985,1.985,0,0,1,1.971,1.575,1.922,1.922,0,0,1,.01.8c-.039.186-.088.28-.1.276a3.057,3.057,0,0,0-.05-1.046,1.945,1.945,0,0,0-.579-.938,1.676,1.676,0,0,0-1.2-.473c-.209.042-.235.253-.112.438a3.318,3.318,0,0,0,.439.5,7.73,7.73,0,0,0,.884.738c.537.382.909.559.9.589Z" fill="#0b2b34"/>
  <path id="Path_137" data-name="Path 137" d="M155.778,329.707a1.065,1.065,0,0,1,.209-.732,1.775,1.775,0,0,1,.606-.589,1.088,1.088,0,0,1,1.051-.113.432.432,0,0,1,.087.6,1.189,1.189,0,0,1-.373.358,3.251,3.251,0,0,1-.743.374,1.573,1.573,0,0,1-.747.131c-.006-.032.278-.083.694-.266a3.85,3.85,0,0,0,.689-.393c.231-.143.5-.471.275-.632a.971.971,0,0,0-.841.11,1.786,1.786,0,0,0-.578.506,4.147,4.147,0,0,0-.329.651Z" fill="#0b2b34"/>
  <path id="Path_138" data-name="Path 138" d="M172.743,336.481c-.018.033-.416-.247-1.142-.492a5.276,5.276,0,0,0-5.493,1.292c-.541.542-.771.97-.8.95a.993.993,0,0,1,.144-.308,4.48,4.48,0,0,1,.556-.743,5.118,5.118,0,0,1,5.644-1.327,4.33,4.33,0,0,1,.828.418c.182.12.274.2.266.21Z" fill="#0b2b34"/>
  <path id="Path_139" data-name="Path 139" d="M174.165,329.4a59.158,59.158,0,0,1-2.883,6.295,29.551,29.551,0,0,1,1.35-3.191,29.186,29.186,0,0,1,1.533-3.1Z" fill="#0b2b34"/>
  <path id="Path_140" data-name="Path 140" d="M164.026,335.915a13.825,13.825,0,0,1-4.469-2.063c.03-.051,1,.48,2.227,1.047s2.262.961,2.242,1.016Z" fill="#0b2b34"/>
  <path id="Path_141" data-name="Path 141" d="M167.013,337.324c.019.054-.182.172-.391.352s-.361.356-.412.327.037-.277.28-.483.507-.249.523-.2Z" fill="#0b2b34"/>
  <path id="Path_142" data-name="Path 142" d="M168.8,336.456c.019.053-.154.165-.387.25s-.437.112-.457.058.154-.165.387-.25.438-.111.457-.058Z" fill="#0b2b34"/>
  <path id="Path_143" data-name="Path 143" d="M170.712,336.579c-.035.045-.236-.052-.5-.079s-.478.016-.5-.038.2-.2.526-.165.511.241.474.282Z" fill="#0b2b34"/>
  <path id="Path_144" data-name="Path 144" d="M172,336.819c0,.055-.129.093-.278.082s-.269-.066-.263-.121.127-.094.277-.082.268.064.264.121Z" fill="#0b2b34"/>
  <path id="Path_145" data-name="Path 145" d="M268.217,212.326l-3.581-17.96c-2.64-14.7-23.247-15.712-23.247-15.712l-16.172-.263s-11.99-1.611-19.391,6.731c-7.659,8.634-17.065,18.837-17.065,18.837l7.186,18.074,17.015-14.041a17.389,17.389,0,0,0-2.283,8.168c0,4.788,5,7,5,7l1.531,14.574-5.078,23.529,52.812-2.117a52.516,52.516,0,0,0-7.786-22.192l.982-24.624h10.081" fill="#ffc032"/>
  <path id="Path_146" data-name="Path 146" d="M245.547,192.194a5.155,5.155,0,0,1,.275,1.148c.167.852.374,1.9.618,3.151.537,2.777,1.239,6.4,2.012,10.4.772,4.066,1.438,7.755,1.863,10.436.213,1.34.367,2.428.455,3.182a5.091,5.091,0,0,1,.077,1.181,5.276,5.276,0,0,1-.277-1.149c-.167-.851-.373-1.9-.617-3.15-.537-2.777-1.237-6.4-2.013-10.4-.77-4.066-1.436-7.753-1.862-10.434-.213-1.341-.365-2.429-.456-3.184a5.126,5.126,0,0,1-.075-1.179" fill="#0b2b34"/>
  <path id="Path_147" data-name="Path 147" d="M268.479,211.384a91.521,91.521,0,0,1-9.755.295,91.517,91.517,0,0,1-9.757-.226,91.472,91.472,0,0,1,9.755-.295,91.546,91.546,0,0,1,9.757.226" fill="#0b2b34"/>
  <path id="Path_148" data-name="Path 148" d="M270.495,227.657c-1.044-8.627-2.432-15.982-2.432-15.982h-18.7s2.322,10.945,1.8,13.484c-.451,2.21-36.688,3.675-46.13,3.823a1.157,1.157,0,0,0-.9-.106,1.376,1.376,0,0,1-1.207-.24,7.535,7.535,0,0,1-1.607-1.981,11.808,11.808,0,0,1-1.293-2.926.965.965,0,0,0-1.792-.411c-.377.809.049,3.5,1.842,6.1s-2.908,1.249-4.632.788-7.116-1.629-7.673-1.2c-.816.632-.3,1.647,1.426,2.067,1.752.423,6.836,2.05,6.555,2.971s-9.012-1.56-9.012-1.56-1.785-.838-2.143.216c-.644,1.9,8.832,3.823,9.739,3.983.63.111.361,1.123-.31.968-.69-.162-8.659-2.671-9.334-.742-.517,1.478,7.78,1.655,9.154,3.118.689.734-.9.532-2.7.33s-3.8-.4-4.018.314c-.162.534,3.021.781,7.6,1.424a117.056,117.056,0,0,0,14.147.5c10.615.581,48.135,1.357,56.142.791,9.338-.66,5.834-12.773,5.475-15.736" fill="#f9b399"/>
  <path id="Path_149" data-name="Path 149" d="M211.074,212.834a13.64,13.64,0,0,1,.636-2.426c.223-.742.494-1.623.832-2.593.17-.486.357-.992.572-1.512.118-.281.266-.52.34-.754a2.353,2.353,0,0,0,.1-.775,11.912,11.912,0,0,0-.252-1.658q-.151-.812-.293-1.578c-.168-.959-.324-1.854-.467-2.677a12.013,12.013,0,0,1-.3-2.491,11.8,11.8,0,0,1,.661,2.42c.177.817.37,1.705.577,2.656q.156.762.323,1.572a10.794,10.794,0,0,1,.271,1.743,2.834,2.834,0,0,1-.124.95c-.106.315-.265.559-.362.79-.217.506-.412,1-.593,1.478-.334.912-.647,1.763-.933,2.545a10.692,10.692,0,0,1-.985,2.31Z" fill="#0b2b34"/>
  <path id="Path_150" data-name="Path 150" d="M232.867,144.626c1.449,1.857,2.981,3.987,2.693,6.324-.251,2.043-1.881,3.857-1.608,5.9.316,2.35,3.044,3.883,3.181,6.252.111,1.964-1.579,3.481-2.776,5.044a10.816,10.816,0,0,0-2.181,7.976,9.331,9.331,0,0,0,4.57,6.8,8.223,8.223,0,0,0,8.1-.08,11.516,11.516,0,0,0,4.477-6.273c1.114-3.219,1.421-7.02-.5-9.836-.776-1.14-1.908-2.125-2.16-3.48-.318-1.723.9-3.347,1.1-5.087.258-2.33-1.35-4.459-3.135-5.977s-3.879-2.756-5.2-4.689" fill="#0b2b34"/>
  <path id="Path_151" data-name="Path 151" d="M247.4,226.344c-.193-10.03-.582-19.254-1.237-29.262.428,2.627,1.058,6.1,1.778,9.909.776,4.005,1.476,7.626,2.013,10.4.244,1.246.45,2.3.617,3.15a5.4,5.4,0,0,0,.277,1.149h0a5.091,5.091,0,0,0-.077-1.181c-.088-.754-.242-1.842-.455-3.182-.235-1.479-.542-3.263-.9-5.249.569,2.749,1.058,5.312,1.384,7.5.067.469.132.932.188,1.381a18.956,18.956,0,0,1,.182,4.2h0a4.532,4.532,0,0,1-1.342.7,24.406,24.406,0,0,1-2.427.49" fill="#e99437"/>
  <path id="Path_152" data-name="Path 152" d="M250.847,221.693a5.4,5.4,0,0,1-.277-1.149c-.167-.851-.373-1.9-.617-3.15-.537-2.777-1.237-6.4-2.013-10.4-.72-3.807-1.35-7.282-1.778-9.909v-.02c.984,4.653,2.147,9.721,3.109,14.325-.2.021-.3.043-.3.066s.114.045.332.066c.039.188.077.376.115.562.359,1.986.666,3.77.9,5.249.213,1.34.367,2.428.455,3.182a5.091,5.091,0,0,1,.077,1.181h0" fill="#001821"/>
  <path id="Path_153" data-name="Path 153" d="M249.3,211.519c-.218-.021-.332-.043-.332-.066s.1-.045.3-.066c.009.044.018.088.029.132" fill="#001821"/>
  <path id="Path_154" data-name="Path 154" d="M247.4,226.344h0a24.406,24.406,0,0,0,2.427-.49,11.669,11.669,0,0,1-2.427.49m3.769-1.185h0m-.182-4.2c-.056-.449-.121-.912-.188-1.381.07.479.134.94.188,1.381" fill="#bb816c"/>
  <path id="Path_155" data-name="Path 155" d="M221.79,192.457a4.065,4.065,0,0,1,.229-2.273c.345-1.22.877-2.111,1-2.052a21.649,21.649,0,0,1-1.233,4.325Z" fill="#f8f7f6"/>
  <path id="Path_156" data-name="Path 156" d="M211.154,192.427c-.079.117-.789-.231-1.485-.893s-1.086-1.35-.974-1.435.664.428,1.331,1.057,1.212,1.151,1.128,1.271Z" fill="#f8f7f6"/>
  <path id="Path_157" data-name="Path 157" d="M201.018,200.718c-.041.005-.089-.09-.142-.27l.227-.018a6.517,6.517,0,0,1,0,2.473,4.489,4.489,0,0,1-1.043,2.547,21.273,21.273,0,0,1,.53-2.636c.183-1.03.221-1.939.285-2.371l.227-.018c-.016.188-.044.289-.085.293Z" fill="#f8f7f6"/>
  <path id="Path_158" data-name="Path 158" d="M200.571,211.1a5.094,5.094,0,0,1-2.191-.573c-1.16-.451-2.056-.925-2-1.06a5.09,5.09,0,0,1,2.192.574c1.159.451,2.056.925,2,1.059Z" fill="#f8f7f6"/>
  <path id="Path_159" data-name="Path 159" d="M209.128,205.352c-.139-.022-.111-.9.209-1.931s.8-1.769.924-1.709-.12.874-.426,1.864-.563,1.8-.707,1.776Z" fill="#f8f7f6"/>
  <path id="Path_160" data-name="Path 160" d="M218.161,182.59c.006.143-.748.3-1.686.341s-1.705-.036-1.711-.179.747-.3,1.685-.341,1.7.035,1.712.179Z" fill="#f8f7f6"/>
  <path id="Path_161" data-name="Path 161" d="M220,202.118c-.088.105-.9-.5-1.443-1.6a2.833,2.833,0,0,1-.4-2.117c.15-.02.359.886.861,1.886s1.083,1.722.977,1.83Z" fill="#f8f7f6"/>
  <path id="Path_162" data-name="Path 162" d="M237.766,197.935c.1.1-.536.9-1.486,1.713s-1.834,1.323-1.918,1.209.649-.8,1.579-1.6,1.722-1.421,1.825-1.317Z" fill="#f8f7f6"/>
  <path id="Path_163" data-name="Path 163" d="M228.979,195.173c.086.115-.468.672-1.24,1.243s-1.466.942-1.551.826.47-.672,1.241-1.244,1.465-.941,1.55-.825Z" fill="#f8f7f6"/>
  <path id="Path_164" data-name="Path 164" d="M233.287,187.989a4.059,4.059,0,0,1-2.127-1.181c-1.033-.883-1.6-1.843-1.49-1.923s.844.687,1.83,1.528,1.858,1.445,1.787,1.576Z" fill="#f8f7f6"/>
  <path id="Path_165" data-name="Path 165" d="M243.4,185.187c.087.115-.482.693-1.269,1.29s-1.5.989-1.586.874.481-.691,1.27-1.289,1.5-.989,1.585-.875Z" fill="#f8f7f6"/>
  <path id="Path_166" data-name="Path 166" d="M251.845,189.193a6.564,6.564,0,0,1,.319-2.133,6.654,6.654,0,0,1,.526-2.092,3.676,3.676,0,0,1-.014,2.194c-.239,1.2-.7,2.083-.831,2.031Z" fill="#f8f7f6"/>
  <path id="Path_167" data-name="Path 167" d="M253.334,198.82c-.1.106-1.006-.568-2.028-1.5s-1.774-1.782-1.677-1.889,1.007.568,2.028,1.505,1.774,1.782,1.677,1.888Z" fill="#f8f7f6"/>
  <path id="Path_168" data-name="Path 168" d="M260.161,194.772c-.132-.057.128-.965.581-2.028s.928-1.881,1.061-1.825-.127.965-.581,2.029-.927,1.881-1.061,1.824Z" fill="#f8f7f6"/>
  <path id="Path_169" data-name="Path 169" d="M260.519,206.338a6.283,6.283,0,0,1,.975-2.321c.665-1.214,1.308-2.142,1.434-2.072a6.3,6.3,0,0,1-.977,2.322c-.665,1.213-1.306,2.141-1.432,2.071Z" fill="#f8f7f6"/>
  <path id="Path_170" data-name="Path 170" d="M253.781,208.112c-.115.087-.8-.633-1.536-1.608s-1.234-1.835-1.12-1.921.8.633,1.536,1.608,1.234,1.835,1.12,1.921Z" fill="#f8f7f6"/>
  <path id="Path_171" data-name="Path 171" d="M241.063,213.058a11.314,11.314,0,0,1,3.491-5.248,15.331,15.331,0,0,1-1.686,2.665,15.121,15.121,0,0,1-1.8,2.583Z" fill="#f8f7f6"/>
  <path id="Path_172" data-name="Path 172" d="M231.92,212.139a14.133,14.133,0,0,1-2.354-4.847,14.085,14.085,0,0,1,2.354,4.847Z" fill="#f8f7f6"/>
  <path id="Path_173" data-name="Path 173" d="M220.411,209.458a17.534,17.534,0,0,1-4.533,3.964,17.628,17.628,0,0,1,4.533-3.964Z" fill="#f8f7f6"/>
  <path id="Path_174" data-name="Path 174" d="M224.783,221.965c-.12.089-.945-.844-2.021-1.924s-2-1.918-1.91-2.037a9.029,9.029,0,0,1,3.931,3.961Z" fill="#f8f7f6"/>
  <path id="Path_175" data-name="Path 175" d="M232.842,222.342a4.88,4.88,0,0,1,.893-2.545c.751-1.306,1.659-2.14,1.76-2.046a168.062,168.062,0,0,1-2.653,4.591Z" fill="#f8f7f6"/>
  <path id="Path_176" data-name="Path 176" d="M244.136,223.617a17.5,17.5,0,0,1-4.62-3.861,17.59,17.59,0,0,1,4.62,3.861Z" fill="#f8f7f6"/>
  <path id="Path_177" data-name="Path 177" d="M243.145,193.881a4.155,4.155,0,0,1-2.115-1.028c-1.054-.775-1.71-1.621-1.606-1.717s.9.552,1.917,1.3,1.872,1.315,1.8,1.447Z" fill="#f8f7f6"/>
  <path id="Path_178" data-name="Path 178" d="M226.8,245.128c.055.14-.756.578-1.656,1.243s-1.565,1.3-1.68,1.209.4-.921,1.373-1.627,1.918-.955,1.963-.825" fill="#f8f7f6"/>
  <path id="Path_179" data-name="Path 179" d="M238.9,250.076a5.711,5.711,0,0,1-1.068-2.146,5.651,5.651,0,0,1-.579-2.326,11.066,11.066,0,0,1,1.647,4.472" fill="#f8f7f6"/>
  <path id="Path_180" data-name="Path 180" d="M251.1,245.754c.1.1-.517.919-1.389,1.83s-1.662,1.569-1.767,1.47.52-.919,1.391-1.83,1.662-1.569,1.765-1.47" fill="#f8f7f6"/>
  <path id="Path_181" data-name="Path 181" d="M260.129,252.331c-.1.115-.912-.526-2.112-.757-1.2-.258-2.193.012-2.241-.132a2.625,2.625,0,0,1,2.345-.379c1.364.272,2.119,1.188,2.008,1.268Z" fill="#f8f7f6"/>
  <path id="Path_182" data-name="Path 182" d="M265.1,256.782s-69.06-14.467-75.747-11.3-37.52,79.382-37.52,79.382l24.824,10.68,26.719-64.759s48.35,17.66,56.8,15.9,4.927-29.908,4.927-29.908Z" fill="#345863"/>
  <path id="Path_183" data-name="Path 183" d="M234.233,260.844c-1.054.353-41,16.774-43.818,22.053s4.1,92.932,4.1,92.932h22.72l-1.407-77.9,44.344-11.235-25.94-25.846Z" fill="#345863"/>
  <path id="Path_184" data-name="Path 184" d="M260.4,286.868a3.16,3.16,0,0,1-.654-.08l-1.859-.33c-1.612-.3-3.939-.754-6.806-1.365-5.734-1.211-13.629-3.041-22.232-5.507-4.3-1.245-8.361-2.543-12.028-3.8-3.653-1.3-6.93-2.517-9.626-3.671-1.359-.55-2.57-1.1-3.63-1.577s-1.973-.9-2.7-1.271c-.692-.35-1.252-.631-1.686-.85a3.143,3.143,0,0,1-.572-.328,3.177,3.177,0,0,1,.619.234l1.725.76c.743.344,1.662.743,2.737,1.188s2.286.976,3.651,1.5c2.709,1.108,5.989,2.286,9.642,3.558,3.669,1.233,7.727,2.514,12.018,3.757,8.587,2.461,16.457,4.346,22.166,5.648l6.768,1.525,1.838.426a3.11,3.11,0,0,1,.634.183Z" fill="#0b2b34"/>
  <path id="Path_185" data-name="Path 185" d="M190.423,303.033a6.537,6.537,0,0,1-.209-1.313c-.1-.951-.228-2.156-.379-3.6-.146-1.554-.313-3.355-.5-5.336a24.438,24.438,0,0,1-.01-6.609,10.318,10.318,0,0,1,3.317-5.712,17.474,17.474,0,0,1,4.544-2.923,35.925,35.925,0,0,1,3.374-1.329,6.319,6.319,0,0,1,1.277-.372c.037.093-1.758.718-4.49,2.033a17.966,17.966,0,0,0-4.377,2.942,9.992,9.992,0,0,0-3.133,5.459,25.183,25.183,0,0,0-.023,6.471c.142,1.985.273,3.789.384,5.346l.215,3.609a6.418,6.418,0,0,1,.008,1.329Z" fill="#0b2b34"/>
  <path id="Path_186" data-name="Path 186" d="M210.354,295.5a16.74,16.74,0,0,1,5.379,2.368,16.74,16.74,0,0,1-5.379-2.368Z" fill="#0b2b34"/>
  <path id="Path_187" data-name="Path 187" d="M212.358,293.106c.141-.06.77,1.2,1.809,2.565s2.069,2.323,1.974,2.441a8.213,8.213,0,0,1-3.783-5.006Z" fill="#0b2b34"/>
  <path id="Path_188" data-name="Path 188" d="M221.081,296.7c.016.011-.067.188-.351.357a2.665,2.665,0,0,1-1.317.311,15.549,15.549,0,0,0-1.888.049,1.321,1.321,0,0,0-1.129,1.447,36.871,36.871,0,0,1-.283,6.063,34.737,34.737,0,0,1-.237-6.094,2.123,2.123,0,0,1,.43-1.291,1.753,1.753,0,0,1,1.141-.6,10.986,10.986,0,0,1,1.97.056,3.236,3.236,0,0,0,1.664-.3Z" fill="#0b2b34"/>
  <path id="Path_189" data-name="Path 189" d="M215.843,244.047l.248-1.148h0l-.248,1.148" fill="#a8abab"/>
  <path id="Path_190" data-name="Path 190" d="M262.706,248.81l-13.154-1.057.164-.169c.872-.911,1.493-1.73,1.389-1.83a.043.043,0,0,0-.03-.01,6.507,6.507,0,0,0-1.735,1.48c-.156.163-.3.323-.443.477l-10.945-.879c-.31-.728-.583-1.22-.69-1.22l-.01,0c-.091.033-.006.5.194,1.177l-11.557-.928c.556-.376.956-.625.916-.725-.007-.022-.041-.033-.1-.033a3.889,3.889,0,0,0-1.63.692l-9.444-.758.211-.982.248-1.148c10.588.356,27.282.691,38.536.691,2.277,0,4.332-.014,6.068-.044h0l2.011,5.264" fill="#e99437"/>
  <path id="Path_191" data-name="Path 191" d="M254.627,243.59c-11.254,0-27.948-.335-38.536-.691h0l44.6.647c-1.736.03-3.791.044-6.068.044" fill="#bb816c"/>
  <path id="Path_192" data-name="Path 192" d="M225.889,245.853l-.813-.066a3.889,3.889,0,0,1,1.63-.692c.058,0,.092.011.1.033.04.1-.36.349-.916.725" fill="#a5a8a8"/>
  <path id="Path_193" data-name="Path 193" d="M237.952,246.822l-.506-.041c-.2-.674-.285-1.144-.194-1.177l.01,0c.107,0,.38.492.69,1.22" fill="#a5a8a8"/>
  <path id="Path_194" data-name="Path 194" d="M249.552,247.753l-.655-.052c.138-.154.287-.314.443-.477a6.507,6.507,0,0,1,1.735-1.48.043.043,0,0,1,.03.01c.1.1-.517.919-1.389,1.83l-.164.169" fill="#a5a8a8"/>
  <path id="Path_195" data-name="Path 195" d="M343.034,234.7H65.539v7.41H80.382l-7.65,140.738,4.225.23L84.62,242.107H327.9l6.528,140.854h4.234l-6.526-140.854h10.9V234.7Z" fill="#345863"/>
  <path id="Path_196" data-name="Path 196" d="M146.476,190.936,161.863,235.9h69.676l-.514-2.316-28.174-.871-12.979-41.8-43.4.023Z" fill="#0b2b34"/>
  <path id="Path_197" data-name="Path 197" d="M177.352,212.057c.459,1.843-.33,3.647-1.763,4.03s-2.969-.8-3.429-2.641.329-3.647,1.763-4.031,2.969.8,3.429,2.642Z" fill="#fff"/>
</svg>
