<svg xmlns="http://www.w3.org/2000/svg" xmlns:xlink="http://www.w3.org/1999/xlink" viewBox="1017 2035 423 665">
  <defs>
    <style>
      .cls-1 {
        fill: #ededed;
      }

      .cls-2, .cls-5 {
        fill: none;
      }

      .cls-3 {
        clip-path: url(#clip-path);
      }

      .cls-4 {
        clip-path: url(#clip-path-2);
      }

      .cls-5 {
        stroke: #fff;
      }
    </style>
    <clipPath id="clip-path">
      <rect id="Rectangle_202" data-name="Rectangle 202" class="cls-1" width="423" height="665" transform="translate(1017 2035)"/>
    </clipPath>
    <clipPath id="clip-path-2">
      <path id="Path_1676" data-name="Path 1676" class="cls-2" d="M0-450.187H737.753v775.71H0Z" transform="translate(0 450.187)"/>
    </clipPath>
  </defs>
  <g id="ornament-4" class="cls-3">
    <g id="Group_1801" data-name="Group 1801" transform="matrix(0.588, 0.809, -0.809, 0.588, 1478.312, 2012.808)">
      <g id="Group_1800" data-name="Group 1800" class="cls-4">
        <g id="Group_1790" data-name="Group 1790" transform="translate(0.862 0.861)">
          <path id="Path_1666" data-name="Path 1666" class="cls-5" d="M17.7,10.063c29.024-17.351,74.093-43.939,135.262,0S258.934,162.556,321.827,215.11s242.955,1.723,362.709,199.878S491.466,753.341,416.6,759.227C269.273,770.8,81.831,664.581,17.7,356.4-17.1,189.138-56.614,54.495,17.7,10.063Z" transform="translate(24.482 13.917)"/>
        </g>
        <g id="Group_1791" data-name="Group 1791" transform="translate(30.853 53.423)">
          <path id="Path_1667" data-name="Path 1667" class="cls-5" d="M264.308,160.126C371.343,336.623,94.371,460.79,29.2,467.209c-129.453,12.746-297.149-80.645-355.3-354.219-31.529-148.323-68.27-268.02-3.93-310.787,25.176-16.735,64.543-41.919,119.158-3.276C-156.241-162.414-116.321-66.1-59.871-19.109S157.275-16.369,264.308,160.126Z" transform="translate(365.529 221.449)"/>
        </g>
        <g id="Group_1792" data-name="Group 1792" transform="translate(60.794 105.914)">
          <path id="Path_1668" data-name="Path 1668" class="cls-5" d="M231.1,140.3C325.417,295.132,84.325,403.276,28.819,410.216-82.725,424.166-230.706,343.569-282.888,104.6c-28.252-129.385-62.179-234.179-7.859-275.235,21.349-16.137,54.989-39.9,103.049-6.551C-139.6-143.808-104.556-59.736-54.545-18.3S136.791-14.541,231.1,140.3Z" transform="translate(319.607 194.024)"/>
        </g>
        <g id="Group_1793" data-name="Group 1793" transform="translate(90.643 158.312)">
          <path id="Path_1669" data-name="Path 1669" class="cls-5" d="M197.936,120.5C279.529,253.681,74.359,345.809,28.475,353.267c-93.562,15.2-221.9-52.664-268.113-257.01-24.98-110.457-56.036-200.426-11.789-239.683C-233.876-159-206-181.313-164.482-153.251c41.556,28.09,71.728,99.923,115.3,135.8S116.341-12.675,197.936,120.5Z" transform="translate(273.738 166.653)"/>
        </g>
        <g id="Group_1794" data-name="Group 1794" transform="translate(120.34 210.576)">
          <path id="Path_1670" data-name="Path 1670" class="cls-5" d="M164.832,100.767C233.705,212.287,64.543,288.406,28.2,296.372-47.255,312.9-156.075,257.68-196.321,87.967-218.027-3.572-246.168-78.85-212.039-116.162c13.783-15.07,35.863-35.881,70.839-13.1,35.01,22.8,60.313,82.4,97.442,112.721S95.959-10.752,164.832,100.767Z" transform="translate(227.957 139.358)"/>
        </g>
        <g id="Group_1795" data-name="Group 1795" transform="translate(149.719 262.654)">
          <path id="Path_1671" data-name="Path 1671" class="cls-5" d="M131.861,81.109c56.152,89.859-76.839,149.969-103.8,158.446-57.1,17.951-146.65-24.742-180.929-159.8C-171.31,7.112-196.543-53.7-172.518-88.821c10.028-14.662,26.275-33.883,54.73-16.376s48.9,64.879,79.593,89.638S75.709-8.749,131.861,81.109Z" transform="translate(182.36 112.172)"/>
        </g>
        <g id="Group_1796" data-name="Group 1796" transform="translate(178.409 314.45)">
          <path id="Path_1672" data-name="Path 1672" class="cls-5" d="M99.181,61.57c43.432,68.2-53.016,112.2-70.977,121.286C-9.968,202.17-80.814,172.013-109.131,71.662-124.31,17.868-146.8-28.787-132.708-61.363c6.224-14.393,16.657-31.906,38.626-19.652,21.869,12.2,37.487,47.357,61.733,66.559S55.747-6.631,99.181,61.57Z" transform="translate(137.164 85.15)"/>
        </g>
        <g id="Group_1797" data-name="Group 1797" transform="translate(205.488 365.804)">
          <path id="Path_1673" data-name="Path 1673" class="cls-5" d="M67.176,42.216c30.709,46.542-31.453,71.549-38.153,84.128-22.8,13.84-71.406,2.933-93.741-62.588C-76.669,28.693-96.855-4.009-92.225-33.717-90-47.984-85.275-63.685-69.7-56.646c15.223,6.884,26.072,29.835,43.88,43.477S36.462-4.326,67.176,42.216Z" transform="translate(92.902 58.383)"/>
        </g>
        <g id="Group_1798" data-name="Group 1798" transform="translate(228.048 416.329)">
          <path id="Path_1674" data-name="Path 1674" class="cls-5" d="M37.068,23.209C55.057,48.092,28.7,56.644,31.742,70.18,26.734,84.342-2.319,86.476-18.405,56.2c-8.9-16.764-27.321-34.963-31.436-61.922-2.152-14.084-3.088-28.079,6.413-26.2C-35.1-30.284-28.77-19.616-17.4-11.532S19.074-1.672,37.068,23.209Z" transform="translate(51.263 32.098)"/>
        </g>
        <g id="Group_1799" data-name="Group 1799" transform="translate(242.187 461.834)">
          <path id="Path_1675" data-name="Path 1675" class="cls-5" d="M.375,1.52C1.639-.532,3.621-3.689,8.545-1.167s10.668,10.878,15.94,14.1,14.724-4.68,27.5,9.81-2.2,32.635-6.555,34.624C36.857,61.28,22.559,55.959,10.067,31,3.281,17.455-2.872,6.779.375,1.52Z" transform="translate(0.518 2.102)"/>
        </g>
      </g>
    </g>
  </g>
</svg>
