<svg xmlns="http://www.w3.org/2000/svg" xmlns:xlink="http://www.w3.org/1999/xlink" viewBox="0 3420 399 180">
  <defs>
    <style>
      .cls-1 {
        fill: #fff;
        stroke: #707070;
      }

      .cls-2, .cls-5 {
        fill: none;
      }

      .cls-3 {
        clip-path: url(#clip-path);
      }

      .cls-4 {
        clip-path: url(#clip-path-2);
      }

      .cls-5 {
        stroke: #e99437;
      }
    </style>
    <clipPath id="clip-path">
      <rect id="Rectangle_208" data-name="Rectangle 208" class="cls-1" width="399" height="180" transform="translate(0 3420)"/>
    </clipPath>
    <clipPath id="clip-path-2">
      <path id="Path_1664" data-name="Path 1664" class="cls-2" d="M0-450.187H428.159V0H0Z" transform="translate(0 450.187)"/>
    </clipPath>
  </defs>
  <g id="ornament-6" class="cls-3">
    <g id="Group_1808" data-name="Group 1808" transform="translate(506 2693)">
      <g id="Group_1784" data-name="Group 1784" class="cls-4" transform="translate(-700 641)">
        <g id="Group_1774" data-name="Group 1774">
          <path id="Path_1654" data-name="Path 1654" class="cls-5" d="M0,0C16.844-10.07,43-25.5,78.5,0s61.5,88.5,98,119,141,1,210.5,116S274.951,431.365,231.5,434.78C146,441.5,37.217,379.853,0,201-20.2,103.928-43.13,25.786,0,0Z" transform="translate(24.982 14.417)"/>
        </g>
        <g id="Group_1775" data-name="Group 1775">
          <path id="Path_1655" data-name="Path 1655" class="cls-5" d="M0,0C62.117,102.43-98.624,174.491-136.449,178.215c-75.129,7.4-172.449-46.8-206.2-205.572-18.3-86.08-39.622-155.545-2.281-180.367,14.61-9.712,37.457-24.328,69.153-1.9s54.876,78.331,87.637,105.6S-62.119-102.43,0,0Z" transform="translate(383.436 252.455)"/>
        </g>
        <g id="Group_1776" data-name="Group 1776">
          <path id="Path_1656" data-name="Path 1656" class="cls-5" d="M0,0C54.734,89.86-85.184,152.622-117.4,156.65c-64.735,8.1-150.617-38.68-180.9-177.364-16.4-75.089-36.086-135.907-4.561-159.734,12.39-9.365,31.913-23.157,59.805-3.8,27.914,19.37,48.252,68.162,77.277,92.209S-54.736-89.86,0,0Z" transform="translate(354.89 255.492)"/>
        </g>
        <g id="Group_1777" data-name="Group 1777">
          <path id="Path_1657" data-name="Path 1657" class="cls-5" d="M0,0C47.353,77.291-71.718,130.758-98.347,135.085c-54.3,8.824-128.782-30.563-155.6-149.156-14.5-64.1-32.519-116.317-6.842-139.1,10.186-9.038,26.366-21.988,50.459-5.7,24.117,16.3,41.627,57.993,66.914,78.814S-47.354-77.29,0,0Z" transform="translate(326.344 258.529)"/>
        </g>
        <g id="Group_1778" data-name="Group 1778">
          <path id="Path_1658" data-name="Path 1658" class="cls-5" d="M0,0C39.969,64.72-58.205,108.9-79.3,113.52c-43.792,9.6-106.946-22.455-130.3-120.948-12.6-53.125-28.928-96.813-9.122-118.468,8-8.745,20.813-20.823,41.111-7.6,20.317,13.233,35,47.823,56.552,65.418S-39.973-64.72,0,0Z" transform="translate(297.798 261.567)"/>
        </g>
        <g id="Group_1779" data-name="Group 1779">
          <path id="Path_1659" data-name="Path 1659" class="cls-5" d="M0,0C32.588,52.15-44.6,87.035-60.244,91.955c-33.135,10.418-85.109-14.36-105-92.74-10.7-42.16-25.344-77.451-11.4-97.835,5.819-8.508,15.249-19.665,31.763-9.5s28.379,37.653,46.19,52.022S-32.59-52.15,0,0Z" transform="translate(269.251 264.604)"/>
        </g>
        <g id="Group_1780" data-name="Group 1780">
          <path id="Path_1660" data-name="Path 1660" class="cls-5" d="M0,0C25.2,39.581-30.768,65.115-41.192,70.39c-22.154,11.21-63.269-6.295-79.7-64.532-8.809-31.221-21.858-58.3-13.683-77.2,3.612-8.355,9.667-18.517,22.416-11.406,12.693,7.081,21.756,27.485,35.828,38.627S-25.207-39.581,0,0Z" transform="translate(240.704 267.642)"/>
        </g>
        <g id="Group_1781" data-name="Group 1781">
          <path id="Path_1661" data-name="Path 1661" class="cls-5" d="M0,0C17.822,27.011-18.254,41.524-22.142,48.824c-13.231,8.033-41.439,1.7-54.4-36.323C-83.481-7.847-95.2-26.829-92.509-44.068c1.291-8.28,4.033-17.392,13.07-13.307,8.835,4,15.131,17.315,25.465,25.232S-17.825-27.011,0,0Z" transform="translate(212.158 270.679)"/>
        </g>
        <g id="Group_1782" data-name="Group 1782">
          <path id="Path_1662" data-name="Path 1662" class="cls-5" d="M0,0C10.439,14.441-4.854,19.405-3.091,27.26c-2.907,8.22-19.765,9.455-29.1-8.116-5.169-9.728-15.859-20.29-18.246-35.936-1.248-8.174-1.791-16.3,3.722-15.207,4.835.955,8.508,7.145,15.1,11.836S-10.443-14.44,0,0Z" transform="translate(183.612 273.716)"/>
        </g>
        <g id="Group_1783" data-name="Group 1783">
          <path id="Path_1663" data-name="Path 1663" class="cls-5" d="M0,0C.734-1.192,1.884-3.024,4.742-1.559s6.191,6.312,9.251,8.183,8.545-2.715,15.961,5.694-1.275,18.939-3.8,20.093c-4.977,2.27-13.275-.818-20.525-15.3C1.687,9.247-1.884,3.051,0,0Z" transform="translate(141.072 270.13)"/>
        </g>
      </g>
    </g>
  </g>
</svg>
