<svg xmlns="http://www.w3.org/2000/svg" xmlns:xlink="http://www.w3.org/1999/xlink" viewBox="1166 899 274 194">
  <defs>
    <style>
      .cls-1 {
        fill: #fff;
        stroke: #707070;
      }

      .cls-2 {
        fill: none;
      }

      .cls-3 {
        clip-path: url(#clip-path);
      }

      .cls-4 {
        clip-path: url(#clip-path-2);
      }

      .cls-5 {
        fill: #ffc032;
      }

      .cls-6 {
        fill: #ffde81;
      }
    </style>
    <clipPath id="clip-path">
      <rect id="Rectangle_203" data-name="Rectangle 203" class="cls-1" width="274" height="194" transform="translate(1166 899)"/>
    </clipPath>
    <clipPath id="clip-path-2">
      <path id="Path_490" data-name="Path 490" class="cls-2" d="M0-1002H125.317v125.317H0Z" transform="translate(0 1002)"/>
    </clipPath>
  </defs>
  <g id="ornament-1" class="cls-3">
    <g id="Group_1803" data-name="Group 1803">
      <g id="Group_605" data-name="Group 605" transform="translate(1283.683 952)">
        <g id="Group_604" data-name="Group 604" class="cls-4" transform="translate(31 1)">
          <g id="Group_552" data-name="Group 552" transform="translate(2.501 91.049)">
            <path id="Path_438" data-name="Path 438" class="cls-5" d="M-15.749-7.874a1.126,1.126,0,0,1-1.126,1.126A1.126,1.126,0,0,1-18-7.874,1.126,1.126,0,0,1-16.874-9a1.126,1.126,0,0,1,1.126,1.126" transform="translate(18 9)"/>
          </g>
          <g id="Group_553" data-name="Group 553" transform="translate(0 88.547)">
            <path id="Path_439" data-name="Path 439" class="cls-5" d="M-25.373-15.749a1.377,1.377,0,0,0-1.376,1.376A1.377,1.377,0,0,0-25.373-13,1.377,1.377,0,0,0-24-14.373a1.377,1.377,0,0,0-1.376-1.376m0,5A3.631,3.631,0,0,1-29-14.373,3.631,3.631,0,0,1-25.373-18a3.631,3.631,0,0,1,3.627,3.627,3.631,3.631,0,0,1-3.627,3.627" transform="translate(29 18)"/>
          </g>
          <g id="Group_554" data-name="Group 554" transform="translate(32.017 91.049)">
            <path id="Path_440" data-name="Path 440" class="cls-5" d="M-15.749-7.874a1.126,1.126,0,0,1-1.126,1.126A1.126,1.126,0,0,1-18-7.874,1.126,1.126,0,0,1-16.874-9a1.126,1.126,0,0,1,1.126,1.126" transform="translate(18 9)"/>
          </g>
          <g id="Group_555" data-name="Group 555" transform="translate(29.516 88.547)">
            <path id="Path_441" data-name="Path 441" class="cls-5" d="M-25.373-15.749a1.377,1.377,0,0,0-1.376,1.376A1.377,1.377,0,0,0-25.373-13,1.377,1.377,0,0,0-24-14.373a1.377,1.377,0,0,0-1.376-1.376m0,5A3.631,3.631,0,0,1-29-14.373,3.631,3.631,0,0,1-25.373-18a3.631,3.631,0,0,1,3.627,3.627,3.631,3.631,0,0,1-3.627,3.627" transform="translate(29 18)"/>
          </g>
          <g id="Group_556" data-name="Group 556" transform="translate(61.533 91.049)">
            <path id="Path_442" data-name="Path 442" class="cls-5" d="M-15.749-7.874a1.126,1.126,0,0,1-1.126,1.126A1.126,1.126,0,0,1-18-7.874,1.126,1.126,0,0,1-16.874-9a1.126,1.126,0,0,1,1.126,1.126" transform="translate(18 9)"/>
          </g>
          <g id="Group_557" data-name="Group 557" transform="translate(59.032 88.547)">
            <path id="Path_443" data-name="Path 443" class="cls-5" d="M-25.373-15.749a1.377,1.377,0,0,0-1.376,1.376A1.377,1.377,0,0,0-25.373-13,1.377,1.377,0,0,0-24-14.373a1.377,1.377,0,0,0-1.376-1.376m0,5A3.631,3.631,0,0,1-29-14.373,3.631,3.631,0,0,1-25.373-18a3.631,3.631,0,0,1,3.627,3.627,3.631,3.631,0,0,1-3.627,3.627" transform="translate(29 18)"/>
          </g>
          <g id="Group_558" data-name="Group 558" transform="translate(91.049 91.049)">
            <path id="Path_444" data-name="Path 444" class="cls-5" d="M-15.749-7.874a1.126,1.126,0,0,1-1.126,1.126A1.126,1.126,0,0,1-18-7.874,1.126,1.126,0,0,1-16.874-9a1.126,1.126,0,0,1,1.126,1.126" transform="translate(18 9)"/>
          </g>
          <g id="Group_559" data-name="Group 559" transform="translate(88.547 88.547)">
            <path id="Path_445" data-name="Path 445" class="cls-5" d="M-25.373-15.749a1.377,1.377,0,0,0-1.376,1.376A1.377,1.377,0,0,0-25.373-13,1.377,1.377,0,0,0-24-14.373a1.377,1.377,0,0,0-1.376-1.376m0,5A3.631,3.631,0,0,1-29-14.373,3.631,3.631,0,0,1-25.373-18a3.631,3.631,0,0,1,3.627,3.627,3.631,3.631,0,0,1-3.627,3.627" transform="translate(29 18)"/>
          </g>
          <g id="Group_560" data-name="Group 560" transform="translate(120.564 91.049)">
            <path id="Path_446" data-name="Path 446" class="cls-5" d="M-15.749-7.874a1.126,1.126,0,0,1-1.126,1.126A1.126,1.126,0,0,1-18-7.874,1.126,1.126,0,0,1-16.874-9a1.126,1.126,0,0,1,1.126,1.126" transform="translate(18 9)"/>
          </g>
          <g id="Group_561" data-name="Group 561" transform="translate(118.063 88.547)">
            <path id="Path_447" data-name="Path 447" class="cls-5" d="M-25.373-15.749a1.377,1.377,0,0,0-1.376,1.376A1.377,1.377,0,0,0-25.373-13,1.377,1.377,0,0,0-24-14.373a1.377,1.377,0,0,0-1.376-1.376m0,5A3.631,3.631,0,0,1-29-14.373,3.631,3.631,0,0,1-25.373-18a3.631,3.631,0,0,1,3.627,3.627,3.631,3.631,0,0,1-3.627,3.627" transform="translate(29 18)"/>
          </g>
          <g id="Group_562" data-name="Group 562" transform="translate(2.501 120.564)">
            <path id="Path_448" data-name="Path 448" class="cls-5" d="M-15.749-7.874a1.126,1.126,0,0,1-1.126,1.126A1.126,1.126,0,0,1-18-7.874,1.126,1.126,0,0,1-16.874-9a1.126,1.126,0,0,1,1.126,1.126" transform="translate(18 9)"/>
          </g>
          <g id="Group_563" data-name="Group 563" transform="translate(0 118.063)">
            <path id="Path_449" data-name="Path 449" class="cls-5" d="M-25.373-15.749a1.377,1.377,0,0,0-1.376,1.376A1.377,1.377,0,0,0-25.373-13,1.377,1.377,0,0,0-24-14.373a1.377,1.377,0,0,0-1.376-1.376m0,5A3.631,3.631,0,0,1-29-14.373,3.631,3.631,0,0,1-25.373-18a3.631,3.631,0,0,1,3.627,3.627,3.631,3.631,0,0,1-3.627,3.627" transform="translate(29 18)"/>
          </g>
          <g id="Group_564" data-name="Group 564" transform="translate(32.017 120.564)">
            <path id="Path_450" data-name="Path 450" class="cls-5" d="M-15.749-7.874a1.126,1.126,0,0,1-1.126,1.126A1.126,1.126,0,0,1-18-7.874,1.126,1.126,0,0,1-16.874-9a1.126,1.126,0,0,1,1.126,1.126" transform="translate(18 9)"/>
          </g>
          <g id="Group_565" data-name="Group 565" transform="translate(29.516 118.063)">
            <path id="Path_451" data-name="Path 451" class="cls-5" d="M-25.373-15.749a1.377,1.377,0,0,0-1.376,1.376A1.377,1.377,0,0,0-25.373-13,1.377,1.377,0,0,0-24-14.373a1.377,1.377,0,0,0-1.376-1.376m0,5A3.631,3.631,0,0,1-29-14.373,3.631,3.631,0,0,1-25.373-18a3.631,3.631,0,0,1,3.627,3.627,3.631,3.631,0,0,1-3.627,3.627" transform="translate(29 18)"/>
          </g>
          <g id="Group_566" data-name="Group 566" transform="translate(61.533 120.564)">
            <path id="Path_452" data-name="Path 452" class="cls-5" d="M-15.749-7.874a1.126,1.126,0,0,1-1.126,1.126A1.126,1.126,0,0,1-18-7.874,1.126,1.126,0,0,1-16.874-9a1.126,1.126,0,0,1,1.126,1.126" transform="translate(18 9)"/>
          </g>
          <g id="Group_567" data-name="Group 567" transform="translate(59.032 118.063)">
            <path id="Path_453" data-name="Path 453" class="cls-5" d="M-25.373-15.749a1.377,1.377,0,0,0-1.376,1.376A1.377,1.377,0,0,0-25.373-13,1.377,1.377,0,0,0-24-14.373a1.377,1.377,0,0,0-1.376-1.376m0,5A3.631,3.631,0,0,1-29-14.373,3.631,3.631,0,0,1-25.373-18a3.631,3.631,0,0,1,3.627,3.627,3.631,3.631,0,0,1-3.627,3.627" transform="translate(29 18)"/>
          </g>
          <g id="Group_568" data-name="Group 568" transform="translate(91.049 120.564)">
            <path id="Path_454" data-name="Path 454" class="cls-5" d="M-15.749-7.874a1.126,1.126,0,0,1-1.126,1.126A1.126,1.126,0,0,1-18-7.874,1.126,1.126,0,0,1-16.874-9a1.126,1.126,0,0,1,1.126,1.126" transform="translate(18 9)"/>
          </g>
          <g id="Group_569" data-name="Group 569" transform="translate(88.547 118.063)">
            <path id="Path_455" data-name="Path 455" class="cls-5" d="M-25.373-15.749a1.377,1.377,0,0,0-1.376,1.376A1.377,1.377,0,0,0-25.373-13,1.377,1.377,0,0,0-24-14.373a1.377,1.377,0,0,0-1.376-1.376m0,5A3.631,3.631,0,0,1-29-14.373,3.631,3.631,0,0,1-25.373-18a3.631,3.631,0,0,1,3.627,3.627,3.631,3.631,0,0,1-3.627,3.627" transform="translate(29 18)"/>
          </g>
          <g id="Group_570" data-name="Group 570" transform="translate(120.564 120.564)">
            <path id="Path_456" data-name="Path 456" class="cls-5" d="M-15.749-7.874a1.126,1.126,0,0,1-1.126,1.126A1.126,1.126,0,0,1-18-7.874,1.126,1.126,0,0,1-16.874-9a1.126,1.126,0,0,1,1.126,1.126" transform="translate(18 9)"/>
          </g>
          <g id="Group_571" data-name="Group 571" transform="translate(118.063 118.063)">
            <path id="Path_457" data-name="Path 457" class="cls-5" d="M-25.373-15.749a1.377,1.377,0,0,0-1.376,1.376A1.377,1.377,0,0,0-25.373-13,1.377,1.377,0,0,0-24-14.373a1.377,1.377,0,0,0-1.376-1.376m0,5A3.631,3.631,0,0,1-29-14.373,3.631,3.631,0,0,1-25.373-18a3.631,3.631,0,0,1,3.627,3.627,3.631,3.631,0,0,1-3.627,3.627" transform="translate(29 18)"/>
          </g>
          <g id="Group_572" data-name="Group 572" transform="translate(2.501 120.564)">
            <path id="Path_458" data-name="Path 458" class="cls-5" d="M-7.874,0A1.126,1.126,0,0,1-6.749,1.126,1.126,1.126,0,0,1-7.874,2.251,1.126,1.126,0,0,1-9,1.126,1.126,1.126,0,0,1-7.874,0" transform="translate(9)"/>
          </g>
          <g id="Group_573" data-name="Group 573" transform="translate(0 118.063)">
            <path id="Path_459" data-name="Path 459" class="cls-5" d="M-25.373-15.749a1.377,1.377,0,0,0-1.376,1.376A1.377,1.377,0,0,0-25.373-13,1.377,1.377,0,0,0-24-14.373a1.377,1.377,0,0,0-1.376-1.376m0,5A3.631,3.631,0,0,1-29-14.373,3.631,3.631,0,0,1-25.373-18a3.631,3.631,0,0,1,3.627,3.627,3.631,3.631,0,0,1-3.627,3.627" transform="translate(29 18)"/>
          </g>
          <g id="Group_574" data-name="Group 574" transform="translate(2.501 61.533)">
            <path id="Path_460" data-name="Path 460" class="cls-5" d="M-15.749-7.874a1.126,1.126,0,0,1-1.126,1.126A1.126,1.126,0,0,1-18-7.874,1.126,1.126,0,0,1-16.874-9a1.126,1.126,0,0,1,1.126,1.126" transform="translate(18 9)"/>
          </g>
          <g id="Group_575" data-name="Group 575" transform="translate(0 59.032)">
            <path id="Path_461" data-name="Path 461" class="cls-5" d="M-25.373-15.749a1.377,1.377,0,0,0-1.376,1.376A1.377,1.377,0,0,0-25.373-13,1.377,1.377,0,0,0-24-14.373a1.377,1.377,0,0,0-1.376-1.376m0,5A3.631,3.631,0,0,1-29-14.373,3.631,3.631,0,0,1-25.373-18a3.631,3.631,0,0,1,3.627,3.627,3.631,3.631,0,0,1-3.627,3.627" transform="translate(29 18)"/>
          </g>
          <g id="Group_576" data-name="Group 576" transform="translate(32.017 61.533)">
            <path id="Path_462" data-name="Path 462" class="cls-5" d="M-15.749-7.874a1.126,1.126,0,0,1-1.126,1.126A1.126,1.126,0,0,1-18-7.874,1.126,1.126,0,0,1-16.874-9a1.126,1.126,0,0,1,1.126,1.126" transform="translate(18 9)"/>
          </g>
          <g id="Group_577" data-name="Group 577" transform="translate(29.516 59.032)">
            <path id="Path_463" data-name="Path 463" class="cls-5" d="M-25.373-15.749a1.377,1.377,0,0,0-1.376,1.376A1.377,1.377,0,0,0-25.373-13,1.377,1.377,0,0,0-24-14.373a1.377,1.377,0,0,0-1.376-1.376m0,5A3.631,3.631,0,0,1-29-14.373,3.631,3.631,0,0,1-25.373-18a3.631,3.631,0,0,1,3.627,3.627,3.631,3.631,0,0,1-3.627,3.627" transform="translate(29 18)"/>
          </g>
          <g id="Group_578" data-name="Group 578" transform="translate(61.533 61.533)">
            <path id="Path_464" data-name="Path 464" class="cls-5" d="M-15.749-7.874a1.126,1.126,0,0,1-1.126,1.126A1.126,1.126,0,0,1-18-7.874,1.126,1.126,0,0,1-16.874-9a1.126,1.126,0,0,1,1.126,1.126" transform="translate(18 9)"/>
          </g>
          <g id="Group_579" data-name="Group 579" transform="translate(59.032 59.032)">
            <path id="Path_465" data-name="Path 465" class="cls-5" d="M-25.373-15.749a1.377,1.377,0,0,0-1.376,1.376A1.377,1.377,0,0,0-25.373-13,1.377,1.377,0,0,0-24-14.373a1.377,1.377,0,0,0-1.376-1.376m0,5A3.631,3.631,0,0,1-29-14.373,3.631,3.631,0,0,1-25.373-18a3.631,3.631,0,0,1,3.627,3.627,3.631,3.631,0,0,1-3.627,3.627" transform="translate(29 18)"/>
          </g>
          <g id="Group_580" data-name="Group 580" transform="translate(91.049 61.533)">
            <path id="Path_466" data-name="Path 466" class="cls-5" d="M-15.749-7.874a1.126,1.126,0,0,1-1.126,1.126A1.126,1.126,0,0,1-18-7.874,1.126,1.126,0,0,1-16.874-9a1.126,1.126,0,0,1,1.126,1.126" transform="translate(18 9)"/>
          </g>
          <g id="Group_581" data-name="Group 581" transform="translate(88.547 59.032)">
            <path id="Path_467" data-name="Path 467" class="cls-5" d="M-25.373-15.749a1.377,1.377,0,0,0-1.376,1.376A1.377,1.377,0,0,0-25.373-13,1.377,1.377,0,0,0-24-14.373a1.377,1.377,0,0,0-1.376-1.376m0,5A3.631,3.631,0,0,1-29-14.373,3.631,3.631,0,0,1-25.373-18a3.631,3.631,0,0,1,3.627,3.627,3.631,3.631,0,0,1-3.627,3.627" transform="translate(29 18)"/>
          </g>
          <g id="Group_582" data-name="Group 582" transform="translate(120.564 61.533)">
            <path id="Path_468" data-name="Path 468" class="cls-5" d="M-15.749-7.874a1.126,1.126,0,0,1-1.126,1.126A1.126,1.126,0,0,1-18-7.874,1.126,1.126,0,0,1-16.874-9a1.126,1.126,0,0,1,1.126,1.126" transform="translate(18 9)"/>
          </g>
          <g id="Group_583" data-name="Group 583" transform="translate(118.063 59.032)">
            <path id="Path_469" data-name="Path 469" class="cls-5" d="M-25.373-15.749a1.377,1.377,0,0,0-1.376,1.376A1.377,1.377,0,0,0-25.373-13,1.377,1.377,0,0,0-24-14.373a1.377,1.377,0,0,0-1.376-1.376m0,5A3.631,3.631,0,0,1-29-14.373,3.631,3.631,0,0,1-25.373-18a3.631,3.631,0,0,1,3.627,3.627,3.631,3.631,0,0,1-3.627,3.627" transform="translate(29 18)"/>
          </g>
          <g id="Group_584" data-name="Group 584" transform="translate(2.501 32.017)">
            <path id="Path_470" data-name="Path 470" class="cls-5" d="M-15.749-7.874a1.126,1.126,0,0,1-1.126,1.126A1.126,1.126,0,0,1-18-7.874,1.126,1.126,0,0,1-16.874-9a1.126,1.126,0,0,1,1.126,1.126" transform="translate(18 9)"/>
          </g>
          <g id="Group_585" data-name="Group 585" transform="translate(0 29.516)">
            <path id="Path_471" data-name="Path 471" class="cls-5" d="M-25.373-15.749a1.377,1.377,0,0,0-1.376,1.376A1.377,1.377,0,0,0-25.373-13,1.377,1.377,0,0,0-24-14.373a1.377,1.377,0,0,0-1.376-1.376m0,5A3.631,3.631,0,0,1-29-14.373,3.631,3.631,0,0,1-25.373-18a3.631,3.631,0,0,1,3.627,3.627,3.631,3.631,0,0,1-3.627,3.627" transform="translate(29 18)"/>
          </g>
          <g id="Group_586" data-name="Group 586" transform="translate(32.017 32.017)">
            <path id="Path_472" data-name="Path 472" class="cls-5" d="M-15.749-7.874a1.126,1.126,0,0,1-1.126,1.126A1.126,1.126,0,0,1-18-7.874,1.126,1.126,0,0,1-16.874-9a1.126,1.126,0,0,1,1.126,1.126" transform="translate(18 9)"/>
          </g>
          <g id="Group_587" data-name="Group 587" transform="translate(29.516 29.516)">
            <path id="Path_473" data-name="Path 473" class="cls-5" d="M-25.373-15.749a1.377,1.377,0,0,0-1.376,1.376A1.377,1.377,0,0,0-25.373-13,1.377,1.377,0,0,0-24-14.373a1.377,1.377,0,0,0-1.376-1.376m0,5A3.631,3.631,0,0,1-29-14.373,3.631,3.631,0,0,1-25.373-18a3.631,3.631,0,0,1,3.627,3.627,3.631,3.631,0,0,1-3.627,3.627" transform="translate(29 18)"/>
          </g>
          <g id="Group_588" data-name="Group 588" transform="translate(61.533 32.017)">
            <path id="Path_474" data-name="Path 474" class="cls-5" d="M-15.749-7.874a1.126,1.126,0,0,1-1.126,1.126A1.126,1.126,0,0,1-18-7.874,1.126,1.126,0,0,1-16.874-9a1.126,1.126,0,0,1,1.126,1.126" transform="translate(18 9)"/>
          </g>
          <g id="Group_589" data-name="Group 589" transform="translate(59.032 29.516)">
            <path id="Path_475" data-name="Path 475" class="cls-5" d="M-25.373-15.749a1.377,1.377,0,0,0-1.376,1.376A1.377,1.377,0,0,0-25.373-13,1.377,1.377,0,0,0-24-14.373a1.377,1.377,0,0,0-1.376-1.376m0,5A3.631,3.631,0,0,1-29-14.373,3.631,3.631,0,0,1-25.373-18a3.631,3.631,0,0,1,3.627,3.627,3.631,3.631,0,0,1-3.627,3.627" transform="translate(29 18)"/>
          </g>
          <g id="Group_590" data-name="Group 590" transform="translate(91.049 32.017)">
            <path id="Path_476" data-name="Path 476" class="cls-5" d="M-15.749-7.874a1.126,1.126,0,0,1-1.126,1.126A1.126,1.126,0,0,1-18-7.874,1.126,1.126,0,0,1-16.874-9a1.126,1.126,0,0,1,1.126,1.126" transform="translate(18 9)"/>
          </g>
          <g id="Group_591" data-name="Group 591" transform="translate(88.547 29.516)">
            <path id="Path_477" data-name="Path 477" class="cls-5" d="M-25.373-15.749a1.377,1.377,0,0,0-1.376,1.376A1.377,1.377,0,0,0-25.373-13,1.377,1.377,0,0,0-24-14.373a1.377,1.377,0,0,0-1.376-1.376m0,5A3.631,3.631,0,0,1-29-14.373,3.631,3.631,0,0,1-25.373-18a3.631,3.631,0,0,1,3.627,3.627,3.631,3.631,0,0,1-3.627,3.627" transform="translate(29 18)"/>
          </g>
          <g id="Group_592" data-name="Group 592" transform="translate(120.564 32.017)">
            <path id="Path_478" data-name="Path 478" class="cls-5" d="M-15.749-7.874a1.126,1.126,0,0,1-1.126,1.126A1.126,1.126,0,0,1-18-7.874,1.126,1.126,0,0,1-16.874-9a1.126,1.126,0,0,1,1.126,1.126" transform="translate(18 9)"/>
          </g>
          <g id="Group_593" data-name="Group 593" transform="translate(118.063 29.516)">
            <path id="Path_479" data-name="Path 479" class="cls-5" d="M-25.373-15.749a1.377,1.377,0,0,0-1.376,1.376A1.377,1.377,0,0,0-25.373-13,1.377,1.377,0,0,0-24-14.373a1.377,1.377,0,0,0-1.376-1.376m0,5A3.631,3.631,0,0,1-29-14.373,3.631,3.631,0,0,1-25.373-18a3.631,3.631,0,0,1,3.627,3.627,3.631,3.631,0,0,1-3.627,3.627" transform="translate(29 18)"/>
          </g>
          <g id="Group_594" data-name="Group 594" transform="translate(2.501 2.501)">
            <path id="Path_480" data-name="Path 480" class="cls-5" d="M-15.749-7.874a1.126,1.126,0,0,1-1.126,1.126A1.126,1.126,0,0,1-18-7.874,1.126,1.126,0,0,1-16.874-9a1.126,1.126,0,0,1,1.126,1.126" transform="translate(18 9)"/>
          </g>
          <g id="Group_595" data-name="Group 595">
            <path id="Path_481" data-name="Path 481" class="cls-5" d="M-25.373-15.749a1.377,1.377,0,0,0-1.376,1.376A1.377,1.377,0,0,0-25.373-13,1.377,1.377,0,0,0-24-14.373a1.377,1.377,0,0,0-1.376-1.376m0,5A3.631,3.631,0,0,1-29-14.373,3.631,3.631,0,0,1-25.373-18a3.631,3.631,0,0,1,3.627,3.627,3.631,3.631,0,0,1-3.627,3.627" transform="translate(29 18)"/>
          </g>
          <g id="Group_596" data-name="Group 596" transform="translate(32.017 2.501)">
            <path id="Path_482" data-name="Path 482" class="cls-5" d="M-15.749-7.874a1.126,1.126,0,0,1-1.126,1.126A1.126,1.126,0,0,1-18-7.874,1.126,1.126,0,0,1-16.874-9a1.126,1.126,0,0,1,1.126,1.126" transform="translate(18 9)"/>
          </g>
          <g id="Group_597" data-name="Group 597" transform="translate(29.516)">
            <path id="Path_483" data-name="Path 483" class="cls-5" d="M-25.373-15.749a1.377,1.377,0,0,0-1.376,1.376A1.377,1.377,0,0,0-25.373-13,1.377,1.377,0,0,0-24-14.373a1.377,1.377,0,0,0-1.376-1.376m0,5A3.631,3.631,0,0,1-29-14.373,3.631,3.631,0,0,1-25.373-18a3.631,3.631,0,0,1,3.627,3.627,3.631,3.631,0,0,1-3.627,3.627" transform="translate(29 18)"/>
          </g>
          <g id="Group_598" data-name="Group 598" transform="translate(61.533 2.501)">
            <path id="Path_484" data-name="Path 484" class="cls-5" d="M-15.749-7.874a1.126,1.126,0,0,1-1.126,1.126A1.126,1.126,0,0,1-18-7.874,1.126,1.126,0,0,1-16.874-9a1.126,1.126,0,0,1,1.126,1.126" transform="translate(18 9)"/>
          </g>
          <g id="Group_599" data-name="Group 599" transform="translate(59.032)">
            <path id="Path_485" data-name="Path 485" class="cls-5" d="M-25.373-15.749a1.377,1.377,0,0,0-1.376,1.376A1.377,1.377,0,0,0-25.373-13,1.377,1.377,0,0,0-24-14.373a1.377,1.377,0,0,0-1.376-1.376m0,5A3.631,3.631,0,0,1-29-14.373,3.631,3.631,0,0,1-25.373-18a3.631,3.631,0,0,1,3.627,3.627,3.631,3.631,0,0,1-3.627,3.627" transform="translate(29 18)"/>
          </g>
          <g id="Group_600" data-name="Group 600" transform="translate(91.049 2.501)">
            <path id="Path_486" data-name="Path 486" class="cls-5" d="M-15.749-7.874a1.126,1.126,0,0,1-1.126,1.126A1.126,1.126,0,0,1-18-7.874,1.126,1.126,0,0,1-16.874-9a1.126,1.126,0,0,1,1.126,1.126" transform="translate(18 9)"/>
          </g>
          <g id="Group_601" data-name="Group 601" transform="translate(88.547)">
            <path id="Path_487" data-name="Path 487" class="cls-5" d="M-25.373-15.749a1.377,1.377,0,0,0-1.376,1.376A1.377,1.377,0,0,0-25.373-13,1.377,1.377,0,0,0-24-14.373a1.377,1.377,0,0,0-1.376-1.376m0,5A3.631,3.631,0,0,1-29-14.373,3.631,3.631,0,0,1-25.373-18a3.631,3.631,0,0,1,3.627,3.627,3.631,3.631,0,0,1-3.627,3.627" transform="translate(29 18)"/>
          </g>
          <g id="Group_602" data-name="Group 602" transform="translate(120.564 2.501)">
            <path id="Path_488" data-name="Path 488" class="cls-5" d="M-15.749-7.874a1.126,1.126,0,0,1-1.126,1.126A1.126,1.126,0,0,1-18-7.874,1.126,1.126,0,0,1-16.874-9a1.126,1.126,0,0,1,1.126,1.126" transform="translate(18 9)"/>
          </g>
          <g id="Group_603" data-name="Group 603" transform="translate(118.063)">
            <path id="Path_489" data-name="Path 489" class="cls-5" d="M-25.373-15.749a1.377,1.377,0,0,0-1.376,1.376A1.377,1.377,0,0,0-25.373-13,1.377,1.377,0,0,0-24-14.373a1.377,1.377,0,0,0-1.376-1.376m0,5A3.631,3.631,0,0,1-29-14.373,3.631,3.631,0,0,1-25.373-18a3.631,3.631,0,0,1,3.627,3.627,3.631,3.631,0,0,1-3.627,3.627" transform="translate(29 18)"/>
          </g>
        </g>
      </g>
      <path id="Path_437" data-name="Path 437" class="cls-6" d="M430.583,1695.045c-26.342,13.057-77.9,35.181-80.661-22.914s58.982-126.739,142.7-138.525,145.971,28.61,166.818,76.427-6.807,100.541-74.9,85.012-68.661-17.006-87.652-16.8S456.924,1681.988,430.583,1695.045Z" transform="translate(1321.463 -762.242) rotate(16)"/>
    </g>
  </g>
</svg>
