<svg xmlns="http://www.w3.org/2000/svg" xmlns:xlink="http://www.w3.org/1999/xlink" viewBox="48 -1612 157.813 162.677">
  <defs>
    <style>
      .cls-1 {
        fill: none;
      }

      .cls-2 {
        clip-path: url(#clip-path);
      }

      .cls-3 {
        fill: url(#linear-gradient);
      }

      .cls-4 {
        clip-path: url(#clip-path-2);
      }

      .cls-5 {
        fill: url(#linear-gradient-2);
      }

      .cls-6 {
        clip-path: url(#clip-path-3);
      }

      .cls-7 {
        fill: url(#linear-gradient-3);
      }

      .cls-8 {
        clip-path: url(#clip-path-4);
      }

      .cls-9 {
        fill: url(#linear-gradient-4);
      }

      .cls-10 {
        clip-path: url(#clip-path-5);
      }

      .cls-11 {
        clip-path: url(#clip-path-6);
      }

      .cls-12 {
        fill: url(#linear-gradient-6);
      }

      .cls-13 {
        clip-path: url(#clip-path-7);
      }

      .cls-14 {
        clip-path: url(#clip-path-8);
      }

      .cls-15 {
        fill: url(#linear-gradient-8);
      }

      .cls-16 {
        clip-path: url(#clip-path-9);
      }

      .cls-17 {
        clip-path: url(#clip-path-10);
      }

      .cls-18 {
        fill: url(#linear-gradient-10);
      }

      .cls-19 {
        clip-path: url(#clip-path-11);
      }

      .cls-20 {
        fill: url(#linear-gradient-11);
      }

      .cls-21 {
        clip-path: url(#clip-path-12);
      }

      .cls-22 {
        fill: url(#linear-gradient-12);
      }

      .cls-23 {
        clip-path: url(#clip-path-13);
      }

      .cls-24 {
        fill: url(#linear-gradient-13);
      }

      .cls-25 {
        clip-path: url(#clip-path-14);
      }

      .cls-26 {
        fill: url(#linear-gradient-14);
      }

      .cls-27 {
        clip-path: url(#clip-path-15);
      }

      .cls-28 {
        fill: url(#linear-gradient-15);
      }

      .cls-29 {
        clip-path: url(#clip-path-16);
      }

      .cls-30 {
        fill: url(#linear-gradient-16);
      }

      .cls-31 {
        clip-path: url(#clip-path-17);
      }

      .cls-32 {
        fill: url(#linear-gradient-17);
      }

      .cls-33 {
        clip-path: url(#clip-path-18);
      }

      .cls-34 {
        fill: url(#linear-gradient-18);
      }

      .cls-35 {
        clip-path: url(#clip-path-19);
      }

      .cls-36 {
        fill: url(#linear-gradient-19);
      }

      .cls-37 {
        clip-path: url(#clip-path-20);
      }

      .cls-38 {
        fill: url(#linear-gradient-20);
      }

      .cls-39 {
        clip-path: url(#clip-path-21);
      }

      .cls-40 {
        fill: url(#linear-gradient-21);
      }

      .cls-41 {
        clip-path: url(#clip-path-22);
      }

      .cls-42 {
        fill: url(#linear-gradient-22);
      }

      .cls-43 {
        clip-path: url(#clip-path-23);
      }

      .cls-44 {
        fill: url(#linear-gradient-23);
      }

      .cls-45 {
        clip-path: url(#clip-path-24);
      }

      .cls-46 {
        fill: url(#linear-gradient-24);
      }

      .cls-47 {
        clip-path: url(#clip-path-25);
      }

      .cls-48 {
        fill: url(#linear-gradient-25);
      }

      .cls-49 {
        clip-path: url(#clip-path-26);
      }

      .cls-50 {
        fill: url(#linear-gradient-26);
      }

      .cls-51 {
        clip-path: url(#clip-path-27);
      }

      .cls-52 {
        fill: url(#linear-gradient-27);
      }

      .cls-53 {
        clip-path: url(#clip-path-28);
      }

      .cls-54 {
        fill: url(#linear-gradient-28);
      }

      .cls-55 {
        clip-path: url(#clip-path-29);
      }

      .cls-56 {
        fill: url(#linear-gradient-29);
      }

      .cls-57 {
        clip-path: url(#clip-path-30);
      }

      .cls-58 {
        fill: url(#linear-gradient-30);
      }

      .cls-59 {
        clip-path: url(#clip-path-31);
      }

      .cls-60 {
        fill: url(#linear-gradient-31);
      }

      .cls-61 {
        clip-path: url(#clip-path-32);
      }

      .cls-62 {
        fill: url(#linear-gradient-32);
      }

      .cls-63 {
        clip-path: url(#clip-path-33);
      }

      .cls-64 {
        fill: url(#linear-gradient-33);
      }

      .cls-65 {
        clip-path: url(#clip-path-34);
      }

      .cls-66 {
        fill: url(#linear-gradient-34);
      }

      .cls-67 {
        clip-path: url(#clip-path-35);
      }

      .cls-68 {
        fill: url(#linear-gradient-35);
      }

      .cls-69 {
        clip-path: url(#clip-path-36);
      }

      .cls-70 {
        fill: url(#linear-gradient-36);
      }

      .cls-71 {
        clip-path: url(#clip-path-37);
      }

      .cls-72 {
        fill: url(#linear-gradient-37);
      }

      .cls-73 {
        clip-path: url(#clip-path-38);
      }

      .cls-74 {
        fill: url(#linear-gradient-38);
      }
    </style>
    <clipPath id="clip-path">
      <path id="Path_12080" data-name="Path 12080" class="cls-1" d="M89.633-146.074a1,1,0,0,0,.81,1.159h0A72.682,72.682,0,0,1,146.662-95.4h0a1,1,0,0,0,.955.705h0a.982.982,0,0,0,.3-.046h0A1,1,0,0,0,148.572-96h0a74.7,74.7,0,0,0-57.78-50.888h0a.932.932,0,0,0-.181-.017h0a1,1,0,0,0-.978.827" transform="translate(0 162.678)"/>
    </clipPath>
    <linearGradient id="linear-gradient" x1="0.195" y1="0.243" x2="0.868" y2="0.243" gradientUnits="objectBoundingBox">
      <stop offset="0" stop-color="#ffdd80"/>
      <stop offset="0.1" stop-color="#fcd679"/>
      <stop offset="0.2" stop-color="#facf72"/>
      <stop offset="0.3" stop-color="#f8c76a"/>
      <stop offset="0.4" stop-color="#f6c063"/>
      <stop offset="0.5" stop-color="#f3b85b"/>
      <stop offset="0.6" stop-color="#f1b154"/>
      <stop offset="0.7" stop-color="#efaa4d"/>
      <stop offset="0.8" stop-color="#eda245"/>
      <stop offset="0.9" stop-color="#eb9b3e"/>
      <stop offset="1" stop-color="#e89336"/>
    </linearGradient>
    <clipPath id="clip-path-2">
      <path id="Path_12082" data-name="Path 12082" class="cls-1" d="M11.519-107.04A75.561,75.561,0,0,0,3.816-74h0A73.507,73.507,0,0,0,32.4-15.611h0a.986.986,0,0,0,.613.21h0a1,1,0,0,0,.79-.385h0a1,1,0,0,0-.176-1.4h0A71.522,71.522,0,0,1,5.817-74h0a73.557,73.557,0,0,1,7.5-32.16h0a1,1,0,0,0-.458-1.338h0a1,1,0,0,0-.44-.1h0a1,1,0,0,0-.9.56" transform="translate(0 162.678)"/>
    </clipPath>
    <linearGradient id="linear-gradient-2" x1="0.195" y1="0.764" x2="0.868" y2="0.764" xlink:href="#linear-gradient"/>
    <clipPath id="clip-path-3">
      <path id="Path_12084" data-name="Path 12084" class="cls-1" d="M149.548-87.685a1,1,0,0,0-.817,1.154h0A73.685,73.685,0,0,1,149.817-74h0a72.081,72.081,0,0,1-72,72h0A72,72,0,0,1,43.3-10.777h0a1,1,0,0,0-1.358.4h0a1,1,0,0,0,.4,1.358h0A73.988,73.988,0,0,0,77.817,0h0a74.084,74.084,0,0,0,74-74h0A75.6,75.6,0,0,0,150.7-86.868h0a1,1,0,0,0-.983-.832h0a1,1,0,0,0-.171.015" transform="translate(0 162.678)"/>
    </clipPath>
    <linearGradient id="linear-gradient-3" x1="0.195" y1="0.522" x2="0.868" y2="0.522" xlink:href="#linear-gradient"/>
    <clipPath id="clip-path-4">
      <path id="Path_12086" data-name="Path 12086" class="cls-1" d="M59.817-26v10a1,1,0,0,0,1,1h0a1,1,0,0,0,1-1h0V-26a1,1,0,0,0-1-1h0a1,1,0,0,0-1,1" transform="translate(0 162.678)"/>
    </clipPath>
    <linearGradient id="linear-gradient-4" x1="0.195" y1="0.723" x2="0.868" y2="0.723" xlink:href="#linear-gradient"/>
    <clipPath id="clip-path-5">
      <path id="Path_12088" data-name="Path 12088" class="cls-1" d="M55.816-22a1,1,0,0,0-1,1h0a1,1,0,0,0,1,1h10a1,1,0,0,0,1-1h0a1,1,0,0,0-1-1h-10Z" transform="translate(0 162.678)"/>
    </clipPath>
    <clipPath id="clip-path-6">
      <path id="Path_12090" data-name="Path 12090" class="cls-1" d="M124.816-113v8a1,1,0,0,0,1,1h0a1,1,0,0,0,1-1h0v-8a1,1,0,0,0-1-1h0a1,1,0,0,0-1,1" transform="translate(0 162.678)"/>
    </clipPath>
    <linearGradient id="linear-gradient-6" x1="0.195" y1="0.256" x2="0.868" y2="0.256" xlink:href="#linear-gradient"/>
    <clipPath id="clip-path-7">
      <path id="Path_12092" data-name="Path 12092" class="cls-1" d="M121.817-110a1,1,0,0,0-1,1h0a1,1,0,0,0,1,1h8a1,1,0,0,0,1-1h0a1,1,0,0,0-1-1h-8Z" transform="translate(0 162.678)"/>
    </clipPath>
    <clipPath id="clip-path-8">
      <path id="Path_12094" data-name="Path 12094" class="cls-1" d="M70.816-14v4a1,1,0,0,0,1,1h0a1,1,0,0,0,1-1h0v-4a1,1,0,0,0-1-1h0a1,1,0,0,0-1,1" transform="translate(0 162.678)"/>
    </clipPath>
    <linearGradient id="linear-gradient-8" x1="0.195" y1="0.706" x2="0.868" y2="0.706" xlink:href="#linear-gradient"/>
    <clipPath id="clip-path-9">
      <path id="Path_12096" data-name="Path 12096" class="cls-1" d="M69.817-13a1,1,0,0,0-1,1h0a1,1,0,0,0,1,1h4a1,1,0,0,0,1-1h0a1,1,0,0,0-1-1h-4Z" transform="translate(0 162.678)"/>
    </clipPath>
    <clipPath id="clip-path-10">
      <path id="Path_12098" data-name="Path 12098" class="cls-1" d="M107.052-114.485l-69.1,11.5a1,1,0,0,0-.83,1.1h0C44.193-37.556,85.711-25.9,86.117-25.9h0a1,1,0,0,0,.723-.309h0c35.387-36.988,21.482-87.066,21.337-87.567h0a1,1,0,0,0-.96-.723h0a.919.919,0,0,0-.165.014m-42,72.861c-17.572-17.34-23.761-41.765-25.833-59.545h0l67.261-11.194c1.642,6.689,10.91,50.853-20.659,84.325h0c-2.233-.738-11.179-4.123-20.769-13.586" transform="translate(0 162.678)"/>
    </clipPath>
    <linearGradient id="linear-gradient-10" x1="0.195" y1="0.488" x2="0.868" y2="0.488" xlink:href="#linear-gradient"/>
    <clipPath id="clip-path-11">
      <path id="Path_12100" data-name="Path 12100" class="cls-1" d="M94.724-67.75c-.06.12-6.167,12.067-14.168,13.463h0a9.5,9.5,0,0,1-1.53.121h0c-7.517,0-15.193-8.324-15.27-8.408h0a1,1,0,0,0-1.27-.173h0a1,1,0,0,0-.4,1.218h0c.334.835,8.3,20.436,19.127,20.436h0a8.989,8.989,0,0,0,1.464-.12h0c11.529-1.9,13.841-25.01,13.934-25.993h0a1,1,0,0,0-.719-1.054h0a.989.989,0,0,0-.278-.04h0a1,1,0,0,0-.892.55M80.888-52.314c5.664-.989,10.286-6.29,13-10.209h0C92.61-55.8,89.421-44.354,82.354-43.186h0a7.029,7.029,0,0,1-1.139.093h0c-6.514,0-12.195-8.967-15.136-14.638h0c3.189,2.553,8,5.565,12.947,5.565h0a11.53,11.53,0,0,0,1.862-.148" transform="translate(0 162.678)"/>
    </clipPath>
    <linearGradient id="linear-gradient-11" x1="0.195" y1="0.545" x2="0.868" y2="0.545" xlink:href="#linear-gradient"/>
    <clipPath id="clip-path-12">
      <path id="Path_12102" data-name="Path 12102" class="cls-1" d="M82.129-74.548a1,1,0,0,0,.758,1.122h0a1.076,1.076,0,0,0,.231.026h0a1,1,0,0,0,.95-.69h0c2.792-8.56,7-12.72,12.867-12.72h0a19.445,19.445,0,0,1,3.913.483h0a9.246,9.246,0,0,0,1.657.246h0a1.379,1.379,0,0,0,1.332-.709h0c.408-.793-.042-1.656-1.207-3.292h0c-2.976-4.156-5.765-6.177-8.528-6.177h0c-8.482,0-11.641,19.488-11.973,21.711M94.1-94.258c2.042,0,4.364,1.8,6.9,5.339h0c.189.265.342.489.467.677h0c-.074-.016-.15-.031-.225-.045h0a21.064,21.064,0,0,0-4.309-.523h0c-4.394,0-8.034,2.011-10.881,6h0c1.706-5.659,4.41-11.446,8.048-11.446" transform="translate(0 162.678)"/>
    </clipPath>
    <linearGradient id="linear-gradient-12" x1="0.195" y1="0.449" x2="0.868" y2="0.449" xlink:href="#linear-gradient"/>
    <clipPath id="clip-path-13">
      <path id="Path_12104" data-name="Path 12104" class="cls-1" d="M50.158-81.482c-.524,1.778-.689,2.739-.205,3.385h0a1.278,1.278,0,0,0,1.04.509h0a4.681,4.681,0,0,0,2.112-.878h0A13.858,13.858,0,0,1,60.1-80.753h0c4.285,0,8.6,2.844,12.821,8.454h0a1,1,0,0,0,.8.4h.02a1,1,0,0,0,1-1h0a1,1,0,0,0-.218-.624h0a71.147,71.147,0,0,0-5.165-8.21h0c-4.226-5.738-8.051-8.647-11.372-8.647h0c-3.426,0-6.057,2.993-7.824,8.9m1.917.569c1.482-4.955,3.469-7.468,5.907-7.468h0c3.259,0,7.154,4.189,10.235,8.485h0a13.883,13.883,0,0,0-8.12-2.857h0A15.793,15.793,0,0,0,52.108-80.2h0l-.273.156h0c.059-.233.136-.52.24-.87" transform="translate(0 162.678)"/>
    </clipPath>
    <linearGradient id="linear-gradient-13" x1="0.195" y1="0.574" x2="0.868" y2="0.574" xlink:href="#linear-gradient"/>
    <clipPath id="clip-path-14">
      <path id="Path_12106" data-name="Path 12106" class="cls-1" d="M112.953-115.486l-6,1a1,1,0,0,0-.821,1.15h0a1,1,0,0,0,.985.836h0a.948.948,0,0,0,.166-.015h0l6-1a1,1,0,0,0,.822-1.152h0a1,1,0,0,0-.982-.836h0a.973.973,0,0,0-.169.015" transform="translate(0 162.678)"/>
    </clipPath>
    <linearGradient id="linear-gradient-14" x1="0.195" y1="0.301" x2="0.868" y2="0.301" xlink:href="#linear-gradient"/>
    <clipPath id="clip-path-15">
      <path id="Path_12108" data-name="Path 12108" class="cls-1" d="M37.951-102.986l-8.9,1.5a1,1,0,0,0-.821,1.152h0a1,1,0,0,0,.986.835h0a1.055,1.055,0,0,0,.167-.014h0l8.9-1.5a1,1,0,0,0,.82-1.152h0a1,1,0,0,0-.987-.835h0a1.021,1.021,0,0,0-.165.014" transform="translate(0 162.678)"/>
    </clipPath>
    <linearGradient id="linear-gradient-15" x1="0.195" y1="0.614" x2="0.868" y2="0.614" xlink:href="#linear-gradient"/>
    <clipPath id="clip-path-16">
      <path id="Path_12110" data-name="Path 12110" class="cls-1" d="M105.233-125.083a1,1,0,0,0-.8,1.167h0l2.3,12.3a1,1,0,0,0,.982.816h0a.962.962,0,0,0,.184-.017h0a1,1,0,0,0,.8-1.166h0l-2.3-12.3a1,1,0,0,0-.98-.818h0a1,1,0,0,0-.187.018" transform="translate(0 162.678)"/>
    </clipPath>
    <linearGradient id="linear-gradient-16" x1="0.195" y1="0.304" x2="0.868" y2="0.304" xlink:href="#linear-gradient"/>
    <clipPath id="clip-path-17">
      <path id="Path_12112" data-name="Path 12112" class="cls-1" d="M36.729-108.681a1,1,0,0,0-.794,1.17h0l1.8,9.4a1,1,0,0,0,.981.812h0a.951.951,0,0,0,.189-.018h0a1,1,0,0,0,.794-1.17h0l-1.8-9.4a1,1,0,0,0-.981-.812h0a1.024,1.024,0,0,0-.189.018" transform="translate(0 162.678)"/>
    </clipPath>
    <linearGradient id="linear-gradient-17" x1="0.195" y1="0.594" x2="0.868" y2="0.594" xlink:href="#linear-gradient"/>
    <clipPath id="clip-path-18">
      <path id="Path_12114" data-name="Path 12114" class="cls-1" d="M85.334-27.632l-6,5.6a1,1,0,0,0-.048,1.414h0a1,1,0,0,0,.73.318h0a1,1,0,0,0,.683-.27h0l6-5.6a1,1,0,0,0,.048-1.414h0a.993.993,0,0,0-.73-.317h0a1,1,0,0,0-.683.268" transform="translate(0 162.678)"/>
    </clipPath>
    <linearGradient id="linear-gradient-18" x1="0.195" y1="0.633" x2="0.868" y2="0.633" xlink:href="#linear-gradient"/>
    <clipPath id="clip-path-19">
      <path id="Path_12116" data-name="Path 12116" class="cls-1" d="M85.133-27.368a1,1,0,0,0,.416,1.352h0l3.4,1.8a1.006,1.006,0,0,0,.467.116h0a1,1,0,0,0,.885-.533h0a1,1,0,0,0-.416-1.351h0l-3.4-1.8a1,1,0,0,0-.468-.117h0a1,1,0,0,0-.884.533" transform="translate(0 162.678)"/>
    </clipPath>
    <linearGradient id="linear-gradient-19" x1="0.195" y1="0.611" x2="0.868" y2="0.611" xlink:href="#linear-gradient"/>
    <clipPath id="clip-path-20">
      <path id="Path_12118" data-name="Path 12118" class="cls-1" d="M119.661-53.988c-.091.014-9.195,1.586-8.342,14.057h0c.23,3.359-.515,6-2.213,7.844h0a10.121,10.121,0,0,1-6.6,2.887h0a1,1,0,0,0-.981.863h0a1,1,0,0,0,.71,1.1h0a18.077,18.077,0,0,0,4.638.576h0a14.3,14.3,0,0,0,10.03-3.668h0a19.347,19.347,0,0,1-.94,1.708h0a1,1,0,0,0,.112,1.195h0a1,1,0,0,0,1.178.228h0c.6-.29,14.6-7.249,13.563-20.2h0c0-.857-2.638-4.135-10.713-6.558h0a1.01,1.01,0,0,0-.289-.042h0a1,1,0,0,0-.154.012m-9.1,23.273c2.1-2.265,3.023-5.413,2.753-9.353h0c-.664-9.716,5.247-11.616,6.454-11.9h0c6.438,1.974,8.627,4.342,9.07,4.9h0c.507,8.05-5.728,13.65-9.565,16.311h0a9.533,9.533,0,0,0,.833-4.49h0a1,1,0,0,0-.84-.837h0a1.008,1.008,0,0,0-1.048.553h0A11.68,11.68,0,0,1,107.957-28.7h0a10.216,10.216,0,0,0,2.6-2.018" transform="translate(0 162.678)"/>
    </clipPath>
    <linearGradient id="linear-gradient-20" x1="0.195" y1="0.476" x2="0.868" y2="0.476" xlink:href="#linear-gradient"/>
    <clipPath id="clip-path-21">
      <path id="Path_12120" data-name="Path 12120" class="cls-1" d="M131.705-72.084l-10.8,15a1,1,0,0,0-.132.913h0a1,1,0,0,0,.672.633h0c4.056,1.147,9.406,5.422,9.926,5.9h0a1,1,0,0,0,.732.335h.015a1,1,0,0,0,.918-.6h0v0l7.2-16.7a1,1,0,0,0-.367-1.229h0l-6.8-4.5a.994.994,0,0,0-.552-.167h0a1,1,0,0,0-.812.417m-8.39,15.076,9.451-13.128,5.3,3.508-6.338,14.7a37.235,37.235,0,0,0-8.414-5.082" transform="translate(0 162.678)"/>
    </clipPath>
    <linearGradient id="linear-gradient-21" x1="0.195" y1="0.362" x2="0.868" y2="0.362" xlink:href="#linear-gradient"/>
    <clipPath id="clip-path-22">
      <path id="Path_12122" data-name="Path 12122" class="cls-1" d="M152.973-105.536l-21.3,33.5a1,1,0,0,0,.292,1.37h0l6.8,4.5a.99.99,0,0,0,.551.166h0a1,1,0,0,0,.248-.031h0a1,1,0,0,0,.637-.5h0c15.273-28.9,17.567-36.416,17.612-38.343h0v-.113a1.157,1.157,0,0,0-.047-.327h0c-.557-1.667-1.488-2.017-2.172-2.017h0c-1.356,0-2.411,1.482-2.621,1.8M133.888-71.792l20.759-32.65a3.793,3.793,0,0,1,.872-.91h0a1.275,1.275,0,0,1,.335.615h0c.275,2.223-8.412,20.164-16.907,36.294h0Z" transform="translate(0 162.678)"/>
    </clipPath>
    <linearGradient id="linear-gradient-22" x1="0.195" y1="0.241" x2="0.868" y2="0.241" xlink:href="#linear-gradient"/>
    <clipPath id="clip-path-23">
      <path id="Path_12124" data-name="Path 12124" class="cls-1" d="M42.251-11.281l-8.363,1.52a1,1,0,0,0-.644.415h0a1,1,0,0,0-.162.747h0l1.342,7.38a1,1,0,0,0,.983.821h0a.92.92,0,0,0,.18-.016h0l8.364-1.521a1,1,0,0,0,.643-.414h0a1,1,0,0,0,.161-.748h0l-1.342-7.379a1,1,0,0,0-.983-.821h0a.993.993,0,0,0-.179.016M35.229-7.973l6.4-1.161.985,5.412-6.4,1.161Z" transform="translate(0 162.678)"/>
    </clipPath>
    <linearGradient id="linear-gradient-23" x1="0.195" y1="0.842" x2="0.868" y2="0.842" xlink:href="#linear-gradient"/>
    <clipPath id="clip-path-24">
      <path id="Path_12126" data-name="Path 12126" class="cls-1" d="M39.411-26.952,31.047-25.43a1,1,0,0,0-.8,1.162h0L33.1-8.527a1,1,0,0,0,.415.644h0a1,1,0,0,0,.569.178h0a.9.9,0,0,0,.179-.017h0l8.363-1.521a1,1,0,0,0,.805-1.162h0L40.574-26.148a1,1,0,0,0-.415-.643h0a1,1,0,0,0-.566-.179h0a.943.943,0,0,0-.182.018m-7.022,3.309,6.4-1.163,2.5,13.775-6.4,1.163Z" transform="translate(0 162.678)"/>
    </clipPath>
    <linearGradient id="linear-gradient-24" x1="0.195" y1="0.82" x2="0.868" y2="0.82" xlink:href="#linear-gradient"/>
    <clipPath id="clip-path-25">
      <path id="Path_12128" data-name="Path 12128" class="cls-1" d="M24.538-84.784a1,1,0,0,0-.819.911h0l-1.2,16.4a1,1,0,0,0,.327.815h0a1,1,0,0,0,.671.259h0a1.1,1.1,0,0,0,.17-.015h0l8.1-1.4a1,1,0,0,0,.714-.52h0a1,1,0,0,0,.024-.884h0l-6.9-15a1,1,0,0,0-.911-.582h0a1.066,1.066,0,0,0-.177.015m.892,4.929,4.735,10.291-5.557.961Z" transform="translate(0 162.678)"/>
    </clipPath>
    <linearGradient id="linear-gradient-25" x1="0.195" y1="0.716" x2="0.868" y2="0.716" xlink:href="#linear-gradient"/>
    <clipPath id="clip-path-26">
      <path id="Path_12130" data-name="Path 12130" class="cls-1" d="M31.592-69.764l-8.364,1.521a.993.993,0,0,0-.643.414h0a1,1,0,0,0-.161.748h0l7.8,42.9a1,1,0,0,0,.415.643h0a1,1,0,0,0,.569.179h0a.921.921,0,0,0,.18-.017h0L39.749-24.9a1,1,0,0,0,.805-1.162h0l-7.8-42.9a1,1,0,0,0-.977-.822h0a.983.983,0,0,0-.186.017M24.57-66.455l6.4-1.162,7.443,40.929-6.4,1.164Z" transform="translate(0 162.678)"/>
    </clipPath>
    <linearGradient id="linear-gradient-26" x1="0.195" y1="0.764" x2="0.868" y2="0.764" xlink:href="#linear-gradient"/>
    <clipPath id="clip-path-27">
      <path id="Path_12132" data-name="Path 12132" class="cls-1" d="M89.922-162.572.552-117.711a1,1,0,0,0-.552.879H0v.034a1.01,1.01,0,0,0,.106.43h0l6.28,12.511a1,1,0,0,0,.579.5h0a1.032,1.032,0,0,0,.315.05h0a1,1,0,0,0,.449-.106h0l89.37-44.86a1,1,0,0,0,.445-1.342h0l-6.28-12.513a1,1,0,0,0-.579-.5h0a.993.993,0,0,0-.315-.05h0a1,1,0,0,0-.448.1m-87.579,46.2,87.581-43.963,5.384,10.724L7.726-105.648Z" transform="translate(0 162.678)"/>
    </clipPath>
    <linearGradient id="linear-gradient-27" x1="0.195" y1="0.476" x2="0.868" y2="0.476" xlink:href="#linear-gradient"/>
    <clipPath id="clip-path-28">
      <path id="Path_12134" data-name="Path 12134" class="cls-1" d="M85.069-152.294a1,1,0,0,0-.447,1.342h0l3.1,6.2a1,1,0,0,0,.895.552h0a1,1,0,0,0,.447-.1h0a1,1,0,0,0,.446-1.342h0l-3.1-6.2a1,1,0,0,0-.9-.553h0a1,1,0,0,0-.447.106" transform="translate(0 162.678)"/>
    </clipPath>
    <linearGradient id="linear-gradient-28" x1="0.195" y1="0.297" x2="0.868" y2="0.297" xlink:href="#linear-gradient"/>
    <clipPath id="clip-path-29">
      <path id="Path_12136" data-name="Path 12136" class="cls-1" d="M79.259-145.989a1,1,0,0,0-.432,1.347h0l1.8,3.5a1,1,0,0,0,.891.543h0a1,1,0,0,0,.456-.11h0a1,1,0,0,0,.432-1.347h0l-1.8-3.5a1,1,0,0,0-.89-.543h0a1,1,0,0,0-.457.111" transform="translate(0 162.678)"/>
    </clipPath>
    <linearGradient id="linear-gradient-29" x1="0.195" y1="0.333" x2="0.868" y2="0.333" xlink:href="#linear-gradient"/>
    <clipPath id="clip-path-30">
      <path id="Path_12138" data-name="Path 12138" class="cls-1" d="M72.059-142.389a1,1,0,0,0-.432,1.347h0l1.8,3.5a1,1,0,0,0,.891.542h0a1,1,0,0,0,.456-.11h0a1,1,0,0,0,.432-1.347h0l-1.8-3.5a1,1,0,0,0-.89-.543h0a1,1,0,0,0-.457.111" transform="translate(0 162.678)"/>
    </clipPath>
    <linearGradient id="linear-gradient-30" x1="0.195" y1="0.369" x2="0.868" y2="0.369" xlink:href="#linear-gradient"/>
    <clipPath id="clip-path-31">
      <path id="Path_12140" data-name="Path 12140" class="cls-1" d="M64.97-138.894a1,1,0,0,0-.447,1.342h0l1.8,3.6a1,1,0,0,0,.9.552h0a1,1,0,0,0,.447-.105h0a1,1,0,0,0,.447-1.342h0l-1.8-3.6a1,1,0,0,0-.895-.553h0a.994.994,0,0,0-.446.106" transform="translate(0 162.678)"/>
    </clipPath>
    <linearGradient id="linear-gradient-31" x1="0.195" y1="0.404" x2="0.868" y2="0.404" xlink:href="#linear-gradient"/>
    <clipPath id="clip-path-32">
      <path id="Path_12142" data-name="Path 12142" class="cls-1" d="M56.476-138a1,1,0,0,0-.456,1.339h0l3.1,6.3a1,1,0,0,0,.9.559h0a.992.992,0,0,0,.441-.1h0a1,1,0,0,0,.456-1.34h0l-3.1-6.3a1,1,0,0,0-.9-.559h0a.992.992,0,0,0-.44.1" transform="translate(0 162.678)"/>
    </clipPath>
    <linearGradient id="linear-gradient-32" x1="0.195" y1="0.439" x2="0.868" y2="0.439" xlink:href="#linear-gradient"/>
    <clipPath id="clip-path-33">
      <path id="Path_12144" data-name="Path 12144" class="cls-1" d="M50.67-131.694a1,1,0,0,0-.447,1.342h0l1.8,3.6a1,1,0,0,0,.9.552h0a1,1,0,0,0,.447-.105h0a1,1,0,0,0,.447-1.342h0l-1.8-3.6a1,1,0,0,0-.9-.553h0a1,1,0,0,0-.447.106" transform="translate(0 162.678)"/>
    </clipPath>
    <linearGradient id="linear-gradient-33" x1="0.195" y1="0.475" x2="0.868" y2="0.475" xlink:href="#linear-gradient"/>
    <clipPath id="clip-path-34">
      <path id="Path_12146" data-name="Path 12146" class="cls-1" d="M43.47-128.094a1,1,0,0,0-.447,1.342h0l1.8,3.6a1,1,0,0,0,.895.552h0a.989.989,0,0,0,.446-.105h0a1,1,0,0,0,.447-1.342h0l-1.8-3.6a1,1,0,0,0-.9-.553h0a.994.994,0,0,0-.446.106" transform="translate(0 162.678)"/>
    </clipPath>
    <linearGradient id="linear-gradient-34" x1="0.195" y1="0.511" x2="0.868" y2="0.511" xlink:href="#linear-gradient"/>
    <clipPath id="clip-path-35">
      <path id="Path_12148" data-name="Path 12148" class="cls-1" d="M36.369-124.494a1,1,0,0,0-.447,1.342h0l1.8,3.6a1,1,0,0,0,.9.552h0a.989.989,0,0,0,.446-.105h0a1,1,0,0,0,.448-1.342h0l-1.8-3.6a1,1,0,0,0-.895-.553h0a1,1,0,0,0-.447.106" transform="translate(0 162.678)"/>
    </clipPath>
    <linearGradient id="linear-gradient-35" x1="0.195" y1="0.546" x2="0.868" y2="0.546" xlink:href="#linear-gradient"/>
    <clipPath id="clip-path-36">
      <path id="Path_12150" data-name="Path 12150" class="cls-1" d="M26.969-123.094a1,1,0,0,0-.447,1.342h0l3.1,6.2a1,1,0,0,0,.9.553h0a1.011,1.011,0,0,0,.447-.106h0a1,1,0,0,0,.447-1.342h0l-3.1-6.2a1,1,0,0,0-.9-.553h0a1,1,0,0,0-.447.106" transform="translate(0 162.678)"/>
    </clipPath>
    <linearGradient id="linear-gradient-36" x1="0.195" y1="0.585" x2="0.868" y2="0.585" xlink:href="#linear-gradient"/>
    <clipPath id="clip-path-37">
      <path id="Path_12152" data-name="Path 12152" class="cls-1" d="M21.17-116.894a1,1,0,0,0-.447,1.342h0l1.8,3.6a1,1,0,0,0,.895.553h0a.994.994,0,0,0,.446-.106h0a1,1,0,0,0,.448-1.341h0l-1.8-3.6a1,1,0,0,0-.895-.553h0a1,1,0,0,0-.447.106" transform="translate(0 162.678)"/>
    </clipPath>
    <linearGradient id="linear-gradient-37" x1="0.195" y1="0.621" x2="0.868" y2="0.621" xlink:href="#linear-gradient"/>
    <clipPath id="clip-path-38">
      <path id="Path_12154" data-name="Path 12154" class="cls-1" d="M13.97-113.295a1,1,0,0,0-.447,1.342h0l1.8,3.6a1,1,0,0,0,.9.553h0a.984.984,0,0,0,.446-.106h0a1,1,0,0,0,.448-1.341h0l-1.8-3.6a1,1,0,0,0-.9-.554h0a1,1,0,0,0-.447.106" transform="translate(0 162.678)"/>
    </clipPath>
    <linearGradient id="linear-gradient-38" x1="0.195" y1="0.657" x2="0.868" y2="0.657" xlink:href="#linear-gradient"/>
  </defs>
  <g id="Group_13216" data-name="Group 13216" transform="translate(48 -1612.001)">
    <g id="Group_13141" data-name="Group 13141" class="cls-2">
      <g id="Group_13140" data-name="Group 13140">
        <path id="Path_12079" data-name="Path 12079" class="cls-3" d="M-43.683,74.816,47.448-54.025,180.261,39.916,89.13,168.757Z" transform="translate(86.307 -7.54) rotate(54.728)"/>
      </g>
    </g>
    <g id="Group_13143" data-name="Group 13143" class="cls-4">
      <g id="Group_13142" data-name="Group 13142">
        <path id="Path_12081" data-name="Path 12081" class="cls-5" d="M-43.683-41.472,47.449-170.313,180.262-76.372,89.13,52.469Z" transform="translate(-8.633 59.612) rotate(54.728)"/>
      </g>
    </g>
    <g id="Group_13145" data-name="Group 13145" class="cls-6">
      <g id="Group_13144" data-name="Group 13144">
        <path id="Path_12083" data-name="Path 12083" class="cls-7" d="M-43.683,12.545,47.448-116.3,180.261-22.355,89.13,106.486Z" transform="translate(35.467 28.419) rotate(54.728)"/>
      </g>
    </g>
    <g id="Group_13147" data-name="Group 13147" class="cls-8">
      <g id="Group_13146" data-name="Group 13146">
        <path id="Path_12085" data-name="Path 12085" class="cls-9" d="M-43.683-32.163,47.449-161,180.261-67.063,89.13,61.778Z" transform="translate(-1.033 54.236) rotate(54.728)"/>
      </g>
    </g>
    <g id="Group_13149" data-name="Group 13149" class="cls-10">
      <g id="Group_13148" data-name="Group 13148">
        <path id="Path_12087" data-name="Path 12087" class="cls-9" d="M-43.683-32.163,47.449-161,180.261-67.063,89.13,61.778Z" transform="translate(-1.033 54.236) rotate(54.728)"/>
      </g>
    </g>
    <g id="Group_13151" data-name="Group 13151" class="cls-11">
      <g id="Group_13150" data-name="Group 13150">
        <path id="Path_12089" data-name="Path 12089" class="cls-12" d="M-43.683,71.721,47.449-57.12,180.261,36.821,89.13,165.662Z" transform="translate(83.78 -5.753) rotate(54.728)"/>
      </g>
    </g>
    <g id="Group_13153" data-name="Group 13153" class="cls-13">
      <g id="Group_13152" data-name="Group 13152">
        <path id="Path_12091" data-name="Path 12091" class="cls-12" d="M-43.683,71.721,47.448-57.12,180.261,36.821,89.13,165.661Z" transform="translate(83.779 -5.753) rotate(54.728)"/>
      </g>
    </g>
    <g id="Group_13155" data-name="Group 13155" class="cls-14">
      <g id="Group_13154" data-name="Group 13154">
        <path id="Path_12093" data-name="Path 12093" class="cls-15" d="M-43.683-28.379,47.448-157.22,180.261-63.279,89.13,65.562Z" transform="translate(2.056 52.052) rotate(54.728)"/>
      </g>
    </g>
    <g id="Group_13157" data-name="Group 13157" class="cls-16">
      <g id="Group_13156" data-name="Group 13156">
        <path id="Path_12095" data-name="Path 12095" class="cls-15" d="M-43.683-28.379,47.448-157.22,180.261-63.279,89.13,65.562Z" transform="translate(2.056 52.052) rotate(54.728)"/>
      </g>
    </g>
    <g id="Group_13159" data-name="Group 13159" class="cls-17">
      <g id="Group_13158" data-name="Group 13158">
        <path id="Path_12097" data-name="Path 12097" class="cls-18" d="M-43.683,20.114,47.448-108.727,180.261-14.787,89.13,114.054Z" transform="translate(41.646 24.049) rotate(54.728)"/>
      </g>
    </g>
    <g id="Group_13161" data-name="Group 13161" class="cls-19">
      <g id="Group_13160" data-name="Group 13160">
        <path id="Path_12099" data-name="Path 12099" class="cls-20" d="M-43.683,7.385,47.449-121.456,180.262-27.515,89.13,101.326Z" transform="translate(31.254 31.399) rotate(54.728)"/>
      </g>
    </g>
    <g id="Group_13163" data-name="Group 13163" class="cls-21">
      <g id="Group_13162" data-name="Group 13162">
        <path id="Path_12101" data-name="Path 12101" class="cls-22" d="M-43.683,28.874,47.448-99.967,180.261-6.027,89.13,122.814Z" transform="translate(48.798 18.99) rotate(54.728)"/>
      </g>
    </g>
    <g id="Group_13165" data-name="Group 13165" class="cls-23">
      <g id="Group_13164" data-name="Group 13164">
        <path id="Path_12103" data-name="Path 12103" class="cls-24" d="M-43.683.914,47.449-127.927,180.261-33.986,89.13,94.855Z" transform="translate(25.972 35.136) rotate(54.728)"/>
      </g>
    </g>
    <g id="Group_13167" data-name="Group 13167" class="cls-25">
      <g id="Group_13166" data-name="Group 13166">
        <path id="Path_12105" data-name="Path 12105" class="cls-26" d="M-43.683,61.792,47.449-67.049,180.262,26.891,89.13,155.732Z" transform="translate(75.673 -0.019) rotate(54.728)"/>
      </g>
    </g>
    <g id="Group_13169" data-name="Group 13169" class="cls-27">
      <g id="Group_13168" data-name="Group 13168">
        <path id="Path_12107" data-name="Path 12107" class="cls-28" d="M-43.683-7.987,47.448-136.828,180.261-42.887,89.13,85.954Z" transform="translate(18.705 40.276) rotate(54.728)"/>
      </g>
    </g>
    <g id="Group_13171" data-name="Group 13171" class="cls-29">
      <g id="Group_13170" data-name="Group 13170">
        <path id="Path_12109" data-name="Path 12109" class="cls-30" d="M-43.683,61.174,47.448-67.667,180.261,26.274,89.13,155.115Z" transform="translate(75.169 0.338) rotate(54.728)"/>
      </g>
    </g>
    <g id="Group_13173" data-name="Group 13173" class="cls-31">
      <g id="Group_13172" data-name="Group 13172">
        <path id="Path_12111" data-name="Path 12111" class="cls-32" d="M-43.683-3.587,47.448-132.428,180.261-38.487,89.13,90.354Z" transform="translate(22.297 37.735) rotate(54.728)"/>
      </g>
    </g>
    <g id="Group_13175" data-name="Group 13175" class="cls-33">
      <g id="Group_13174" data-name="Group 13174">
        <path id="Path_12113" data-name="Path 12113" class="cls-34" d="M-43.683-12.248,47.449-141.089,180.261-47.148,89.13,81.693Z" transform="translate(15.226 42.736) rotate(54.728)"/>
      </g>
    </g>
    <g id="Group_13177" data-name="Group 13177" class="cls-35">
      <g id="Group_13176" data-name="Group 13176">
        <path id="Path_12115" data-name="Path 12115" class="cls-36" d="M-43.683-7.313,47.448-136.154,180.261-42.213,89.13,86.628Z" transform="translate(19.255 39.886) rotate(54.728)"/>
      </g>
    </g>
    <g id="Group_13179" data-name="Group 13179" class="cls-37">
      <g id="Group_13178" data-name="Group 13178">
        <path id="Path_12117" data-name="Path 12117" class="cls-38" d="M-43.683,22.722,47.449-106.119,180.261-12.178,89.13,116.663Z" transform="translate(43.776 22.542) rotate(54.728)"/>
      </g>
    </g>
    <g id="Group_13181" data-name="Group 13181" class="cls-39">
      <g id="Group_13180" data-name="Group 13180">
        <path id="Path_12119" data-name="Path 12119" class="cls-40" d="M-43.683,48.273,47.448-80.568,180.261,13.373,89.13,142.214Z" transform="translate(64.637 7.787) rotate(54.728)"/>
      </g>
    </g>
    <g id="Group_13183" data-name="Group 13183" class="cls-41">
      <g id="Group_13182" data-name="Group 13182">
        <path id="Path_12121" data-name="Path 12121" class="cls-42" d="M-43.683,75.207,47.449-53.634,180.262,40.306,89.13,169.147Z" transform="translate(86.625 -7.766) rotate(54.728)"/>
      </g>
    </g>
    <g id="Group_13185" data-name="Group 13185" class="cls-43">
      <g id="Group_13184" data-name="Group 13184">
        <path id="Path_12123" data-name="Path 12123" class="cls-44" d="M-43.683-58.79,47.448-187.631,180.261-93.69,89.13,35.151Z" transform="translate(-22.771 69.613) rotate(54.728)"/>
      </g>
    </g>
    <g id="Group_13187" data-name="Group 13187" class="cls-45">
      <g id="Group_13186" data-name="Group 13186">
        <path id="Path_12125" data-name="Path 12125" class="cls-46" d="M-43.683-53.853,47.449-182.694,180.262-88.753,89.13,40.088Z" transform="translate(-18.741 66.761) rotate(54.728)"/>
      </g>
    </g>
    <g id="Group_13189" data-name="Group 13189" class="cls-47">
      <g id="Group_13188" data-name="Group 13188">
        <path id="Path_12127" data-name="Path 12127" class="cls-48" d="M-43.683-30.6,47.448-159.436,180.261-65.5,89.13,63.346Z" transform="translate(0.247 53.331) rotate(54.728)"/>
      </g>
    </g>
    <g id="Group_13191" data-name="Group 13191" class="cls-49">
      <g id="Group_13190" data-name="Group 13190">
        <path id="Path_12129" data-name="Path 12129" class="cls-50" d="M-43.683-41.339,47.448-170.18,180.261-76.239,89.13,52.6Z" transform="translate(-8.524 59.535) rotate(54.728)"/>
      </g>
    </g>
    <g id="Group_13193" data-name="Group 13193" class="cls-51">
      <g id="Group_13192" data-name="Group 13192">
        <path id="Path_12131" data-name="Path 12131" class="cls-52" d="M-43.683,22.719,47.448-106.122,180.261-12.181,89.13,116.66Z" transform="translate(43.773 22.544) rotate(54.728)"/>
      </g>
    </g>
    <g id="Group_13195" data-name="Group 13195" class="cls-53">
      <g id="Group_13194" data-name="Group 13194">
        <path id="Path_12133" data-name="Path 12133" class="cls-54" d="M-43.683,62.78,47.448-66.061,180.261,27.88,89.13,156.721Z" transform="translate(76.48 -0.59) rotate(54.728)"/>
      </g>
    </g>
    <g id="Group_13197" data-name="Group 13197" class="cls-55">
      <g id="Group_13196" data-name="Group 13196">
        <path id="Path_12135" data-name="Path 12135" class="cls-56" d="M-43.683,54.655,47.449-74.186,180.262,19.755,89.13,148.6Z" transform="translate(69.847 4.102) rotate(54.728)"/>
      </g>
    </g>
    <g id="Group_13199" data-name="Group 13199" class="cls-57">
      <g id="Group_13198" data-name="Group 13198">
        <path id="Path_12137" data-name="Path 12137" class="cls-58" d="M-43.683,46.7,47.448-82.143,180.261,11.8,89.13,140.639Z" transform="translate(63.351 8.697) rotate(54.728)"/>
      </g>
    </g>
    <g id="Group_13201" data-name="Group 13201" class="cls-59">
      <g id="Group_13200" data-name="Group 13200">
        <path id="Path_12139" data-name="Path 12139" class="cls-60" d="M-43.683,38.852,47.449-89.989,180.262,3.951,89.13,132.792Z" transform="translate(56.944 13.228) rotate(54.728)"/>
      </g>
    </g>
    <g id="Group_13203" data-name="Group 13203" class="cls-61">
      <g id="Group_13202" data-name="Group 13202">
        <path id="Path_12141" data-name="Path 12141" class="cls-62" d="M-43.683,31.144,47.449-97.7,180.262-3.757,89.13,125.084Z" transform="translate(50.651 17.679) rotate(54.728)"/>
      </g>
    </g>
    <g id="Group_13205" data-name="Group 13205" class="cls-63">
      <g id="Group_13204" data-name="Group 13204">
        <path id="Path_12143" data-name="Path 12143" class="cls-64" d="M-43.683,23.02,47.448-105.821,180.261-11.88,89.13,116.961Z" transform="translate(44.019 22.37) rotate(54.728)"/>
      </g>
    </g>
    <g id="Group_13207" data-name="Group 13207" class="cls-65">
      <g id="Group_13206" data-name="Group 13206">
        <path id="Path_12145" data-name="Path 12145" class="cls-66" d="M-43.683,15.062,47.448-113.779,180.261-19.838,89.13,109Z" transform="translate(37.522 26.966) rotate(54.728)"/>
      </g>
    </g>
    <g id="Group_13209" data-name="Group 13209" class="cls-67">
      <g id="Group_13208" data-name="Group 13208">
        <path id="Path_12147" data-name="Path 12147" class="cls-68" d="M-43.683,7.187,47.448-121.654,180.261-27.713,89.13,101.128Z" transform="translate(31.093 31.513) rotate(54.728)"/>
      </g>
    </g>
    <g id="Group_13211" data-name="Group 13211" class="cls-69">
      <g id="Group_13210" data-name="Group 13210">
        <path id="Path_12149" data-name="Path 12149" class="cls-70" d="M-43.683-1.516,47.448-130.357,180.261-36.416,89.13,92.425Z" transform="translate(23.988 36.539) rotate(54.728)"/>
      </g>
    </g>
    <g id="Group_13213" data-name="Group 13213" class="cls-71">
      <g id="Group_13212" data-name="Group 13212">
        <path id="Path_12151" data-name="Path 12151" class="cls-72" d="M-43.683-9.611,47.448-138.452,180.261-44.511,89.13,84.33Z" transform="translate(17.379 41.214) rotate(54.728)"/>
      </g>
    </g>
    <g id="Group_13215" data-name="Group 13215" class="cls-73">
      <g id="Group_13214" data-name="Group 13214">
        <path id="Path_12153" data-name="Path 12153" class="cls-74" d="M-43.683-17.568,47.449-146.409,180.261-52.468,89.13,76.373Z" transform="translate(10.882 45.808) rotate(54.728)"/>
      </g>
    </g>
  </g>
</svg>
