<svg xmlns="http://www.w3.org/2000/svg" xmlns:xlink="http://www.w3.org/1999/xlink" viewBox="454 -1616 179.5 166.702">
  <defs>
    <style>
      .cls-1 {
        fill: none;
      }

      .cls-2 {
        clip-path: url(#clip-path);
      }

      .cls-3 {
        fill: url(#linear-gradient);
      }

      .cls-4 {
        clip-path: url(#clip-path-2);
      }

      .cls-5 {
        fill: url(#linear-gradient-2);
      }

      .cls-6 {
        clip-path: url(#clip-path-3);
      }

      .cls-7 {
        fill: url(#linear-gradient-3);
      }

      .cls-8 {
        clip-path: url(#clip-path-4);
      }

      .cls-9 {
        fill: url(#linear-gradient-4);
      }

      .cls-10 {
        clip-path: url(#clip-path-5);
      }

      .cls-11 {
        fill: url(#linear-gradient-5);
      }

      .cls-12 {
        clip-path: url(#clip-path-6);
      }

      .cls-13 {
        fill: url(#linear-gradient-6);
      }

      .cls-14 {
        clip-path: url(#clip-path-7);
      }

      .cls-15 {
        fill: url(#linear-gradient-7);
      }

      .cls-16 {
        clip-path: url(#clip-path-8);
      }

      .cls-17 {
        fill: url(#linear-gradient-8);
      }

      .cls-18 {
        clip-path: url(#clip-path-9);
      }

      .cls-19 {
        fill: url(#linear-gradient-9);
      }

      .cls-20 {
        clip-path: url(#clip-path-10);
      }

      .cls-21 {
        fill: url(#linear-gradient-10);
      }

      .cls-22 {
        clip-path: url(#clip-path-11);
      }

      .cls-23 {
        fill: url(#linear-gradient-11);
      }

      .cls-24 {
        clip-path: url(#clip-path-12);
      }

      .cls-25 {
        fill: url(#linear-gradient-12);
      }

      .cls-26 {
        clip-path: url(#clip-path-13);
      }

      .cls-27 {
        fill: url(#linear-gradient-13);
      }

      .cls-28 {
        clip-path: url(#clip-path-14);
      }

      .cls-29 {
        fill: url(#linear-gradient-14);
      }

      .cls-30 {
        clip-path: url(#clip-path-15);
      }

      .cls-31 {
        fill: url(#linear-gradient-15);
      }

      .cls-32 {
        clip-path: url(#clip-path-16);
      }

      .cls-33 {
        fill: url(#linear-gradient-16);
      }

      .cls-34 {
        clip-path: url(#clip-path-17);
      }

      .cls-35 {
        fill: url(#linear-gradient-17);
      }

      .cls-36 {
        clip-path: url(#clip-path-18);
      }

      .cls-37 {
        fill: url(#linear-gradient-18);
      }

      .cls-38 {
        clip-path: url(#clip-path-19);
      }

      .cls-39 {
        fill: url(#linear-gradient-19);
      }

      .cls-40 {
        clip-path: url(#clip-path-20);
      }

      .cls-41 {
        clip-path: url(#clip-path-21);
      }

      .cls-42 {
        fill: url(#linear-gradient-21);
      }

      .cls-43 {
        clip-path: url(#clip-path-22);
      }

      .cls-44 {
        clip-path: url(#clip-path-23);
      }

      .cls-45 {
        fill: url(#linear-gradient-23);
      }

      .cls-46 {
        clip-path: url(#clip-path-24);
      }
    </style>
    <clipPath id="clip-path">
      <path id="Path_12220" data-name="Path 12220" class="cls-1" d="M146-75.835A71.521,71.521,0,0,1,124.13-26.571h0A71.721,71.721,0,0,1,74-6.3h0a66.38,66.38,0,0,1-11.824-.984h0a1,1,0,0,0-1.16.808h0a1,1,0,0,0,.807,1.161h0A68.363,68.363,0,0,0,74-4.3h0a73.71,73.71,0,0,0,51.52-20.831h0A73.517,73.517,0,0,0,148-75.768h0a1,1,0,0,0-.967-1.033h-.042a1,1,0,0,0-.99.966" transform="translate(0 166.701)"/>
    </clipPath>
    <linearGradient id="linear-gradient" x1="0.093" y1="0.563" x2="0.869" y2="0.563" gradientUnits="objectBoundingBox">
      <stop offset="0" stop-color="#ffdd80"/>
      <stop offset="0.1" stop-color="#fcd679"/>
      <stop offset="0.2" stop-color="#facf72"/>
      <stop offset="0.3" stop-color="#f8c76a"/>
      <stop offset="0.4" stop-color="#f6c063"/>
      <stop offset="0.5" stop-color="#f3b85b"/>
      <stop offset="0.6" stop-color="#f1b154"/>
      <stop offset="0.7" stop-color="#efaa4d"/>
      <stop offset="0.8" stop-color="#eda245"/>
      <stop offset="0.9" stop-color="#eb9b3e"/>
      <stop offset="1" stop-color="#e89336"/>
    </linearGradient>
    <clipPath id="clip-path-2">
      <path id="Path_12222" data-name="Path 12222" class="cls-1" d="M102.887-145.311a1,1,0,0,0,.5,1.321h0a72.358,72.358,0,0,1,30.282,25.45h0a1,1,0,0,0,.828.438h0a.991.991,0,0,0,.56-.172h0a1,1,0,0,0,.267-1.389h0a74.342,74.342,0,0,0-31.12-26.151h0a.984.984,0,0,0-.408-.088h0a1,1,0,0,0-.913.591" transform="translate(0 166.701)"/>
    </clipPath>
    <linearGradient id="linear-gradient-2" x1="0.093" y1="0.28" x2="0.869" y2="0.28" xlink:href="#linear-gradient"/>
    <clipPath id="clip-path-3">
      <path id="Path_12224" data-name="Path 12224" class="cls-1" d="M57.577-150.476a74.416,74.416,0,0,0-41.142,25.708h0A74.136,74.136,0,0,0,0-78.3H0A73.587,73.587,0,0,0,14.4-34.408h0A1,1,0,0,0,15.2-34h0a.993.993,0,0,0,.591-.194h0a1,1,0,0,0,.214-1.4h0A71.6,71.6,0,0,1,2-78.3H2a72.135,72.135,0,0,1,15.99-45.209h0a72.418,72.418,0,0,1,40.032-25.016h0a1,1,0,0,0,.753-1.2h0a1,1,0,0,0-.971-.779h0a.984.984,0,0,0-.227.027" transform="translate(0 166.701)"/>
    </clipPath>
    <linearGradient id="linear-gradient-3" x1="0.093" y1="0.646" x2="0.869" y2="0.646" xlink:href="#linear-gradient"/>
    <clipPath id="clip-path-4">
      <path id="Path_12226" data-name="Path 12226" class="cls-1" d="M108.455-96l-.381.19a4.528,4.528,0,0,0-2.184,5.922h0l8.805,19.209a4.543,4.543,0,0,0,4.1,2.586h0a4.285,4.285,0,0,0,1.855-.418h0l.377-.188a4.528,4.528,0,0,0,2.183-5.923h0L114.4-93.828a4.54,4.54,0,0,0-4.1-2.586h0a4.284,4.284,0,0,0-1.852.417m8.054,24.478-8.8-19.208a2.509,2.509,0,0,1,1.24-3.28h0l.382-.191a2.293,2.293,0,0,1,.98-.217h0a2.564,2.564,0,0,1,2.284,1.43h0l8.8,19.208a2.511,2.511,0,0,1-1.243,3.282h0l-.377.189a2.211,2.211,0,0,1-.942.2h0a2.615,2.615,0,0,1-2.324-1.417" transform="translate(0 166.701)"/>
    </clipPath>
    <linearGradient id="linear-gradient-4" x1="0.093" y1="0.424" x2="0.869" y2="0.424" xlink:href="#linear-gradient"/>
    <clipPath id="clip-path-5">
      <path id="Path_12228" data-name="Path 12228" class="cls-1" d="M136.953-130.4l-.379.189a4.527,4.527,0,0,0-2.184,5.921h0L159.3-69.676a4.537,4.537,0,0,0,4.1,2.586h0a4.288,4.288,0,0,0,1.854-.417h0l.379-.189a4.528,4.528,0,0,0,2.184-5.921h0l-24.9-54.61a4.539,4.539,0,0,0-4.1-2.586h0a4.3,4.3,0,0,0-1.853.417M161.11-70.517,136.2-125.127a2.509,2.509,0,0,1,1.243-3.281h0l.379-.189a2.281,2.281,0,0,1,.98-.216h0a2.561,2.561,0,0,1,2.284,1.426h0L166-72.777a2.508,2.508,0,0,1-1.243,3.281h0l-.379.19a2.194,2.194,0,0,1-.942.205h0a2.614,2.614,0,0,1-2.322-1.416" transform="translate(0 166.701)"/>
    </clipPath>
    <linearGradient id="linear-gradient-5" x1="0.093" y1="0.265" x2="0.869" y2="0.265" xlink:href="#linear-gradient"/>
    <clipPath id="clip-path-6">
      <path id="Path_12230" data-name="Path 12230" class="cls-1" d="M135.127-125.487a1,1,0,0,0-.824.9h0c-1.723,21.064-21.823,28.165-22.025,28.234h0a1,1,0,0,0-.6.55h0a.994.994,0,0,0,.007.81h0l10.5,23.1a1,1,0,0,0,.608.539h0a1,1,0,0,0,.807-.09h0a37.5,37.5,0,0,1,17.125-4.279h0a31.2,31.2,0,0,1,18.683,6.125h0a1,1,0,0,0,.588.19h.02a1,1,0,0,0,1-1h0a1,1,0,0,0-.186-.58h0L136.21-124.918a1,1,0,0,0-.91-.584h0a1.011,1.011,0,0,0-.173.015M113.945-94.859c4.036-1.706,18.765-9.024,21.891-26.064h0l21.816,47.788a32.931,32.931,0,0,0-16.923-4.582h0a39.664,39.664,0,0,0-17.159,4.033h0Z" transform="translate(0 166.701)"/>
    </clipPath>
    <linearGradient id="linear-gradient-6" x1="0.093" y1="0.336" x2="0.869" y2="0.336" xlink:href="#linear-gradient"/>
    <clipPath id="clip-path-7">
      <path id="Path_12232" data-name="Path 12232" class="cls-1" d="M105.583-93.311,89.853-86.1l-.36.18c-2.16.962-2.9,3.355-1.8,5.828h0l7.4,16.292c.732,1.649,2.373,3.314,4.387,3.314h0a3.546,3.546,0,0,0,1.472-.325h0l16.071-7.385a1,1,0,0,0,.493-1.324h0l-10.6-23.3a1,1,0,0,0-.561-.523h0A.979.979,0,0,0,106-93.4h0a.993.993,0,0,0-.417.092M96.91-64.616l-7.4-16.291c-.508-1.142-.566-2.577.832-3.2h0L105.5-91.076l9.772,21.482-14.822,6.8-.361.18a1.5,1.5,0,0,1-.621.135h0a3.283,3.283,0,0,1-2.563-2.134" transform="translate(0 166.701)"/>
    </clipPath>
    <linearGradient id="linear-gradient-7" x1="0.093" y1="0.478" x2="0.869" y2="0.478" xlink:href="#linear-gradient"/>
    <clipPath id="clip-path-8">
      <path id="Path_12234" data-name="Path 12234" class="cls-1" d="M48.8-131.84c-1.575,1.831-1.641,4.576-1.565,5.909h0c-4.193,1.818-26.91,11.674-32.052,14.019h0a4.96,4.96,0,0,0-2.934,3.3h0c-.924,3.486,1.952,7.849,2.466,8.589h0c.685,1.687,9.3,22.978,10.908,30.541h0c.776,3.392,1.669,13.66,1.678,13.764h0a1,1,0,0,0,.839.9h0l29.4,4.7a.955.955,0,0,0,.158.014h.021a1,1,0,0,0,1-1h0a1,1,0,0,0-.182-.575h0L53.924-61.985l-3-7.242,10.926.524a1,1,0,0,0,1.023-.774h0l5.1-22.1a1,1,0,0,0-.109-.725h0L56.74-111.552c1.5-1.588,5.494-5.9,6.459-8.013h0a10.6,10.6,0,0,0-.8-9.466h0c-1.305-2.086-4-4.57-9.4-4.57h0a5.267,5.267,0,0,0-4.2,1.761M29.227-56.666c-.227-2.5-.965-10.253-1.649-13.244h0c-1.7-7.995-10.671-30.035-11.052-30.97h0a1.049,1.049,0,0,0-.115-.207h0c-.831-1.151-2.851-4.655-2.226-7.009h0a3.007,3.007,0,0,1,1.831-2h0c5.625-2.566,32.412-14.176,32.681-14.292h0a1,1,0,0,0,.591-1.067h0c-.138-.92-.224-3.628,1.03-5.084h0A3.316,3.316,0,0,1,53-131.6h0c3.553,0,6.218,1.256,7.705,3.631h0a8.584,8.584,0,0,1,.686,7.553h0c-.843,1.84-5.057,6.415-6.61,8.022h0a1,1,0,0,0-.146,1.2h0l11.3,19.558-4.823,20.9L49.448-71.3a.979.979,0,0,0-.866.424h0a1,1,0,0,0-.106.958h0l3.611,8.725,3.944,8.813Z" transform="translate(0 166.701)"/>
    </clipPath>
    <linearGradient id="linear-gradient-8" x1="0.093" y1="0.619" x2="0.869" y2="0.619" xlink:href="#linear-gradient"/>
    <clipPath id="clip-path-9">
      <path id="Path_12236" data-name="Path 12236" class="cls-1" d="M116.173-65.706l-14.2,6.7a1,1,0,0,0-.574.909h0l.1,21.6a1,1,0,0,0,.394.791h0a1.008,1.008,0,0,0,.606.2h0a1.014,1.014,0,0,0,.262-.035h0l8.1-2.2a1,1,0,0,0,.628-.511h0l5-9.8a1,1,0,0,0,.107-.393h0l1-16.3a1,1,0,0,0-.438-.889h0a1,1,0,0,0-.561-.172h0a1,1,0,0,0-.426.1M103.4-57.469,115.5-63.176l-.884,14.406-4.7,9.219-6.416,1.744Z" transform="translate(0 166.701)"/>
    </clipPath>
    <linearGradient id="linear-gradient-9" x1="0.093" y1="0.522" x2="0.869" y2="0.522" xlink:href="#linear-gradient"/>
    <clipPath id="clip-path-10">
      <path id="Path_12238" data-name="Path 12238" class="cls-1" d="M27.527-56.435c-.681.829-16.658,20.421-15.719,28.657h0c.667,5.34,6.181,12.184,14.748,18.3h0C34.545-3.769,43.311-.05,48.887,0h.137c15.415,0,48.3-33.861,49.7-35.307h0A1,1,0,0,0,99-36h0V-50.1A1,1,0,0,0,98.447-51h0A1.007,1.007,0,0,0,97.4-50.9h0c-.288.217-28.982,21.7-42.713,24.623h0c-2.31.51-7.64-6.694-10.519-11.72h0a1,1,0,0,0-1.364-.371h0A1,1,0,0,0,42.432-37h0c1.313,2.293,8.1,13.687,12.676,12.68h0c12.4-2.64,35.554-19.149,41.892-23.8h0v11.709C93.723-33.066,62.882-2,49.029-2h-.12c-10.985-.1-33.822-15.67-35.116-26.013h0c-.7-6.135,10.793-21.681,15.281-27.154h0a1,1,0,0,0-.141-1.407h0A.992.992,0,0,0,28.3-56.8h0a1,1,0,0,0-.774.366" transform="translate(0 166.701)"/>
    </clipPath>
    <linearGradient id="linear-gradient-10" x1="0.093" y1="0.728" x2="0.869" y2="0.728" xlink:href="#linear-gradient"/>
    <clipPath id="clip-path-11">
      <path id="Path_12240" data-name="Path 12240" class="cls-1" d="M76.141-136.189a1,1,0,0,0-.71.492h0l-17,29.8a1,1,0,0,0,.372,1.364h0a1,1,0,0,0,1.365-.374h0l16.384-28.72,5.636,5.071c-1.342,5.614-11.037,46.568-11.887,61.6h0c-.5,8.378,1.612,32.619,1.7,33.647h0a1,1,0,0,0,1,.912h0c.03,0,.058,0,.088,0h0A1,1,0,0,0,74-33.488h0c-.022-.251-2.188-25.124-1.7-33.357h0c.886-15.628,11.863-61.363,11.974-61.823h0a1,1,0,0,0-.3-.978h0l-7-6.3a.99.99,0,0,0-.666-.258h0a.983.983,0,0,0-.162.013" transform="translate(0 166.701)"/>
    </clipPath>
    <linearGradient id="linear-gradient-11" x1="0.093" y1="0.542" x2="0.869" y2="0.542" xlink:href="#linear-gradient"/>
    <clipPath id="clip-path-12">
      <path id="Path_12242" data-name="Path 12242" class="cls-1" d="M80.789-153.88a1,1,0,0,0-.763.752h0l-3.5,15.1a1,1,0,0,0,.748,1.2h0a1,1,0,0,0,1.2-.749h0l3-12.952a13.2,13.2,0,0,1,1.742,3.111h0c.19,1.013-.447,4.393-.891,6.285h0a1,1,0,0,0,.071.661h0l2.2,4.6a1,1,0,0,0,.9.569h0a.994.994,0,0,0,.431-.1h0a1,1,0,0,0,.471-1.333h0l-2.05-4.285c.311-1.373,1.122-5.212.827-6.78h0c-.328-1.643-2.878-5.045-3.385-5.71h0a1,1,0,0,0-.792-.4h0a.981.981,0,0,0-.214.023" transform="translate(0 166.701)"/>
    </clipPath>
    <linearGradient id="linear-gradient-12" x1="0.093" y1="0.373" x2="0.869" y2="0.373" xlink:href="#linear-gradient"/>
    <clipPath id="clip-path-13">
      <path id="Path_12244" data-name="Path 12244" class="cls-1" d="M77.356-163.291c-10.558,1.537-19.932,12.676-20.325,13.149h0a1,1,0,0,0-.116,1.107h0a.987.987,0,0,0,.979.528h0A20.038,20.038,0,0,1,74.9-141.7h0a1,1,0,0,0,1.4.188h0a1,1,0,0,0,.19-1.4h0a21.581,21.581,0,0,0-16.335-7.7h0c3.058-3.166,10.1-9.634,17.478-10.709h0c5.576-.777,13.948,6.76,23.648,15.493h0l.4.357c-2.338.91-5.946,3.678-7.608,12.053h0a14.23,14.23,0,0,0-5.134-3.732h0a1,1,0,0,0-1.282.6h0a1,1,0,0,0,.6,1.281h0c2.965,1.077,5.6,4.707,5.63,4.744h0a1,1,0,0,0,.812.417h0a.972.972,0,0,0,.239-.03h0a1,1,0,0,0,.752-.83h0c1.829-12.9,7.827-12.9,8.066-12.943h0a1,1,0,0,0,.969-.622h0a1,1,0,0,0-.259-1.12h0l-1.843-1.659c-9.9-8.917-17.847-16.061-24.168-16.061h0a8.012,8.012,0,0,0-1.1.075" transform="translate(0 166.701)"/>
    </clipPath>
    <linearGradient id="linear-gradient-13" x1="0.093" y1="0.363" x2="0.869" y2="0.363" xlink:href="#linear-gradient"/>
    <clipPath id="clip-path-14">
      <path id="Path_12246" data-name="Path 12246" class="cls-1" d="M86.793-133.309l-1.5,1.5a1,1,0,0,0,0,1.414h0A.994.994,0,0,0,86-130.1h0a.994.994,0,0,0,.707-.294h0l1.5-1.5a1,1,0,0,0,0-1.415h0a1,1,0,0,0-.707-.293h0a1,1,0,0,0-.707.293" transform="translate(0 166.701)"/>
    </clipPath>
    <linearGradient id="linear-gradient-14" x1="0.093" y1="0.384" x2="0.869" y2="0.384" xlink:href="#linear-gradient"/>
    <clipPath id="clip-path-15">
      <path id="Path_12248" data-name="Path 12248" class="cls-1" d="M177.983-88.3l-6,.1A1,1,0,0,0,171-87.185h0a1,1,0,0,0,1,.984h.017l6-.1A1,1,0,0,0,179-87.318h0a1,1,0,0,0-1-.984h0Z" transform="translate(0 166.701)"/>
    </clipPath>
    <linearGradient id="linear-gradient-15" x1="0.093" y1="0.22" x2="0.869" y2="0.22" xlink:href="#linear-gradient"/>
    <clipPath id="clip-path-16">
      <path id="Path_12250" data-name="Path 12250" class="cls-1" d="M160.942-128.816l-5.1,8.5a1,1,0,0,0,.342,1.372h0a1,1,0,0,0,.514.142h0a1,1,0,0,0,.859-.485h0l5.1-8.5a1,1,0,0,0-.343-1.372h0a1,1,0,0,0-.515-.144h0a1,1,0,0,0-.857.487" transform="translate(0 166.701)"/>
    </clipPath>
    <linearGradient id="linear-gradient-16" x1="0.093" y1="0.174" x2="0.869" y2="0.174" xlink:href="#linear-gradient"/>
    <clipPath id="clip-path-17">
      <path id="Path_12252" data-name="Path 12252" class="cls-1" d="M169.179-114.155l-5.9,3.6a1,1,0,0,0-.333,1.374h0a1,1,0,0,0,.855.48h0a.991.991,0,0,0,.52-.147h0l5.9-3.6a1,1,0,0,0,.333-1.374h0a1,1,0,0,0-.854-.48h0a.992.992,0,0,0-.521.147" transform="translate(0 166.701)"/>
    </clipPath>
    <linearGradient id="linear-gradient-17" x1="0.093" y1="0.183" x2="0.869" y2="0.183" xlink:href="#linear-gradient"/>
    <clipPath id="clip-path-18">
      <path id="Path_12254" data-name="Path 12254" class="cls-1" d="M178.093-104.115l-11,4.9a1,1,0,0,0-.507,1.32h0a1,1,0,0,0,.915.593h0a.977.977,0,0,0,.406-.087h0l11-4.9a1,1,0,0,0,.594-.882h0v-.061a1,1,0,0,0-.087-.377h0a1,1,0,0,0-.914-.594h0a.993.993,0,0,0-.406.087" transform="translate(0 166.701)"/>
    </clipPath>
    <linearGradient id="linear-gradient-18" x1="0.093" y1="0.191" x2="0.869" y2="0.191" xlink:href="#linear-gradient"/>
    <clipPath id="clip-path-19">
      <path id="Path_12256" data-name="Path 12256" class="cls-1" d="M121-156.7v10a1,1,0,0,0,1,1h0a1,1,0,0,0,1-1h0v-10a1,1,0,0,0-1-1h0a1,1,0,0,0-1,1" transform="translate(0 166.701)"/>
    </clipPath>
    <linearGradient id="linear-gradient-19" x1="0.093" y1="0.221" x2="0.869" y2="0.221" xlink:href="#linear-gradient"/>
    <clipPath id="clip-path-20">
      <path id="Path_12258" data-name="Path 12258" class="cls-1" d="M117-152.7a1,1,0,0,0-1,1h0a1,1,0,0,0,1,1h10a1,1,0,0,0,1-1h0a1,1,0,0,0-1-1H117Z" transform="translate(0 166.701)"/>
    </clipPath>
    <clipPath id="clip-path-21">
      <path id="Path_12260" data-name="Path 12260" class="cls-1" d="M47-166.7a1,1,0,0,0-1,1h0v8a1,1,0,0,0,1,1h0a1,1,0,0,0,1-1h0v-8A1,1,0,0,0,47-166.7Z" transform="translate(0 166.701)"/>
    </clipPath>
    <linearGradient id="linear-gradient-21" x1="0.093" y1="0.433" x2="0.869" y2="0.433" xlink:href="#linear-gradient"/>
    <clipPath id="clip-path-22">
      <path id="Path_12262" data-name="Path 12262" class="cls-1" d="M43-162.7a1,1,0,0,0-1,1h0a1,1,0,0,0,1,1h8a1,1,0,0,0,1-1h0a1,1,0,0,0-1-1H43Z" transform="translate(0 166.701)"/>
    </clipPath>
    <clipPath id="clip-path-23">
      <path id="Path_12264" data-name="Path 12264" class="cls-1" d="M102-166.7a1,1,0,0,0-1,1h0v4a1,1,0,0,0,1,1h0a1,1,0,0,0,1-1h0v-4A1,1,0,0,0,102-166.7Z" transform="translate(0 166.701)"/>
    </clipPath>
    <linearGradient id="linear-gradient-23" x1="0.093" y1="0.253" x2="0.869" y2="0.253" xlink:href="#linear-gradient"/>
    <clipPath id="clip-path-24">
      <path id="Path_12266" data-name="Path 12266" class="cls-1" d="M100-164.7a1,1,0,0,0-1,1h0a1,1,0,0,0,1,1h4a1,1,0,0,0,1-1h0a1,1,0,0,0-1-1h-4Z" transform="translate(0 166.701)"/>
    </clipPath>
  </defs>
  <g id="Group_13330" data-name="Group 13330" transform="translate(454 -1615.999)">
    <g id="Group_13283" data-name="Group 13283" class="cls-2">
      <g id="Group_13282" data-name="Group 13282">
        <path id="Path_12219" data-name="Path 12219" class="cls-3" d="M-22.548,1.618,90.858-137.52,220.075-32.2,106.668,106.938Z" transform="matrix(0.632, 0.775, -0.775, 0.632, 15.5, 16.456)"/>
      </g>
    </g>
    <g id="Group_13285" data-name="Group 13285" class="cls-4">
      <g id="Group_13284" data-name="Group 13284">
        <path id="Path_12221" data-name="Path 12221" class="cls-5" d="M-22.548,70.578,90.858-68.56,220.075,36.76,106.668,175.9Z" transform="matrix(0.632, 0.775, -0.775, 0.632, 68.953, -27.112)"/>
      </g>
    </g>
    <g id="Group_13287" data-name="Group 13287" class="cls-6">
      <g id="Group_13286" data-name="Group 13286">
        <path id="Path_12223" data-name="Path 12223" class="cls-7" d="M-22.548-18.744,90.859-157.881,220.075-52.561,106.668,86.576Z" transform="matrix(0.632, 0.775, -0.775, 0.632, -0.284, 29.32)"/>
      </g>
    </g>
    <g id="Group_13289" data-name="Group 13289" class="cls-8">
      <g id="Group_13288" data-name="Group 13288">
        <path id="Path_12225" data-name="Path 12225" class="cls-9" d="M-22.548,35.438,90.858-103.7,220.075,1.621,106.668,140.758Z" transform="matrix(0.632, 0.775, -0.775, 0.632, 41.715, -4.911)"/>
      </g>
    </g>
    <g id="Group_13291" data-name="Group 13291" class="cls-10">
      <g id="Group_13290" data-name="Group 13290">
        <path id="Path_12227" data-name="Path 12227" class="cls-11" d="M-22.548,74.32,90.858-64.817,220.075,40.5,106.668,179.64Z" transform="matrix(0.632, 0.775, -0.775, 0.632, 71.854, -29.477)"/>
      </g>
    </g>
    <g id="Group_13293" data-name="Group 13293" class="cls-12">
      <g id="Group_13292" data-name="Group 13292">
        <path id="Path_12229" data-name="Path 12229" class="cls-13" d="M-22.548,57,90.858-82.14,220.075,23.18,106.668,162.317Z" transform="matrix(0.632, 0.775, -0.775, 0.632, 58.426, -18.532)"/>
      </g>
    </g>
    <g id="Group_13295" data-name="Group 13295" class="cls-14">
      <g id="Group_13294" data-name="Group 13294">
        <path id="Path_12231" data-name="Path 12231" class="cls-15" d="M-22.548,22.346,90.858-116.792,220.075-11.471,106.668,127.666Z" transform="matrix(0.632, 0.775, -0.775, 0.632, 31.567, 3.36)"/>
      </g>
    </g>
    <g id="Group_13297" data-name="Group 13297" class="cls-16">
      <g id="Group_13296" data-name="Group 13296">
        <path id="Path_12233" data-name="Path 12233" class="cls-17" d="M-22.549-12.244,90.858-151.381,220.074-46.061,106.668,93.076Z" transform="translate(4.755 25.214) rotate(50.818)"/>
      </g>
    </g>
    <g id="Group_13299" data-name="Group 13299" class="cls-18">
      <g id="Group_13298" data-name="Group 13298">
        <path id="Path_12235" data-name="Path 12235" class="cls-19" d="M-22.548,11.6,90.858-127.541,220.075-22.22,106.668,116.917Z" transform="translate(23.235 10.151) rotate(50.818)"/>
      </g>
    </g>
    <g id="Group_13301" data-name="Group 13301" class="cls-20">
      <g id="Group_13300" data-name="Group 13300">
        <path id="Path_12237" data-name="Path 12237" class="cls-21" d="M-22.548-38.75,90.858-177.887,220.075-72.567,106.668,66.571Z" transform="matrix(0.632, 0.775, -0.775, 0.632, -15.791, 41.96)"/>
      </g>
    </g>
    <g id="Group_13303" data-name="Group 13303" class="cls-22">
      <g id="Group_13302" data-name="Group 13302">
        <path id="Path_12239" data-name="Path 12239" class="cls-23" d="M-22.548,6.528,90.859-132.609,220.075-27.289,106.669,111.848Z" transform="matrix(0.632, 0.775, -0.775, 0.632, 19.306, 13.353)"/>
      </g>
    </g>
    <g id="Group_13305" data-name="Group 13305" class="cls-24">
      <g id="Group_13304" data-name="Group 13304">
        <path id="Path_12241" data-name="Path 12241" class="cls-25" d="M-22.549,47.941,90.858-91.2,220.074,14.124,106.668,153.262Z" transform="matrix(0.632, 0.775, -0.775, 0.632, 51.407, -12.811)"/>
      </g>
    </g>
    <g id="Group_13307" data-name="Group 13307" class="cls-26">
      <g id="Group_13306" data-name="Group 13306">
        <path id="Path_12243" data-name="Path 12243" class="cls-27" d="M-22.548,50.312,90.859-88.826,220.075,16.495,106.668,155.632Z" transform="matrix(0.632, 0.775, -0.775, 0.632, 53.244, -14.309)"/>
      </g>
    </g>
    <g id="Group_13309" data-name="Group 13309" class="cls-28">
      <g id="Group_13308" data-name="Group 13308">
        <path id="Path_12245" data-name="Path 12245" class="cls-29" d="M-22.548,45.225,90.858-93.912,220.075,11.408,106.668,150.546Z" transform="matrix(0.632, 0.775, -0.775, 0.632, 49.302, -11.095)"/>
      </g>
    </g>
    <g id="Group_13311" data-name="Group 13311" class="cls-30">
      <g id="Group_13310" data-name="Group 13310">
        <path id="Path_12247" data-name="Path 12247" class="cls-31" d="M-22.548,85.454,90.858-53.684,220.075,51.637,106.668,190.774Z" transform="matrix(0.632, 0.775, -0.775, 0.632, 80.484, -36.511)"/>
      </g>
    </g>
    <g id="Group_13313" data-name="Group 13313" class="cls-32">
      <g id="Group_13312" data-name="Group 13312">
        <path id="Path_12249" data-name="Path 12249" class="cls-33" d="M-22.548,96.5,90.858-42.642,220.074,62.678,106.668,201.815Z" transform="matrix(0.632, 0.775, -0.775, 0.632, 89.043, -43.486)"/>
      </g>
    </g>
    <g id="Group_13315" data-name="Group 13315" class="cls-34">
      <g id="Group_13314" data-name="Group 13314">
        <path id="Path_12251" data-name="Path 12251" class="cls-35" d="M-22.548,94.38,90.858-44.757,220.075,60.563,106.668,199.7Z" transform="translate(87.403 -42.151) rotate(50.818)"/>
      </g>
    </g>
    <g id="Group_13317" data-name="Group 13317" class="cls-36">
      <g id="Group_13316" data-name="Group 13316">
        <path id="Path_12253" data-name="Path 12253" class="cls-37" d="M-22.548,92.432,90.858-46.705,220.075,58.615,106.668,197.753Z" transform="matrix(0.632, 0.775, -0.775, 0.632, 85.894, -40.92)"/>
      </g>
    </g>
    <g id="Group_13319" data-name="Group 13319" class="cls-38">
      <g id="Group_13318" data-name="Group 13318">
        <path id="Path_12255" data-name="Path 12255" class="cls-39" d="M-22.548,85.09,90.859-54.047,220.075,51.273,106.669,190.41Z" transform="matrix(0.632, 0.775, -0.775, 0.632, 80.202, -36.281)"/>
      </g>
    </g>
    <g id="Group_13321" data-name="Group 13321" class="cls-40">
      <g id="Group_13320" data-name="Group 13320">
        <path id="Path_12257" data-name="Path 12257" class="cls-39" d="M-22.548,85.09,90.858-54.047,220.075,51.273,106.668,190.411Z" transform="matrix(0.632, 0.775, -0.775, 0.632, 80.203, -36.281)"/>
      </g>
    </g>
    <g id="Group_13323" data-name="Group 13323" class="cls-41">
      <g id="Group_13322" data-name="Group 13322">
        <path id="Path_12259" data-name="Path 12259" class="cls-42" d="M-22.548,33.272,90.858-105.865,220.075-.545,106.668,138.593Z" transform="matrix(0.632, 0.775, -0.775, 0.632, 40.037, -3.543)"/>
      </g>
    </g>
    <g id="Group_13325" data-name="Group 13325" class="cls-43">
      <g id="Group_13324" data-name="Group 13324">
        <path id="Path_12261" data-name="Path 12261" class="cls-42" d="M-22.548,33.272,90.858-105.865,220.075-.545,106.668,138.593Z" transform="matrix(0.632, 0.775, -0.775, 0.632, 40.037, -3.543)"/>
      </g>
    </g>
    <g id="Group_13327" data-name="Group 13327" class="cls-44">
      <g id="Group_13326" data-name="Group 13326">
        <path id="Path_12263" data-name="Path 12263" class="cls-45" d="M-22.548,77.169,90.858-61.969,220.075,43.351,106.668,182.489Z" transform="matrix(0.632, 0.775, -0.775, 0.632, 74.062, -31.277)"/>
      </g>
    </g>
    <g id="Group_13329" data-name="Group 13329" class="cls-46">
      <g id="Group_13328" data-name="Group 13328">
        <path id="Path_12265" data-name="Path 12265" class="cls-45" d="M-22.548,77.169,90.858-61.969,220.075,43.351,106.668,182.489Z" transform="matrix(0.632, 0.775, -0.775, 0.632, 74.062, -31.277)"/>
      </g>
    </g>
  </g>
</svg>
